G04 #@! TF.FileFunction,Copper,L2,Bot,Signal*
%FSLAX46Y46*%
G04 Gerber Fmt 4.6, Leading zero omitted, Abs format (unit mm)*
G04 Created by KiCad (PCBNEW 4.0.2-stable) date Sunday, October 09, 2016 'PMt' 11:06:17 PM*
%MOMM*%
G01*
G04 APERTURE LIST*
%ADD10C,0.100000*%
%ADD11C,0.203200*%
%ADD12C,1.198880*%
%ADD13C,2.499360*%
%ADD14R,0.800000X0.750000*%
%ADD15C,6.000000*%
%ADD16R,0.500000X0.900000*%
%ADD17R,1.450000X0.450000*%
%ADD18C,1.524000*%
%ADD19C,1.500000*%
%ADD20C,0.609600*%
%ADD21C,0.254000*%
%ADD22C,0.558800*%
%ADD23C,0.304800*%
G04 APERTURE END LIST*
D10*
D11*
X14687924Y-22889285D02*
X14283162Y-22605952D01*
X14687924Y-22403571D02*
X13837924Y-22403571D01*
X13837924Y-22727380D01*
X13878400Y-22808333D01*
X13918876Y-22848809D01*
X13999829Y-22889285D01*
X14121257Y-22889285D01*
X14202210Y-22848809D01*
X14242686Y-22808333D01*
X14283162Y-22727380D01*
X14283162Y-22403571D01*
X14687924Y-23253571D02*
X13837924Y-23253571D01*
X13837924Y-23577380D01*
X13878400Y-23658333D01*
X13918876Y-23698809D01*
X13999829Y-23739285D01*
X14121257Y-23739285D01*
X14202210Y-23698809D01*
X14242686Y-23658333D01*
X14283162Y-23577380D01*
X14283162Y-23253571D01*
X14687924Y-24103571D02*
X14121257Y-24103571D01*
X13837924Y-24103571D02*
X13878400Y-24063095D01*
X13918876Y-24103571D01*
X13878400Y-24144047D01*
X13837924Y-24103571D01*
X13918876Y-24103571D01*
X13837924Y-25317857D02*
X13837924Y-25398809D01*
X13878400Y-25479761D01*
X13918876Y-25520238D01*
X13999829Y-25560714D01*
X14161733Y-25601190D01*
X14364114Y-25601190D01*
X14526019Y-25560714D01*
X14606971Y-25520238D01*
X14647448Y-25479761D01*
X14687924Y-25398809D01*
X14687924Y-25317857D01*
X14647448Y-25236904D01*
X14606971Y-25196428D01*
X14526019Y-25155952D01*
X14364114Y-25115476D01*
X14161733Y-25115476D01*
X13999829Y-25155952D01*
X13918876Y-25196428D01*
X13878400Y-25236904D01*
X13837924Y-25317857D01*
X14687924Y-26613095D02*
X13837924Y-26613095D01*
X13837924Y-26936904D01*
X13878400Y-27017857D01*
X13918876Y-27058333D01*
X13999829Y-27098809D01*
X14121257Y-27098809D01*
X14202210Y-27058333D01*
X14242686Y-27017857D01*
X14283162Y-26936904D01*
X14283162Y-26613095D01*
X14687924Y-27584524D02*
X14647448Y-27503571D01*
X14606971Y-27463095D01*
X14526019Y-27422619D01*
X14283162Y-27422619D01*
X14202210Y-27463095D01*
X14161733Y-27503571D01*
X14121257Y-27584524D01*
X14121257Y-27705952D01*
X14161733Y-27786904D01*
X14202210Y-27827381D01*
X14283162Y-27867857D01*
X14526019Y-27867857D01*
X14606971Y-27827381D01*
X14647448Y-27786904D01*
X14687924Y-27705952D01*
X14687924Y-27584524D01*
X14242686Y-28232143D02*
X14242686Y-28515476D01*
X14687924Y-28636905D02*
X14687924Y-28232143D01*
X13837924Y-28232143D01*
X13837924Y-28636905D01*
X16081124Y-21857143D02*
X15514457Y-21857143D01*
X15231124Y-21857143D02*
X15271600Y-21816667D01*
X15312076Y-21857143D01*
X15271600Y-21897619D01*
X15231124Y-21857143D01*
X15312076Y-21857143D01*
X16081124Y-22261905D02*
X15231124Y-22261905D01*
X16081124Y-22626191D02*
X15635886Y-22626191D01*
X15554933Y-22585714D01*
X15514457Y-22504762D01*
X15514457Y-22383334D01*
X15554933Y-22302381D01*
X15595410Y-22261905D01*
X16081124Y-23395239D02*
X15635886Y-23395239D01*
X15554933Y-23354762D01*
X15514457Y-23273810D01*
X15514457Y-23111905D01*
X15554933Y-23030953D01*
X16040648Y-23395239D02*
X16081124Y-23314286D01*
X16081124Y-23111905D01*
X16040648Y-23030953D01*
X15959695Y-22990477D01*
X15878743Y-22990477D01*
X15797790Y-23030953D01*
X15757314Y-23111905D01*
X15757314Y-23314286D01*
X15716838Y-23395239D01*
X16081124Y-23800001D02*
X15514457Y-23800001D01*
X15676362Y-23800001D02*
X15595410Y-23840477D01*
X15554933Y-23880953D01*
X15514457Y-23961906D01*
X15514457Y-24042858D01*
X15514457Y-24204762D02*
X15514457Y-24528572D01*
X15231124Y-24326191D02*
X15959695Y-24326191D01*
X16040648Y-24366667D01*
X16081124Y-24447620D01*
X16081124Y-24528572D01*
X15514457Y-24730953D02*
X16081124Y-24892857D01*
X15676362Y-25054762D01*
X16081124Y-25216667D01*
X15514457Y-25378572D01*
X16081124Y-25702381D02*
X15514457Y-25702381D01*
X15231124Y-25702381D02*
X15271600Y-25661905D01*
X15312076Y-25702381D01*
X15271600Y-25742857D01*
X15231124Y-25702381D01*
X15312076Y-25702381D01*
X15514457Y-26471429D02*
X16202552Y-26471429D01*
X16283505Y-26430952D01*
X16323981Y-26390476D01*
X16364457Y-26309524D01*
X16364457Y-26188095D01*
X16323981Y-26107143D01*
X16040648Y-26471429D02*
X16081124Y-26390476D01*
X16081124Y-26228572D01*
X16040648Y-26147619D01*
X16000171Y-26107143D01*
X15919219Y-26066667D01*
X15676362Y-26066667D01*
X15595410Y-26107143D01*
X15554933Y-26147619D01*
X15514457Y-26228572D01*
X15514457Y-26390476D01*
X15554933Y-26471429D01*
X15231124Y-27564286D02*
X15393029Y-27483334D01*
X16081124Y-28373810D02*
X16081124Y-27888096D01*
X16081124Y-28130953D02*
X15231124Y-28130953D01*
X15352552Y-28050001D01*
X15433505Y-27969048D01*
X15473981Y-27888096D01*
X15231124Y-29102382D02*
X15231124Y-28940477D01*
X15271600Y-28859525D01*
X15312076Y-28819048D01*
X15433505Y-28738096D01*
X15595410Y-28697620D01*
X15919219Y-28697620D01*
X16000171Y-28738096D01*
X16040648Y-28778572D01*
X16081124Y-28859525D01*
X16081124Y-29021429D01*
X16040648Y-29102382D01*
X16000171Y-29142858D01*
X15919219Y-29183334D01*
X15716838Y-29183334D01*
X15635886Y-29142858D01*
X15595410Y-29102382D01*
X15554933Y-29021429D01*
X15554933Y-28859525D01*
X15595410Y-28778572D01*
X15635886Y-28738096D01*
X15716838Y-28697620D01*
X17634524Y-23739286D02*
X17229762Y-23455953D01*
X17634524Y-23253572D02*
X16784524Y-23253572D01*
X16784524Y-23577381D01*
X16825000Y-23658334D01*
X16865476Y-23698810D01*
X16946429Y-23739286D01*
X17067857Y-23739286D01*
X17148810Y-23698810D01*
X17189286Y-23658334D01*
X17229762Y-23577381D01*
X17229762Y-23253572D01*
X17594048Y-24427381D02*
X17634524Y-24346429D01*
X17634524Y-24184524D01*
X17594048Y-24103572D01*
X17513095Y-24063096D01*
X17189286Y-24063096D01*
X17108333Y-24103572D01*
X17067857Y-24184524D01*
X17067857Y-24346429D01*
X17108333Y-24427381D01*
X17189286Y-24467858D01*
X17270238Y-24467858D01*
X17351190Y-24063096D01*
X17067857Y-24751191D02*
X17634524Y-24953572D01*
X17067857Y-25155952D01*
X17634524Y-26572619D02*
X17634524Y-26086905D01*
X17634524Y-26329762D02*
X16784524Y-26329762D01*
X16905952Y-26248810D01*
X16986905Y-26167857D01*
X17027381Y-26086905D01*
X17553571Y-26936905D02*
X17594048Y-26977381D01*
X17634524Y-26936905D01*
X17594048Y-26896429D01*
X17553571Y-26936905D01*
X17634524Y-26936905D01*
X16784524Y-27503572D02*
X16784524Y-27584524D01*
X16825000Y-27665476D01*
X16865476Y-27705953D01*
X16946429Y-27746429D01*
X17108333Y-27786905D01*
X17310714Y-27786905D01*
X17472619Y-27746429D01*
X17553571Y-27705953D01*
X17594048Y-27665476D01*
X17634524Y-27584524D01*
X17634524Y-27503572D01*
X17594048Y-27422619D01*
X17553571Y-27382143D01*
X17472619Y-27341667D01*
X17310714Y-27301191D01*
X17108333Y-27301191D01*
X16946429Y-27341667D01*
X16865476Y-27382143D01*
X16825000Y-27422619D01*
X16784524Y-27503572D01*
D12*
X74055880Y-13478540D03*
X74055880Y-11449080D03*
X72275340Y-12462540D03*
X72275340Y-14492000D03*
X74055880Y-15508000D03*
X72275340Y-16521460D03*
X74055880Y-17537460D03*
X72275340Y-18550920D03*
D13*
X73166880Y-23120380D03*
X73166880Y-6879620D03*
D12*
X67456960Y-21860540D03*
X67456960Y-19569460D03*
X67456960Y-10430540D03*
X67456960Y-8139460D03*
D14*
X45000000Y-8000000D03*
X46500000Y-8000000D03*
D15*
X3500000Y-26500000D03*
X3500000Y-3500000D03*
X61500000Y-26000000D03*
X61500000Y-3500000D03*
D16*
X39500000Y-8000000D03*
X41000000Y-8000000D03*
X39500000Y-12000000D03*
X41000000Y-12000000D03*
X39500000Y-10000000D03*
X41000000Y-10000000D03*
D17*
X48700000Y-10025000D03*
X48700000Y-10675000D03*
X48700000Y-11325000D03*
X48700000Y-11975000D03*
X42800000Y-11975000D03*
X42800000Y-11325000D03*
X42800000Y-10675000D03*
X42800000Y-10025000D03*
D18*
X48750000Y-8000000D03*
X42750000Y-8000000D03*
D19*
X8370000Y-4770000D03*
X8370000Y-2230000D03*
X10910000Y-4770000D03*
X13450000Y-4770000D03*
X15990000Y-4770000D03*
X18530000Y-4770000D03*
X21070000Y-4770000D03*
X23610000Y-4770000D03*
X26150000Y-4770000D03*
X28690000Y-4770000D03*
X31230000Y-4770000D03*
X33770000Y-4770000D03*
X36310000Y-4770000D03*
X38850000Y-4770000D03*
X10910000Y-2230000D03*
X13450000Y-2230000D03*
X15990000Y-2230000D03*
X18530000Y-2230000D03*
X21070000Y-2230000D03*
X23610000Y-2230000D03*
X26150000Y-2230000D03*
X28690000Y-2230000D03*
X31230000Y-2230000D03*
X33770000Y-2230000D03*
X36310000Y-2230000D03*
X38850000Y-2230000D03*
X41390000Y-4770000D03*
X43930000Y-4770000D03*
X46470000Y-4770000D03*
X49010000Y-4770000D03*
X51550000Y-4770000D03*
X54090000Y-4770000D03*
X56630000Y-4770000D03*
X56630000Y-2230000D03*
X54090000Y-2230000D03*
X51550000Y-2230000D03*
X49010000Y-2230000D03*
X46470000Y-2230000D03*
X43930000Y-2230000D03*
X41390000Y-2230000D03*
D20*
X13000000Y-9500000D03*
X6250000Y-15750000D03*
X3250000Y-15750000D03*
X44295859Y-8871593D03*
X42250000Y-9250000D03*
X30500000Y-10614990D03*
X35114990Y-14216625D03*
X35114990Y-13150963D03*
X35114990Y-15280474D03*
X35114990Y-16338394D03*
X38385010Y-13150963D03*
X38385010Y-14216625D03*
X38385010Y-15250000D03*
X38385010Y-16338394D03*
X32500000Y-17500000D03*
X20500000Y-11500000D03*
X27000000Y-16750000D03*
X25250000Y-7500000D03*
X22750000Y-7500000D03*
X30500000Y-8750000D03*
X28500000Y-8750000D03*
X25750000Y-10750000D03*
X30500000Y-12750000D03*
X28500000Y-14250000D03*
X9500000Y-15000000D03*
X11000000Y-15000000D03*
X15750000Y-11500000D03*
X9250000Y-11500000D03*
X10000000Y-21000000D03*
X6750000Y-21000000D03*
X10000000Y-18500000D03*
X6750000Y-18500000D03*
X45750000Y-11000000D03*
X33000000Y-15500000D03*
X46000000Y-14000000D03*
X43000000Y-14000000D03*
X39500000Y-17500000D03*
X44750000Y-23750000D03*
X16750000Y-15000000D03*
X15500000Y-15000000D03*
X14000000Y-15000000D03*
X29250000Y-22250000D03*
X35250000Y-22250000D03*
X32250000Y-22250000D03*
X40000000Y-24250000D03*
X33250000Y-27750000D03*
X35000000Y-27750000D03*
X40000000Y-28750000D03*
X40000000Y-27750000D03*
X42750000Y-28750000D03*
X51750000Y-29500000D03*
X49000000Y-29500000D03*
X38000000Y-7250201D03*
X45000000Y-7250201D03*
X46500000Y-16500000D03*
X40750000Y-14750000D03*
X41250000Y-28750000D03*
X28500000Y-28750000D03*
X17250000Y-7000000D03*
X34750000Y-18750000D03*
X35794479Y-18780732D03*
X36750000Y-18750000D03*
X37750000Y-18750000D03*
X34000000Y-17500000D03*
X32500000Y-6500000D03*
X45500000Y-6250000D03*
X22000000Y-9500000D03*
X16750000Y-8250000D03*
X54750000Y-21500000D03*
X54000000Y-28500000D03*
X57000000Y-28500000D03*
X37250000Y-25750000D03*
X47500000Y-24500000D03*
X42739058Y-24989422D03*
X60000000Y-20250000D03*
X58000000Y-20250000D03*
X65000000Y-10000000D03*
X65000000Y-8500000D03*
X59000000Y-21000000D03*
X66000000Y-9250000D03*
X46750000Y-25500000D03*
X47500000Y-22250000D03*
X31750000Y-18750000D03*
X33000000Y-12250000D03*
X30750000Y-18750000D03*
X32976504Y-13265566D03*
X54500000Y-15568200D03*
X54500000Y-9318200D03*
X54500000Y-10181800D03*
X54500000Y-16431800D03*
X44000000Y-22250000D03*
X40000000Y-25250000D03*
D21*
X40750000Y-13450000D02*
X40750000Y-14750000D01*
X39500000Y-12000000D02*
X39500000Y-12200000D01*
X39500000Y-12200000D02*
X40750000Y-13450000D01*
X39500000Y-8000000D02*
X38749799Y-8000000D01*
X38749799Y-8000000D02*
X38000000Y-7250201D01*
X46500000Y-16500000D02*
X42500000Y-16500000D01*
X42500000Y-16500000D02*
X40750000Y-14750000D01*
X45000000Y-8000000D02*
X45000000Y-7250201D01*
X44225000Y-10025000D02*
X45000000Y-9250000D01*
X45000000Y-9250000D02*
X45000000Y-8000000D01*
X42800000Y-10025000D02*
X44225000Y-10025000D01*
X39500000Y-10000000D02*
X39500000Y-8000000D01*
X39500000Y-12000000D02*
X39500000Y-10000000D01*
X29250000Y-29500000D02*
X40500000Y-29500000D01*
X40500000Y-29500000D02*
X41250000Y-28750000D01*
X28500000Y-28750000D02*
X29250000Y-29500000D01*
D22*
X17250000Y-4250000D02*
X17250000Y-7000000D01*
X16500000Y-3500000D02*
X17250000Y-4250000D01*
X12180000Y-3500000D02*
X16500000Y-3500000D01*
X10910000Y-2230000D02*
X12180000Y-3500000D01*
D21*
X34750000Y-18750000D02*
X36250000Y-17250000D01*
X36250000Y-17250000D02*
X36250000Y-12250000D01*
X36250000Y-12250000D02*
X34500000Y-10500000D01*
X34500000Y-10500000D02*
X34500000Y-5750000D01*
X34500000Y-5750000D02*
X33770000Y-5020000D01*
X33770000Y-5020000D02*
X33770000Y-4770000D01*
X35794479Y-18780732D02*
X36099278Y-18475933D01*
X36099278Y-18475933D02*
X36099278Y-18150722D01*
X36099278Y-18150722D02*
X36750000Y-17500000D01*
X36750000Y-17500000D02*
X36750000Y-12000000D01*
X36750000Y-12000000D02*
X35000000Y-10250000D01*
X35000000Y-10250000D02*
X35000000Y-4250000D01*
X35000000Y-4250000D02*
X34250000Y-3500000D01*
X34250000Y-3500000D02*
X32500000Y-3500000D01*
X32500000Y-3500000D02*
X31230000Y-4770000D01*
X36750000Y-18750000D02*
X36750000Y-18318948D01*
X36750000Y-18318948D02*
X37250000Y-17818948D01*
X37250000Y-17818948D02*
X37250000Y-11750000D01*
X37250000Y-11750000D02*
X35500000Y-10000000D01*
X35500000Y-10000000D02*
X35500000Y-5580000D01*
X35500000Y-5580000D02*
X36310000Y-4770000D01*
X37750000Y-18750000D02*
X37750000Y-11500000D01*
X37750000Y-11500000D02*
X36000000Y-9750000D01*
X36000000Y-9750000D02*
X36000000Y-6750000D01*
X36000000Y-6750000D02*
X37500000Y-5250000D01*
X37500000Y-5250000D02*
X37500000Y-3420000D01*
X37500000Y-3420000D02*
X36310000Y-2230000D01*
X34000000Y-17500000D02*
X34304799Y-17804799D01*
X34304799Y-17804799D02*
X34945201Y-17804799D01*
X34000000Y-10750000D02*
X34000000Y-8500000D01*
X34945201Y-17804799D02*
X35750000Y-17000000D01*
X35750000Y-17000000D02*
X35750000Y-12500000D01*
X35750000Y-12500000D02*
X34000000Y-10750000D01*
X34000000Y-8500000D02*
X32500000Y-7000000D01*
X32500000Y-7000000D02*
X32500000Y-6500000D01*
X45750000Y-6750000D02*
X45750000Y-6500000D01*
X45750000Y-6500000D02*
X45500000Y-6250000D01*
X45750000Y-6750000D02*
X45750000Y-10004000D01*
X42800000Y-11975000D02*
X43779000Y-11975000D01*
X43779000Y-11975000D02*
X45750000Y-10004000D01*
X42800000Y-11975000D02*
X41025000Y-11975000D01*
X41025000Y-11975000D02*
X41000000Y-12000000D01*
X41000000Y-10000000D02*
X41000000Y-9800000D01*
X41000000Y-9800000D02*
X40419799Y-9219799D01*
X40419799Y-9219799D02*
X40419799Y-5669799D01*
X40419799Y-5669799D02*
X40250000Y-5500000D01*
X40250000Y-5500000D02*
X40250000Y-3370000D01*
X40250000Y-3370000D02*
X41390000Y-2230000D01*
X42800000Y-11325000D02*
X41621000Y-11325000D01*
X41621000Y-11325000D02*
X41000000Y-10704000D01*
X41000000Y-10704000D02*
X41000000Y-10000000D01*
X18000000Y-9500000D02*
X16750000Y-8250000D01*
X22000000Y-9500000D02*
X18000000Y-9500000D01*
X41580201Y-10434201D02*
X41580201Y-9330201D01*
X41580201Y-9330201D02*
X41000000Y-8750000D01*
X41000000Y-8750000D02*
X41000000Y-8000000D01*
X41821000Y-10675000D02*
X41580201Y-10434201D01*
X42800000Y-10675000D02*
X41821000Y-10675000D01*
X42750000Y-8000000D02*
X41000000Y-8000000D01*
X46250000Y-23931052D02*
X46250000Y-25000000D01*
X46250000Y-25000000D02*
X46750000Y-25500000D01*
X47500000Y-22250000D02*
X47500000Y-22681052D01*
X47500000Y-22681052D02*
X46250000Y-23931052D01*
X33750000Y-13500000D02*
X31750000Y-15500000D01*
X31750000Y-15500000D02*
X31750000Y-18750000D01*
X33750000Y-13000000D02*
X33750000Y-13500000D01*
X33304799Y-12554799D02*
X33750000Y-13000000D01*
X33000000Y-12250000D02*
X33304799Y-12554799D01*
X32976504Y-13273496D02*
X30750000Y-15500000D01*
X30750000Y-15500000D02*
X30750000Y-18750000D01*
X32976504Y-13265566D02*
X32976504Y-13273496D01*
D22*
X54500000Y-15568200D02*
X54525401Y-15593601D01*
X54525401Y-15593601D02*
X69331663Y-15593601D01*
D23*
X71612194Y-13478540D02*
X72938486Y-13478540D01*
D22*
X71446724Y-13478540D02*
X69331663Y-15593601D01*
X74055880Y-13478540D02*
X72938486Y-13478540D01*
X72938486Y-13478540D02*
X72937216Y-13477270D01*
X71612194Y-13478540D02*
X71446724Y-13478540D01*
X54500000Y-9318200D02*
X54525401Y-9343601D01*
X54525401Y-9343601D02*
X59918337Y-9343601D01*
X63418336Y-12843600D02*
X59918337Y-9343601D01*
X68331664Y-12843600D02*
X63418336Y-12843600D01*
X69726184Y-11449080D02*
X68331664Y-12843600D01*
X72819105Y-11329699D02*
X71731575Y-11329699D01*
X74055880Y-11449080D02*
X72938486Y-11449080D01*
X72938486Y-11449080D02*
X72819105Y-11329699D01*
X71731575Y-11329699D02*
X71612194Y-11449080D01*
X71612194Y-11449080D02*
X69726184Y-11449080D01*
X54500000Y-10181800D02*
X54525401Y-10156399D01*
X54525401Y-10156399D02*
X59581663Y-10156399D01*
X63081664Y-13656400D02*
X59581663Y-10156399D01*
X68668336Y-13656400D02*
X63081664Y-13656400D01*
X70062857Y-12261879D02*
X68668336Y-13656400D01*
X72275340Y-12462540D02*
X72074679Y-12261879D01*
X72074679Y-12261879D02*
X70062857Y-12261879D01*
X54500000Y-16431800D02*
X54525401Y-16406399D01*
X54525401Y-16406399D02*
X69668337Y-16406399D01*
X71783397Y-14291339D02*
X69668337Y-16406399D01*
X72275340Y-14492000D02*
X72074679Y-14291339D01*
X72074679Y-14291339D02*
X71783397Y-14291339D01*
D21*
X44000000Y-22250000D02*
X44000000Y-22500000D01*
X44000000Y-22500000D02*
X43500000Y-23000000D01*
X40000000Y-25250000D02*
X41250000Y-24000000D01*
X41250000Y-24000000D02*
X42500000Y-24000000D01*
X42500000Y-24000000D02*
X43500000Y-23000000D01*
G36*
X65072615Y-483031D02*
X65305538Y-540618D01*
X79512615Y-4768915D01*
X79996154Y-4965988D01*
X80414518Y-5241576D01*
X80771387Y-5593178D01*
X81053166Y-6007398D01*
X81249122Y-6468460D01*
X81353724Y-6968030D01*
X81369000Y-7248903D01*
X81369000Y-22741731D01*
X81318046Y-23261396D01*
X81173247Y-23740995D01*
X80938053Y-24183330D01*
X80621420Y-24571560D01*
X80235413Y-24890893D01*
X79786435Y-25133654D01*
X79521589Y-25228415D01*
X65316065Y-29456249D01*
X64792615Y-29557751D01*
X64552935Y-29569000D01*
X63158363Y-29569000D01*
X63279163Y-29522145D01*
X63929401Y-29109491D01*
X64487103Y-28578398D01*
X64931028Y-27949095D01*
X65244266Y-27245551D01*
X65414886Y-26494565D01*
X65427168Y-25614938D01*
X65277584Y-24859480D01*
X64984112Y-24147465D01*
X64557932Y-23506012D01*
X64015276Y-22959554D01*
X63376814Y-22528906D01*
X62666864Y-22230471D01*
X61912469Y-22075616D01*
X61142364Y-22070239D01*
X60385880Y-22214546D01*
X59671833Y-22503040D01*
X59027421Y-22924732D01*
X58477188Y-23463559D01*
X58042093Y-24099000D01*
X57738709Y-24806848D01*
X57578591Y-25560143D01*
X57567838Y-26330193D01*
X57706860Y-27087665D01*
X57990362Y-27803709D01*
X58407545Y-28451050D01*
X58942518Y-29005031D01*
X59574905Y-29444551D01*
X59859757Y-29569000D01*
X53377000Y-29569000D01*
X53377000Y-27250000D01*
X53371972Y-27214619D01*
X53357286Y-27182039D01*
X53339803Y-27160197D01*
X53089803Y-26910197D01*
X53061229Y-26888734D01*
X53027807Y-26876082D01*
X53000000Y-26873000D01*
X37302606Y-26873000D01*
X37127000Y-26697394D01*
X37127000Y-25802606D01*
X37302606Y-25627000D01*
X39427047Y-25627000D01*
X39459943Y-25678044D01*
X39553369Y-25774790D01*
X39663807Y-25851546D01*
X39787051Y-25905390D01*
X39918406Y-25934270D01*
X40052868Y-25937087D01*
X40185317Y-25913733D01*
X40310708Y-25865097D01*
X40424263Y-25793032D01*
X40521659Y-25700284D01*
X40599185Y-25590384D01*
X40653888Y-25467519D01*
X40683684Y-25336369D01*
X40684415Y-25284005D01*
X41341420Y-24627000D01*
X45742000Y-24627000D01*
X45742000Y-25000000D01*
X45746579Y-25046704D01*
X45750669Y-25093448D01*
X45751414Y-25096014D01*
X45751675Y-25098671D01*
X45765227Y-25143556D01*
X45778329Y-25188655D01*
X45779560Y-25191029D01*
X45780331Y-25193584D01*
X45802340Y-25234977D01*
X45823955Y-25276677D01*
X45825623Y-25278766D01*
X45826876Y-25281123D01*
X45856552Y-25317509D01*
X45885810Y-25354159D01*
X45889473Y-25357874D01*
X45889538Y-25357954D01*
X45889612Y-25358015D01*
X45890790Y-25359210D01*
X46063656Y-25532076D01*
X46063299Y-25557664D01*
X46087577Y-25689947D01*
X46137087Y-25814994D01*
X46209943Y-25928044D01*
X46303369Y-26024790D01*
X46413807Y-26101546D01*
X46537051Y-26155390D01*
X46668406Y-26184270D01*
X46802868Y-26187087D01*
X46935317Y-26163733D01*
X47060708Y-26115097D01*
X47174263Y-26043032D01*
X47271659Y-25950284D01*
X47349185Y-25840384D01*
X47403888Y-25717519D01*
X47433684Y-25586369D01*
X47435829Y-25432754D01*
X47409706Y-25300823D01*
X47358455Y-25176479D01*
X47284028Y-25064457D01*
X47189260Y-24969025D01*
X47077761Y-24893818D01*
X46953778Y-24841700D01*
X46822032Y-24814657D01*
X46782803Y-24814383D01*
X46758000Y-24789580D01*
X46758000Y-24421606D01*
X50552606Y-20627000D01*
X52750000Y-20627000D01*
X52785381Y-20621972D01*
X52817961Y-20607286D01*
X52839803Y-20589803D01*
X53339803Y-20089803D01*
X53361266Y-20061229D01*
X53373918Y-20027807D01*
X53377000Y-20000000D01*
X53377000Y-19000000D01*
X65873000Y-19000000D01*
X65873000Y-22500000D01*
X65882334Y-22547789D01*
X65910197Y-22589803D01*
X66660197Y-23339803D01*
X66700590Y-23366994D01*
X66750000Y-23377000D01*
X68250000Y-23377000D01*
X68297789Y-23367666D01*
X68339803Y-23339803D01*
X68422114Y-23257492D01*
X71534057Y-23257492D01*
X71591785Y-23572031D01*
X71709509Y-23869367D01*
X71882743Y-24138174D01*
X72104890Y-24368214D01*
X72367488Y-24550724D01*
X72660534Y-24678753D01*
X72972867Y-24747423D01*
X73292589Y-24754121D01*
X73607524Y-24698589D01*
X73905674Y-24582944D01*
X74175684Y-24411591D01*
X74407269Y-24191055D01*
X74591608Y-23929738D01*
X74721680Y-23637593D01*
X74792529Y-23325747D01*
X74797630Y-22960484D01*
X74735515Y-22646781D01*
X74613651Y-22351118D01*
X74436681Y-22084756D01*
X74211344Y-21857840D01*
X73946224Y-21679014D01*
X73651418Y-21555090D01*
X73424745Y-21508560D01*
X74586642Y-21508560D01*
X74657679Y-21895610D01*
X74802542Y-22261491D01*
X75015712Y-22592266D01*
X75289070Y-22875337D01*
X75612204Y-23099921D01*
X75972806Y-23257464D01*
X76357141Y-23341965D01*
X76750569Y-23350206D01*
X77138105Y-23281873D01*
X77504988Y-23139569D01*
X77837244Y-22928713D01*
X78122216Y-22657338D01*
X78349050Y-22335779D01*
X78509107Y-21976286D01*
X78596290Y-21592551D01*
X78602566Y-21143083D01*
X78526132Y-20757063D01*
X78376175Y-20393240D01*
X78158408Y-20065474D01*
X77881124Y-19786247D01*
X77554885Y-19566197D01*
X77192119Y-19413704D01*
X76806642Y-19334577D01*
X76413137Y-19331829D01*
X76026592Y-19405567D01*
X75661732Y-19552980D01*
X75332453Y-19768454D01*
X75051298Y-20043782D01*
X74828975Y-20368476D01*
X74673953Y-20730169D01*
X74592137Y-21115084D01*
X74586642Y-21508560D01*
X73424745Y-21508560D01*
X73338157Y-21490786D01*
X73018372Y-21488554D01*
X72704244Y-21548477D01*
X72407737Y-21668273D01*
X72140146Y-21843380D01*
X71911663Y-22067128D01*
X71730990Y-22330993D01*
X71605010Y-22624926D01*
X71538522Y-22937730D01*
X71534057Y-23257492D01*
X68422114Y-23257492D01*
X69089803Y-22589803D01*
X69116994Y-22549410D01*
X69127000Y-22500000D01*
X69127000Y-19000000D01*
X69117666Y-18952211D01*
X69089803Y-18910197D01*
X68812964Y-18633358D01*
X71293611Y-18633358D01*
X71328320Y-18822474D01*
X71399101Y-19001246D01*
X71503258Y-19162865D01*
X71636823Y-19301175D01*
X71794708Y-19410909D01*
X71970901Y-19487886D01*
X72158690Y-19529174D01*
X72350922Y-19533200D01*
X72540276Y-19499812D01*
X72719537Y-19430281D01*
X72881880Y-19327256D01*
X73021119Y-19194660D01*
X73131952Y-19037544D01*
X73210157Y-18861892D01*
X73252756Y-18674396D01*
X73255822Y-18454783D01*
X73218476Y-18266170D01*
X73145206Y-18088404D01*
X73038803Y-17928255D01*
X72903320Y-17791823D01*
X72743917Y-17684304D01*
X72590702Y-17619898D01*
X73074151Y-17619898D01*
X73108860Y-17809014D01*
X73179641Y-17987786D01*
X73283798Y-18149405D01*
X73417363Y-18287715D01*
X73575248Y-18397449D01*
X73751441Y-18474426D01*
X73939230Y-18515714D01*
X74131462Y-18519740D01*
X74320816Y-18486352D01*
X74500077Y-18416821D01*
X74662420Y-18313796D01*
X74801659Y-18181200D01*
X74912492Y-18024084D01*
X74990697Y-17848432D01*
X75033296Y-17660936D01*
X75036362Y-17441323D01*
X74999016Y-17252710D01*
X74925746Y-17074944D01*
X74819343Y-16914795D01*
X74683860Y-16778363D01*
X74524457Y-16670844D01*
X74347207Y-16596335D01*
X74158860Y-16557673D01*
X73966590Y-16556331D01*
X73777722Y-16592359D01*
X73599448Y-16664386D01*
X73438560Y-16769669D01*
X73301185Y-16904196D01*
X73192557Y-17062844D01*
X73116812Y-17239570D01*
X73076836Y-17427643D01*
X73074151Y-17619898D01*
X72590702Y-17619898D01*
X72566667Y-17609795D01*
X72378320Y-17571133D01*
X72186050Y-17569791D01*
X71997182Y-17605819D01*
X71818908Y-17677846D01*
X71658020Y-17783129D01*
X71520645Y-17917656D01*
X71412017Y-18076304D01*
X71336272Y-18253030D01*
X71296296Y-18441103D01*
X71293611Y-18633358D01*
X68812964Y-18633358D01*
X68339803Y-18160197D01*
X68299410Y-18133006D01*
X68250000Y-18123000D01*
X66750000Y-18123000D01*
X66702211Y-18132334D01*
X66660197Y-18160197D01*
X65910197Y-18910197D01*
X65883006Y-18950590D01*
X65873000Y-19000000D01*
X53377000Y-19000000D01*
X53377000Y-9375864D01*
X53813299Y-9375864D01*
X53837577Y-9508147D01*
X53887087Y-9633194D01*
X53959943Y-9746244D01*
X53964094Y-9750543D01*
X53896121Y-9849815D01*
X53843139Y-9973431D01*
X53815177Y-10104985D01*
X53813299Y-10239464D01*
X53837577Y-10371747D01*
X53887087Y-10496794D01*
X53959943Y-10609844D01*
X54053369Y-10706590D01*
X54163807Y-10783346D01*
X54287051Y-10837190D01*
X54418406Y-10866070D01*
X54552868Y-10868887D01*
X54685317Y-10845533D01*
X54759398Y-10816799D01*
X59308117Y-10816799D01*
X62614691Y-14123373D01*
X62661806Y-14162074D01*
X62708560Y-14201305D01*
X62711602Y-14202977D01*
X62714286Y-14205182D01*
X62768044Y-14234007D01*
X62821505Y-14263397D01*
X62824816Y-14264447D01*
X62827876Y-14266088D01*
X62886185Y-14283915D01*
X62944359Y-14302369D01*
X62947812Y-14302756D01*
X62951131Y-14303771D01*
X63011786Y-14309932D01*
X63072443Y-14316736D01*
X63079231Y-14316783D01*
X63079358Y-14316796D01*
X63079476Y-14316785D01*
X63081664Y-14316800D01*
X68668336Y-14316800D01*
X68729070Y-14310845D01*
X68789818Y-14305530D01*
X68793150Y-14304562D01*
X68796608Y-14304223D01*
X68855012Y-14286590D01*
X68913588Y-14269572D01*
X68916673Y-14267973D01*
X68919995Y-14266970D01*
X68973832Y-14238345D01*
X69028016Y-14210258D01*
X69030731Y-14208091D01*
X69033796Y-14206461D01*
X69081054Y-14167918D01*
X69128744Y-14129848D01*
X69133574Y-14125084D01*
X69133676Y-14125001D01*
X69133754Y-14124907D01*
X69135309Y-14123373D01*
X70336404Y-12922279D01*
X71091680Y-12922279D01*
X71087044Y-12924682D01*
X71084329Y-12926849D01*
X71081264Y-12928479D01*
X71034006Y-12967022D01*
X70986316Y-13005092D01*
X70981486Y-13009856D01*
X70981384Y-13009939D01*
X70981306Y-13010033D01*
X70979751Y-13011567D01*
X69058117Y-14933201D01*
X54759209Y-14933201D01*
X54703778Y-14909900D01*
X54572032Y-14882857D01*
X54437543Y-14881918D01*
X54305433Y-14907119D01*
X54180734Y-14957501D01*
X54068196Y-15031144D01*
X53972105Y-15125243D01*
X53896121Y-15236215D01*
X53843139Y-15359831D01*
X53815177Y-15491385D01*
X53813299Y-15625864D01*
X53837577Y-15758147D01*
X53887087Y-15883194D01*
X53959943Y-15996244D01*
X53964094Y-16000543D01*
X53896121Y-16099815D01*
X53843139Y-16223431D01*
X53815177Y-16354985D01*
X53813299Y-16489464D01*
X53837577Y-16621747D01*
X53887087Y-16746794D01*
X53959943Y-16859844D01*
X54053369Y-16956590D01*
X54163807Y-17033346D01*
X54287051Y-17087190D01*
X54418406Y-17116070D01*
X54552868Y-17118887D01*
X54685317Y-17095533D01*
X54759398Y-17066799D01*
X69668337Y-17066799D01*
X69729071Y-17060844D01*
X69789819Y-17055529D01*
X69793151Y-17054561D01*
X69796609Y-17054222D01*
X69855013Y-17036589D01*
X69913589Y-17019571D01*
X69916674Y-17017972D01*
X69919996Y-17016969D01*
X69973833Y-16988344D01*
X70028017Y-16960257D01*
X70030732Y-16958090D01*
X70033797Y-16956460D01*
X70081055Y-16917917D01*
X70128745Y-16879847D01*
X70133575Y-16875083D01*
X70133677Y-16875000D01*
X70133755Y-16874906D01*
X70135310Y-16873372D01*
X70404784Y-16603898D01*
X71293611Y-16603898D01*
X71328320Y-16793014D01*
X71399101Y-16971786D01*
X71503258Y-17133405D01*
X71636823Y-17271715D01*
X71794708Y-17381449D01*
X71970901Y-17458426D01*
X72158690Y-17499714D01*
X72350922Y-17503740D01*
X72540276Y-17470352D01*
X72719537Y-17400821D01*
X72881880Y-17297796D01*
X73021119Y-17165200D01*
X73131952Y-17008084D01*
X73210157Y-16832432D01*
X73252756Y-16644936D01*
X73255822Y-16425323D01*
X73218476Y-16236710D01*
X73145206Y-16058944D01*
X73038803Y-15898795D01*
X72903320Y-15762363D01*
X72743917Y-15654844D01*
X72590702Y-15590438D01*
X73074151Y-15590438D01*
X73108860Y-15779554D01*
X73179641Y-15958326D01*
X73283798Y-16119945D01*
X73417363Y-16258255D01*
X73575248Y-16367989D01*
X73751441Y-16444966D01*
X73939230Y-16486254D01*
X74131462Y-16490280D01*
X74320816Y-16456892D01*
X74500077Y-16387361D01*
X74662420Y-16284336D01*
X74801659Y-16151740D01*
X74912492Y-15994624D01*
X74990697Y-15818972D01*
X75033296Y-15631476D01*
X75036362Y-15411863D01*
X74999016Y-15223250D01*
X74925746Y-15045484D01*
X74819343Y-14885335D01*
X74683860Y-14748903D01*
X74524457Y-14641384D01*
X74347207Y-14566875D01*
X74158860Y-14528213D01*
X73966590Y-14526871D01*
X73777722Y-14562899D01*
X73599448Y-14634926D01*
X73438560Y-14740209D01*
X73301185Y-14874736D01*
X73192557Y-15033384D01*
X73116812Y-15210110D01*
X73076836Y-15398183D01*
X73074151Y-15590438D01*
X72590702Y-15590438D01*
X72566667Y-15580335D01*
X72378320Y-15541673D01*
X72186050Y-15540331D01*
X71997182Y-15576359D01*
X71818908Y-15648386D01*
X71658020Y-15753669D01*
X71520645Y-15888196D01*
X71412017Y-16046844D01*
X71336272Y-16223570D01*
X71296296Y-16411643D01*
X71293611Y-16603898D01*
X70404784Y-16603898D01*
X71713285Y-15295398D01*
X71794708Y-15351989D01*
X71970901Y-15428966D01*
X72158690Y-15470254D01*
X72350922Y-15474280D01*
X72540276Y-15440892D01*
X72719537Y-15371361D01*
X72881880Y-15268336D01*
X73021119Y-15135740D01*
X73131952Y-14978624D01*
X73210157Y-14802972D01*
X73252756Y-14615476D01*
X73255822Y-14395863D01*
X73218476Y-14207250D01*
X73190321Y-14138940D01*
X73330591Y-14138940D01*
X73417363Y-14228795D01*
X73575248Y-14338529D01*
X73751441Y-14415506D01*
X73939230Y-14456794D01*
X74131462Y-14460820D01*
X74320816Y-14427432D01*
X74500077Y-14357901D01*
X74662420Y-14254876D01*
X74801659Y-14122280D01*
X74912492Y-13965164D01*
X74990697Y-13789512D01*
X75033296Y-13602016D01*
X75036362Y-13382403D01*
X74999016Y-13193790D01*
X74925746Y-13016024D01*
X74819343Y-12855875D01*
X74683860Y-12719443D01*
X74524457Y-12611924D01*
X74347207Y-12537415D01*
X74158860Y-12498753D01*
X73966590Y-12497411D01*
X73777722Y-12533439D01*
X73599448Y-12605466D01*
X73438560Y-12710749D01*
X73328895Y-12818140D01*
X73190287Y-12818140D01*
X73210157Y-12773512D01*
X73252756Y-12586016D01*
X73255822Y-12366403D01*
X73218476Y-12177790D01*
X73190321Y-12109480D01*
X73330591Y-12109480D01*
X73417363Y-12199335D01*
X73575248Y-12309069D01*
X73751441Y-12386046D01*
X73939230Y-12427334D01*
X74131462Y-12431360D01*
X74320816Y-12397972D01*
X74500077Y-12328441D01*
X74662420Y-12225416D01*
X74801659Y-12092820D01*
X74912492Y-11935704D01*
X74990697Y-11760052D01*
X75033296Y-11572556D01*
X75036362Y-11352943D01*
X74999016Y-11164330D01*
X74925746Y-10986564D01*
X74819343Y-10826415D01*
X74683860Y-10689983D01*
X74524457Y-10582464D01*
X74347207Y-10507955D01*
X74158860Y-10469293D01*
X73966590Y-10467951D01*
X73777722Y-10503979D01*
X73599448Y-10576006D01*
X73438560Y-10681289D01*
X73328895Y-10788680D01*
X73196840Y-10788680D01*
X73192209Y-10784794D01*
X73189167Y-10783122D01*
X73186483Y-10780917D01*
X73132725Y-10752092D01*
X73079264Y-10722702D01*
X73075953Y-10721652D01*
X73072893Y-10720011D01*
X73014584Y-10702184D01*
X72956410Y-10683730D01*
X72952957Y-10683343D01*
X72949638Y-10682328D01*
X72888983Y-10676167D01*
X72828326Y-10669363D01*
X72821538Y-10669316D01*
X72821411Y-10669303D01*
X72821293Y-10669314D01*
X72819105Y-10669299D01*
X71731575Y-10669299D01*
X71670844Y-10675254D01*
X71610093Y-10680569D01*
X71606761Y-10681537D01*
X71603303Y-10681876D01*
X71544899Y-10699509D01*
X71486323Y-10716527D01*
X71483238Y-10718126D01*
X71479916Y-10719129D01*
X71426079Y-10747754D01*
X71371895Y-10775841D01*
X71369180Y-10778008D01*
X71366115Y-10779638D01*
X71355028Y-10788680D01*
X69726184Y-10788680D01*
X69665453Y-10794635D01*
X69604702Y-10799950D01*
X69601370Y-10800918D01*
X69597912Y-10801257D01*
X69539508Y-10818890D01*
X69480932Y-10835908D01*
X69477847Y-10837507D01*
X69474525Y-10838510D01*
X69420688Y-10867135D01*
X69366504Y-10895222D01*
X69363789Y-10897389D01*
X69360724Y-10899019D01*
X69313466Y-10937562D01*
X69265776Y-10975632D01*
X69260946Y-10980396D01*
X69260844Y-10980479D01*
X69260766Y-10980573D01*
X69259211Y-10982107D01*
X68058118Y-12183200D01*
X63691882Y-12183200D01*
X60385310Y-8876628D01*
X60338195Y-8837927D01*
X60291441Y-8798696D01*
X60288399Y-8797024D01*
X60285715Y-8794819D01*
X60231957Y-8765994D01*
X60178496Y-8736604D01*
X60175185Y-8735554D01*
X60172125Y-8733913D01*
X60113816Y-8716086D01*
X60055642Y-8697632D01*
X60052189Y-8697245D01*
X60048870Y-8696230D01*
X59988215Y-8690069D01*
X59927558Y-8683265D01*
X59920770Y-8683218D01*
X59920643Y-8683205D01*
X59920525Y-8683216D01*
X59918337Y-8683201D01*
X54759209Y-8683201D01*
X54703778Y-8659900D01*
X54572032Y-8632857D01*
X54437543Y-8631918D01*
X54305433Y-8657119D01*
X54180734Y-8707501D01*
X54068196Y-8781144D01*
X53972105Y-8875243D01*
X53896121Y-8986215D01*
X53843139Y-9109831D01*
X53815177Y-9241385D01*
X53813299Y-9375864D01*
X53377000Y-9375864D01*
X53377000Y-8802606D01*
X54302606Y-7877000D01*
X57250000Y-7877000D01*
X57285381Y-7871972D01*
X57317961Y-7857286D01*
X57339803Y-7839803D01*
X57679606Y-7500000D01*
X65873000Y-7500000D01*
X65873000Y-11000000D01*
X65882334Y-11047789D01*
X65910197Y-11089803D01*
X66660197Y-11839803D01*
X66700590Y-11866994D01*
X66750000Y-11877000D01*
X68250000Y-11877000D01*
X68297789Y-11867666D01*
X68339803Y-11839803D01*
X69089803Y-11089803D01*
X69116994Y-11049410D01*
X69127000Y-11000000D01*
X69127000Y-8828880D01*
X74586642Y-8828880D01*
X74657679Y-9215930D01*
X74802542Y-9581811D01*
X75015712Y-9912586D01*
X75289070Y-10195657D01*
X75612204Y-10420241D01*
X75972806Y-10577784D01*
X76357141Y-10662285D01*
X76750569Y-10670526D01*
X77138105Y-10602193D01*
X77504988Y-10459889D01*
X77837244Y-10249033D01*
X78122216Y-9977658D01*
X78349050Y-9656099D01*
X78509107Y-9296606D01*
X78596290Y-8912871D01*
X78602566Y-8463403D01*
X78526132Y-8077383D01*
X78376175Y-7713560D01*
X78158408Y-7385794D01*
X77881124Y-7106567D01*
X77554885Y-6886517D01*
X77192119Y-6734024D01*
X76806642Y-6654897D01*
X76413137Y-6652149D01*
X76026592Y-6725887D01*
X75661732Y-6873300D01*
X75332453Y-7088774D01*
X75051298Y-7364102D01*
X74828975Y-7688796D01*
X74673953Y-8050489D01*
X74592137Y-8435404D01*
X74586642Y-8828880D01*
X69127000Y-8828880D01*
X69127000Y-7500000D01*
X69117666Y-7452211D01*
X69089803Y-7410197D01*
X68696338Y-7016732D01*
X71534057Y-7016732D01*
X71591785Y-7331271D01*
X71709509Y-7628607D01*
X71882743Y-7897414D01*
X72104890Y-8127454D01*
X72367488Y-8309964D01*
X72660534Y-8437993D01*
X72972867Y-8506663D01*
X73292589Y-8513361D01*
X73607524Y-8457829D01*
X73905674Y-8342184D01*
X74175684Y-8170831D01*
X74407269Y-7950295D01*
X74591608Y-7688978D01*
X74721680Y-7396833D01*
X74792529Y-7084987D01*
X74797630Y-6719724D01*
X74735515Y-6406021D01*
X74613651Y-6110358D01*
X74436681Y-5843996D01*
X74211344Y-5617080D01*
X73946224Y-5438254D01*
X73651418Y-5314330D01*
X73338157Y-5250026D01*
X73018372Y-5247794D01*
X72704244Y-5307717D01*
X72407737Y-5427513D01*
X72140146Y-5602620D01*
X71911663Y-5826368D01*
X71730990Y-6090233D01*
X71605010Y-6384166D01*
X71538522Y-6696970D01*
X71534057Y-7016732D01*
X68696338Y-7016732D01*
X68339803Y-6660197D01*
X68299410Y-6633006D01*
X68250000Y-6623000D01*
X66750000Y-6623000D01*
X66702211Y-6632334D01*
X66660197Y-6660197D01*
X65910197Y-7410197D01*
X65883006Y-7450590D01*
X65873000Y-7500000D01*
X57679606Y-7500000D01*
X58810885Y-6368721D01*
X58942518Y-6505031D01*
X59574905Y-6944551D01*
X60280619Y-7252870D01*
X61032778Y-7418243D01*
X61802733Y-7434371D01*
X62561158Y-7300640D01*
X63279163Y-7022145D01*
X63929401Y-6609491D01*
X64487103Y-6078398D01*
X64931028Y-5449095D01*
X65244266Y-4745551D01*
X65414886Y-3994565D01*
X65427168Y-3114938D01*
X65277584Y-2359480D01*
X64984112Y-1647465D01*
X64557932Y-1006012D01*
X64366434Y-813172D01*
X64730154Y-449452D01*
X65072615Y-483031D01*
X65072615Y-483031D01*
G37*
X65072615Y-483031D02*
X65305538Y-540618D01*
X79512615Y-4768915D01*
X79996154Y-4965988D01*
X80414518Y-5241576D01*
X80771387Y-5593178D01*
X81053166Y-6007398D01*
X81249122Y-6468460D01*
X81353724Y-6968030D01*
X81369000Y-7248903D01*
X81369000Y-22741731D01*
X81318046Y-23261396D01*
X81173247Y-23740995D01*
X80938053Y-24183330D01*
X80621420Y-24571560D01*
X80235413Y-24890893D01*
X79786435Y-25133654D01*
X79521589Y-25228415D01*
X65316065Y-29456249D01*
X64792615Y-29557751D01*
X64552935Y-29569000D01*
X63158363Y-29569000D01*
X63279163Y-29522145D01*
X63929401Y-29109491D01*
X64487103Y-28578398D01*
X64931028Y-27949095D01*
X65244266Y-27245551D01*
X65414886Y-26494565D01*
X65427168Y-25614938D01*
X65277584Y-24859480D01*
X64984112Y-24147465D01*
X64557932Y-23506012D01*
X64015276Y-22959554D01*
X63376814Y-22528906D01*
X62666864Y-22230471D01*
X61912469Y-22075616D01*
X61142364Y-22070239D01*
X60385880Y-22214546D01*
X59671833Y-22503040D01*
X59027421Y-22924732D01*
X58477188Y-23463559D01*
X58042093Y-24099000D01*
X57738709Y-24806848D01*
X57578591Y-25560143D01*
X57567838Y-26330193D01*
X57706860Y-27087665D01*
X57990362Y-27803709D01*
X58407545Y-28451050D01*
X58942518Y-29005031D01*
X59574905Y-29444551D01*
X59859757Y-29569000D01*
X53377000Y-29569000D01*
X53377000Y-27250000D01*
X53371972Y-27214619D01*
X53357286Y-27182039D01*
X53339803Y-27160197D01*
X53089803Y-26910197D01*
X53061229Y-26888734D01*
X53027807Y-26876082D01*
X53000000Y-26873000D01*
X37302606Y-26873000D01*
X37127000Y-26697394D01*
X37127000Y-25802606D01*
X37302606Y-25627000D01*
X39427047Y-25627000D01*
X39459943Y-25678044D01*
X39553369Y-25774790D01*
X39663807Y-25851546D01*
X39787051Y-25905390D01*
X39918406Y-25934270D01*
X40052868Y-25937087D01*
X40185317Y-25913733D01*
X40310708Y-25865097D01*
X40424263Y-25793032D01*
X40521659Y-25700284D01*
X40599185Y-25590384D01*
X40653888Y-25467519D01*
X40683684Y-25336369D01*
X40684415Y-25284005D01*
X41341420Y-24627000D01*
X45742000Y-24627000D01*
X45742000Y-25000000D01*
X45746579Y-25046704D01*
X45750669Y-25093448D01*
X45751414Y-25096014D01*
X45751675Y-25098671D01*
X45765227Y-25143556D01*
X45778329Y-25188655D01*
X45779560Y-25191029D01*
X45780331Y-25193584D01*
X45802340Y-25234977D01*
X45823955Y-25276677D01*
X45825623Y-25278766D01*
X45826876Y-25281123D01*
X45856552Y-25317509D01*
X45885810Y-25354159D01*
X45889473Y-25357874D01*
X45889538Y-25357954D01*
X45889612Y-25358015D01*
X45890790Y-25359210D01*
X46063656Y-25532076D01*
X46063299Y-25557664D01*
X46087577Y-25689947D01*
X46137087Y-25814994D01*
X46209943Y-25928044D01*
X46303369Y-26024790D01*
X46413807Y-26101546D01*
X46537051Y-26155390D01*
X46668406Y-26184270D01*
X46802868Y-26187087D01*
X46935317Y-26163733D01*
X47060708Y-26115097D01*
X47174263Y-26043032D01*
X47271659Y-25950284D01*
X47349185Y-25840384D01*
X47403888Y-25717519D01*
X47433684Y-25586369D01*
X47435829Y-25432754D01*
X47409706Y-25300823D01*
X47358455Y-25176479D01*
X47284028Y-25064457D01*
X47189260Y-24969025D01*
X47077761Y-24893818D01*
X46953778Y-24841700D01*
X46822032Y-24814657D01*
X46782803Y-24814383D01*
X46758000Y-24789580D01*
X46758000Y-24421606D01*
X50552606Y-20627000D01*
X52750000Y-20627000D01*
X52785381Y-20621972D01*
X52817961Y-20607286D01*
X52839803Y-20589803D01*
X53339803Y-20089803D01*
X53361266Y-20061229D01*
X53373918Y-20027807D01*
X53377000Y-20000000D01*
X53377000Y-19000000D01*
X65873000Y-19000000D01*
X65873000Y-22500000D01*
X65882334Y-22547789D01*
X65910197Y-22589803D01*
X66660197Y-23339803D01*
X66700590Y-23366994D01*
X66750000Y-23377000D01*
X68250000Y-23377000D01*
X68297789Y-23367666D01*
X68339803Y-23339803D01*
X68422114Y-23257492D01*
X71534057Y-23257492D01*
X71591785Y-23572031D01*
X71709509Y-23869367D01*
X71882743Y-24138174D01*
X72104890Y-24368214D01*
X72367488Y-24550724D01*
X72660534Y-24678753D01*
X72972867Y-24747423D01*
X73292589Y-24754121D01*
X73607524Y-24698589D01*
X73905674Y-24582944D01*
X74175684Y-24411591D01*
X74407269Y-24191055D01*
X74591608Y-23929738D01*
X74721680Y-23637593D01*
X74792529Y-23325747D01*
X74797630Y-22960484D01*
X74735515Y-22646781D01*
X74613651Y-22351118D01*
X74436681Y-22084756D01*
X74211344Y-21857840D01*
X73946224Y-21679014D01*
X73651418Y-21555090D01*
X73424745Y-21508560D01*
X74586642Y-21508560D01*
X74657679Y-21895610D01*
X74802542Y-22261491D01*
X75015712Y-22592266D01*
X75289070Y-22875337D01*
X75612204Y-23099921D01*
X75972806Y-23257464D01*
X76357141Y-23341965D01*
X76750569Y-23350206D01*
X77138105Y-23281873D01*
X77504988Y-23139569D01*
X77837244Y-22928713D01*
X78122216Y-22657338D01*
X78349050Y-22335779D01*
X78509107Y-21976286D01*
X78596290Y-21592551D01*
X78602566Y-21143083D01*
X78526132Y-20757063D01*
X78376175Y-20393240D01*
X78158408Y-20065474D01*
X77881124Y-19786247D01*
X77554885Y-19566197D01*
X77192119Y-19413704D01*
X76806642Y-19334577D01*
X76413137Y-19331829D01*
X76026592Y-19405567D01*
X75661732Y-19552980D01*
X75332453Y-19768454D01*
X75051298Y-20043782D01*
X74828975Y-20368476D01*
X74673953Y-20730169D01*
X74592137Y-21115084D01*
X74586642Y-21508560D01*
X73424745Y-21508560D01*
X73338157Y-21490786D01*
X73018372Y-21488554D01*
X72704244Y-21548477D01*
X72407737Y-21668273D01*
X72140146Y-21843380D01*
X71911663Y-22067128D01*
X71730990Y-22330993D01*
X71605010Y-22624926D01*
X71538522Y-22937730D01*
X71534057Y-23257492D01*
X68422114Y-23257492D01*
X69089803Y-22589803D01*
X69116994Y-22549410D01*
X69127000Y-22500000D01*
X69127000Y-19000000D01*
X69117666Y-18952211D01*
X69089803Y-18910197D01*
X68812964Y-18633358D01*
X71293611Y-18633358D01*
X71328320Y-18822474D01*
X71399101Y-19001246D01*
X71503258Y-19162865D01*
X71636823Y-19301175D01*
X71794708Y-19410909D01*
X71970901Y-19487886D01*
X72158690Y-19529174D01*
X72350922Y-19533200D01*
X72540276Y-19499812D01*
X72719537Y-19430281D01*
X72881880Y-19327256D01*
X73021119Y-19194660D01*
X73131952Y-19037544D01*
X73210157Y-18861892D01*
X73252756Y-18674396D01*
X73255822Y-18454783D01*
X73218476Y-18266170D01*
X73145206Y-18088404D01*
X73038803Y-17928255D01*
X72903320Y-17791823D01*
X72743917Y-17684304D01*
X72590702Y-17619898D01*
X73074151Y-17619898D01*
X73108860Y-17809014D01*
X73179641Y-17987786D01*
X73283798Y-18149405D01*
X73417363Y-18287715D01*
X73575248Y-18397449D01*
X73751441Y-18474426D01*
X73939230Y-18515714D01*
X74131462Y-18519740D01*
X74320816Y-18486352D01*
X74500077Y-18416821D01*
X74662420Y-18313796D01*
X74801659Y-18181200D01*
X74912492Y-18024084D01*
X74990697Y-17848432D01*
X75033296Y-17660936D01*
X75036362Y-17441323D01*
X74999016Y-17252710D01*
X74925746Y-17074944D01*
X74819343Y-16914795D01*
X74683860Y-16778363D01*
X74524457Y-16670844D01*
X74347207Y-16596335D01*
X74158860Y-16557673D01*
X73966590Y-16556331D01*
X73777722Y-16592359D01*
X73599448Y-16664386D01*
X73438560Y-16769669D01*
X73301185Y-16904196D01*
X73192557Y-17062844D01*
X73116812Y-17239570D01*
X73076836Y-17427643D01*
X73074151Y-17619898D01*
X72590702Y-17619898D01*
X72566667Y-17609795D01*
X72378320Y-17571133D01*
X72186050Y-17569791D01*
X71997182Y-17605819D01*
X71818908Y-17677846D01*
X71658020Y-17783129D01*
X71520645Y-17917656D01*
X71412017Y-18076304D01*
X71336272Y-18253030D01*
X71296296Y-18441103D01*
X71293611Y-18633358D01*
X68812964Y-18633358D01*
X68339803Y-18160197D01*
X68299410Y-18133006D01*
X68250000Y-18123000D01*
X66750000Y-18123000D01*
X66702211Y-18132334D01*
X66660197Y-18160197D01*
X65910197Y-18910197D01*
X65883006Y-18950590D01*
X65873000Y-19000000D01*
X53377000Y-19000000D01*
X53377000Y-9375864D01*
X53813299Y-9375864D01*
X53837577Y-9508147D01*
X53887087Y-9633194D01*
X53959943Y-9746244D01*
X53964094Y-9750543D01*
X53896121Y-9849815D01*
X53843139Y-9973431D01*
X53815177Y-10104985D01*
X53813299Y-10239464D01*
X53837577Y-10371747D01*
X53887087Y-10496794D01*
X53959943Y-10609844D01*
X54053369Y-10706590D01*
X54163807Y-10783346D01*
X54287051Y-10837190D01*
X54418406Y-10866070D01*
X54552868Y-10868887D01*
X54685317Y-10845533D01*
X54759398Y-10816799D01*
X59308117Y-10816799D01*
X62614691Y-14123373D01*
X62661806Y-14162074D01*
X62708560Y-14201305D01*
X62711602Y-14202977D01*
X62714286Y-14205182D01*
X62768044Y-14234007D01*
X62821505Y-14263397D01*
X62824816Y-14264447D01*
X62827876Y-14266088D01*
X62886185Y-14283915D01*
X62944359Y-14302369D01*
X62947812Y-14302756D01*
X62951131Y-14303771D01*
X63011786Y-14309932D01*
X63072443Y-14316736D01*
X63079231Y-14316783D01*
X63079358Y-14316796D01*
X63079476Y-14316785D01*
X63081664Y-14316800D01*
X68668336Y-14316800D01*
X68729070Y-14310845D01*
X68789818Y-14305530D01*
X68793150Y-14304562D01*
X68796608Y-14304223D01*
X68855012Y-14286590D01*
X68913588Y-14269572D01*
X68916673Y-14267973D01*
X68919995Y-14266970D01*
X68973832Y-14238345D01*
X69028016Y-14210258D01*
X69030731Y-14208091D01*
X69033796Y-14206461D01*
X69081054Y-14167918D01*
X69128744Y-14129848D01*
X69133574Y-14125084D01*
X69133676Y-14125001D01*
X69133754Y-14124907D01*
X69135309Y-14123373D01*
X70336404Y-12922279D01*
X71091680Y-12922279D01*
X71087044Y-12924682D01*
X71084329Y-12926849D01*
X71081264Y-12928479D01*
X71034006Y-12967022D01*
X70986316Y-13005092D01*
X70981486Y-13009856D01*
X70981384Y-13009939D01*
X70981306Y-13010033D01*
X70979751Y-13011567D01*
X69058117Y-14933201D01*
X54759209Y-14933201D01*
X54703778Y-14909900D01*
X54572032Y-14882857D01*
X54437543Y-14881918D01*
X54305433Y-14907119D01*
X54180734Y-14957501D01*
X54068196Y-15031144D01*
X53972105Y-15125243D01*
X53896121Y-15236215D01*
X53843139Y-15359831D01*
X53815177Y-15491385D01*
X53813299Y-15625864D01*
X53837577Y-15758147D01*
X53887087Y-15883194D01*
X53959943Y-15996244D01*
X53964094Y-16000543D01*
X53896121Y-16099815D01*
X53843139Y-16223431D01*
X53815177Y-16354985D01*
X53813299Y-16489464D01*
X53837577Y-16621747D01*
X53887087Y-16746794D01*
X53959943Y-16859844D01*
X54053369Y-16956590D01*
X54163807Y-17033346D01*
X54287051Y-17087190D01*
X54418406Y-17116070D01*
X54552868Y-17118887D01*
X54685317Y-17095533D01*
X54759398Y-17066799D01*
X69668337Y-17066799D01*
X69729071Y-17060844D01*
X69789819Y-17055529D01*
X69793151Y-17054561D01*
X69796609Y-17054222D01*
X69855013Y-17036589D01*
X69913589Y-17019571D01*
X69916674Y-17017972D01*
X69919996Y-17016969D01*
X69973833Y-16988344D01*
X70028017Y-16960257D01*
X70030732Y-16958090D01*
X70033797Y-16956460D01*
X70081055Y-16917917D01*
X70128745Y-16879847D01*
X70133575Y-16875083D01*
X70133677Y-16875000D01*
X70133755Y-16874906D01*
X70135310Y-16873372D01*
X70404784Y-16603898D01*
X71293611Y-16603898D01*
X71328320Y-16793014D01*
X71399101Y-16971786D01*
X71503258Y-17133405D01*
X71636823Y-17271715D01*
X71794708Y-17381449D01*
X71970901Y-17458426D01*
X72158690Y-17499714D01*
X72350922Y-17503740D01*
X72540276Y-17470352D01*
X72719537Y-17400821D01*
X72881880Y-17297796D01*
X73021119Y-17165200D01*
X73131952Y-17008084D01*
X73210157Y-16832432D01*
X73252756Y-16644936D01*
X73255822Y-16425323D01*
X73218476Y-16236710D01*
X73145206Y-16058944D01*
X73038803Y-15898795D01*
X72903320Y-15762363D01*
X72743917Y-15654844D01*
X72590702Y-15590438D01*
X73074151Y-15590438D01*
X73108860Y-15779554D01*
X73179641Y-15958326D01*
X73283798Y-16119945D01*
X73417363Y-16258255D01*
X73575248Y-16367989D01*
X73751441Y-16444966D01*
X73939230Y-16486254D01*
X74131462Y-16490280D01*
X74320816Y-16456892D01*
X74500077Y-16387361D01*
X74662420Y-16284336D01*
X74801659Y-16151740D01*
X74912492Y-15994624D01*
X74990697Y-15818972D01*
X75033296Y-15631476D01*
X75036362Y-15411863D01*
X74999016Y-15223250D01*
X74925746Y-15045484D01*
X74819343Y-14885335D01*
X74683860Y-14748903D01*
X74524457Y-14641384D01*
X74347207Y-14566875D01*
X74158860Y-14528213D01*
X73966590Y-14526871D01*
X73777722Y-14562899D01*
X73599448Y-14634926D01*
X73438560Y-14740209D01*
X73301185Y-14874736D01*
X73192557Y-15033384D01*
X73116812Y-15210110D01*
X73076836Y-15398183D01*
X73074151Y-15590438D01*
X72590702Y-15590438D01*
X72566667Y-15580335D01*
X72378320Y-15541673D01*
X72186050Y-15540331D01*
X71997182Y-15576359D01*
X71818908Y-15648386D01*
X71658020Y-15753669D01*
X71520645Y-15888196D01*
X71412017Y-16046844D01*
X71336272Y-16223570D01*
X71296296Y-16411643D01*
X71293611Y-16603898D01*
X70404784Y-16603898D01*
X71713285Y-15295398D01*
X71794708Y-15351989D01*
X71970901Y-15428966D01*
X72158690Y-15470254D01*
X72350922Y-15474280D01*
X72540276Y-15440892D01*
X72719537Y-15371361D01*
X72881880Y-15268336D01*
X73021119Y-15135740D01*
X73131952Y-14978624D01*
X73210157Y-14802972D01*
X73252756Y-14615476D01*
X73255822Y-14395863D01*
X73218476Y-14207250D01*
X73190321Y-14138940D01*
X73330591Y-14138940D01*
X73417363Y-14228795D01*
X73575248Y-14338529D01*
X73751441Y-14415506D01*
X73939230Y-14456794D01*
X74131462Y-14460820D01*
X74320816Y-14427432D01*
X74500077Y-14357901D01*
X74662420Y-14254876D01*
X74801659Y-14122280D01*
X74912492Y-13965164D01*
X74990697Y-13789512D01*
X75033296Y-13602016D01*
X75036362Y-13382403D01*
X74999016Y-13193790D01*
X74925746Y-13016024D01*
X74819343Y-12855875D01*
X74683860Y-12719443D01*
X74524457Y-12611924D01*
X74347207Y-12537415D01*
X74158860Y-12498753D01*
X73966590Y-12497411D01*
X73777722Y-12533439D01*
X73599448Y-12605466D01*
X73438560Y-12710749D01*
X73328895Y-12818140D01*
X73190287Y-12818140D01*
X73210157Y-12773512D01*
X73252756Y-12586016D01*
X73255822Y-12366403D01*
X73218476Y-12177790D01*
X73190321Y-12109480D01*
X73330591Y-12109480D01*
X73417363Y-12199335D01*
X73575248Y-12309069D01*
X73751441Y-12386046D01*
X73939230Y-12427334D01*
X74131462Y-12431360D01*
X74320816Y-12397972D01*
X74500077Y-12328441D01*
X74662420Y-12225416D01*
X74801659Y-12092820D01*
X74912492Y-11935704D01*
X74990697Y-11760052D01*
X75033296Y-11572556D01*
X75036362Y-11352943D01*
X74999016Y-11164330D01*
X74925746Y-10986564D01*
X74819343Y-10826415D01*
X74683860Y-10689983D01*
X74524457Y-10582464D01*
X74347207Y-10507955D01*
X74158860Y-10469293D01*
X73966590Y-10467951D01*
X73777722Y-10503979D01*
X73599448Y-10576006D01*
X73438560Y-10681289D01*
X73328895Y-10788680D01*
X73196840Y-10788680D01*
X73192209Y-10784794D01*
X73189167Y-10783122D01*
X73186483Y-10780917D01*
X73132725Y-10752092D01*
X73079264Y-10722702D01*
X73075953Y-10721652D01*
X73072893Y-10720011D01*
X73014584Y-10702184D01*
X72956410Y-10683730D01*
X72952957Y-10683343D01*
X72949638Y-10682328D01*
X72888983Y-10676167D01*
X72828326Y-10669363D01*
X72821538Y-10669316D01*
X72821411Y-10669303D01*
X72821293Y-10669314D01*
X72819105Y-10669299D01*
X71731575Y-10669299D01*
X71670844Y-10675254D01*
X71610093Y-10680569D01*
X71606761Y-10681537D01*
X71603303Y-10681876D01*
X71544899Y-10699509D01*
X71486323Y-10716527D01*
X71483238Y-10718126D01*
X71479916Y-10719129D01*
X71426079Y-10747754D01*
X71371895Y-10775841D01*
X71369180Y-10778008D01*
X71366115Y-10779638D01*
X71355028Y-10788680D01*
X69726184Y-10788680D01*
X69665453Y-10794635D01*
X69604702Y-10799950D01*
X69601370Y-10800918D01*
X69597912Y-10801257D01*
X69539508Y-10818890D01*
X69480932Y-10835908D01*
X69477847Y-10837507D01*
X69474525Y-10838510D01*
X69420688Y-10867135D01*
X69366504Y-10895222D01*
X69363789Y-10897389D01*
X69360724Y-10899019D01*
X69313466Y-10937562D01*
X69265776Y-10975632D01*
X69260946Y-10980396D01*
X69260844Y-10980479D01*
X69260766Y-10980573D01*
X69259211Y-10982107D01*
X68058118Y-12183200D01*
X63691882Y-12183200D01*
X60385310Y-8876628D01*
X60338195Y-8837927D01*
X60291441Y-8798696D01*
X60288399Y-8797024D01*
X60285715Y-8794819D01*
X60231957Y-8765994D01*
X60178496Y-8736604D01*
X60175185Y-8735554D01*
X60172125Y-8733913D01*
X60113816Y-8716086D01*
X60055642Y-8697632D01*
X60052189Y-8697245D01*
X60048870Y-8696230D01*
X59988215Y-8690069D01*
X59927558Y-8683265D01*
X59920770Y-8683218D01*
X59920643Y-8683205D01*
X59920525Y-8683216D01*
X59918337Y-8683201D01*
X54759209Y-8683201D01*
X54703778Y-8659900D01*
X54572032Y-8632857D01*
X54437543Y-8631918D01*
X54305433Y-8657119D01*
X54180734Y-8707501D01*
X54068196Y-8781144D01*
X53972105Y-8875243D01*
X53896121Y-8986215D01*
X53843139Y-9109831D01*
X53815177Y-9241385D01*
X53813299Y-9375864D01*
X53377000Y-9375864D01*
X53377000Y-8802606D01*
X54302606Y-7877000D01*
X57250000Y-7877000D01*
X57285381Y-7871972D01*
X57317961Y-7857286D01*
X57339803Y-7839803D01*
X57679606Y-7500000D01*
X65873000Y-7500000D01*
X65873000Y-11000000D01*
X65882334Y-11047789D01*
X65910197Y-11089803D01*
X66660197Y-11839803D01*
X66700590Y-11866994D01*
X66750000Y-11877000D01*
X68250000Y-11877000D01*
X68297789Y-11867666D01*
X68339803Y-11839803D01*
X69089803Y-11089803D01*
X69116994Y-11049410D01*
X69127000Y-11000000D01*
X69127000Y-8828880D01*
X74586642Y-8828880D01*
X74657679Y-9215930D01*
X74802542Y-9581811D01*
X75015712Y-9912586D01*
X75289070Y-10195657D01*
X75612204Y-10420241D01*
X75972806Y-10577784D01*
X76357141Y-10662285D01*
X76750569Y-10670526D01*
X77138105Y-10602193D01*
X77504988Y-10459889D01*
X77837244Y-10249033D01*
X78122216Y-9977658D01*
X78349050Y-9656099D01*
X78509107Y-9296606D01*
X78596290Y-8912871D01*
X78602566Y-8463403D01*
X78526132Y-8077383D01*
X78376175Y-7713560D01*
X78158408Y-7385794D01*
X77881124Y-7106567D01*
X77554885Y-6886517D01*
X77192119Y-6734024D01*
X76806642Y-6654897D01*
X76413137Y-6652149D01*
X76026592Y-6725887D01*
X75661732Y-6873300D01*
X75332453Y-7088774D01*
X75051298Y-7364102D01*
X74828975Y-7688796D01*
X74673953Y-8050489D01*
X74592137Y-8435404D01*
X74586642Y-8828880D01*
X69127000Y-8828880D01*
X69127000Y-7500000D01*
X69117666Y-7452211D01*
X69089803Y-7410197D01*
X68696338Y-7016732D01*
X71534057Y-7016732D01*
X71591785Y-7331271D01*
X71709509Y-7628607D01*
X71882743Y-7897414D01*
X72104890Y-8127454D01*
X72367488Y-8309964D01*
X72660534Y-8437993D01*
X72972867Y-8506663D01*
X73292589Y-8513361D01*
X73607524Y-8457829D01*
X73905674Y-8342184D01*
X74175684Y-8170831D01*
X74407269Y-7950295D01*
X74591608Y-7688978D01*
X74721680Y-7396833D01*
X74792529Y-7084987D01*
X74797630Y-6719724D01*
X74735515Y-6406021D01*
X74613651Y-6110358D01*
X74436681Y-5843996D01*
X74211344Y-5617080D01*
X73946224Y-5438254D01*
X73651418Y-5314330D01*
X73338157Y-5250026D01*
X73018372Y-5247794D01*
X72704244Y-5307717D01*
X72407737Y-5427513D01*
X72140146Y-5602620D01*
X71911663Y-5826368D01*
X71730990Y-6090233D01*
X71605010Y-6384166D01*
X71538522Y-6696970D01*
X71534057Y-7016732D01*
X68696338Y-7016732D01*
X68339803Y-6660197D01*
X68299410Y-6633006D01*
X68250000Y-6623000D01*
X66750000Y-6623000D01*
X66702211Y-6632334D01*
X66660197Y-6660197D01*
X65910197Y-7410197D01*
X65883006Y-7450590D01*
X65873000Y-7500000D01*
X57679606Y-7500000D01*
X58810885Y-6368721D01*
X58942518Y-6505031D01*
X59574905Y-6944551D01*
X60280619Y-7252870D01*
X61032778Y-7418243D01*
X61802733Y-7434371D01*
X62561158Y-7300640D01*
X63279163Y-7022145D01*
X63929401Y-6609491D01*
X64487103Y-6078398D01*
X64931028Y-5449095D01*
X65244266Y-4745551D01*
X65414886Y-3994565D01*
X65427168Y-3114938D01*
X65277584Y-2359480D01*
X64984112Y-1647465D01*
X64557932Y-1006012D01*
X64366434Y-813172D01*
X64730154Y-449452D01*
X65072615Y-483031D01*
G36*
X19123000Y-15052606D02*
X19123000Y-16750000D01*
X19133006Y-16799410D01*
X19160197Y-16839803D01*
X20160197Y-17839803D01*
X20202211Y-17867666D01*
X20250000Y-17877000D01*
X25197394Y-17877000D01*
X28410197Y-21089803D01*
X28452211Y-21117666D01*
X28500000Y-21127000D01*
X46500000Y-21127000D01*
X46549410Y-21116994D01*
X46589803Y-21089803D01*
X47052606Y-20627000D01*
X49834184Y-20627000D01*
X48185778Y-22275406D01*
X48185919Y-22114184D01*
X48081732Y-21862033D01*
X47888982Y-21668946D01*
X47637013Y-21564319D01*
X47364184Y-21564081D01*
X47112033Y-21668268D01*
X46918946Y-21861018D01*
X46814319Y-22112987D01*
X46814081Y-22385816D01*
X46890900Y-22571732D01*
X45890790Y-23571842D01*
X45780669Y-23736649D01*
X45742000Y-23931052D01*
X45742000Y-24119000D01*
X43099420Y-24119000D01*
X43859211Y-23359210D01*
X43859213Y-23359207D01*
X44359210Y-22859210D01*
X44373605Y-22837666D01*
X44387967Y-22831732D01*
X44581054Y-22638982D01*
X44685681Y-22387013D01*
X44685919Y-22114184D01*
X44581732Y-21862033D01*
X44388982Y-21668946D01*
X44137013Y-21564319D01*
X43864184Y-21564081D01*
X43612033Y-21668268D01*
X43418946Y-21861018D01*
X43314319Y-22112987D01*
X43314081Y-22385816D01*
X43337964Y-22443616D01*
X43140793Y-22640787D01*
X43140790Y-22640789D01*
X42289580Y-23492000D01*
X41250000Y-23492000D01*
X41055597Y-23530669D01*
X40890790Y-23640790D01*
X39967409Y-24564171D01*
X39864184Y-24564081D01*
X39612033Y-24668268D01*
X39418946Y-24861018D01*
X39314319Y-25112987D01*
X39314314Y-25119000D01*
X37518699Y-25119000D01*
X37387013Y-25064319D01*
X37114184Y-25064081D01*
X36862033Y-25168268D01*
X36668946Y-25361018D01*
X36564319Y-25612987D01*
X36564081Y-25885816D01*
X36619000Y-26018730D01*
X36619000Y-26750000D01*
X36647003Y-26893367D01*
X36730592Y-27019408D01*
X36980592Y-27269408D01*
X37101770Y-27350983D01*
X37250000Y-27381000D01*
X52842184Y-27381000D01*
X52869000Y-27407816D01*
X52869000Y-29569000D01*
X41149420Y-29569000D01*
X41282591Y-29435829D01*
X41385816Y-29435919D01*
X41637967Y-29331732D01*
X41831054Y-29138982D01*
X41935681Y-28887013D01*
X41935919Y-28614184D01*
X41831732Y-28362033D01*
X41638982Y-28168946D01*
X41387013Y-28064319D01*
X41114184Y-28064081D01*
X40862033Y-28168268D01*
X40668946Y-28361018D01*
X40564319Y-28612987D01*
X40564228Y-28717352D01*
X40289580Y-28992000D01*
X29460420Y-28992000D01*
X29185829Y-28717409D01*
X29185919Y-28614184D01*
X29081732Y-28362033D01*
X28888982Y-28168946D01*
X28637013Y-28064319D01*
X28364184Y-28064081D01*
X28112033Y-28168268D01*
X27918946Y-28361018D01*
X27814319Y-28612987D01*
X27814081Y-28885816D01*
X27918268Y-29137967D01*
X28111018Y-29331054D01*
X28362987Y-29435681D01*
X28467352Y-29435772D01*
X28600580Y-29569000D01*
X19127000Y-29569000D01*
X19127000Y-23000000D01*
X19116994Y-22950590D01*
X19089803Y-22910197D01*
X13627000Y-17447394D01*
X13627000Y-15052606D01*
X14052606Y-14627000D01*
X18697394Y-14627000D01*
X19123000Y-15052606D01*
X19123000Y-15052606D01*
G37*
X19123000Y-15052606D02*
X19123000Y-16750000D01*
X19133006Y-16799410D01*
X19160197Y-16839803D01*
X20160197Y-17839803D01*
X20202211Y-17867666D01*
X20250000Y-17877000D01*
X25197394Y-17877000D01*
X28410197Y-21089803D01*
X28452211Y-21117666D01*
X28500000Y-21127000D01*
X46500000Y-21127000D01*
X46549410Y-21116994D01*
X46589803Y-21089803D01*
X47052606Y-20627000D01*
X49834184Y-20627000D01*
X48185778Y-22275406D01*
X48185919Y-22114184D01*
X48081732Y-21862033D01*
X47888982Y-21668946D01*
X47637013Y-21564319D01*
X47364184Y-21564081D01*
X47112033Y-21668268D01*
X46918946Y-21861018D01*
X46814319Y-22112987D01*
X46814081Y-22385816D01*
X46890900Y-22571732D01*
X45890790Y-23571842D01*
X45780669Y-23736649D01*
X45742000Y-23931052D01*
X45742000Y-24119000D01*
X43099420Y-24119000D01*
X43859211Y-23359210D01*
X43859213Y-23359207D01*
X44359210Y-22859210D01*
X44373605Y-22837666D01*
X44387967Y-22831732D01*
X44581054Y-22638982D01*
X44685681Y-22387013D01*
X44685919Y-22114184D01*
X44581732Y-21862033D01*
X44388982Y-21668946D01*
X44137013Y-21564319D01*
X43864184Y-21564081D01*
X43612033Y-21668268D01*
X43418946Y-21861018D01*
X43314319Y-22112987D01*
X43314081Y-22385816D01*
X43337964Y-22443616D01*
X43140793Y-22640787D01*
X43140790Y-22640789D01*
X42289580Y-23492000D01*
X41250000Y-23492000D01*
X41055597Y-23530669D01*
X40890790Y-23640790D01*
X39967409Y-24564171D01*
X39864184Y-24564081D01*
X39612033Y-24668268D01*
X39418946Y-24861018D01*
X39314319Y-25112987D01*
X39314314Y-25119000D01*
X37518699Y-25119000D01*
X37387013Y-25064319D01*
X37114184Y-25064081D01*
X36862033Y-25168268D01*
X36668946Y-25361018D01*
X36564319Y-25612987D01*
X36564081Y-25885816D01*
X36619000Y-26018730D01*
X36619000Y-26750000D01*
X36647003Y-26893367D01*
X36730592Y-27019408D01*
X36980592Y-27269408D01*
X37101770Y-27350983D01*
X37250000Y-27381000D01*
X52842184Y-27381000D01*
X52869000Y-27407816D01*
X52869000Y-29569000D01*
X41149420Y-29569000D01*
X41282591Y-29435829D01*
X41385816Y-29435919D01*
X41637967Y-29331732D01*
X41831054Y-29138982D01*
X41935681Y-28887013D01*
X41935919Y-28614184D01*
X41831732Y-28362033D01*
X41638982Y-28168946D01*
X41387013Y-28064319D01*
X41114184Y-28064081D01*
X40862033Y-28168268D01*
X40668946Y-28361018D01*
X40564319Y-28612987D01*
X40564228Y-28717352D01*
X40289580Y-28992000D01*
X29460420Y-28992000D01*
X29185829Y-28717409D01*
X29185919Y-28614184D01*
X29081732Y-28362033D01*
X28888982Y-28168946D01*
X28637013Y-28064319D01*
X28364184Y-28064081D01*
X28112033Y-28168268D01*
X27918946Y-28361018D01*
X27814319Y-28612987D01*
X27814081Y-28885816D01*
X27918268Y-29137967D01*
X28111018Y-29331054D01*
X28362987Y-29435681D01*
X28467352Y-29435772D01*
X28600580Y-29569000D01*
X19127000Y-29569000D01*
X19127000Y-23000000D01*
X19116994Y-22950590D01*
X19089803Y-22910197D01*
X13627000Y-17447394D01*
X13627000Y-15052606D01*
X14052606Y-14627000D01*
X18697394Y-14627000D01*
X19123000Y-15052606D01*
G36*
X58123000Y-1480838D02*
X58042093Y-1599000D01*
X57738709Y-2306848D01*
X57578591Y-3060143D01*
X57567838Y-3830193D01*
X57706860Y-4587665D01*
X57990362Y-5303709D01*
X58000678Y-5319716D01*
X56697394Y-6623000D01*
X53000000Y-6623000D01*
X52964619Y-6628028D01*
X52932039Y-6642714D01*
X52910197Y-6660197D01*
X50660197Y-8910197D01*
X50638734Y-8938771D01*
X50626082Y-8972193D01*
X50623000Y-9000000D01*
X50623000Y-18697394D01*
X49697394Y-19623000D01*
X46500000Y-19623000D01*
X46464619Y-19628028D01*
X46432039Y-19642714D01*
X46410197Y-19660197D01*
X45947394Y-20123000D01*
X29052606Y-20123000D01*
X27732998Y-18803392D01*
X30114166Y-18803392D01*
X30136646Y-18925876D01*
X30182488Y-19041661D01*
X30249947Y-19146337D01*
X30336453Y-19235916D01*
X30438710Y-19306987D01*
X30552825Y-19356843D01*
X30674450Y-19383583D01*
X30798952Y-19386191D01*
X30921590Y-19364567D01*
X31037692Y-19319534D01*
X31142836Y-19252808D01*
X31233017Y-19166929D01*
X31248799Y-19144556D01*
X31249947Y-19146337D01*
X31336453Y-19235916D01*
X31438710Y-19306987D01*
X31552825Y-19356843D01*
X31674450Y-19383583D01*
X31798952Y-19386191D01*
X31921590Y-19364567D01*
X32037692Y-19319534D01*
X32142836Y-19252808D01*
X32233017Y-19166929D01*
X32304800Y-19065170D01*
X32355451Y-18951407D01*
X32383041Y-18829972D01*
X32385027Y-18687735D01*
X32360839Y-18565577D01*
X32313384Y-18450443D01*
X32244470Y-18346720D01*
X32207200Y-18309189D01*
X32207200Y-15689378D01*
X34073289Y-13823289D01*
X34100091Y-13790661D01*
X34127242Y-13758303D01*
X34128400Y-13756197D01*
X34129926Y-13754339D01*
X34149870Y-13717144D01*
X34170229Y-13680110D01*
X34170957Y-13677815D01*
X34172091Y-13675700D01*
X34184429Y-13635344D01*
X34197209Y-13595057D01*
X34197477Y-13592669D01*
X34198180Y-13590369D01*
X34202449Y-13548337D01*
X34207155Y-13506384D01*
X34207188Y-13501683D01*
X34207197Y-13501596D01*
X34207189Y-13501515D01*
X34207200Y-13500000D01*
X34207200Y-13000000D01*
X34203078Y-12957957D01*
X34199398Y-12915897D01*
X34198728Y-12913590D01*
X34198493Y-12911196D01*
X34186296Y-12870800D01*
X34174504Y-12830210D01*
X34173395Y-12828071D01*
X34172702Y-12825775D01*
X34152885Y-12788504D01*
X34133440Y-12750991D01*
X34131942Y-12749115D01*
X34130812Y-12746989D01*
X34104058Y-12714185D01*
X34077771Y-12681257D01*
X34074478Y-12677917D01*
X34074416Y-12677841D01*
X34074346Y-12677783D01*
X34073289Y-12676711D01*
X33634329Y-12237751D01*
X33635027Y-12187735D01*
X33610839Y-12065577D01*
X33563384Y-11950443D01*
X33494470Y-11846720D01*
X33406722Y-11758357D01*
X33303482Y-11688721D01*
X33188683Y-11640464D01*
X33066697Y-11615423D01*
X32942170Y-11614554D01*
X32819846Y-11637889D01*
X32704384Y-11684538D01*
X32600182Y-11752726D01*
X32511208Y-11839855D01*
X32440853Y-11942606D01*
X32391796Y-12057066D01*
X32365905Y-12178875D01*
X32364166Y-12303392D01*
X32386646Y-12425876D01*
X32432488Y-12541661D01*
X32499947Y-12646337D01*
X32586453Y-12735916D01*
X32605709Y-12749300D01*
X32576686Y-12768292D01*
X32487712Y-12855421D01*
X32417357Y-12958172D01*
X32368300Y-13072632D01*
X32342409Y-13194441D01*
X32341466Y-13261956D01*
X30426711Y-15176711D01*
X30399909Y-15209339D01*
X30372758Y-15241697D01*
X30371600Y-15243803D01*
X30370074Y-15245661D01*
X30350130Y-15282856D01*
X30329771Y-15319890D01*
X30329043Y-15322185D01*
X30327909Y-15324300D01*
X30315558Y-15364697D01*
X30302791Y-15404943D01*
X30302524Y-15407326D01*
X30301819Y-15409631D01*
X30297540Y-15451757D01*
X30292845Y-15493616D01*
X30292812Y-15498306D01*
X30292802Y-15498404D01*
X30292811Y-15498495D01*
X30292800Y-15500000D01*
X30292800Y-18308918D01*
X30261208Y-18339855D01*
X30190853Y-18442606D01*
X30141796Y-18557066D01*
X30115905Y-18678875D01*
X30114166Y-18803392D01*
X27732998Y-18803392D01*
X25589803Y-16660197D01*
X25561229Y-16638734D01*
X25527807Y-16626082D01*
X25500000Y-16623000D01*
X20552606Y-16623000D01*
X20377000Y-16447394D01*
X20377000Y-15000000D01*
X20371972Y-14964619D01*
X20357286Y-14932039D01*
X20339803Y-14910197D01*
X18839803Y-13410197D01*
X18811229Y-13388734D01*
X18777807Y-13376082D01*
X18750000Y-13373000D01*
X13250000Y-13373000D01*
X13214619Y-13378028D01*
X13182039Y-13392714D01*
X13160197Y-13410197D01*
X12410197Y-14160197D01*
X12388734Y-14188771D01*
X12376082Y-14222193D01*
X12373000Y-14250000D01*
X12373000Y-29619800D01*
X4666067Y-29619800D01*
X5008777Y-29486872D01*
X5560196Y-29136931D01*
X6033142Y-28686550D01*
X6409602Y-28152884D01*
X6675236Y-27556260D01*
X6819926Y-26919404D01*
X6830342Y-26173457D01*
X6703491Y-25532809D01*
X6454619Y-24929001D01*
X6093207Y-24385032D01*
X5633020Y-23921622D01*
X5091587Y-23556421D01*
X4489532Y-23303340D01*
X3849785Y-23172018D01*
X3196715Y-23167459D01*
X2555197Y-23289835D01*
X1949666Y-23534485D01*
X1403188Y-23892091D01*
X936576Y-24349031D01*
X567604Y-24887901D01*
X380200Y-25325148D01*
X380200Y-4667068D01*
X523734Y-5029593D01*
X877516Y-5578555D01*
X1331188Y-6048346D01*
X1867469Y-6421070D01*
X2465932Y-6682533D01*
X3103783Y-6822773D01*
X3756726Y-6836451D01*
X4399890Y-6723043D01*
X5008777Y-6486872D01*
X5560196Y-6136931D01*
X6033142Y-5686550D01*
X6409602Y-5152884D01*
X6675236Y-4556260D01*
X6819926Y-3919404D01*
X6830342Y-3173457D01*
X6703491Y-2532809D01*
X6616118Y-2320826D01*
X7288380Y-2320826D01*
X7326621Y-2529184D01*
X7404603Y-2726146D01*
X7519358Y-2904211D01*
X7666513Y-3056594D01*
X7840464Y-3177493D01*
X8034585Y-3262302D01*
X8241481Y-3307792D01*
X8432491Y-3311793D01*
X8421537Y-3363327D01*
X8418196Y-3602598D01*
X8434269Y-3690176D01*
X8271625Y-3689040D01*
X8063539Y-3728735D01*
X7867126Y-3808091D01*
X7689867Y-3924086D01*
X7538515Y-4072301D01*
X7418833Y-4247092D01*
X7335381Y-4441800D01*
X7291337Y-4649009D01*
X7288380Y-4860826D01*
X7326621Y-5069184D01*
X7404603Y-5266146D01*
X7519358Y-5444211D01*
X7666513Y-5596594D01*
X7840464Y-5717493D01*
X8034585Y-5802302D01*
X8241481Y-5847792D01*
X8453273Y-5852228D01*
X8661893Y-5815443D01*
X8859395Y-5738837D01*
X9038256Y-5625328D01*
X9191663Y-5479240D01*
X9313773Y-5306138D01*
X9399936Y-5112614D01*
X9446868Y-4906040D01*
X9449640Y-4707545D01*
X9494824Y-4717479D01*
X9734066Y-4722490D01*
X9830549Y-4705477D01*
X9828380Y-4860826D01*
X9866621Y-5069184D01*
X9944603Y-5266146D01*
X10059358Y-5444211D01*
X10206513Y-5596594D01*
X10380464Y-5717493D01*
X10574585Y-5802302D01*
X10781481Y-5847792D01*
X10993273Y-5852228D01*
X11201893Y-5815443D01*
X11399395Y-5738837D01*
X11578256Y-5625328D01*
X11731663Y-5479240D01*
X11853773Y-5306138D01*
X11939936Y-5112614D01*
X11986868Y-4906040D01*
X11990247Y-4664081D01*
X11949100Y-4456277D01*
X11868375Y-4260423D01*
X11751146Y-4083978D01*
X11601877Y-3933664D01*
X11426255Y-3815206D01*
X11230970Y-3733115D01*
X11023458Y-3690519D01*
X10848342Y-3689296D01*
X10856436Y-3653672D01*
X10860252Y-3380353D01*
X10846153Y-3309147D01*
X10993273Y-3312228D01*
X11109611Y-3291715D01*
X11748948Y-3931052D01*
X11792431Y-3966770D01*
X11835596Y-4002989D01*
X11838405Y-4004533D01*
X11840882Y-4006568D01*
X11890501Y-4033174D01*
X11939853Y-4060305D01*
X11942910Y-4061275D01*
X11945734Y-4062789D01*
X11999565Y-4079247D01*
X12053257Y-4096279D01*
X12056444Y-4096636D01*
X12059507Y-4097573D01*
X12115478Y-4103258D01*
X12171489Y-4109541D01*
X12177758Y-4109584D01*
X12177872Y-4109596D01*
X12177978Y-4109586D01*
X12180000Y-4109600D01*
X12592976Y-4109600D01*
X12498833Y-4247092D01*
X12415381Y-4441800D01*
X12371337Y-4649009D01*
X12368380Y-4860826D01*
X12406621Y-5069184D01*
X12484603Y-5266146D01*
X12599358Y-5444211D01*
X12746513Y-5596594D01*
X12920464Y-5717493D01*
X13114585Y-5802302D01*
X13321481Y-5847792D01*
X13533273Y-5852228D01*
X13741893Y-5815443D01*
X13939395Y-5738837D01*
X14118256Y-5625328D01*
X14271663Y-5479240D01*
X14393773Y-5306138D01*
X14479936Y-5112614D01*
X14526868Y-4906040D01*
X14530247Y-4664081D01*
X14489100Y-4456277D01*
X14408375Y-4260423D01*
X14308169Y-4109600D01*
X15132976Y-4109600D01*
X15038833Y-4247092D01*
X14955381Y-4441800D01*
X14911337Y-4649009D01*
X14908380Y-4860826D01*
X14946621Y-5069184D01*
X15024603Y-5266146D01*
X15139358Y-5444211D01*
X15286513Y-5596594D01*
X15460464Y-5717493D01*
X15654585Y-5802302D01*
X15861481Y-5847792D01*
X16073273Y-5852228D01*
X16281893Y-5815443D01*
X16479395Y-5738837D01*
X16640400Y-5636660D01*
X16640400Y-7250000D01*
X16652010Y-7368405D01*
X16686397Y-7482301D01*
X16742251Y-7587347D01*
X16764854Y-7615061D01*
X16692170Y-7614554D01*
X16569846Y-7637889D01*
X16454384Y-7684538D01*
X16350182Y-7752726D01*
X16261208Y-7839855D01*
X16190853Y-7942606D01*
X16141796Y-8057066D01*
X16115905Y-8178875D01*
X16114166Y-8303392D01*
X16136646Y-8425876D01*
X16182488Y-8541661D01*
X16249947Y-8646337D01*
X16336453Y-8735916D01*
X16438710Y-8806987D01*
X16552825Y-8856843D01*
X16674450Y-8883583D01*
X16738343Y-8884921D01*
X17676711Y-9823289D01*
X17709317Y-9850072D01*
X17741697Y-9877242D01*
X17743806Y-9878401D01*
X17745662Y-9879926D01*
X17782836Y-9899858D01*
X17819890Y-9920229D01*
X17822185Y-9920957D01*
X17824300Y-9922091D01*
X17864697Y-9934442D01*
X17904943Y-9947209D01*
X17907326Y-9947476D01*
X17909631Y-9948181D01*
X17951757Y-9952460D01*
X17993616Y-9957155D01*
X17998306Y-9957188D01*
X17998404Y-9957198D01*
X17998495Y-9957189D01*
X18000000Y-9957200D01*
X21558722Y-9957200D01*
X21586453Y-9985916D01*
X21688710Y-10056987D01*
X21802825Y-10106843D01*
X21924450Y-10133583D01*
X22048952Y-10136191D01*
X22171590Y-10114567D01*
X22287692Y-10069534D01*
X22392836Y-10002808D01*
X22483017Y-9916929D01*
X22554800Y-9815170D01*
X22605451Y-9701407D01*
X22633041Y-9579972D01*
X22635027Y-9437735D01*
X22610839Y-9315577D01*
X22563384Y-9200443D01*
X22494470Y-9096720D01*
X22406722Y-9008357D01*
X22303482Y-8938721D01*
X22188683Y-8890464D01*
X22066697Y-8865423D01*
X21942170Y-8864554D01*
X21819846Y-8887889D01*
X21704384Y-8934538D01*
X21600182Y-9002726D01*
X21559259Y-9042800D01*
X18189378Y-9042800D01*
X17384329Y-8237751D01*
X17385027Y-8187735D01*
X17360839Y-8065577D01*
X17313384Y-7950443D01*
X17252603Y-7858961D01*
X17364228Y-7848802D01*
X17478360Y-7815211D01*
X17583795Y-7760092D01*
X17676515Y-7685543D01*
X17752989Y-7594404D01*
X17810305Y-7490147D01*
X17846279Y-7376743D01*
X17859541Y-7258511D01*
X17859600Y-7250000D01*
X17859600Y-5570580D01*
X17892407Y-5648422D01*
X18076030Y-5755932D01*
X18277098Y-5825553D01*
X18487885Y-5854609D01*
X18700291Y-5841985D01*
X18906153Y-5788165D01*
X19097560Y-5695217D01*
X19167593Y-5648422D01*
X19238788Y-5479495D01*
X18530000Y-4770707D01*
X18515858Y-4784850D01*
X18515151Y-4784143D01*
X18529293Y-4770000D01*
X18530707Y-4770000D01*
X19239495Y-5478788D01*
X19408422Y-5407593D01*
X19515932Y-5223970D01*
X19585553Y-5022902D01*
X19607894Y-4860826D01*
X19988380Y-4860826D01*
X20026621Y-5069184D01*
X20104603Y-5266146D01*
X20219358Y-5444211D01*
X20366513Y-5596594D01*
X20540464Y-5717493D01*
X20734585Y-5802302D01*
X20941481Y-5847792D01*
X21153273Y-5852228D01*
X21361893Y-5815443D01*
X21559395Y-5738837D01*
X21738256Y-5625328D01*
X21891663Y-5479240D01*
X22013773Y-5306138D01*
X22099936Y-5112614D01*
X22146868Y-4906040D01*
X22147499Y-4860826D01*
X22528380Y-4860826D01*
X22566621Y-5069184D01*
X22644603Y-5266146D01*
X22759358Y-5444211D01*
X22906513Y-5596594D01*
X23080464Y-5717493D01*
X23274585Y-5802302D01*
X23481481Y-5847792D01*
X23693273Y-5852228D01*
X23901893Y-5815443D01*
X24099395Y-5738837D01*
X24278256Y-5625328D01*
X24431663Y-5479240D01*
X24553773Y-5306138D01*
X24639936Y-5112614D01*
X24686868Y-4906040D01*
X24687499Y-4860826D01*
X25068380Y-4860826D01*
X25106621Y-5069184D01*
X25184603Y-5266146D01*
X25299358Y-5444211D01*
X25446513Y-5596594D01*
X25620464Y-5717493D01*
X25814585Y-5802302D01*
X26021481Y-5847792D01*
X26233273Y-5852228D01*
X26441893Y-5815443D01*
X26639395Y-5738837D01*
X26818256Y-5625328D01*
X26971663Y-5479240D01*
X27093773Y-5306138D01*
X27179936Y-5112614D01*
X27226868Y-4906040D01*
X27227499Y-4860826D01*
X27608380Y-4860826D01*
X27646621Y-5069184D01*
X27724603Y-5266146D01*
X27839358Y-5444211D01*
X27986513Y-5596594D01*
X28160464Y-5717493D01*
X28354585Y-5802302D01*
X28561481Y-5847792D01*
X28773273Y-5852228D01*
X28981893Y-5815443D01*
X29179395Y-5738837D01*
X29358256Y-5625328D01*
X29511663Y-5479240D01*
X29633773Y-5306138D01*
X29719936Y-5112614D01*
X29766868Y-4906040D01*
X29767499Y-4860826D01*
X30148380Y-4860826D01*
X30186621Y-5069184D01*
X30264603Y-5266146D01*
X30379358Y-5444211D01*
X30526513Y-5596594D01*
X30700464Y-5717493D01*
X30894585Y-5802302D01*
X31101481Y-5847792D01*
X31313273Y-5852228D01*
X31521893Y-5815443D01*
X31719395Y-5738837D01*
X31898256Y-5625328D01*
X32051663Y-5479240D01*
X32173773Y-5306138D01*
X32259936Y-5112614D01*
X32306868Y-4906040D01*
X32310247Y-4664081D01*
X32269100Y-4456277D01*
X32246101Y-4400477D01*
X32689378Y-3957200D01*
X33056052Y-3957200D01*
X32938515Y-4072301D01*
X32818833Y-4247092D01*
X32735381Y-4441800D01*
X32691337Y-4649009D01*
X32688380Y-4860826D01*
X32726621Y-5069184D01*
X32804603Y-5266146D01*
X32919358Y-5444211D01*
X33066513Y-5596594D01*
X33240464Y-5717493D01*
X33434585Y-5802302D01*
X33641481Y-5847792D01*
X33853273Y-5852228D01*
X33940304Y-5836882D01*
X34042800Y-5939378D01*
X34042800Y-7896222D01*
X33016310Y-6869732D01*
X33054800Y-6815170D01*
X33105451Y-6701407D01*
X33133041Y-6579972D01*
X33135027Y-6437735D01*
X33110839Y-6315577D01*
X33063384Y-6200443D01*
X32994470Y-6096720D01*
X32906722Y-6008357D01*
X32803482Y-5938721D01*
X32688683Y-5890464D01*
X32566697Y-5865423D01*
X32442170Y-5864554D01*
X32319846Y-5887889D01*
X32204384Y-5934538D01*
X32100182Y-6002726D01*
X32011208Y-6089855D01*
X31940853Y-6192606D01*
X31891796Y-6307066D01*
X31865905Y-6428875D01*
X31864166Y-6553392D01*
X31886646Y-6675876D01*
X31932488Y-6791661D01*
X31999947Y-6896337D01*
X32042800Y-6940712D01*
X32042800Y-7000000D01*
X32046922Y-7042043D01*
X32050602Y-7084103D01*
X32051272Y-7086410D01*
X32051507Y-7088804D01*
X32063704Y-7129200D01*
X32075496Y-7169790D01*
X32076605Y-7171929D01*
X32077298Y-7174225D01*
X32097115Y-7211496D01*
X32116560Y-7249009D01*
X32118058Y-7250885D01*
X32119188Y-7253011D01*
X32145917Y-7285784D01*
X32172228Y-7318743D01*
X32175523Y-7322085D01*
X32175584Y-7322159D01*
X32175653Y-7322216D01*
X32176711Y-7323289D01*
X33542800Y-8689378D01*
X33542800Y-10750000D01*
X33546922Y-10792043D01*
X33550602Y-10834103D01*
X33551272Y-10836410D01*
X33551507Y-10838804D01*
X33563704Y-10879200D01*
X33575496Y-10919790D01*
X33576605Y-10921929D01*
X33577298Y-10924225D01*
X33597115Y-10961496D01*
X33616560Y-10999009D01*
X33618058Y-11000885D01*
X33619188Y-11003011D01*
X33645917Y-11035784D01*
X33672228Y-11068743D01*
X33675523Y-11072085D01*
X33675584Y-11072159D01*
X33675653Y-11072216D01*
X33676711Y-11073289D01*
X35292800Y-12689378D01*
X35292800Y-16810622D01*
X34755823Y-17347599D01*
X34617180Y-17347599D01*
X34610839Y-17315577D01*
X34563384Y-17200443D01*
X34494470Y-17096720D01*
X34406722Y-17008357D01*
X34303482Y-16938721D01*
X34188683Y-16890464D01*
X34066697Y-16865423D01*
X33942170Y-16864554D01*
X33819846Y-16887889D01*
X33704384Y-16934538D01*
X33600182Y-17002726D01*
X33511208Y-17089855D01*
X33440853Y-17192606D01*
X33391796Y-17307066D01*
X33365905Y-17428875D01*
X33364166Y-17553392D01*
X33386646Y-17675876D01*
X33432488Y-17791661D01*
X33499947Y-17896337D01*
X33586453Y-17985916D01*
X33688710Y-18056987D01*
X33802825Y-18106843D01*
X33924450Y-18133583D01*
X33989868Y-18134953D01*
X34014116Y-18154871D01*
X34046496Y-18182041D01*
X34048605Y-18183200D01*
X34050461Y-18184725D01*
X34087635Y-18204657D01*
X34124689Y-18225028D01*
X34126984Y-18225756D01*
X34129099Y-18226890D01*
X34169496Y-18239241D01*
X34209742Y-18252008D01*
X34212125Y-18252275D01*
X34214430Y-18252980D01*
X34256556Y-18257259D01*
X34298415Y-18261954D01*
X34303105Y-18261987D01*
X34303203Y-18261997D01*
X34303294Y-18261988D01*
X34304799Y-18261999D01*
X34340713Y-18261999D01*
X34261208Y-18339855D01*
X34190853Y-18442606D01*
X34141796Y-18557066D01*
X34115905Y-18678875D01*
X34114166Y-18803392D01*
X34136646Y-18925876D01*
X34182488Y-19041661D01*
X34249947Y-19146337D01*
X34336453Y-19235916D01*
X34438710Y-19306987D01*
X34552825Y-19356843D01*
X34674450Y-19383583D01*
X34798952Y-19386191D01*
X34921590Y-19364567D01*
X35037692Y-19319534D01*
X35142836Y-19252808D01*
X35233017Y-19166929D01*
X35261693Y-19126278D01*
X35294426Y-19177069D01*
X35380932Y-19266648D01*
X35483189Y-19337719D01*
X35597304Y-19387575D01*
X35718929Y-19414315D01*
X35843431Y-19416923D01*
X35966069Y-19395299D01*
X36082171Y-19350266D01*
X36187315Y-19283540D01*
X36277496Y-19197661D01*
X36286789Y-19184488D01*
X36336453Y-19235916D01*
X36438710Y-19306987D01*
X36552825Y-19356843D01*
X36674450Y-19383583D01*
X36798952Y-19386191D01*
X36921590Y-19364567D01*
X37037692Y-19319534D01*
X37142836Y-19252808D01*
X37233017Y-19166929D01*
X37248799Y-19144556D01*
X37249947Y-19146337D01*
X37336453Y-19235916D01*
X37438710Y-19306987D01*
X37552825Y-19356843D01*
X37674450Y-19383583D01*
X37798952Y-19386191D01*
X37921590Y-19364567D01*
X38037692Y-19319534D01*
X38142836Y-19252808D01*
X38233017Y-19166929D01*
X38304800Y-19065170D01*
X38355451Y-18951407D01*
X38383041Y-18829972D01*
X38385027Y-18687735D01*
X38360839Y-18565577D01*
X38313384Y-18450443D01*
X38244470Y-18346720D01*
X38207200Y-18309189D01*
X38207200Y-11500000D01*
X38203077Y-11457953D01*
X38199398Y-11415898D01*
X38198728Y-11413591D01*
X38198493Y-11411196D01*
X38186293Y-11370787D01*
X38174504Y-11330210D01*
X38173395Y-11328071D01*
X38172702Y-11325775D01*
X38152885Y-11288504D01*
X38133440Y-11250991D01*
X38131942Y-11249115D01*
X38130812Y-11246989D01*
X38104083Y-11214216D01*
X38077772Y-11181257D01*
X38074477Y-11177915D01*
X38074416Y-11177841D01*
X38074347Y-11177784D01*
X38073289Y-11176711D01*
X36457200Y-9560622D01*
X36457200Y-7303593D01*
X37364166Y-7303593D01*
X37386646Y-7426077D01*
X37432488Y-7541862D01*
X37499947Y-7646538D01*
X37586453Y-7736117D01*
X37688710Y-7807188D01*
X37802825Y-7857044D01*
X37924450Y-7883784D01*
X37988343Y-7885122D01*
X38426510Y-8323289D01*
X38459116Y-8350072D01*
X38491496Y-8377242D01*
X38493605Y-8378401D01*
X38495461Y-8379926D01*
X38532635Y-8399858D01*
X38569689Y-8420229D01*
X38571984Y-8420957D01*
X38574099Y-8422091D01*
X38614496Y-8434442D01*
X38654742Y-8447209D01*
X38657125Y-8447476D01*
X38659430Y-8448181D01*
X38701556Y-8452460D01*
X38743415Y-8457155D01*
X38748105Y-8457188D01*
X38748203Y-8457198D01*
X38748294Y-8457189D01*
X38749799Y-8457200D01*
X38918777Y-8457200D01*
X38922396Y-8502583D01*
X38950016Y-8591769D01*
X39001388Y-8669730D01*
X39042800Y-8705026D01*
X39042800Y-9293131D01*
X39030270Y-9301388D01*
X38969707Y-9372446D01*
X38931339Y-9457564D01*
X38918203Y-9550000D01*
X38918203Y-10450000D01*
X38922396Y-10502583D01*
X38950016Y-10591769D01*
X39001388Y-10669730D01*
X39042800Y-10705026D01*
X39042800Y-11293131D01*
X39030270Y-11301388D01*
X38969707Y-11372446D01*
X38931339Y-11457564D01*
X38918203Y-11550000D01*
X38918203Y-12450000D01*
X38922396Y-12502583D01*
X38950016Y-12591769D01*
X39001388Y-12669730D01*
X39072446Y-12730293D01*
X39157564Y-12768661D01*
X39250000Y-12781797D01*
X39435219Y-12781797D01*
X40292800Y-13639378D01*
X40292800Y-14308918D01*
X40261208Y-14339855D01*
X40190853Y-14442606D01*
X40141796Y-14557066D01*
X40115905Y-14678875D01*
X40114166Y-14803392D01*
X40136646Y-14925876D01*
X40182488Y-15041661D01*
X40249947Y-15146337D01*
X40336453Y-15235916D01*
X40438710Y-15306987D01*
X40552825Y-15356843D01*
X40674450Y-15383583D01*
X40738343Y-15384921D01*
X42176711Y-16823289D01*
X42209344Y-16850095D01*
X42241697Y-16877242D01*
X42243802Y-16878399D01*
X42245662Y-16879927D01*
X42282874Y-16899880D01*
X42319890Y-16920229D01*
X42322185Y-16920957D01*
X42324300Y-16922091D01*
X42364697Y-16934442D01*
X42404943Y-16947209D01*
X42407326Y-16947476D01*
X42409631Y-16948181D01*
X42451757Y-16952460D01*
X42493616Y-16957155D01*
X42498306Y-16957188D01*
X42498404Y-16957198D01*
X42498495Y-16957189D01*
X42500000Y-16957200D01*
X46058722Y-16957200D01*
X46086453Y-16985916D01*
X46188710Y-17056987D01*
X46302825Y-17106843D01*
X46424450Y-17133583D01*
X46548952Y-17136191D01*
X46671590Y-17114567D01*
X46787692Y-17069534D01*
X46892836Y-17002808D01*
X46983017Y-16916929D01*
X47054800Y-16815170D01*
X47105451Y-16701407D01*
X47133041Y-16579972D01*
X47135027Y-16437735D01*
X47110839Y-16315577D01*
X47063384Y-16200443D01*
X46994470Y-16096720D01*
X46906722Y-16008357D01*
X46803482Y-15938721D01*
X46688683Y-15890464D01*
X46566697Y-15865423D01*
X46442170Y-15864554D01*
X46319846Y-15887889D01*
X46204384Y-15934538D01*
X46100182Y-16002726D01*
X46059259Y-16042800D01*
X42689378Y-16042800D01*
X41384329Y-14737751D01*
X41385027Y-14687735D01*
X41360839Y-14565577D01*
X41313384Y-14450443D01*
X41244470Y-14346720D01*
X41207200Y-14309189D01*
X41207200Y-13450000D01*
X41203078Y-13407957D01*
X41199398Y-13365897D01*
X41198728Y-13363590D01*
X41198493Y-13361196D01*
X41186296Y-13320800D01*
X41174504Y-13280210D01*
X41173395Y-13278071D01*
X41172702Y-13275775D01*
X41152885Y-13238504D01*
X41133440Y-13200991D01*
X41131942Y-13199115D01*
X41130812Y-13196989D01*
X41104083Y-13164216D01*
X41077772Y-13131257D01*
X41074477Y-13127915D01*
X41074416Y-13127841D01*
X41074347Y-13127784D01*
X41073289Y-13126711D01*
X40724793Y-12778215D01*
X40750000Y-12781797D01*
X41250000Y-12781797D01*
X41302583Y-12777604D01*
X41391769Y-12749984D01*
X41469730Y-12698612D01*
X41530293Y-12627554D01*
X41568661Y-12542436D01*
X41581797Y-12450000D01*
X41581797Y-12432200D01*
X41841019Y-12432200D01*
X41897446Y-12480293D01*
X41982564Y-12518661D01*
X42075000Y-12531797D01*
X43525000Y-12531797D01*
X43577583Y-12527604D01*
X43666769Y-12499984D01*
X43744730Y-12448612D01*
X43758718Y-12432200D01*
X43779000Y-12432200D01*
X43821043Y-12428078D01*
X43863103Y-12424398D01*
X43865410Y-12423728D01*
X43867804Y-12423493D01*
X43908200Y-12411296D01*
X43948790Y-12399504D01*
X43950929Y-12398395D01*
X43953225Y-12397702D01*
X43990496Y-12377885D01*
X44028009Y-12358440D01*
X44029885Y-12356942D01*
X44032011Y-12355812D01*
X44064784Y-12329083D01*
X44097743Y-12302772D01*
X44101085Y-12299477D01*
X44101159Y-12299416D01*
X44101216Y-12299347D01*
X44102289Y-12298289D01*
X44342528Y-12058050D01*
X47644800Y-12058050D01*
X47644800Y-12232522D01*
X47657489Y-12296316D01*
X47682380Y-12356408D01*
X47718517Y-12410490D01*
X47764510Y-12456483D01*
X47818592Y-12492619D01*
X47878684Y-12517511D01*
X47942478Y-12530200D01*
X48616950Y-12530200D01*
X48699500Y-12447650D01*
X48699500Y-11975500D01*
X48700500Y-11975500D01*
X48700500Y-12447650D01*
X48783050Y-12530200D01*
X49457522Y-12530200D01*
X49521316Y-12517511D01*
X49581408Y-12492619D01*
X49635490Y-12456483D01*
X49681483Y-12410490D01*
X49717620Y-12356408D01*
X49742511Y-12296316D01*
X49755200Y-12232522D01*
X49755200Y-12058050D01*
X49672650Y-11975500D01*
X48700500Y-11975500D01*
X48699500Y-11975500D01*
X47727350Y-11975500D01*
X47644800Y-12058050D01*
X44342528Y-12058050D01*
X44992528Y-11408050D01*
X47644800Y-11408050D01*
X47644800Y-11582522D01*
X47657489Y-11646316D01*
X47659015Y-11650000D01*
X47657489Y-11653684D01*
X47644800Y-11717478D01*
X47644800Y-11891950D01*
X47727350Y-11974500D01*
X48699500Y-11974500D01*
X48699500Y-11325500D01*
X48700500Y-11325500D01*
X48700500Y-11974500D01*
X49672650Y-11974500D01*
X49755200Y-11891950D01*
X49755200Y-11717478D01*
X49742511Y-11653684D01*
X49740985Y-11650000D01*
X49742511Y-11646316D01*
X49755200Y-11582522D01*
X49755200Y-11408050D01*
X49672650Y-11325500D01*
X48700500Y-11325500D01*
X48699500Y-11325500D01*
X47727350Y-11325500D01*
X47644800Y-11408050D01*
X44992528Y-11408050D01*
X45642528Y-10758050D01*
X47644800Y-10758050D01*
X47644800Y-10932522D01*
X47657489Y-10996316D01*
X47659015Y-11000000D01*
X47657489Y-11003684D01*
X47644800Y-11067478D01*
X47644800Y-11241950D01*
X47727350Y-11324500D01*
X48699500Y-11324500D01*
X48699500Y-10675500D01*
X48700500Y-10675500D01*
X48700500Y-11324500D01*
X49672650Y-11324500D01*
X49755200Y-11241950D01*
X49755200Y-11067478D01*
X49742511Y-11003684D01*
X49740985Y-11000000D01*
X49742511Y-10996316D01*
X49755200Y-10932522D01*
X49755200Y-10758050D01*
X49672650Y-10675500D01*
X48700500Y-10675500D01*
X48699500Y-10675500D01*
X47727350Y-10675500D01*
X47644800Y-10758050D01*
X45642528Y-10758050D01*
X46073289Y-10327289D01*
X46100072Y-10294683D01*
X46127242Y-10262303D01*
X46128401Y-10260194D01*
X46129926Y-10258338D01*
X46149858Y-10221164D01*
X46170229Y-10184110D01*
X46170957Y-10181815D01*
X46172091Y-10179700D01*
X46184442Y-10139303D01*
X46194356Y-10108050D01*
X47644800Y-10108050D01*
X47644800Y-10282522D01*
X47657489Y-10346316D01*
X47659015Y-10350000D01*
X47657489Y-10353684D01*
X47644800Y-10417478D01*
X47644800Y-10591950D01*
X47727350Y-10674500D01*
X48699500Y-10674500D01*
X48699500Y-10025500D01*
X48700500Y-10025500D01*
X48700500Y-10674500D01*
X49672650Y-10674500D01*
X49755200Y-10591950D01*
X49755200Y-10417478D01*
X49742511Y-10353684D01*
X49740985Y-10350000D01*
X49742511Y-10346316D01*
X49755200Y-10282522D01*
X49755200Y-10108050D01*
X49672650Y-10025500D01*
X48700500Y-10025500D01*
X48699500Y-10025500D01*
X47727350Y-10025500D01*
X47644800Y-10108050D01*
X46194356Y-10108050D01*
X46197209Y-10099057D01*
X46197476Y-10096674D01*
X46198181Y-10094369D01*
X46202460Y-10052243D01*
X46207155Y-10010384D01*
X46207188Y-10005694D01*
X46207198Y-10005596D01*
X46207189Y-10005505D01*
X46207200Y-10004000D01*
X46207200Y-9767478D01*
X47644800Y-9767478D01*
X47644800Y-9941950D01*
X47727350Y-10024500D01*
X48699500Y-10024500D01*
X48699500Y-9552350D01*
X48700500Y-9552350D01*
X48700500Y-10024500D01*
X49672650Y-10024500D01*
X49755200Y-9941950D01*
X49755200Y-9767478D01*
X49742511Y-9703684D01*
X49717620Y-9643592D01*
X49681483Y-9589510D01*
X49635490Y-9543517D01*
X49581408Y-9507381D01*
X49521316Y-9482489D01*
X49457522Y-9469800D01*
X48783050Y-9469800D01*
X48700500Y-9552350D01*
X48699500Y-9552350D01*
X48616950Y-9469800D01*
X47942478Y-9469800D01*
X47878684Y-9482489D01*
X47818592Y-9507381D01*
X47764510Y-9543517D01*
X47718517Y-9589510D01*
X47682380Y-9643592D01*
X47657489Y-9703684D01*
X47644800Y-9767478D01*
X46207200Y-9767478D01*
X46207200Y-8718021D01*
X48032686Y-8718021D01*
X48105319Y-8888178D01*
X48290981Y-8996883D01*
X48494283Y-9067278D01*
X48707412Y-9096658D01*
X48922177Y-9083895D01*
X49130326Y-9029478D01*
X49323860Y-8935499D01*
X49394681Y-8888178D01*
X49467314Y-8718021D01*
X48750000Y-8000707D01*
X48032686Y-8718021D01*
X46207200Y-8718021D01*
X46207200Y-8705200D01*
X46416950Y-8705200D01*
X46499500Y-8622650D01*
X46499500Y-8000500D01*
X46500500Y-8000500D01*
X46500500Y-8622650D01*
X46583050Y-8705200D01*
X46932522Y-8705200D01*
X46996316Y-8692511D01*
X47056408Y-8667619D01*
X47110490Y-8631483D01*
X47156483Y-8585490D01*
X47192620Y-8531408D01*
X47217511Y-8471316D01*
X47230200Y-8407522D01*
X47230200Y-8083050D01*
X47147650Y-8000500D01*
X46500500Y-8000500D01*
X46499500Y-8000500D01*
X46479500Y-8000500D01*
X46479500Y-7999500D01*
X46499500Y-7999500D01*
X46499500Y-7377350D01*
X46500500Y-7377350D01*
X46500500Y-7999500D01*
X47147650Y-7999500D01*
X47189738Y-7957412D01*
X47653342Y-7957412D01*
X47666105Y-8172177D01*
X47720522Y-8380326D01*
X47814501Y-8573860D01*
X47861822Y-8644681D01*
X48031979Y-8717314D01*
X48749293Y-8000000D01*
X48750707Y-8000000D01*
X49468021Y-8717314D01*
X49638178Y-8644681D01*
X49746883Y-8459019D01*
X49817278Y-8255717D01*
X49846658Y-8042588D01*
X49833895Y-7827823D01*
X49779478Y-7619674D01*
X49685499Y-7426140D01*
X49638178Y-7355319D01*
X49468021Y-7282686D01*
X48750707Y-8000000D01*
X48749293Y-8000000D01*
X48031979Y-7282686D01*
X47861822Y-7355319D01*
X47753117Y-7540981D01*
X47682722Y-7744283D01*
X47653342Y-7957412D01*
X47189738Y-7957412D01*
X47230200Y-7916950D01*
X47230200Y-7592478D01*
X47217511Y-7528684D01*
X47192620Y-7468592D01*
X47156483Y-7414510D01*
X47110490Y-7368517D01*
X47056408Y-7332381D01*
X46996316Y-7307489D01*
X46932522Y-7294800D01*
X46583050Y-7294800D01*
X46500500Y-7377350D01*
X46499500Y-7377350D01*
X46416950Y-7294800D01*
X46207200Y-7294800D01*
X46207200Y-7281979D01*
X48032686Y-7281979D01*
X48750000Y-7999293D01*
X49467314Y-7281979D01*
X49394681Y-7111822D01*
X49209019Y-7003117D01*
X49005717Y-6932722D01*
X48792588Y-6903342D01*
X48577823Y-6916105D01*
X48369674Y-6970522D01*
X48176140Y-7064501D01*
X48105319Y-7111822D01*
X48032686Y-7281979D01*
X46207200Y-7281979D01*
X46207200Y-6500000D01*
X46203078Y-6457957D01*
X46199398Y-6415897D01*
X46198728Y-6413590D01*
X46198493Y-6411196D01*
X46186296Y-6370800D01*
X46174504Y-6330210D01*
X46173395Y-6328071D01*
X46172702Y-6325775D01*
X46152885Y-6288504D01*
X46134125Y-6252313D01*
X46135027Y-6187735D01*
X46110839Y-6065577D01*
X46063384Y-5950443D01*
X45994470Y-5846720D01*
X45906722Y-5758357D01*
X45803482Y-5688721D01*
X45688683Y-5640464D01*
X45566697Y-5615423D01*
X45442170Y-5614554D01*
X45319846Y-5637889D01*
X45204384Y-5684538D01*
X45100182Y-5752726D01*
X45011208Y-5839855D01*
X44940853Y-5942606D01*
X44891796Y-6057066D01*
X44865905Y-6178875D01*
X44864166Y-6303392D01*
X44886646Y-6425876D01*
X44932488Y-6541661D01*
X44979763Y-6615017D01*
X44942170Y-6614755D01*
X44819846Y-6638090D01*
X44704384Y-6684739D01*
X44600182Y-6752927D01*
X44511208Y-6840056D01*
X44440853Y-6942807D01*
X44391796Y-7057267D01*
X44365905Y-7179076D01*
X44364166Y-7303593D01*
X44378012Y-7379037D01*
X44319707Y-7447446D01*
X44281339Y-7532564D01*
X44268203Y-7625000D01*
X44268203Y-8375000D01*
X44272396Y-8427583D01*
X44300016Y-8516769D01*
X44351388Y-8594730D01*
X44422446Y-8655293D01*
X44507564Y-8693661D01*
X44542800Y-8698668D01*
X44542800Y-9060621D01*
X44035622Y-9567800D01*
X43758981Y-9567800D01*
X43702554Y-9519707D01*
X43617436Y-9481339D01*
X43525000Y-9468203D01*
X42075000Y-9468203D01*
X42037401Y-9471201D01*
X42037401Y-9330201D01*
X42033279Y-9288158D01*
X42029599Y-9246098D01*
X42028929Y-9243791D01*
X42028694Y-9241397D01*
X42016497Y-9201001D01*
X42004705Y-9160411D01*
X42003596Y-9158272D01*
X42002903Y-9155976D01*
X41983086Y-9118705D01*
X41963641Y-9081192D01*
X41962143Y-9079316D01*
X41961013Y-9077190D01*
X41934259Y-9044386D01*
X41907972Y-9011458D01*
X41904679Y-9008118D01*
X41904617Y-9008042D01*
X41904547Y-9007984D01*
X41903490Y-9006912D01*
X41527458Y-8630880D01*
X41530293Y-8627554D01*
X41568661Y-8542436D01*
X41580774Y-8457200D01*
X41756277Y-8457200D01*
X41773879Y-8501658D01*
X41889908Y-8681700D01*
X42038698Y-8835777D01*
X42214581Y-8958019D01*
X42410858Y-9043770D01*
X42620053Y-9089765D01*
X42834198Y-9094250D01*
X43045135Y-9057056D01*
X43244831Y-8979600D01*
X43425679Y-8864830D01*
X43580791Y-8717119D01*
X43704258Y-8542094D01*
X43791377Y-8346420D01*
X43838831Y-8137551D01*
X43842247Y-7892904D01*
X43800644Y-7682792D01*
X43719022Y-7484762D01*
X43600490Y-7306357D01*
X43449563Y-7154373D01*
X43271990Y-7034599D01*
X43074535Y-6951596D01*
X42864718Y-6908527D01*
X42650532Y-6907032D01*
X42440134Y-6947167D01*
X42241540Y-7027405D01*
X42062312Y-7144688D01*
X41909278Y-7294550D01*
X41788267Y-7471283D01*
X41757615Y-7542800D01*
X41581223Y-7542800D01*
X41577604Y-7497417D01*
X41549984Y-7408231D01*
X41498612Y-7330270D01*
X41427554Y-7269707D01*
X41342436Y-7231339D01*
X41250000Y-7218203D01*
X40876999Y-7218203D01*
X40876999Y-5724717D01*
X41054585Y-5802302D01*
X41261481Y-5847792D01*
X41473273Y-5852228D01*
X41681893Y-5815443D01*
X41879395Y-5738837D01*
X42058256Y-5625328D01*
X42211663Y-5479240D01*
X42333773Y-5306138D01*
X42419936Y-5112614D01*
X42466868Y-4906040D01*
X42467499Y-4860826D01*
X42848380Y-4860826D01*
X42886621Y-5069184D01*
X42964603Y-5266146D01*
X43079358Y-5444211D01*
X43226513Y-5596594D01*
X43400464Y-5717493D01*
X43594585Y-5802302D01*
X43801481Y-5847792D01*
X44013273Y-5852228D01*
X44221893Y-5815443D01*
X44419395Y-5738837D01*
X44598256Y-5625328D01*
X44751663Y-5479240D01*
X44873773Y-5306138D01*
X44959936Y-5112614D01*
X45006868Y-4906040D01*
X45007499Y-4860826D01*
X45388380Y-4860826D01*
X45426621Y-5069184D01*
X45504603Y-5266146D01*
X45619358Y-5444211D01*
X45766513Y-5596594D01*
X45940464Y-5717493D01*
X46134585Y-5802302D01*
X46341481Y-5847792D01*
X46553273Y-5852228D01*
X46761893Y-5815443D01*
X46959395Y-5738837D01*
X47138256Y-5625328D01*
X47291663Y-5479240D01*
X47413773Y-5306138D01*
X47499936Y-5112614D01*
X47546868Y-4906040D01*
X47547499Y-4860826D01*
X47928380Y-4860826D01*
X47966621Y-5069184D01*
X48044603Y-5266146D01*
X48159358Y-5444211D01*
X48306513Y-5596594D01*
X48480464Y-5717493D01*
X48674585Y-5802302D01*
X48881481Y-5847792D01*
X49093273Y-5852228D01*
X49301893Y-5815443D01*
X49499395Y-5738837D01*
X49678256Y-5625328D01*
X49831663Y-5479240D01*
X49953773Y-5306138D01*
X50039936Y-5112614D01*
X50086868Y-4906040D01*
X50087499Y-4860826D01*
X50468380Y-4860826D01*
X50506621Y-5069184D01*
X50584603Y-5266146D01*
X50699358Y-5444211D01*
X50846513Y-5596594D01*
X51020464Y-5717493D01*
X51214585Y-5802302D01*
X51421481Y-5847792D01*
X51633273Y-5852228D01*
X51841893Y-5815443D01*
X52039395Y-5738837D01*
X52218256Y-5625328D01*
X52371663Y-5479240D01*
X52493773Y-5306138D01*
X52579936Y-5112614D01*
X52626868Y-4906040D01*
X52630247Y-4664081D01*
X52589100Y-4456277D01*
X52508375Y-4260423D01*
X52391146Y-4083978D01*
X52241877Y-3933664D01*
X52066255Y-3815206D01*
X51870970Y-3733115D01*
X51663458Y-3690519D01*
X51451625Y-3689040D01*
X51243539Y-3728735D01*
X51047126Y-3808091D01*
X50869867Y-3924086D01*
X50718515Y-4072301D01*
X50598833Y-4247092D01*
X50515381Y-4441800D01*
X50471337Y-4649009D01*
X50468380Y-4860826D01*
X50087499Y-4860826D01*
X50090247Y-4664081D01*
X50049100Y-4456277D01*
X49968375Y-4260423D01*
X49851146Y-4083978D01*
X49701877Y-3933664D01*
X49526255Y-3815206D01*
X49330970Y-3733115D01*
X49123458Y-3690519D01*
X48911625Y-3689040D01*
X48703539Y-3728735D01*
X48507126Y-3808091D01*
X48329867Y-3924086D01*
X48178515Y-4072301D01*
X48058833Y-4247092D01*
X47975381Y-4441800D01*
X47931337Y-4649009D01*
X47928380Y-4860826D01*
X47547499Y-4860826D01*
X47550247Y-4664081D01*
X47509100Y-4456277D01*
X47428375Y-4260423D01*
X47311146Y-4083978D01*
X47161877Y-3933664D01*
X46986255Y-3815206D01*
X46790970Y-3733115D01*
X46583458Y-3690519D01*
X46371625Y-3689040D01*
X46163539Y-3728735D01*
X45967126Y-3808091D01*
X45789867Y-3924086D01*
X45638515Y-4072301D01*
X45518833Y-4247092D01*
X45435381Y-4441800D01*
X45391337Y-4649009D01*
X45388380Y-4860826D01*
X45007499Y-4860826D01*
X45010247Y-4664081D01*
X44969100Y-4456277D01*
X44888375Y-4260423D01*
X44771146Y-4083978D01*
X44621877Y-3933664D01*
X44446255Y-3815206D01*
X44250970Y-3733115D01*
X44043458Y-3690519D01*
X43831625Y-3689040D01*
X43623539Y-3728735D01*
X43427126Y-3808091D01*
X43249867Y-3924086D01*
X43098515Y-4072301D01*
X42978833Y-4247092D01*
X42895381Y-4441800D01*
X42851337Y-4649009D01*
X42848380Y-4860826D01*
X42467499Y-4860826D01*
X42470247Y-4664081D01*
X42429100Y-4456277D01*
X42348375Y-4260423D01*
X42231146Y-4083978D01*
X42081877Y-3933664D01*
X41906255Y-3815206D01*
X41710970Y-3733115D01*
X41503458Y-3690519D01*
X41291625Y-3689040D01*
X41083539Y-3728735D01*
X40887126Y-3808091D01*
X40709867Y-3924086D01*
X40707200Y-3926698D01*
X40707200Y-3559378D01*
X41019573Y-3247006D01*
X41054585Y-3262302D01*
X41261481Y-3307792D01*
X41473273Y-3312228D01*
X41681893Y-3275443D01*
X41879395Y-3198837D01*
X42058256Y-3085328D01*
X42211395Y-2939495D01*
X43221212Y-2939495D01*
X43292407Y-3108422D01*
X43476030Y-3215932D01*
X43677098Y-3285553D01*
X43887885Y-3314609D01*
X44100291Y-3301985D01*
X44306153Y-3248165D01*
X44497560Y-3155217D01*
X44567593Y-3108422D01*
X44638788Y-2939495D01*
X43930000Y-2230707D01*
X43221212Y-2939495D01*
X42211395Y-2939495D01*
X42211663Y-2939240D01*
X42333773Y-2766138D01*
X42419936Y-2572614D01*
X42466868Y-2366040D01*
X42469355Y-2187885D01*
X42845391Y-2187885D01*
X42858015Y-2400291D01*
X42911835Y-2606153D01*
X43004783Y-2797560D01*
X43051578Y-2867593D01*
X43220505Y-2938788D01*
X43929293Y-2230000D01*
X43930707Y-2230000D01*
X44639495Y-2938788D01*
X44808422Y-2867593D01*
X44915932Y-2683970D01*
X44985553Y-2482902D01*
X45007894Y-2320826D01*
X45388380Y-2320826D01*
X45426621Y-2529184D01*
X45504603Y-2726146D01*
X45619358Y-2904211D01*
X45766513Y-3056594D01*
X45940464Y-3177493D01*
X46134585Y-3262302D01*
X46341481Y-3307792D01*
X46553273Y-3312228D01*
X46761893Y-3275443D01*
X46959395Y-3198837D01*
X47138256Y-3085328D01*
X47291395Y-2939495D01*
X48301212Y-2939495D01*
X48372407Y-3108422D01*
X48556030Y-3215932D01*
X48757098Y-3285553D01*
X48967885Y-3314609D01*
X49180291Y-3301985D01*
X49386153Y-3248165D01*
X49577560Y-3155217D01*
X49647593Y-3108422D01*
X49718788Y-2939495D01*
X49010000Y-2230707D01*
X48301212Y-2939495D01*
X47291395Y-2939495D01*
X47291663Y-2939240D01*
X47413773Y-2766138D01*
X47499936Y-2572614D01*
X47546868Y-2366040D01*
X47549355Y-2187885D01*
X47925391Y-2187885D01*
X47938015Y-2400291D01*
X47991835Y-2606153D01*
X48084783Y-2797560D01*
X48131578Y-2867593D01*
X48300505Y-2938788D01*
X49009293Y-2230000D01*
X49010707Y-2230000D01*
X49719495Y-2938788D01*
X49888422Y-2867593D01*
X49995932Y-2683970D01*
X50065553Y-2482902D01*
X50087894Y-2320826D01*
X50468380Y-2320826D01*
X50506621Y-2529184D01*
X50584603Y-2726146D01*
X50699358Y-2904211D01*
X50846513Y-3056594D01*
X51020464Y-3177493D01*
X51214585Y-3262302D01*
X51421481Y-3307792D01*
X51633273Y-3312228D01*
X51841893Y-3275443D01*
X52039395Y-3198837D01*
X52218256Y-3085328D01*
X52371663Y-2939240D01*
X52493773Y-2766138D01*
X52579936Y-2572614D01*
X52626868Y-2366040D01*
X52627499Y-2320826D01*
X53008380Y-2320826D01*
X53046621Y-2529184D01*
X53124603Y-2726146D01*
X53239358Y-2904211D01*
X53386513Y-3056594D01*
X53560464Y-3177493D01*
X53754585Y-3262302D01*
X53961481Y-3307792D01*
X54152491Y-3311793D01*
X54141537Y-3363327D01*
X54138196Y-3602598D01*
X54154269Y-3690176D01*
X53991625Y-3689040D01*
X53783539Y-3728735D01*
X53587126Y-3808091D01*
X53409867Y-3924086D01*
X53258515Y-4072301D01*
X53138833Y-4247092D01*
X53055381Y-4441800D01*
X53011337Y-4649009D01*
X53008380Y-4860826D01*
X53046621Y-5069184D01*
X53124603Y-5266146D01*
X53239358Y-5444211D01*
X53386513Y-5596594D01*
X53560464Y-5717493D01*
X53754585Y-5802302D01*
X53961481Y-5847792D01*
X54173273Y-5852228D01*
X54381893Y-5815443D01*
X54579395Y-5738837D01*
X54758256Y-5625328D01*
X54911395Y-5479495D01*
X55921212Y-5479495D01*
X55992407Y-5648422D01*
X56176030Y-5755932D01*
X56377098Y-5825553D01*
X56587885Y-5854609D01*
X56800291Y-5841985D01*
X57006153Y-5788165D01*
X57197560Y-5695217D01*
X57267593Y-5648422D01*
X57338788Y-5479495D01*
X56630000Y-4770707D01*
X55921212Y-5479495D01*
X54911395Y-5479495D01*
X54911663Y-5479240D01*
X55033773Y-5306138D01*
X55119936Y-5112614D01*
X55166868Y-4906040D01*
X55169640Y-4707545D01*
X55214824Y-4717479D01*
X55454066Y-4722490D01*
X55548428Y-4705851D01*
X55545391Y-4727885D01*
X55558015Y-4940291D01*
X55611835Y-5146153D01*
X55704783Y-5337560D01*
X55751578Y-5407593D01*
X55920505Y-5478788D01*
X56629293Y-4770000D01*
X56630707Y-4770000D01*
X57339495Y-5478788D01*
X57508422Y-5407593D01*
X57615932Y-5223970D01*
X57685553Y-5022902D01*
X57714609Y-4812115D01*
X57701985Y-4599709D01*
X57648165Y-4393847D01*
X57555217Y-4202440D01*
X57508422Y-4132407D01*
X57339495Y-4061212D01*
X56630707Y-4770000D01*
X56629293Y-4770000D01*
X56615151Y-4755858D01*
X56615858Y-4755151D01*
X56630000Y-4769293D01*
X57338788Y-4060505D01*
X57267593Y-3891578D01*
X57083970Y-3784068D01*
X56882902Y-3714447D01*
X56672115Y-3685391D01*
X56567821Y-3691590D01*
X56576436Y-3653672D01*
X56580252Y-3380353D01*
X56566153Y-3309147D01*
X56713273Y-3312228D01*
X56921893Y-3275443D01*
X57119395Y-3198837D01*
X57298256Y-3085328D01*
X57451663Y-2939240D01*
X57573773Y-2766138D01*
X57659936Y-2572614D01*
X57706868Y-2366040D01*
X57710247Y-2124081D01*
X57669100Y-1916277D01*
X57588375Y-1720423D01*
X57471146Y-1543978D01*
X57321877Y-1393664D01*
X57146255Y-1275206D01*
X56950970Y-1193115D01*
X56743458Y-1150519D01*
X56531625Y-1149040D01*
X56323539Y-1188735D01*
X56127126Y-1268091D01*
X55949867Y-1384086D01*
X55798515Y-1532301D01*
X55678833Y-1707092D01*
X55595381Y-1901800D01*
X55551337Y-2109009D01*
X55548768Y-2293053D01*
X55488163Y-2280613D01*
X55248875Y-2278942D01*
X55167869Y-2294395D01*
X55170247Y-2124081D01*
X55129100Y-1916277D01*
X55048375Y-1720423D01*
X54931146Y-1543978D01*
X54781877Y-1393664D01*
X54606255Y-1275206D01*
X54410970Y-1193115D01*
X54203458Y-1150519D01*
X53991625Y-1149040D01*
X53783539Y-1188735D01*
X53587126Y-1268091D01*
X53409867Y-1384086D01*
X53258515Y-1532301D01*
X53138833Y-1707092D01*
X53055381Y-1901800D01*
X53011337Y-2109009D01*
X53008380Y-2320826D01*
X52627499Y-2320826D01*
X52630247Y-2124081D01*
X52589100Y-1916277D01*
X52508375Y-1720423D01*
X52391146Y-1543978D01*
X52241877Y-1393664D01*
X52066255Y-1275206D01*
X51870970Y-1193115D01*
X51663458Y-1150519D01*
X51451625Y-1149040D01*
X51243539Y-1188735D01*
X51047126Y-1268091D01*
X50869867Y-1384086D01*
X50718515Y-1532301D01*
X50598833Y-1707092D01*
X50515381Y-1901800D01*
X50471337Y-2109009D01*
X50468380Y-2320826D01*
X50087894Y-2320826D01*
X50094609Y-2272115D01*
X50081985Y-2059709D01*
X50028165Y-1853847D01*
X49935217Y-1662440D01*
X49888422Y-1592407D01*
X49719495Y-1521212D01*
X49010707Y-2230000D01*
X49009293Y-2230000D01*
X48300505Y-1521212D01*
X48131578Y-1592407D01*
X48024068Y-1776030D01*
X47954447Y-1977098D01*
X47925391Y-2187885D01*
X47549355Y-2187885D01*
X47550247Y-2124081D01*
X47509100Y-1916277D01*
X47428375Y-1720423D01*
X47311146Y-1543978D01*
X47287837Y-1520505D01*
X48301212Y-1520505D01*
X49010000Y-2229293D01*
X49718788Y-1520505D01*
X49647593Y-1351578D01*
X49463970Y-1244068D01*
X49262902Y-1174447D01*
X49052115Y-1145391D01*
X48839709Y-1158015D01*
X48633847Y-1211835D01*
X48442440Y-1304783D01*
X48372407Y-1351578D01*
X48301212Y-1520505D01*
X47287837Y-1520505D01*
X47161877Y-1393664D01*
X46986255Y-1275206D01*
X46790970Y-1193115D01*
X46583458Y-1150519D01*
X46371625Y-1149040D01*
X46163539Y-1188735D01*
X45967126Y-1268091D01*
X45789867Y-1384086D01*
X45638515Y-1532301D01*
X45518833Y-1707092D01*
X45435381Y-1901800D01*
X45391337Y-2109009D01*
X45388380Y-2320826D01*
X45007894Y-2320826D01*
X45014609Y-2272115D01*
X45001985Y-2059709D01*
X44948165Y-1853847D01*
X44855217Y-1662440D01*
X44808422Y-1592407D01*
X44639495Y-1521212D01*
X43930707Y-2230000D01*
X43929293Y-2230000D01*
X43220505Y-1521212D01*
X43051578Y-1592407D01*
X42944068Y-1776030D01*
X42874447Y-1977098D01*
X42845391Y-2187885D01*
X42469355Y-2187885D01*
X42470247Y-2124081D01*
X42429100Y-1916277D01*
X42348375Y-1720423D01*
X42231146Y-1543978D01*
X42207837Y-1520505D01*
X43221212Y-1520505D01*
X43930000Y-2229293D01*
X44638788Y-1520505D01*
X44567593Y-1351578D01*
X44383970Y-1244068D01*
X44182902Y-1174447D01*
X43972115Y-1145391D01*
X43759709Y-1158015D01*
X43553847Y-1211835D01*
X43362440Y-1304783D01*
X43292407Y-1351578D01*
X43221212Y-1520505D01*
X42207837Y-1520505D01*
X42081877Y-1393664D01*
X41906255Y-1275206D01*
X41710970Y-1193115D01*
X41503458Y-1150519D01*
X41291625Y-1149040D01*
X41083539Y-1188735D01*
X40887126Y-1268091D01*
X40709867Y-1384086D01*
X40558515Y-1532301D01*
X40438833Y-1707092D01*
X40355381Y-1901800D01*
X40311337Y-2109009D01*
X40308380Y-2320826D01*
X40346621Y-2529184D01*
X40374308Y-2599114D01*
X39926711Y-3046711D01*
X39899909Y-3079339D01*
X39872758Y-3111697D01*
X39871600Y-3113803D01*
X39870074Y-3115661D01*
X39850130Y-3152856D01*
X39829771Y-3189890D01*
X39829043Y-3192185D01*
X39827909Y-3194300D01*
X39815558Y-3234697D01*
X39802791Y-3274943D01*
X39802524Y-3277326D01*
X39801819Y-3279631D01*
X39797540Y-3321757D01*
X39792845Y-3363616D01*
X39792812Y-3368306D01*
X39792802Y-3368404D01*
X39792811Y-3368495D01*
X39792800Y-3370000D01*
X39792800Y-4238649D01*
X39775217Y-4202440D01*
X39728422Y-4132407D01*
X39559495Y-4061212D01*
X38850707Y-4770000D01*
X39559495Y-5478788D01*
X39728422Y-5407593D01*
X39792800Y-5297638D01*
X39792800Y-5500000D01*
X39796922Y-5542043D01*
X39800602Y-5584103D01*
X39801272Y-5586410D01*
X39801507Y-5588804D01*
X39813704Y-5629200D01*
X39825496Y-5669790D01*
X39826605Y-5671929D01*
X39827298Y-5674225D01*
X39847115Y-5711496D01*
X39866560Y-5749009D01*
X39868058Y-5750885D01*
X39869188Y-5753011D01*
X39895917Y-5785784D01*
X39922228Y-5818743D01*
X39925523Y-5822085D01*
X39925584Y-5822159D01*
X39925653Y-5822216D01*
X39926711Y-5823289D01*
X39962599Y-5859177D01*
X39962599Y-7299576D01*
X39927554Y-7269707D01*
X39842436Y-7231339D01*
X39750000Y-7218203D01*
X39250000Y-7218203D01*
X39197417Y-7222396D01*
X39108231Y-7250016D01*
X39030270Y-7301388D01*
X38969707Y-7372446D01*
X38931339Y-7457564D01*
X38921709Y-7525332D01*
X38634329Y-7237952D01*
X38635027Y-7187936D01*
X38610839Y-7065778D01*
X38563384Y-6950644D01*
X38494470Y-6846921D01*
X38406722Y-6758558D01*
X38303482Y-6688922D01*
X38188683Y-6640665D01*
X38066697Y-6615624D01*
X37942170Y-6614755D01*
X37819846Y-6638090D01*
X37704384Y-6684739D01*
X37600182Y-6752927D01*
X37511208Y-6840056D01*
X37440853Y-6942807D01*
X37391796Y-7057267D01*
X37365905Y-7179076D01*
X37364166Y-7303593D01*
X36457200Y-7303593D01*
X36457200Y-6939378D01*
X37823289Y-5573289D01*
X37850091Y-5540661D01*
X37877242Y-5508303D01*
X37878400Y-5506197D01*
X37879926Y-5504339D01*
X37893247Y-5479495D01*
X38141212Y-5479495D01*
X38212407Y-5648422D01*
X38396030Y-5755932D01*
X38597098Y-5825553D01*
X38807885Y-5854609D01*
X39020291Y-5841985D01*
X39226153Y-5788165D01*
X39417560Y-5695217D01*
X39487593Y-5648422D01*
X39558788Y-5479495D01*
X38850000Y-4770707D01*
X38141212Y-5479495D01*
X37893247Y-5479495D01*
X37899870Y-5467144D01*
X37920229Y-5430110D01*
X37920957Y-5427815D01*
X37922091Y-5425700D01*
X37934429Y-5385344D01*
X37941602Y-5362732D01*
X37971578Y-5407593D01*
X38140505Y-5478788D01*
X38849293Y-4770000D01*
X38140505Y-4061212D01*
X37971578Y-4132407D01*
X37957200Y-4156964D01*
X37957200Y-4060505D01*
X38141212Y-4060505D01*
X38850000Y-4769293D01*
X39558788Y-4060505D01*
X39487593Y-3891578D01*
X39303970Y-3784068D01*
X39102902Y-3714447D01*
X38892115Y-3685391D01*
X38679709Y-3698015D01*
X38473847Y-3751835D01*
X38282440Y-3844783D01*
X38212407Y-3891578D01*
X38141212Y-4060505D01*
X37957200Y-4060505D01*
X37957200Y-3420000D01*
X37953078Y-3377957D01*
X37949398Y-3335897D01*
X37948728Y-3333590D01*
X37948493Y-3331196D01*
X37936296Y-3290800D01*
X37924504Y-3250210D01*
X37923395Y-3248071D01*
X37922702Y-3245775D01*
X37902885Y-3208504D01*
X37883440Y-3170991D01*
X37881942Y-3169115D01*
X37880812Y-3166989D01*
X37854058Y-3134185D01*
X37827771Y-3101257D01*
X37824478Y-3097917D01*
X37824416Y-3097841D01*
X37824346Y-3097783D01*
X37823289Y-3096711D01*
X37327384Y-2600806D01*
X37339936Y-2572614D01*
X37386868Y-2366040D01*
X37387499Y-2320826D01*
X37768380Y-2320826D01*
X37806621Y-2529184D01*
X37884603Y-2726146D01*
X37999358Y-2904211D01*
X38146513Y-3056594D01*
X38320464Y-3177493D01*
X38514585Y-3262302D01*
X38721481Y-3307792D01*
X38933273Y-3312228D01*
X39141893Y-3275443D01*
X39339395Y-3198837D01*
X39518256Y-3085328D01*
X39671663Y-2939240D01*
X39793773Y-2766138D01*
X39879936Y-2572614D01*
X39926868Y-2366040D01*
X39930247Y-2124081D01*
X39889100Y-1916277D01*
X39808375Y-1720423D01*
X39691146Y-1543978D01*
X39541877Y-1393664D01*
X39366255Y-1275206D01*
X39170970Y-1193115D01*
X38963458Y-1150519D01*
X38751625Y-1149040D01*
X38543539Y-1188735D01*
X38347126Y-1268091D01*
X38169867Y-1384086D01*
X38018515Y-1532301D01*
X37898833Y-1707092D01*
X37815381Y-1901800D01*
X37771337Y-2109009D01*
X37768380Y-2320826D01*
X37387499Y-2320826D01*
X37390247Y-2124081D01*
X37349100Y-1916277D01*
X37268375Y-1720423D01*
X37151146Y-1543978D01*
X37001877Y-1393664D01*
X36826255Y-1275206D01*
X36630970Y-1193115D01*
X36423458Y-1150519D01*
X36211625Y-1149040D01*
X36003539Y-1188735D01*
X35807126Y-1268091D01*
X35629867Y-1384086D01*
X35478515Y-1532301D01*
X35358833Y-1707092D01*
X35275381Y-1901800D01*
X35231337Y-2109009D01*
X35228380Y-2320826D01*
X35266621Y-2529184D01*
X35344603Y-2726146D01*
X35459358Y-2904211D01*
X35606513Y-3056594D01*
X35780464Y-3177493D01*
X35974585Y-3262302D01*
X36181481Y-3307792D01*
X36393273Y-3312228D01*
X36601893Y-3275443D01*
X36678969Y-3245547D01*
X37042800Y-3609378D01*
X37042800Y-3974873D01*
X37001877Y-3933664D01*
X36826255Y-3815206D01*
X36630970Y-3733115D01*
X36423458Y-3690519D01*
X36211625Y-3689040D01*
X36003539Y-3728735D01*
X35807126Y-3808091D01*
X35629867Y-3924086D01*
X35478515Y-4072301D01*
X35439054Y-4129933D01*
X35436296Y-4120800D01*
X35424504Y-4080210D01*
X35423395Y-4078071D01*
X35422702Y-4075775D01*
X35402885Y-4038504D01*
X35383440Y-4000991D01*
X35381942Y-3999115D01*
X35380812Y-3996989D01*
X35354058Y-3964185D01*
X35327771Y-3931257D01*
X35324478Y-3927917D01*
X35324416Y-3927841D01*
X35324346Y-3927783D01*
X35323289Y-3926711D01*
X34573289Y-3176711D01*
X34540661Y-3149909D01*
X34508303Y-3122758D01*
X34506197Y-3121600D01*
X34504339Y-3120074D01*
X34467144Y-3100130D01*
X34438974Y-3084644D01*
X34591663Y-2939240D01*
X34713773Y-2766138D01*
X34799936Y-2572614D01*
X34846868Y-2366040D01*
X34850247Y-2124081D01*
X34809100Y-1916277D01*
X34728375Y-1720423D01*
X34611146Y-1543978D01*
X34461877Y-1393664D01*
X34286255Y-1275206D01*
X34090970Y-1193115D01*
X33883458Y-1150519D01*
X33671625Y-1149040D01*
X33463539Y-1188735D01*
X33267126Y-1268091D01*
X33089867Y-1384086D01*
X32938515Y-1532301D01*
X32818833Y-1707092D01*
X32735381Y-1901800D01*
X32691337Y-2109009D01*
X32688380Y-2320826D01*
X32726621Y-2529184D01*
X32804603Y-2726146D01*
X32919358Y-2904211D01*
X33053192Y-3042800D01*
X32500000Y-3042800D01*
X32457957Y-3046922D01*
X32415897Y-3050602D01*
X32413590Y-3051272D01*
X32411196Y-3051507D01*
X32370800Y-3063704D01*
X32330210Y-3075496D01*
X32328071Y-3076605D01*
X32325775Y-3077298D01*
X32288504Y-3097115D01*
X32250991Y-3116560D01*
X32249115Y-3118058D01*
X32246989Y-3119188D01*
X32214185Y-3145942D01*
X32181257Y-3172229D01*
X32177917Y-3175522D01*
X32177841Y-3175584D01*
X32177783Y-3175654D01*
X32176711Y-3176711D01*
X31599786Y-3753636D01*
X31550970Y-3733115D01*
X31343458Y-3690519D01*
X31131625Y-3689040D01*
X30923539Y-3728735D01*
X30727126Y-3808091D01*
X30549867Y-3924086D01*
X30398515Y-4072301D01*
X30278833Y-4247092D01*
X30195381Y-4441800D01*
X30151337Y-4649009D01*
X30148380Y-4860826D01*
X29767499Y-4860826D01*
X29770247Y-4664081D01*
X29729100Y-4456277D01*
X29648375Y-4260423D01*
X29531146Y-4083978D01*
X29381877Y-3933664D01*
X29206255Y-3815206D01*
X29010970Y-3733115D01*
X28803458Y-3690519D01*
X28591625Y-3689040D01*
X28383539Y-3728735D01*
X28187126Y-3808091D01*
X28009867Y-3924086D01*
X27858515Y-4072301D01*
X27738833Y-4247092D01*
X27655381Y-4441800D01*
X27611337Y-4649009D01*
X27608380Y-4860826D01*
X27227499Y-4860826D01*
X27230247Y-4664081D01*
X27189100Y-4456277D01*
X27108375Y-4260423D01*
X26991146Y-4083978D01*
X26841877Y-3933664D01*
X26666255Y-3815206D01*
X26470970Y-3733115D01*
X26263458Y-3690519D01*
X26051625Y-3689040D01*
X25843539Y-3728735D01*
X25647126Y-3808091D01*
X25469867Y-3924086D01*
X25318515Y-4072301D01*
X25198833Y-4247092D01*
X25115381Y-4441800D01*
X25071337Y-4649009D01*
X25068380Y-4860826D01*
X24687499Y-4860826D01*
X24690247Y-4664081D01*
X24649100Y-4456277D01*
X24568375Y-4260423D01*
X24451146Y-4083978D01*
X24301877Y-3933664D01*
X24126255Y-3815206D01*
X23930970Y-3733115D01*
X23723458Y-3690519D01*
X23511625Y-3689040D01*
X23303539Y-3728735D01*
X23107126Y-3808091D01*
X22929867Y-3924086D01*
X22778515Y-4072301D01*
X22658833Y-4247092D01*
X22575381Y-4441800D01*
X22531337Y-4649009D01*
X22528380Y-4860826D01*
X22147499Y-4860826D01*
X22150247Y-4664081D01*
X22109100Y-4456277D01*
X22028375Y-4260423D01*
X21911146Y-4083978D01*
X21761877Y-3933664D01*
X21586255Y-3815206D01*
X21390970Y-3733115D01*
X21183458Y-3690519D01*
X20971625Y-3689040D01*
X20763539Y-3728735D01*
X20567126Y-3808091D01*
X20389867Y-3924086D01*
X20238515Y-4072301D01*
X20118833Y-4247092D01*
X20035381Y-4441800D01*
X19991337Y-4649009D01*
X19988380Y-4860826D01*
X19607894Y-4860826D01*
X19614609Y-4812115D01*
X19601985Y-4599709D01*
X19548165Y-4393847D01*
X19455217Y-4202440D01*
X19408422Y-4132407D01*
X19239495Y-4061212D01*
X18530707Y-4770000D01*
X18529293Y-4770000D01*
X18515151Y-4755858D01*
X18515858Y-4755151D01*
X18530000Y-4769293D01*
X19238788Y-4060505D01*
X19167593Y-3891578D01*
X18983970Y-3784068D01*
X18782902Y-3714447D01*
X18572115Y-3685391D01*
X18359709Y-3698015D01*
X18153847Y-3751835D01*
X17962440Y-3844783D01*
X17892407Y-3891578D01*
X17824474Y-4052765D01*
X17816005Y-4023614D01*
X17814529Y-4020767D01*
X17813603Y-4017699D01*
X17787180Y-3968004D01*
X17761254Y-3917988D01*
X17759253Y-3915481D01*
X17757749Y-3912653D01*
X17722211Y-3869080D01*
X17687029Y-3825007D01*
X17682627Y-3820545D01*
X17682554Y-3820455D01*
X17682470Y-3820386D01*
X17681052Y-3818948D01*
X16931052Y-3068948D01*
X16887569Y-3033230D01*
X16844404Y-2997011D01*
X16841595Y-2995467D01*
X16839118Y-2993432D01*
X16789499Y-2966826D01*
X16785185Y-2964455D01*
X16811663Y-2939240D01*
X16933773Y-2766138D01*
X17019936Y-2572614D01*
X17066868Y-2366040D01*
X17067499Y-2320826D01*
X17448380Y-2320826D01*
X17486621Y-2529184D01*
X17564603Y-2726146D01*
X17679358Y-2904211D01*
X17826513Y-3056594D01*
X18000464Y-3177493D01*
X18194585Y-3262302D01*
X18401481Y-3307792D01*
X18613273Y-3312228D01*
X18821893Y-3275443D01*
X19019395Y-3198837D01*
X19198256Y-3085328D01*
X19351663Y-2939240D01*
X19473773Y-2766138D01*
X19559936Y-2572614D01*
X19606868Y-2366040D01*
X19607499Y-2320826D01*
X19988380Y-2320826D01*
X20026621Y-2529184D01*
X20104603Y-2726146D01*
X20219358Y-2904211D01*
X20366513Y-3056594D01*
X20540464Y-3177493D01*
X20734585Y-3262302D01*
X20941481Y-3307792D01*
X21153273Y-3312228D01*
X21361893Y-3275443D01*
X21559395Y-3198837D01*
X21738256Y-3085328D01*
X21891395Y-2939495D01*
X22901212Y-2939495D01*
X22972407Y-3108422D01*
X23156030Y-3215932D01*
X23357098Y-3285553D01*
X23567885Y-3314609D01*
X23780291Y-3301985D01*
X23986153Y-3248165D01*
X24177560Y-3155217D01*
X24247593Y-3108422D01*
X24318788Y-2939495D01*
X23610000Y-2230707D01*
X22901212Y-2939495D01*
X21891395Y-2939495D01*
X21891663Y-2939240D01*
X22013773Y-2766138D01*
X22099936Y-2572614D01*
X22146868Y-2366040D01*
X22149355Y-2187885D01*
X22525391Y-2187885D01*
X22538015Y-2400291D01*
X22591835Y-2606153D01*
X22684783Y-2797560D01*
X22731578Y-2867593D01*
X22900505Y-2938788D01*
X23609293Y-2230000D01*
X23610707Y-2230000D01*
X24319495Y-2938788D01*
X24488422Y-2867593D01*
X24595932Y-2683970D01*
X24665553Y-2482902D01*
X24687894Y-2320826D01*
X25068380Y-2320826D01*
X25106621Y-2529184D01*
X25184603Y-2726146D01*
X25299358Y-2904211D01*
X25446513Y-3056594D01*
X25620464Y-3177493D01*
X25814585Y-3262302D01*
X26021481Y-3307792D01*
X26233273Y-3312228D01*
X26441893Y-3275443D01*
X26639395Y-3198837D01*
X26818256Y-3085328D01*
X26971663Y-2939240D01*
X27093773Y-2766138D01*
X27179936Y-2572614D01*
X27226868Y-2366040D01*
X27227499Y-2320826D01*
X27608380Y-2320826D01*
X27646621Y-2529184D01*
X27724603Y-2726146D01*
X27839358Y-2904211D01*
X27986513Y-3056594D01*
X28160464Y-3177493D01*
X28354585Y-3262302D01*
X28561481Y-3307792D01*
X28773273Y-3312228D01*
X28981893Y-3275443D01*
X29179395Y-3198837D01*
X29358256Y-3085328D01*
X29511395Y-2939495D01*
X30521212Y-2939495D01*
X30592407Y-3108422D01*
X30776030Y-3215932D01*
X30977098Y-3285553D01*
X31187885Y-3314609D01*
X31400291Y-3301985D01*
X31606153Y-3248165D01*
X31797560Y-3155217D01*
X31867593Y-3108422D01*
X31938788Y-2939495D01*
X31230000Y-2230707D01*
X30521212Y-2939495D01*
X29511395Y-2939495D01*
X29511663Y-2939240D01*
X29633773Y-2766138D01*
X29719936Y-2572614D01*
X29766868Y-2366040D01*
X29769355Y-2187885D01*
X30145391Y-2187885D01*
X30158015Y-2400291D01*
X30211835Y-2606153D01*
X30304783Y-2797560D01*
X30351578Y-2867593D01*
X30520505Y-2938788D01*
X31229293Y-2230000D01*
X31230707Y-2230000D01*
X31939495Y-2938788D01*
X32108422Y-2867593D01*
X32215932Y-2683970D01*
X32285553Y-2482902D01*
X32314609Y-2272115D01*
X32301985Y-2059709D01*
X32248165Y-1853847D01*
X32155217Y-1662440D01*
X32108422Y-1592407D01*
X31939495Y-1521212D01*
X31230707Y-2230000D01*
X31229293Y-2230000D01*
X30520505Y-1521212D01*
X30351578Y-1592407D01*
X30244068Y-1776030D01*
X30174447Y-1977098D01*
X30145391Y-2187885D01*
X29769355Y-2187885D01*
X29770247Y-2124081D01*
X29729100Y-1916277D01*
X29648375Y-1720423D01*
X29531146Y-1543978D01*
X29507837Y-1520505D01*
X30521212Y-1520505D01*
X31230000Y-2229293D01*
X31938788Y-1520505D01*
X31867593Y-1351578D01*
X31683970Y-1244068D01*
X31482902Y-1174447D01*
X31272115Y-1145391D01*
X31059709Y-1158015D01*
X30853847Y-1211835D01*
X30662440Y-1304783D01*
X30592407Y-1351578D01*
X30521212Y-1520505D01*
X29507837Y-1520505D01*
X29381877Y-1393664D01*
X29206255Y-1275206D01*
X29010970Y-1193115D01*
X28803458Y-1150519D01*
X28591625Y-1149040D01*
X28383539Y-1188735D01*
X28187126Y-1268091D01*
X28009867Y-1384086D01*
X27858515Y-1532301D01*
X27738833Y-1707092D01*
X27655381Y-1901800D01*
X27611337Y-2109009D01*
X27608380Y-2320826D01*
X27227499Y-2320826D01*
X27230247Y-2124081D01*
X27189100Y-1916277D01*
X27108375Y-1720423D01*
X26991146Y-1543978D01*
X26841877Y-1393664D01*
X26666255Y-1275206D01*
X26470970Y-1193115D01*
X26263458Y-1150519D01*
X26051625Y-1149040D01*
X25843539Y-1188735D01*
X25647126Y-1268091D01*
X25469867Y-1384086D01*
X25318515Y-1532301D01*
X25198833Y-1707092D01*
X25115381Y-1901800D01*
X25071337Y-2109009D01*
X25068380Y-2320826D01*
X24687894Y-2320826D01*
X24694609Y-2272115D01*
X24681985Y-2059709D01*
X24628165Y-1853847D01*
X24535217Y-1662440D01*
X24488422Y-1592407D01*
X24319495Y-1521212D01*
X23610707Y-2230000D01*
X23609293Y-2230000D01*
X22900505Y-1521212D01*
X22731578Y-1592407D01*
X22624068Y-1776030D01*
X22554447Y-1977098D01*
X22525391Y-2187885D01*
X22149355Y-2187885D01*
X22150247Y-2124081D01*
X22109100Y-1916277D01*
X22028375Y-1720423D01*
X21911146Y-1543978D01*
X21887837Y-1520505D01*
X22901212Y-1520505D01*
X23610000Y-2229293D01*
X24318788Y-1520505D01*
X24247593Y-1351578D01*
X24063970Y-1244068D01*
X23862902Y-1174447D01*
X23652115Y-1145391D01*
X23439709Y-1158015D01*
X23233847Y-1211835D01*
X23042440Y-1304783D01*
X22972407Y-1351578D01*
X22901212Y-1520505D01*
X21887837Y-1520505D01*
X21761877Y-1393664D01*
X21586255Y-1275206D01*
X21390970Y-1193115D01*
X21183458Y-1150519D01*
X20971625Y-1149040D01*
X20763539Y-1188735D01*
X20567126Y-1268091D01*
X20389867Y-1384086D01*
X20238515Y-1532301D01*
X20118833Y-1707092D01*
X20035381Y-1901800D01*
X19991337Y-2109009D01*
X19988380Y-2320826D01*
X19607499Y-2320826D01*
X19610247Y-2124081D01*
X19569100Y-1916277D01*
X19488375Y-1720423D01*
X19371146Y-1543978D01*
X19221877Y-1393664D01*
X19046255Y-1275206D01*
X18850970Y-1193115D01*
X18643458Y-1150519D01*
X18431625Y-1149040D01*
X18223539Y-1188735D01*
X18027126Y-1268091D01*
X17849867Y-1384086D01*
X17698515Y-1532301D01*
X17578833Y-1707092D01*
X17495381Y-1901800D01*
X17451337Y-2109009D01*
X17448380Y-2320826D01*
X17067499Y-2320826D01*
X17070247Y-2124081D01*
X17029100Y-1916277D01*
X16948375Y-1720423D01*
X16831146Y-1543978D01*
X16681877Y-1393664D01*
X16506255Y-1275206D01*
X16310970Y-1193115D01*
X16103458Y-1150519D01*
X15891625Y-1149040D01*
X15683539Y-1188735D01*
X15487126Y-1268091D01*
X15309867Y-1384086D01*
X15158515Y-1532301D01*
X15038833Y-1707092D01*
X14955381Y-1901800D01*
X14911337Y-2109009D01*
X14908380Y-2320826D01*
X14946621Y-2529184D01*
X15024603Y-2726146D01*
X15130457Y-2890400D01*
X14274307Y-2890400D01*
X14328422Y-2867593D01*
X14435932Y-2683970D01*
X14505553Y-2482902D01*
X14534609Y-2272115D01*
X14521985Y-2059709D01*
X14468165Y-1853847D01*
X14375217Y-1662440D01*
X14328422Y-1592407D01*
X14159495Y-1521212D01*
X13450707Y-2230000D01*
X13464850Y-2244143D01*
X13464143Y-2244850D01*
X13450000Y-2230707D01*
X13435858Y-2244850D01*
X13435151Y-2244143D01*
X13449293Y-2230000D01*
X12740505Y-1521212D01*
X12571578Y-1592407D01*
X12464068Y-1776030D01*
X12394447Y-1977098D01*
X12365391Y-2187885D01*
X12378015Y-2400291D01*
X12431835Y-2606153D01*
X12524783Y-2797560D01*
X12571578Y-2867593D01*
X12625693Y-2890400D01*
X12432504Y-2890400D01*
X11972294Y-2430190D01*
X11986868Y-2366040D01*
X11990247Y-2124081D01*
X11949100Y-1916277D01*
X11868375Y-1720423D01*
X11751146Y-1543978D01*
X11727837Y-1520505D01*
X12741212Y-1520505D01*
X13450000Y-2229293D01*
X14158788Y-1520505D01*
X14087593Y-1351578D01*
X13903970Y-1244068D01*
X13702902Y-1174447D01*
X13492115Y-1145391D01*
X13279709Y-1158015D01*
X13073847Y-1211835D01*
X12882440Y-1304783D01*
X12812407Y-1351578D01*
X12741212Y-1520505D01*
X11727837Y-1520505D01*
X11601877Y-1393664D01*
X11426255Y-1275206D01*
X11230970Y-1193115D01*
X11023458Y-1150519D01*
X10811625Y-1149040D01*
X10603539Y-1188735D01*
X10407126Y-1268091D01*
X10229867Y-1384086D01*
X10078515Y-1532301D01*
X9958833Y-1707092D01*
X9875381Y-1901800D01*
X9831337Y-2109009D01*
X9828768Y-2293053D01*
X9768163Y-2280613D01*
X9528875Y-2278942D01*
X9447869Y-2294395D01*
X9450247Y-2124081D01*
X9409100Y-1916277D01*
X9328375Y-1720423D01*
X9211146Y-1543978D01*
X9061877Y-1393664D01*
X8886255Y-1275206D01*
X8690970Y-1193115D01*
X8483458Y-1150519D01*
X8271625Y-1149040D01*
X8063539Y-1188735D01*
X7867126Y-1268091D01*
X7689867Y-1384086D01*
X7538515Y-1532301D01*
X7418833Y-1707092D01*
X7335381Y-1901800D01*
X7291337Y-2109009D01*
X7288380Y-2320826D01*
X6616118Y-2320826D01*
X6454619Y-1929001D01*
X6093207Y-1385032D01*
X5633020Y-921622D01*
X5091587Y-556421D01*
X4672374Y-380200D01*
X58123000Y-380200D01*
X58123000Y-1480838D01*
X58123000Y-1480838D01*
G37*
X58123000Y-1480838D02*
X58042093Y-1599000D01*
X57738709Y-2306848D01*
X57578591Y-3060143D01*
X57567838Y-3830193D01*
X57706860Y-4587665D01*
X57990362Y-5303709D01*
X58000678Y-5319716D01*
X56697394Y-6623000D01*
X53000000Y-6623000D01*
X52964619Y-6628028D01*
X52932039Y-6642714D01*
X52910197Y-6660197D01*
X50660197Y-8910197D01*
X50638734Y-8938771D01*
X50626082Y-8972193D01*
X50623000Y-9000000D01*
X50623000Y-18697394D01*
X49697394Y-19623000D01*
X46500000Y-19623000D01*
X46464619Y-19628028D01*
X46432039Y-19642714D01*
X46410197Y-19660197D01*
X45947394Y-20123000D01*
X29052606Y-20123000D01*
X27732998Y-18803392D01*
X30114166Y-18803392D01*
X30136646Y-18925876D01*
X30182488Y-19041661D01*
X30249947Y-19146337D01*
X30336453Y-19235916D01*
X30438710Y-19306987D01*
X30552825Y-19356843D01*
X30674450Y-19383583D01*
X30798952Y-19386191D01*
X30921590Y-19364567D01*
X31037692Y-19319534D01*
X31142836Y-19252808D01*
X31233017Y-19166929D01*
X31248799Y-19144556D01*
X31249947Y-19146337D01*
X31336453Y-19235916D01*
X31438710Y-19306987D01*
X31552825Y-19356843D01*
X31674450Y-19383583D01*
X31798952Y-19386191D01*
X31921590Y-19364567D01*
X32037692Y-19319534D01*
X32142836Y-19252808D01*
X32233017Y-19166929D01*
X32304800Y-19065170D01*
X32355451Y-18951407D01*
X32383041Y-18829972D01*
X32385027Y-18687735D01*
X32360839Y-18565577D01*
X32313384Y-18450443D01*
X32244470Y-18346720D01*
X32207200Y-18309189D01*
X32207200Y-15689378D01*
X34073289Y-13823289D01*
X34100091Y-13790661D01*
X34127242Y-13758303D01*
X34128400Y-13756197D01*
X34129926Y-13754339D01*
X34149870Y-13717144D01*
X34170229Y-13680110D01*
X34170957Y-13677815D01*
X34172091Y-13675700D01*
X34184429Y-13635344D01*
X34197209Y-13595057D01*
X34197477Y-13592669D01*
X34198180Y-13590369D01*
X34202449Y-13548337D01*
X34207155Y-13506384D01*
X34207188Y-13501683D01*
X34207197Y-13501596D01*
X34207189Y-13501515D01*
X34207200Y-13500000D01*
X34207200Y-13000000D01*
X34203078Y-12957957D01*
X34199398Y-12915897D01*
X34198728Y-12913590D01*
X34198493Y-12911196D01*
X34186296Y-12870800D01*
X34174504Y-12830210D01*
X34173395Y-12828071D01*
X34172702Y-12825775D01*
X34152885Y-12788504D01*
X34133440Y-12750991D01*
X34131942Y-12749115D01*
X34130812Y-12746989D01*
X34104058Y-12714185D01*
X34077771Y-12681257D01*
X34074478Y-12677917D01*
X34074416Y-12677841D01*
X34074346Y-12677783D01*
X34073289Y-12676711D01*
X33634329Y-12237751D01*
X33635027Y-12187735D01*
X33610839Y-12065577D01*
X33563384Y-11950443D01*
X33494470Y-11846720D01*
X33406722Y-11758357D01*
X33303482Y-11688721D01*
X33188683Y-11640464D01*
X33066697Y-11615423D01*
X32942170Y-11614554D01*
X32819846Y-11637889D01*
X32704384Y-11684538D01*
X32600182Y-11752726D01*
X32511208Y-11839855D01*
X32440853Y-11942606D01*
X32391796Y-12057066D01*
X32365905Y-12178875D01*
X32364166Y-12303392D01*
X32386646Y-12425876D01*
X32432488Y-12541661D01*
X32499947Y-12646337D01*
X32586453Y-12735916D01*
X32605709Y-12749300D01*
X32576686Y-12768292D01*
X32487712Y-12855421D01*
X32417357Y-12958172D01*
X32368300Y-13072632D01*
X32342409Y-13194441D01*
X32341466Y-13261956D01*
X30426711Y-15176711D01*
X30399909Y-15209339D01*
X30372758Y-15241697D01*
X30371600Y-15243803D01*
X30370074Y-15245661D01*
X30350130Y-15282856D01*
X30329771Y-15319890D01*
X30329043Y-15322185D01*
X30327909Y-15324300D01*
X30315558Y-15364697D01*
X30302791Y-15404943D01*
X30302524Y-15407326D01*
X30301819Y-15409631D01*
X30297540Y-15451757D01*
X30292845Y-15493616D01*
X30292812Y-15498306D01*
X30292802Y-15498404D01*
X30292811Y-15498495D01*
X30292800Y-15500000D01*
X30292800Y-18308918D01*
X30261208Y-18339855D01*
X30190853Y-18442606D01*
X30141796Y-18557066D01*
X30115905Y-18678875D01*
X30114166Y-18803392D01*
X27732998Y-18803392D01*
X25589803Y-16660197D01*
X25561229Y-16638734D01*
X25527807Y-16626082D01*
X25500000Y-16623000D01*
X20552606Y-16623000D01*
X20377000Y-16447394D01*
X20377000Y-15000000D01*
X20371972Y-14964619D01*
X20357286Y-14932039D01*
X20339803Y-14910197D01*
X18839803Y-13410197D01*
X18811229Y-13388734D01*
X18777807Y-13376082D01*
X18750000Y-13373000D01*
X13250000Y-13373000D01*
X13214619Y-13378028D01*
X13182039Y-13392714D01*
X13160197Y-13410197D01*
X12410197Y-14160197D01*
X12388734Y-14188771D01*
X12376082Y-14222193D01*
X12373000Y-14250000D01*
X12373000Y-29619800D01*
X4666067Y-29619800D01*
X5008777Y-29486872D01*
X5560196Y-29136931D01*
X6033142Y-28686550D01*
X6409602Y-28152884D01*
X6675236Y-27556260D01*
X6819926Y-26919404D01*
X6830342Y-26173457D01*
X6703491Y-25532809D01*
X6454619Y-24929001D01*
X6093207Y-24385032D01*
X5633020Y-23921622D01*
X5091587Y-23556421D01*
X4489532Y-23303340D01*
X3849785Y-23172018D01*
X3196715Y-23167459D01*
X2555197Y-23289835D01*
X1949666Y-23534485D01*
X1403188Y-23892091D01*
X936576Y-24349031D01*
X567604Y-24887901D01*
X380200Y-25325148D01*
X380200Y-4667068D01*
X523734Y-5029593D01*
X877516Y-5578555D01*
X1331188Y-6048346D01*
X1867469Y-6421070D01*
X2465932Y-6682533D01*
X3103783Y-6822773D01*
X3756726Y-6836451D01*
X4399890Y-6723043D01*
X5008777Y-6486872D01*
X5560196Y-6136931D01*
X6033142Y-5686550D01*
X6409602Y-5152884D01*
X6675236Y-4556260D01*
X6819926Y-3919404D01*
X6830342Y-3173457D01*
X6703491Y-2532809D01*
X6616118Y-2320826D01*
X7288380Y-2320826D01*
X7326621Y-2529184D01*
X7404603Y-2726146D01*
X7519358Y-2904211D01*
X7666513Y-3056594D01*
X7840464Y-3177493D01*
X8034585Y-3262302D01*
X8241481Y-3307792D01*
X8432491Y-3311793D01*
X8421537Y-3363327D01*
X8418196Y-3602598D01*
X8434269Y-3690176D01*
X8271625Y-3689040D01*
X8063539Y-3728735D01*
X7867126Y-3808091D01*
X7689867Y-3924086D01*
X7538515Y-4072301D01*
X7418833Y-4247092D01*
X7335381Y-4441800D01*
X7291337Y-4649009D01*
X7288380Y-4860826D01*
X7326621Y-5069184D01*
X7404603Y-5266146D01*
X7519358Y-5444211D01*
X7666513Y-5596594D01*
X7840464Y-5717493D01*
X8034585Y-5802302D01*
X8241481Y-5847792D01*
X8453273Y-5852228D01*
X8661893Y-5815443D01*
X8859395Y-5738837D01*
X9038256Y-5625328D01*
X9191663Y-5479240D01*
X9313773Y-5306138D01*
X9399936Y-5112614D01*
X9446868Y-4906040D01*
X9449640Y-4707545D01*
X9494824Y-4717479D01*
X9734066Y-4722490D01*
X9830549Y-4705477D01*
X9828380Y-4860826D01*
X9866621Y-5069184D01*
X9944603Y-5266146D01*
X10059358Y-5444211D01*
X10206513Y-5596594D01*
X10380464Y-5717493D01*
X10574585Y-5802302D01*
X10781481Y-5847792D01*
X10993273Y-5852228D01*
X11201893Y-5815443D01*
X11399395Y-5738837D01*
X11578256Y-5625328D01*
X11731663Y-5479240D01*
X11853773Y-5306138D01*
X11939936Y-5112614D01*
X11986868Y-4906040D01*
X11990247Y-4664081D01*
X11949100Y-4456277D01*
X11868375Y-4260423D01*
X11751146Y-4083978D01*
X11601877Y-3933664D01*
X11426255Y-3815206D01*
X11230970Y-3733115D01*
X11023458Y-3690519D01*
X10848342Y-3689296D01*
X10856436Y-3653672D01*
X10860252Y-3380353D01*
X10846153Y-3309147D01*
X10993273Y-3312228D01*
X11109611Y-3291715D01*
X11748948Y-3931052D01*
X11792431Y-3966770D01*
X11835596Y-4002989D01*
X11838405Y-4004533D01*
X11840882Y-4006568D01*
X11890501Y-4033174D01*
X11939853Y-4060305D01*
X11942910Y-4061275D01*
X11945734Y-4062789D01*
X11999565Y-4079247D01*
X12053257Y-4096279D01*
X12056444Y-4096636D01*
X12059507Y-4097573D01*
X12115478Y-4103258D01*
X12171489Y-4109541D01*
X12177758Y-4109584D01*
X12177872Y-4109596D01*
X12177978Y-4109586D01*
X12180000Y-4109600D01*
X12592976Y-4109600D01*
X12498833Y-4247092D01*
X12415381Y-4441800D01*
X12371337Y-4649009D01*
X12368380Y-4860826D01*
X12406621Y-5069184D01*
X12484603Y-5266146D01*
X12599358Y-5444211D01*
X12746513Y-5596594D01*
X12920464Y-5717493D01*
X13114585Y-5802302D01*
X13321481Y-5847792D01*
X13533273Y-5852228D01*
X13741893Y-5815443D01*
X13939395Y-5738837D01*
X14118256Y-5625328D01*
X14271663Y-5479240D01*
X14393773Y-5306138D01*
X14479936Y-5112614D01*
X14526868Y-4906040D01*
X14530247Y-4664081D01*
X14489100Y-4456277D01*
X14408375Y-4260423D01*
X14308169Y-4109600D01*
X15132976Y-4109600D01*
X15038833Y-4247092D01*
X14955381Y-4441800D01*
X14911337Y-4649009D01*
X14908380Y-4860826D01*
X14946621Y-5069184D01*
X15024603Y-5266146D01*
X15139358Y-5444211D01*
X15286513Y-5596594D01*
X15460464Y-5717493D01*
X15654585Y-5802302D01*
X15861481Y-5847792D01*
X16073273Y-5852228D01*
X16281893Y-5815443D01*
X16479395Y-5738837D01*
X16640400Y-5636660D01*
X16640400Y-7250000D01*
X16652010Y-7368405D01*
X16686397Y-7482301D01*
X16742251Y-7587347D01*
X16764854Y-7615061D01*
X16692170Y-7614554D01*
X16569846Y-7637889D01*
X16454384Y-7684538D01*
X16350182Y-7752726D01*
X16261208Y-7839855D01*
X16190853Y-7942606D01*
X16141796Y-8057066D01*
X16115905Y-8178875D01*
X16114166Y-8303392D01*
X16136646Y-8425876D01*
X16182488Y-8541661D01*
X16249947Y-8646337D01*
X16336453Y-8735916D01*
X16438710Y-8806987D01*
X16552825Y-8856843D01*
X16674450Y-8883583D01*
X16738343Y-8884921D01*
X17676711Y-9823289D01*
X17709317Y-9850072D01*
X17741697Y-9877242D01*
X17743806Y-9878401D01*
X17745662Y-9879926D01*
X17782836Y-9899858D01*
X17819890Y-9920229D01*
X17822185Y-9920957D01*
X17824300Y-9922091D01*
X17864697Y-9934442D01*
X17904943Y-9947209D01*
X17907326Y-9947476D01*
X17909631Y-9948181D01*
X17951757Y-9952460D01*
X17993616Y-9957155D01*
X17998306Y-9957188D01*
X17998404Y-9957198D01*
X17998495Y-9957189D01*
X18000000Y-9957200D01*
X21558722Y-9957200D01*
X21586453Y-9985916D01*
X21688710Y-10056987D01*
X21802825Y-10106843D01*
X21924450Y-10133583D01*
X22048952Y-10136191D01*
X22171590Y-10114567D01*
X22287692Y-10069534D01*
X22392836Y-10002808D01*
X22483017Y-9916929D01*
X22554800Y-9815170D01*
X22605451Y-9701407D01*
X22633041Y-9579972D01*
X22635027Y-9437735D01*
X22610839Y-9315577D01*
X22563384Y-9200443D01*
X22494470Y-9096720D01*
X22406722Y-9008357D01*
X22303482Y-8938721D01*
X22188683Y-8890464D01*
X22066697Y-8865423D01*
X21942170Y-8864554D01*
X21819846Y-8887889D01*
X21704384Y-8934538D01*
X21600182Y-9002726D01*
X21559259Y-9042800D01*
X18189378Y-9042800D01*
X17384329Y-8237751D01*
X17385027Y-8187735D01*
X17360839Y-8065577D01*
X17313384Y-7950443D01*
X17252603Y-7858961D01*
X17364228Y-7848802D01*
X17478360Y-7815211D01*
X17583795Y-7760092D01*
X17676515Y-7685543D01*
X17752989Y-7594404D01*
X17810305Y-7490147D01*
X17846279Y-7376743D01*
X17859541Y-7258511D01*
X17859600Y-7250000D01*
X17859600Y-5570580D01*
X17892407Y-5648422D01*
X18076030Y-5755932D01*
X18277098Y-5825553D01*
X18487885Y-5854609D01*
X18700291Y-5841985D01*
X18906153Y-5788165D01*
X19097560Y-5695217D01*
X19167593Y-5648422D01*
X19238788Y-5479495D01*
X18530000Y-4770707D01*
X18515858Y-4784850D01*
X18515151Y-4784143D01*
X18529293Y-4770000D01*
X18530707Y-4770000D01*
X19239495Y-5478788D01*
X19408422Y-5407593D01*
X19515932Y-5223970D01*
X19585553Y-5022902D01*
X19607894Y-4860826D01*
X19988380Y-4860826D01*
X20026621Y-5069184D01*
X20104603Y-5266146D01*
X20219358Y-5444211D01*
X20366513Y-5596594D01*
X20540464Y-5717493D01*
X20734585Y-5802302D01*
X20941481Y-5847792D01*
X21153273Y-5852228D01*
X21361893Y-5815443D01*
X21559395Y-5738837D01*
X21738256Y-5625328D01*
X21891663Y-5479240D01*
X22013773Y-5306138D01*
X22099936Y-5112614D01*
X22146868Y-4906040D01*
X22147499Y-4860826D01*
X22528380Y-4860826D01*
X22566621Y-5069184D01*
X22644603Y-5266146D01*
X22759358Y-5444211D01*
X22906513Y-5596594D01*
X23080464Y-5717493D01*
X23274585Y-5802302D01*
X23481481Y-5847792D01*
X23693273Y-5852228D01*
X23901893Y-5815443D01*
X24099395Y-5738837D01*
X24278256Y-5625328D01*
X24431663Y-5479240D01*
X24553773Y-5306138D01*
X24639936Y-5112614D01*
X24686868Y-4906040D01*
X24687499Y-4860826D01*
X25068380Y-4860826D01*
X25106621Y-5069184D01*
X25184603Y-5266146D01*
X25299358Y-5444211D01*
X25446513Y-5596594D01*
X25620464Y-5717493D01*
X25814585Y-5802302D01*
X26021481Y-5847792D01*
X26233273Y-5852228D01*
X26441893Y-5815443D01*
X26639395Y-5738837D01*
X26818256Y-5625328D01*
X26971663Y-5479240D01*
X27093773Y-5306138D01*
X27179936Y-5112614D01*
X27226868Y-4906040D01*
X27227499Y-4860826D01*
X27608380Y-4860826D01*
X27646621Y-5069184D01*
X27724603Y-5266146D01*
X27839358Y-5444211D01*
X27986513Y-5596594D01*
X28160464Y-5717493D01*
X28354585Y-5802302D01*
X28561481Y-5847792D01*
X28773273Y-5852228D01*
X28981893Y-5815443D01*
X29179395Y-5738837D01*
X29358256Y-5625328D01*
X29511663Y-5479240D01*
X29633773Y-5306138D01*
X29719936Y-5112614D01*
X29766868Y-4906040D01*
X29767499Y-4860826D01*
X30148380Y-4860826D01*
X30186621Y-5069184D01*
X30264603Y-5266146D01*
X30379358Y-5444211D01*
X30526513Y-5596594D01*
X30700464Y-5717493D01*
X30894585Y-5802302D01*
X31101481Y-5847792D01*
X31313273Y-5852228D01*
X31521893Y-5815443D01*
X31719395Y-5738837D01*
X31898256Y-5625328D01*
X32051663Y-5479240D01*
X32173773Y-5306138D01*
X32259936Y-5112614D01*
X32306868Y-4906040D01*
X32310247Y-4664081D01*
X32269100Y-4456277D01*
X32246101Y-4400477D01*
X32689378Y-3957200D01*
X33056052Y-3957200D01*
X32938515Y-4072301D01*
X32818833Y-4247092D01*
X32735381Y-4441800D01*
X32691337Y-4649009D01*
X32688380Y-4860826D01*
X32726621Y-5069184D01*
X32804603Y-5266146D01*
X32919358Y-5444211D01*
X33066513Y-5596594D01*
X33240464Y-5717493D01*
X33434585Y-5802302D01*
X33641481Y-5847792D01*
X33853273Y-5852228D01*
X33940304Y-5836882D01*
X34042800Y-5939378D01*
X34042800Y-7896222D01*
X33016310Y-6869732D01*
X33054800Y-6815170D01*
X33105451Y-6701407D01*
X33133041Y-6579972D01*
X33135027Y-6437735D01*
X33110839Y-6315577D01*
X33063384Y-6200443D01*
X32994470Y-6096720D01*
X32906722Y-6008357D01*
X32803482Y-5938721D01*
X32688683Y-5890464D01*
X32566697Y-5865423D01*
X32442170Y-5864554D01*
X32319846Y-5887889D01*
X32204384Y-5934538D01*
X32100182Y-6002726D01*
X32011208Y-6089855D01*
X31940853Y-6192606D01*
X31891796Y-6307066D01*
X31865905Y-6428875D01*
X31864166Y-6553392D01*
X31886646Y-6675876D01*
X31932488Y-6791661D01*
X31999947Y-6896337D01*
X32042800Y-6940712D01*
X32042800Y-7000000D01*
X32046922Y-7042043D01*
X32050602Y-7084103D01*
X32051272Y-7086410D01*
X32051507Y-7088804D01*
X32063704Y-7129200D01*
X32075496Y-7169790D01*
X32076605Y-7171929D01*
X32077298Y-7174225D01*
X32097115Y-7211496D01*
X32116560Y-7249009D01*
X32118058Y-7250885D01*
X32119188Y-7253011D01*
X32145917Y-7285784D01*
X32172228Y-7318743D01*
X32175523Y-7322085D01*
X32175584Y-7322159D01*
X32175653Y-7322216D01*
X32176711Y-7323289D01*
X33542800Y-8689378D01*
X33542800Y-10750000D01*
X33546922Y-10792043D01*
X33550602Y-10834103D01*
X33551272Y-10836410D01*
X33551507Y-10838804D01*
X33563704Y-10879200D01*
X33575496Y-10919790D01*
X33576605Y-10921929D01*
X33577298Y-10924225D01*
X33597115Y-10961496D01*
X33616560Y-10999009D01*
X33618058Y-11000885D01*
X33619188Y-11003011D01*
X33645917Y-11035784D01*
X33672228Y-11068743D01*
X33675523Y-11072085D01*
X33675584Y-11072159D01*
X33675653Y-11072216D01*
X33676711Y-11073289D01*
X35292800Y-12689378D01*
X35292800Y-16810622D01*
X34755823Y-17347599D01*
X34617180Y-17347599D01*
X34610839Y-17315577D01*
X34563384Y-17200443D01*
X34494470Y-17096720D01*
X34406722Y-17008357D01*
X34303482Y-16938721D01*
X34188683Y-16890464D01*
X34066697Y-16865423D01*
X33942170Y-16864554D01*
X33819846Y-16887889D01*
X33704384Y-16934538D01*
X33600182Y-17002726D01*
X33511208Y-17089855D01*
X33440853Y-17192606D01*
X33391796Y-17307066D01*
X33365905Y-17428875D01*
X33364166Y-17553392D01*
X33386646Y-17675876D01*
X33432488Y-17791661D01*
X33499947Y-17896337D01*
X33586453Y-17985916D01*
X33688710Y-18056987D01*
X33802825Y-18106843D01*
X33924450Y-18133583D01*
X33989868Y-18134953D01*
X34014116Y-18154871D01*
X34046496Y-18182041D01*
X34048605Y-18183200D01*
X34050461Y-18184725D01*
X34087635Y-18204657D01*
X34124689Y-18225028D01*
X34126984Y-18225756D01*
X34129099Y-18226890D01*
X34169496Y-18239241D01*
X34209742Y-18252008D01*
X34212125Y-18252275D01*
X34214430Y-18252980D01*
X34256556Y-18257259D01*
X34298415Y-18261954D01*
X34303105Y-18261987D01*
X34303203Y-18261997D01*
X34303294Y-18261988D01*
X34304799Y-18261999D01*
X34340713Y-18261999D01*
X34261208Y-18339855D01*
X34190853Y-18442606D01*
X34141796Y-18557066D01*
X34115905Y-18678875D01*
X34114166Y-18803392D01*
X34136646Y-18925876D01*
X34182488Y-19041661D01*
X34249947Y-19146337D01*
X34336453Y-19235916D01*
X34438710Y-19306987D01*
X34552825Y-19356843D01*
X34674450Y-19383583D01*
X34798952Y-19386191D01*
X34921590Y-19364567D01*
X35037692Y-19319534D01*
X35142836Y-19252808D01*
X35233017Y-19166929D01*
X35261693Y-19126278D01*
X35294426Y-19177069D01*
X35380932Y-19266648D01*
X35483189Y-19337719D01*
X35597304Y-19387575D01*
X35718929Y-19414315D01*
X35843431Y-19416923D01*
X35966069Y-19395299D01*
X36082171Y-19350266D01*
X36187315Y-19283540D01*
X36277496Y-19197661D01*
X36286789Y-19184488D01*
X36336453Y-19235916D01*
X36438710Y-19306987D01*
X36552825Y-19356843D01*
X36674450Y-19383583D01*
X36798952Y-19386191D01*
X36921590Y-19364567D01*
X37037692Y-19319534D01*
X37142836Y-19252808D01*
X37233017Y-19166929D01*
X37248799Y-19144556D01*
X37249947Y-19146337D01*
X37336453Y-19235916D01*
X37438710Y-19306987D01*
X37552825Y-19356843D01*
X37674450Y-19383583D01*
X37798952Y-19386191D01*
X37921590Y-19364567D01*
X38037692Y-19319534D01*
X38142836Y-19252808D01*
X38233017Y-19166929D01*
X38304800Y-19065170D01*
X38355451Y-18951407D01*
X38383041Y-18829972D01*
X38385027Y-18687735D01*
X38360839Y-18565577D01*
X38313384Y-18450443D01*
X38244470Y-18346720D01*
X38207200Y-18309189D01*
X38207200Y-11500000D01*
X38203077Y-11457953D01*
X38199398Y-11415898D01*
X38198728Y-11413591D01*
X38198493Y-11411196D01*
X38186293Y-11370787D01*
X38174504Y-11330210D01*
X38173395Y-11328071D01*
X38172702Y-11325775D01*
X38152885Y-11288504D01*
X38133440Y-11250991D01*
X38131942Y-11249115D01*
X38130812Y-11246989D01*
X38104083Y-11214216D01*
X38077772Y-11181257D01*
X38074477Y-11177915D01*
X38074416Y-11177841D01*
X38074347Y-11177784D01*
X38073289Y-11176711D01*
X36457200Y-9560622D01*
X36457200Y-7303593D01*
X37364166Y-7303593D01*
X37386646Y-7426077D01*
X37432488Y-7541862D01*
X37499947Y-7646538D01*
X37586453Y-7736117D01*
X37688710Y-7807188D01*
X37802825Y-7857044D01*
X37924450Y-7883784D01*
X37988343Y-7885122D01*
X38426510Y-8323289D01*
X38459116Y-8350072D01*
X38491496Y-8377242D01*
X38493605Y-8378401D01*
X38495461Y-8379926D01*
X38532635Y-8399858D01*
X38569689Y-8420229D01*
X38571984Y-8420957D01*
X38574099Y-8422091D01*
X38614496Y-8434442D01*
X38654742Y-8447209D01*
X38657125Y-8447476D01*
X38659430Y-8448181D01*
X38701556Y-8452460D01*
X38743415Y-8457155D01*
X38748105Y-8457188D01*
X38748203Y-8457198D01*
X38748294Y-8457189D01*
X38749799Y-8457200D01*
X38918777Y-8457200D01*
X38922396Y-8502583D01*
X38950016Y-8591769D01*
X39001388Y-8669730D01*
X39042800Y-8705026D01*
X39042800Y-9293131D01*
X39030270Y-9301388D01*
X38969707Y-9372446D01*
X38931339Y-9457564D01*
X38918203Y-9550000D01*
X38918203Y-10450000D01*
X38922396Y-10502583D01*
X38950016Y-10591769D01*
X39001388Y-10669730D01*
X39042800Y-10705026D01*
X39042800Y-11293131D01*
X39030270Y-11301388D01*
X38969707Y-11372446D01*
X38931339Y-11457564D01*
X38918203Y-11550000D01*
X38918203Y-12450000D01*
X38922396Y-12502583D01*
X38950016Y-12591769D01*
X39001388Y-12669730D01*
X39072446Y-12730293D01*
X39157564Y-12768661D01*
X39250000Y-12781797D01*
X39435219Y-12781797D01*
X40292800Y-13639378D01*
X40292800Y-14308918D01*
X40261208Y-14339855D01*
X40190853Y-14442606D01*
X40141796Y-14557066D01*
X40115905Y-14678875D01*
X40114166Y-14803392D01*
X40136646Y-14925876D01*
X40182488Y-15041661D01*
X40249947Y-15146337D01*
X40336453Y-15235916D01*
X40438710Y-15306987D01*
X40552825Y-15356843D01*
X40674450Y-15383583D01*
X40738343Y-15384921D01*
X42176711Y-16823289D01*
X42209344Y-16850095D01*
X42241697Y-16877242D01*
X42243802Y-16878399D01*
X42245662Y-16879927D01*
X42282874Y-16899880D01*
X42319890Y-16920229D01*
X42322185Y-16920957D01*
X42324300Y-16922091D01*
X42364697Y-16934442D01*
X42404943Y-16947209D01*
X42407326Y-16947476D01*
X42409631Y-16948181D01*
X42451757Y-16952460D01*
X42493616Y-16957155D01*
X42498306Y-16957188D01*
X42498404Y-16957198D01*
X42498495Y-16957189D01*
X42500000Y-16957200D01*
X46058722Y-16957200D01*
X46086453Y-16985916D01*
X46188710Y-17056987D01*
X46302825Y-17106843D01*
X46424450Y-17133583D01*
X46548952Y-17136191D01*
X46671590Y-17114567D01*
X46787692Y-17069534D01*
X46892836Y-17002808D01*
X46983017Y-16916929D01*
X47054800Y-16815170D01*
X47105451Y-16701407D01*
X47133041Y-16579972D01*
X47135027Y-16437735D01*
X47110839Y-16315577D01*
X47063384Y-16200443D01*
X46994470Y-16096720D01*
X46906722Y-16008357D01*
X46803482Y-15938721D01*
X46688683Y-15890464D01*
X46566697Y-15865423D01*
X46442170Y-15864554D01*
X46319846Y-15887889D01*
X46204384Y-15934538D01*
X46100182Y-16002726D01*
X46059259Y-16042800D01*
X42689378Y-16042800D01*
X41384329Y-14737751D01*
X41385027Y-14687735D01*
X41360839Y-14565577D01*
X41313384Y-14450443D01*
X41244470Y-14346720D01*
X41207200Y-14309189D01*
X41207200Y-13450000D01*
X41203078Y-13407957D01*
X41199398Y-13365897D01*
X41198728Y-13363590D01*
X41198493Y-13361196D01*
X41186296Y-13320800D01*
X41174504Y-13280210D01*
X41173395Y-13278071D01*
X41172702Y-13275775D01*
X41152885Y-13238504D01*
X41133440Y-13200991D01*
X41131942Y-13199115D01*
X41130812Y-13196989D01*
X41104083Y-13164216D01*
X41077772Y-13131257D01*
X41074477Y-13127915D01*
X41074416Y-13127841D01*
X41074347Y-13127784D01*
X41073289Y-13126711D01*
X40724793Y-12778215D01*
X40750000Y-12781797D01*
X41250000Y-12781797D01*
X41302583Y-12777604D01*
X41391769Y-12749984D01*
X41469730Y-12698612D01*
X41530293Y-12627554D01*
X41568661Y-12542436D01*
X41581797Y-12450000D01*
X41581797Y-12432200D01*
X41841019Y-12432200D01*
X41897446Y-12480293D01*
X41982564Y-12518661D01*
X42075000Y-12531797D01*
X43525000Y-12531797D01*
X43577583Y-12527604D01*
X43666769Y-12499984D01*
X43744730Y-12448612D01*
X43758718Y-12432200D01*
X43779000Y-12432200D01*
X43821043Y-12428078D01*
X43863103Y-12424398D01*
X43865410Y-12423728D01*
X43867804Y-12423493D01*
X43908200Y-12411296D01*
X43948790Y-12399504D01*
X43950929Y-12398395D01*
X43953225Y-12397702D01*
X43990496Y-12377885D01*
X44028009Y-12358440D01*
X44029885Y-12356942D01*
X44032011Y-12355812D01*
X44064784Y-12329083D01*
X44097743Y-12302772D01*
X44101085Y-12299477D01*
X44101159Y-12299416D01*
X44101216Y-12299347D01*
X44102289Y-12298289D01*
X44342528Y-12058050D01*
X47644800Y-12058050D01*
X47644800Y-12232522D01*
X47657489Y-12296316D01*
X47682380Y-12356408D01*
X47718517Y-12410490D01*
X47764510Y-12456483D01*
X47818592Y-12492619D01*
X47878684Y-12517511D01*
X47942478Y-12530200D01*
X48616950Y-12530200D01*
X48699500Y-12447650D01*
X48699500Y-11975500D01*
X48700500Y-11975500D01*
X48700500Y-12447650D01*
X48783050Y-12530200D01*
X49457522Y-12530200D01*
X49521316Y-12517511D01*
X49581408Y-12492619D01*
X49635490Y-12456483D01*
X49681483Y-12410490D01*
X49717620Y-12356408D01*
X49742511Y-12296316D01*
X49755200Y-12232522D01*
X49755200Y-12058050D01*
X49672650Y-11975500D01*
X48700500Y-11975500D01*
X48699500Y-11975500D01*
X47727350Y-11975500D01*
X47644800Y-12058050D01*
X44342528Y-12058050D01*
X44992528Y-11408050D01*
X47644800Y-11408050D01*
X47644800Y-11582522D01*
X47657489Y-11646316D01*
X47659015Y-11650000D01*
X47657489Y-11653684D01*
X47644800Y-11717478D01*
X47644800Y-11891950D01*
X47727350Y-11974500D01*
X48699500Y-11974500D01*
X48699500Y-11325500D01*
X48700500Y-11325500D01*
X48700500Y-11974500D01*
X49672650Y-11974500D01*
X49755200Y-11891950D01*
X49755200Y-11717478D01*
X49742511Y-11653684D01*
X49740985Y-11650000D01*
X49742511Y-11646316D01*
X49755200Y-11582522D01*
X49755200Y-11408050D01*
X49672650Y-11325500D01*
X48700500Y-11325500D01*
X48699500Y-11325500D01*
X47727350Y-11325500D01*
X47644800Y-11408050D01*
X44992528Y-11408050D01*
X45642528Y-10758050D01*
X47644800Y-10758050D01*
X47644800Y-10932522D01*
X47657489Y-10996316D01*
X47659015Y-11000000D01*
X47657489Y-11003684D01*
X47644800Y-11067478D01*
X47644800Y-11241950D01*
X47727350Y-11324500D01*
X48699500Y-11324500D01*
X48699500Y-10675500D01*
X48700500Y-10675500D01*
X48700500Y-11324500D01*
X49672650Y-11324500D01*
X49755200Y-11241950D01*
X49755200Y-11067478D01*
X49742511Y-11003684D01*
X49740985Y-11000000D01*
X49742511Y-10996316D01*
X49755200Y-10932522D01*
X49755200Y-10758050D01*
X49672650Y-10675500D01*
X48700500Y-10675500D01*
X48699500Y-10675500D01*
X47727350Y-10675500D01*
X47644800Y-10758050D01*
X45642528Y-10758050D01*
X46073289Y-10327289D01*
X46100072Y-10294683D01*
X46127242Y-10262303D01*
X46128401Y-10260194D01*
X46129926Y-10258338D01*
X46149858Y-10221164D01*
X46170229Y-10184110D01*
X46170957Y-10181815D01*
X46172091Y-10179700D01*
X46184442Y-10139303D01*
X46194356Y-10108050D01*
X47644800Y-10108050D01*
X47644800Y-10282522D01*
X47657489Y-10346316D01*
X47659015Y-10350000D01*
X47657489Y-10353684D01*
X47644800Y-10417478D01*
X47644800Y-10591950D01*
X47727350Y-10674500D01*
X48699500Y-10674500D01*
X48699500Y-10025500D01*
X48700500Y-10025500D01*
X48700500Y-10674500D01*
X49672650Y-10674500D01*
X49755200Y-10591950D01*
X49755200Y-10417478D01*
X49742511Y-10353684D01*
X49740985Y-10350000D01*
X49742511Y-10346316D01*
X49755200Y-10282522D01*
X49755200Y-10108050D01*
X49672650Y-10025500D01*
X48700500Y-10025500D01*
X48699500Y-10025500D01*
X47727350Y-10025500D01*
X47644800Y-10108050D01*
X46194356Y-10108050D01*
X46197209Y-10099057D01*
X46197476Y-10096674D01*
X46198181Y-10094369D01*
X46202460Y-10052243D01*
X46207155Y-10010384D01*
X46207188Y-10005694D01*
X46207198Y-10005596D01*
X46207189Y-10005505D01*
X46207200Y-10004000D01*
X46207200Y-9767478D01*
X47644800Y-9767478D01*
X47644800Y-9941950D01*
X47727350Y-10024500D01*
X48699500Y-10024500D01*
X48699500Y-9552350D01*
X48700500Y-9552350D01*
X48700500Y-10024500D01*
X49672650Y-10024500D01*
X49755200Y-9941950D01*
X49755200Y-9767478D01*
X49742511Y-9703684D01*
X49717620Y-9643592D01*
X49681483Y-9589510D01*
X49635490Y-9543517D01*
X49581408Y-9507381D01*
X49521316Y-9482489D01*
X49457522Y-9469800D01*
X48783050Y-9469800D01*
X48700500Y-9552350D01*
X48699500Y-9552350D01*
X48616950Y-9469800D01*
X47942478Y-9469800D01*
X47878684Y-9482489D01*
X47818592Y-9507381D01*
X47764510Y-9543517D01*
X47718517Y-9589510D01*
X47682380Y-9643592D01*
X47657489Y-9703684D01*
X47644800Y-9767478D01*
X46207200Y-9767478D01*
X46207200Y-8718021D01*
X48032686Y-8718021D01*
X48105319Y-8888178D01*
X48290981Y-8996883D01*
X48494283Y-9067278D01*
X48707412Y-9096658D01*
X48922177Y-9083895D01*
X49130326Y-9029478D01*
X49323860Y-8935499D01*
X49394681Y-8888178D01*
X49467314Y-8718021D01*
X48750000Y-8000707D01*
X48032686Y-8718021D01*
X46207200Y-8718021D01*
X46207200Y-8705200D01*
X46416950Y-8705200D01*
X46499500Y-8622650D01*
X46499500Y-8000500D01*
X46500500Y-8000500D01*
X46500500Y-8622650D01*
X46583050Y-8705200D01*
X46932522Y-8705200D01*
X46996316Y-8692511D01*
X47056408Y-8667619D01*
X47110490Y-8631483D01*
X47156483Y-8585490D01*
X47192620Y-8531408D01*
X47217511Y-8471316D01*
X47230200Y-8407522D01*
X47230200Y-8083050D01*
X47147650Y-8000500D01*
X46500500Y-8000500D01*
X46499500Y-8000500D01*
X46479500Y-8000500D01*
X46479500Y-7999500D01*
X46499500Y-7999500D01*
X46499500Y-7377350D01*
X46500500Y-7377350D01*
X46500500Y-7999500D01*
X47147650Y-7999500D01*
X47189738Y-7957412D01*
X47653342Y-7957412D01*
X47666105Y-8172177D01*
X47720522Y-8380326D01*
X47814501Y-8573860D01*
X47861822Y-8644681D01*
X48031979Y-8717314D01*
X48749293Y-8000000D01*
X48750707Y-8000000D01*
X49468021Y-8717314D01*
X49638178Y-8644681D01*
X49746883Y-8459019D01*
X49817278Y-8255717D01*
X49846658Y-8042588D01*
X49833895Y-7827823D01*
X49779478Y-7619674D01*
X49685499Y-7426140D01*
X49638178Y-7355319D01*
X49468021Y-7282686D01*
X48750707Y-8000000D01*
X48749293Y-8000000D01*
X48031979Y-7282686D01*
X47861822Y-7355319D01*
X47753117Y-7540981D01*
X47682722Y-7744283D01*
X47653342Y-7957412D01*
X47189738Y-7957412D01*
X47230200Y-7916950D01*
X47230200Y-7592478D01*
X47217511Y-7528684D01*
X47192620Y-7468592D01*
X47156483Y-7414510D01*
X47110490Y-7368517D01*
X47056408Y-7332381D01*
X46996316Y-7307489D01*
X46932522Y-7294800D01*
X46583050Y-7294800D01*
X46500500Y-7377350D01*
X46499500Y-7377350D01*
X46416950Y-7294800D01*
X46207200Y-7294800D01*
X46207200Y-7281979D01*
X48032686Y-7281979D01*
X48750000Y-7999293D01*
X49467314Y-7281979D01*
X49394681Y-7111822D01*
X49209019Y-7003117D01*
X49005717Y-6932722D01*
X48792588Y-6903342D01*
X48577823Y-6916105D01*
X48369674Y-6970522D01*
X48176140Y-7064501D01*
X48105319Y-7111822D01*
X48032686Y-7281979D01*
X46207200Y-7281979D01*
X46207200Y-6500000D01*
X46203078Y-6457957D01*
X46199398Y-6415897D01*
X46198728Y-6413590D01*
X46198493Y-6411196D01*
X46186296Y-6370800D01*
X46174504Y-6330210D01*
X46173395Y-6328071D01*
X46172702Y-6325775D01*
X46152885Y-6288504D01*
X46134125Y-6252313D01*
X46135027Y-6187735D01*
X46110839Y-6065577D01*
X46063384Y-5950443D01*
X45994470Y-5846720D01*
X45906722Y-5758357D01*
X45803482Y-5688721D01*
X45688683Y-5640464D01*
X45566697Y-5615423D01*
X45442170Y-5614554D01*
X45319846Y-5637889D01*
X45204384Y-5684538D01*
X45100182Y-5752726D01*
X45011208Y-5839855D01*
X44940853Y-5942606D01*
X44891796Y-6057066D01*
X44865905Y-6178875D01*
X44864166Y-6303392D01*
X44886646Y-6425876D01*
X44932488Y-6541661D01*
X44979763Y-6615017D01*
X44942170Y-6614755D01*
X44819846Y-6638090D01*
X44704384Y-6684739D01*
X44600182Y-6752927D01*
X44511208Y-6840056D01*
X44440853Y-6942807D01*
X44391796Y-7057267D01*
X44365905Y-7179076D01*
X44364166Y-7303593D01*
X44378012Y-7379037D01*
X44319707Y-7447446D01*
X44281339Y-7532564D01*
X44268203Y-7625000D01*
X44268203Y-8375000D01*
X44272396Y-8427583D01*
X44300016Y-8516769D01*
X44351388Y-8594730D01*
X44422446Y-8655293D01*
X44507564Y-8693661D01*
X44542800Y-8698668D01*
X44542800Y-9060621D01*
X44035622Y-9567800D01*
X43758981Y-9567800D01*
X43702554Y-9519707D01*
X43617436Y-9481339D01*
X43525000Y-9468203D01*
X42075000Y-9468203D01*
X42037401Y-9471201D01*
X42037401Y-9330201D01*
X42033279Y-9288158D01*
X42029599Y-9246098D01*
X42028929Y-9243791D01*
X42028694Y-9241397D01*
X42016497Y-9201001D01*
X42004705Y-9160411D01*
X42003596Y-9158272D01*
X42002903Y-9155976D01*
X41983086Y-9118705D01*
X41963641Y-9081192D01*
X41962143Y-9079316D01*
X41961013Y-9077190D01*
X41934259Y-9044386D01*
X41907972Y-9011458D01*
X41904679Y-9008118D01*
X41904617Y-9008042D01*
X41904547Y-9007984D01*
X41903490Y-9006912D01*
X41527458Y-8630880D01*
X41530293Y-8627554D01*
X41568661Y-8542436D01*
X41580774Y-8457200D01*
X41756277Y-8457200D01*
X41773879Y-8501658D01*
X41889908Y-8681700D01*
X42038698Y-8835777D01*
X42214581Y-8958019D01*
X42410858Y-9043770D01*
X42620053Y-9089765D01*
X42834198Y-9094250D01*
X43045135Y-9057056D01*
X43244831Y-8979600D01*
X43425679Y-8864830D01*
X43580791Y-8717119D01*
X43704258Y-8542094D01*
X43791377Y-8346420D01*
X43838831Y-8137551D01*
X43842247Y-7892904D01*
X43800644Y-7682792D01*
X43719022Y-7484762D01*
X43600490Y-7306357D01*
X43449563Y-7154373D01*
X43271990Y-7034599D01*
X43074535Y-6951596D01*
X42864718Y-6908527D01*
X42650532Y-6907032D01*
X42440134Y-6947167D01*
X42241540Y-7027405D01*
X42062312Y-7144688D01*
X41909278Y-7294550D01*
X41788267Y-7471283D01*
X41757615Y-7542800D01*
X41581223Y-7542800D01*
X41577604Y-7497417D01*
X41549984Y-7408231D01*
X41498612Y-7330270D01*
X41427554Y-7269707D01*
X41342436Y-7231339D01*
X41250000Y-7218203D01*
X40876999Y-7218203D01*
X40876999Y-5724717D01*
X41054585Y-5802302D01*
X41261481Y-5847792D01*
X41473273Y-5852228D01*
X41681893Y-5815443D01*
X41879395Y-5738837D01*
X42058256Y-5625328D01*
X42211663Y-5479240D01*
X42333773Y-5306138D01*
X42419936Y-5112614D01*
X42466868Y-4906040D01*
X42467499Y-4860826D01*
X42848380Y-4860826D01*
X42886621Y-5069184D01*
X42964603Y-5266146D01*
X43079358Y-5444211D01*
X43226513Y-5596594D01*
X43400464Y-5717493D01*
X43594585Y-5802302D01*
X43801481Y-5847792D01*
X44013273Y-5852228D01*
X44221893Y-5815443D01*
X44419395Y-5738837D01*
X44598256Y-5625328D01*
X44751663Y-5479240D01*
X44873773Y-5306138D01*
X44959936Y-5112614D01*
X45006868Y-4906040D01*
X45007499Y-4860826D01*
X45388380Y-4860826D01*
X45426621Y-5069184D01*
X45504603Y-5266146D01*
X45619358Y-5444211D01*
X45766513Y-5596594D01*
X45940464Y-5717493D01*
X46134585Y-5802302D01*
X46341481Y-5847792D01*
X46553273Y-5852228D01*
X46761893Y-5815443D01*
X46959395Y-5738837D01*
X47138256Y-5625328D01*
X47291663Y-5479240D01*
X47413773Y-5306138D01*
X47499936Y-5112614D01*
X47546868Y-4906040D01*
X47547499Y-4860826D01*
X47928380Y-4860826D01*
X47966621Y-5069184D01*
X48044603Y-5266146D01*
X48159358Y-5444211D01*
X48306513Y-5596594D01*
X48480464Y-5717493D01*
X48674585Y-5802302D01*
X48881481Y-5847792D01*
X49093273Y-5852228D01*
X49301893Y-5815443D01*
X49499395Y-5738837D01*
X49678256Y-5625328D01*
X49831663Y-5479240D01*
X49953773Y-5306138D01*
X50039936Y-5112614D01*
X50086868Y-4906040D01*
X50087499Y-4860826D01*
X50468380Y-4860826D01*
X50506621Y-5069184D01*
X50584603Y-5266146D01*
X50699358Y-5444211D01*
X50846513Y-5596594D01*
X51020464Y-5717493D01*
X51214585Y-5802302D01*
X51421481Y-5847792D01*
X51633273Y-5852228D01*
X51841893Y-5815443D01*
X52039395Y-5738837D01*
X52218256Y-5625328D01*
X52371663Y-5479240D01*
X52493773Y-5306138D01*
X52579936Y-5112614D01*
X52626868Y-4906040D01*
X52630247Y-4664081D01*
X52589100Y-4456277D01*
X52508375Y-4260423D01*
X52391146Y-4083978D01*
X52241877Y-3933664D01*
X52066255Y-3815206D01*
X51870970Y-3733115D01*
X51663458Y-3690519D01*
X51451625Y-3689040D01*
X51243539Y-3728735D01*
X51047126Y-3808091D01*
X50869867Y-3924086D01*
X50718515Y-4072301D01*
X50598833Y-4247092D01*
X50515381Y-4441800D01*
X50471337Y-4649009D01*
X50468380Y-4860826D01*
X50087499Y-4860826D01*
X50090247Y-4664081D01*
X50049100Y-4456277D01*
X49968375Y-4260423D01*
X49851146Y-4083978D01*
X49701877Y-3933664D01*
X49526255Y-3815206D01*
X49330970Y-3733115D01*
X49123458Y-3690519D01*
X48911625Y-3689040D01*
X48703539Y-3728735D01*
X48507126Y-3808091D01*
X48329867Y-3924086D01*
X48178515Y-4072301D01*
X48058833Y-4247092D01*
X47975381Y-4441800D01*
X47931337Y-4649009D01*
X47928380Y-4860826D01*
X47547499Y-4860826D01*
X47550247Y-4664081D01*
X47509100Y-4456277D01*
X47428375Y-4260423D01*
X47311146Y-4083978D01*
X47161877Y-3933664D01*
X46986255Y-3815206D01*
X46790970Y-3733115D01*
X46583458Y-3690519D01*
X46371625Y-3689040D01*
X46163539Y-3728735D01*
X45967126Y-3808091D01*
X45789867Y-3924086D01*
X45638515Y-4072301D01*
X45518833Y-4247092D01*
X45435381Y-4441800D01*
X45391337Y-4649009D01*
X45388380Y-4860826D01*
X45007499Y-4860826D01*
X45010247Y-4664081D01*
X44969100Y-4456277D01*
X44888375Y-4260423D01*
X44771146Y-4083978D01*
X44621877Y-3933664D01*
X44446255Y-3815206D01*
X44250970Y-3733115D01*
X44043458Y-3690519D01*
X43831625Y-3689040D01*
X43623539Y-3728735D01*
X43427126Y-3808091D01*
X43249867Y-3924086D01*
X43098515Y-4072301D01*
X42978833Y-4247092D01*
X42895381Y-4441800D01*
X42851337Y-4649009D01*
X42848380Y-4860826D01*
X42467499Y-4860826D01*
X42470247Y-4664081D01*
X42429100Y-4456277D01*
X42348375Y-4260423D01*
X42231146Y-4083978D01*
X42081877Y-3933664D01*
X41906255Y-3815206D01*
X41710970Y-3733115D01*
X41503458Y-3690519D01*
X41291625Y-3689040D01*
X41083539Y-3728735D01*
X40887126Y-3808091D01*
X40709867Y-3924086D01*
X40707200Y-3926698D01*
X40707200Y-3559378D01*
X41019573Y-3247006D01*
X41054585Y-3262302D01*
X41261481Y-3307792D01*
X41473273Y-3312228D01*
X41681893Y-3275443D01*
X41879395Y-3198837D01*
X42058256Y-3085328D01*
X42211395Y-2939495D01*
X43221212Y-2939495D01*
X43292407Y-3108422D01*
X43476030Y-3215932D01*
X43677098Y-3285553D01*
X43887885Y-3314609D01*
X44100291Y-3301985D01*
X44306153Y-3248165D01*
X44497560Y-3155217D01*
X44567593Y-3108422D01*
X44638788Y-2939495D01*
X43930000Y-2230707D01*
X43221212Y-2939495D01*
X42211395Y-2939495D01*
X42211663Y-2939240D01*
X42333773Y-2766138D01*
X42419936Y-2572614D01*
X42466868Y-2366040D01*
X42469355Y-2187885D01*
X42845391Y-2187885D01*
X42858015Y-2400291D01*
X42911835Y-2606153D01*
X43004783Y-2797560D01*
X43051578Y-2867593D01*
X43220505Y-2938788D01*
X43929293Y-2230000D01*
X43930707Y-2230000D01*
X44639495Y-2938788D01*
X44808422Y-2867593D01*
X44915932Y-2683970D01*
X44985553Y-2482902D01*
X45007894Y-2320826D01*
X45388380Y-2320826D01*
X45426621Y-2529184D01*
X45504603Y-2726146D01*
X45619358Y-2904211D01*
X45766513Y-3056594D01*
X45940464Y-3177493D01*
X46134585Y-3262302D01*
X46341481Y-3307792D01*
X46553273Y-3312228D01*
X46761893Y-3275443D01*
X46959395Y-3198837D01*
X47138256Y-3085328D01*
X47291395Y-2939495D01*
X48301212Y-2939495D01*
X48372407Y-3108422D01*
X48556030Y-3215932D01*
X48757098Y-3285553D01*
X48967885Y-3314609D01*
X49180291Y-3301985D01*
X49386153Y-3248165D01*
X49577560Y-3155217D01*
X49647593Y-3108422D01*
X49718788Y-2939495D01*
X49010000Y-2230707D01*
X48301212Y-2939495D01*
X47291395Y-2939495D01*
X47291663Y-2939240D01*
X47413773Y-2766138D01*
X47499936Y-2572614D01*
X47546868Y-2366040D01*
X47549355Y-2187885D01*
X47925391Y-2187885D01*
X47938015Y-2400291D01*
X47991835Y-2606153D01*
X48084783Y-2797560D01*
X48131578Y-2867593D01*
X48300505Y-2938788D01*
X49009293Y-2230000D01*
X49010707Y-2230000D01*
X49719495Y-2938788D01*
X49888422Y-2867593D01*
X49995932Y-2683970D01*
X50065553Y-2482902D01*
X50087894Y-2320826D01*
X50468380Y-2320826D01*
X50506621Y-2529184D01*
X50584603Y-2726146D01*
X50699358Y-2904211D01*
X50846513Y-3056594D01*
X51020464Y-3177493D01*
X51214585Y-3262302D01*
X51421481Y-3307792D01*
X51633273Y-3312228D01*
X51841893Y-3275443D01*
X52039395Y-3198837D01*
X52218256Y-3085328D01*
X52371663Y-2939240D01*
X52493773Y-2766138D01*
X52579936Y-2572614D01*
X52626868Y-2366040D01*
X52627499Y-2320826D01*
X53008380Y-2320826D01*
X53046621Y-2529184D01*
X53124603Y-2726146D01*
X53239358Y-2904211D01*
X53386513Y-3056594D01*
X53560464Y-3177493D01*
X53754585Y-3262302D01*
X53961481Y-3307792D01*
X54152491Y-3311793D01*
X54141537Y-3363327D01*
X54138196Y-3602598D01*
X54154269Y-3690176D01*
X53991625Y-3689040D01*
X53783539Y-3728735D01*
X53587126Y-3808091D01*
X53409867Y-3924086D01*
X53258515Y-4072301D01*
X53138833Y-4247092D01*
X53055381Y-4441800D01*
X53011337Y-4649009D01*
X53008380Y-4860826D01*
X53046621Y-5069184D01*
X53124603Y-5266146D01*
X53239358Y-5444211D01*
X53386513Y-5596594D01*
X53560464Y-5717493D01*
X53754585Y-5802302D01*
X53961481Y-5847792D01*
X54173273Y-5852228D01*
X54381893Y-5815443D01*
X54579395Y-5738837D01*
X54758256Y-5625328D01*
X54911395Y-5479495D01*
X55921212Y-5479495D01*
X55992407Y-5648422D01*
X56176030Y-5755932D01*
X56377098Y-5825553D01*
X56587885Y-5854609D01*
X56800291Y-5841985D01*
X57006153Y-5788165D01*
X57197560Y-5695217D01*
X57267593Y-5648422D01*
X57338788Y-5479495D01*
X56630000Y-4770707D01*
X55921212Y-5479495D01*
X54911395Y-5479495D01*
X54911663Y-5479240D01*
X55033773Y-5306138D01*
X55119936Y-5112614D01*
X55166868Y-4906040D01*
X55169640Y-4707545D01*
X55214824Y-4717479D01*
X55454066Y-4722490D01*
X55548428Y-4705851D01*
X55545391Y-4727885D01*
X55558015Y-4940291D01*
X55611835Y-5146153D01*
X55704783Y-5337560D01*
X55751578Y-5407593D01*
X55920505Y-5478788D01*
X56629293Y-4770000D01*
X56630707Y-4770000D01*
X57339495Y-5478788D01*
X57508422Y-5407593D01*
X57615932Y-5223970D01*
X57685553Y-5022902D01*
X57714609Y-4812115D01*
X57701985Y-4599709D01*
X57648165Y-4393847D01*
X57555217Y-4202440D01*
X57508422Y-4132407D01*
X57339495Y-4061212D01*
X56630707Y-4770000D01*
X56629293Y-4770000D01*
X56615151Y-4755858D01*
X56615858Y-4755151D01*
X56630000Y-4769293D01*
X57338788Y-4060505D01*
X57267593Y-3891578D01*
X57083970Y-3784068D01*
X56882902Y-3714447D01*
X56672115Y-3685391D01*
X56567821Y-3691590D01*
X56576436Y-3653672D01*
X56580252Y-3380353D01*
X56566153Y-3309147D01*
X56713273Y-3312228D01*
X56921893Y-3275443D01*
X57119395Y-3198837D01*
X57298256Y-3085328D01*
X57451663Y-2939240D01*
X57573773Y-2766138D01*
X57659936Y-2572614D01*
X57706868Y-2366040D01*
X57710247Y-2124081D01*
X57669100Y-1916277D01*
X57588375Y-1720423D01*
X57471146Y-1543978D01*
X57321877Y-1393664D01*
X57146255Y-1275206D01*
X56950970Y-1193115D01*
X56743458Y-1150519D01*
X56531625Y-1149040D01*
X56323539Y-1188735D01*
X56127126Y-1268091D01*
X55949867Y-1384086D01*
X55798515Y-1532301D01*
X55678833Y-1707092D01*
X55595381Y-1901800D01*
X55551337Y-2109009D01*
X55548768Y-2293053D01*
X55488163Y-2280613D01*
X55248875Y-2278942D01*
X55167869Y-2294395D01*
X55170247Y-2124081D01*
X55129100Y-1916277D01*
X55048375Y-1720423D01*
X54931146Y-1543978D01*
X54781877Y-1393664D01*
X54606255Y-1275206D01*
X54410970Y-1193115D01*
X54203458Y-1150519D01*
X53991625Y-1149040D01*
X53783539Y-1188735D01*
X53587126Y-1268091D01*
X53409867Y-1384086D01*
X53258515Y-1532301D01*
X53138833Y-1707092D01*
X53055381Y-1901800D01*
X53011337Y-2109009D01*
X53008380Y-2320826D01*
X52627499Y-2320826D01*
X52630247Y-2124081D01*
X52589100Y-1916277D01*
X52508375Y-1720423D01*
X52391146Y-1543978D01*
X52241877Y-1393664D01*
X52066255Y-1275206D01*
X51870970Y-1193115D01*
X51663458Y-1150519D01*
X51451625Y-1149040D01*
X51243539Y-1188735D01*
X51047126Y-1268091D01*
X50869867Y-1384086D01*
X50718515Y-1532301D01*
X50598833Y-1707092D01*
X50515381Y-1901800D01*
X50471337Y-2109009D01*
X50468380Y-2320826D01*
X50087894Y-2320826D01*
X50094609Y-2272115D01*
X50081985Y-2059709D01*
X50028165Y-1853847D01*
X49935217Y-1662440D01*
X49888422Y-1592407D01*
X49719495Y-1521212D01*
X49010707Y-2230000D01*
X49009293Y-2230000D01*
X48300505Y-1521212D01*
X48131578Y-1592407D01*
X48024068Y-1776030D01*
X47954447Y-1977098D01*
X47925391Y-2187885D01*
X47549355Y-2187885D01*
X47550247Y-2124081D01*
X47509100Y-1916277D01*
X47428375Y-1720423D01*
X47311146Y-1543978D01*
X47287837Y-1520505D01*
X48301212Y-1520505D01*
X49010000Y-2229293D01*
X49718788Y-1520505D01*
X49647593Y-1351578D01*
X49463970Y-1244068D01*
X49262902Y-1174447D01*
X49052115Y-1145391D01*
X48839709Y-1158015D01*
X48633847Y-1211835D01*
X48442440Y-1304783D01*
X48372407Y-1351578D01*
X48301212Y-1520505D01*
X47287837Y-1520505D01*
X47161877Y-1393664D01*
X46986255Y-1275206D01*
X46790970Y-1193115D01*
X46583458Y-1150519D01*
X46371625Y-1149040D01*
X46163539Y-1188735D01*
X45967126Y-1268091D01*
X45789867Y-1384086D01*
X45638515Y-1532301D01*
X45518833Y-1707092D01*
X45435381Y-1901800D01*
X45391337Y-2109009D01*
X45388380Y-2320826D01*
X45007894Y-2320826D01*
X45014609Y-2272115D01*
X45001985Y-2059709D01*
X44948165Y-1853847D01*
X44855217Y-1662440D01*
X44808422Y-1592407D01*
X44639495Y-1521212D01*
X43930707Y-2230000D01*
X43929293Y-2230000D01*
X43220505Y-1521212D01*
X43051578Y-1592407D01*
X42944068Y-1776030D01*
X42874447Y-1977098D01*
X42845391Y-2187885D01*
X42469355Y-2187885D01*
X42470247Y-2124081D01*
X42429100Y-1916277D01*
X42348375Y-1720423D01*
X42231146Y-1543978D01*
X42207837Y-1520505D01*
X43221212Y-1520505D01*
X43930000Y-2229293D01*
X44638788Y-1520505D01*
X44567593Y-1351578D01*
X44383970Y-1244068D01*
X44182902Y-1174447D01*
X43972115Y-1145391D01*
X43759709Y-1158015D01*
X43553847Y-1211835D01*
X43362440Y-1304783D01*
X43292407Y-1351578D01*
X43221212Y-1520505D01*
X42207837Y-1520505D01*
X42081877Y-1393664D01*
X41906255Y-1275206D01*
X41710970Y-1193115D01*
X41503458Y-1150519D01*
X41291625Y-1149040D01*
X41083539Y-1188735D01*
X40887126Y-1268091D01*
X40709867Y-1384086D01*
X40558515Y-1532301D01*
X40438833Y-1707092D01*
X40355381Y-1901800D01*
X40311337Y-2109009D01*
X40308380Y-2320826D01*
X40346621Y-2529184D01*
X40374308Y-2599114D01*
X39926711Y-3046711D01*
X39899909Y-3079339D01*
X39872758Y-3111697D01*
X39871600Y-3113803D01*
X39870074Y-3115661D01*
X39850130Y-3152856D01*
X39829771Y-3189890D01*
X39829043Y-3192185D01*
X39827909Y-3194300D01*
X39815558Y-3234697D01*
X39802791Y-3274943D01*
X39802524Y-3277326D01*
X39801819Y-3279631D01*
X39797540Y-3321757D01*
X39792845Y-3363616D01*
X39792812Y-3368306D01*
X39792802Y-3368404D01*
X39792811Y-3368495D01*
X39792800Y-3370000D01*
X39792800Y-4238649D01*
X39775217Y-4202440D01*
X39728422Y-4132407D01*
X39559495Y-4061212D01*
X38850707Y-4770000D01*
X39559495Y-5478788D01*
X39728422Y-5407593D01*
X39792800Y-5297638D01*
X39792800Y-5500000D01*
X39796922Y-5542043D01*
X39800602Y-5584103D01*
X39801272Y-5586410D01*
X39801507Y-5588804D01*
X39813704Y-5629200D01*
X39825496Y-5669790D01*
X39826605Y-5671929D01*
X39827298Y-5674225D01*
X39847115Y-5711496D01*
X39866560Y-5749009D01*
X39868058Y-5750885D01*
X39869188Y-5753011D01*
X39895917Y-5785784D01*
X39922228Y-5818743D01*
X39925523Y-5822085D01*
X39925584Y-5822159D01*
X39925653Y-5822216D01*
X39926711Y-5823289D01*
X39962599Y-5859177D01*
X39962599Y-7299576D01*
X39927554Y-7269707D01*
X39842436Y-7231339D01*
X39750000Y-7218203D01*
X39250000Y-7218203D01*
X39197417Y-7222396D01*
X39108231Y-7250016D01*
X39030270Y-7301388D01*
X38969707Y-7372446D01*
X38931339Y-7457564D01*
X38921709Y-7525332D01*
X38634329Y-7237952D01*
X38635027Y-7187936D01*
X38610839Y-7065778D01*
X38563384Y-6950644D01*
X38494470Y-6846921D01*
X38406722Y-6758558D01*
X38303482Y-6688922D01*
X38188683Y-6640665D01*
X38066697Y-6615624D01*
X37942170Y-6614755D01*
X37819846Y-6638090D01*
X37704384Y-6684739D01*
X37600182Y-6752927D01*
X37511208Y-6840056D01*
X37440853Y-6942807D01*
X37391796Y-7057267D01*
X37365905Y-7179076D01*
X37364166Y-7303593D01*
X36457200Y-7303593D01*
X36457200Y-6939378D01*
X37823289Y-5573289D01*
X37850091Y-5540661D01*
X37877242Y-5508303D01*
X37878400Y-5506197D01*
X37879926Y-5504339D01*
X37893247Y-5479495D01*
X38141212Y-5479495D01*
X38212407Y-5648422D01*
X38396030Y-5755932D01*
X38597098Y-5825553D01*
X38807885Y-5854609D01*
X39020291Y-5841985D01*
X39226153Y-5788165D01*
X39417560Y-5695217D01*
X39487593Y-5648422D01*
X39558788Y-5479495D01*
X38850000Y-4770707D01*
X38141212Y-5479495D01*
X37893247Y-5479495D01*
X37899870Y-5467144D01*
X37920229Y-5430110D01*
X37920957Y-5427815D01*
X37922091Y-5425700D01*
X37934429Y-5385344D01*
X37941602Y-5362732D01*
X37971578Y-5407593D01*
X38140505Y-5478788D01*
X38849293Y-4770000D01*
X38140505Y-4061212D01*
X37971578Y-4132407D01*
X37957200Y-4156964D01*
X37957200Y-4060505D01*
X38141212Y-4060505D01*
X38850000Y-4769293D01*
X39558788Y-4060505D01*
X39487593Y-3891578D01*
X39303970Y-3784068D01*
X39102902Y-3714447D01*
X38892115Y-3685391D01*
X38679709Y-3698015D01*
X38473847Y-3751835D01*
X38282440Y-3844783D01*
X38212407Y-3891578D01*
X38141212Y-4060505D01*
X37957200Y-4060505D01*
X37957200Y-3420000D01*
X37953078Y-3377957D01*
X37949398Y-3335897D01*
X37948728Y-3333590D01*
X37948493Y-3331196D01*
X37936296Y-3290800D01*
X37924504Y-3250210D01*
X37923395Y-3248071D01*
X37922702Y-3245775D01*
X37902885Y-3208504D01*
X37883440Y-3170991D01*
X37881942Y-3169115D01*
X37880812Y-3166989D01*
X37854058Y-3134185D01*
X37827771Y-3101257D01*
X37824478Y-3097917D01*
X37824416Y-3097841D01*
X37824346Y-3097783D01*
X37823289Y-3096711D01*
X37327384Y-2600806D01*
X37339936Y-2572614D01*
X37386868Y-2366040D01*
X37387499Y-2320826D01*
X37768380Y-2320826D01*
X37806621Y-2529184D01*
X37884603Y-2726146D01*
X37999358Y-2904211D01*
X38146513Y-3056594D01*
X38320464Y-3177493D01*
X38514585Y-3262302D01*
X38721481Y-3307792D01*
X38933273Y-3312228D01*
X39141893Y-3275443D01*
X39339395Y-3198837D01*
X39518256Y-3085328D01*
X39671663Y-2939240D01*
X39793773Y-2766138D01*
X39879936Y-2572614D01*
X39926868Y-2366040D01*
X39930247Y-2124081D01*
X39889100Y-1916277D01*
X39808375Y-1720423D01*
X39691146Y-1543978D01*
X39541877Y-1393664D01*
X39366255Y-1275206D01*
X39170970Y-1193115D01*
X38963458Y-1150519D01*
X38751625Y-1149040D01*
X38543539Y-1188735D01*
X38347126Y-1268091D01*
X38169867Y-1384086D01*
X38018515Y-1532301D01*
X37898833Y-1707092D01*
X37815381Y-1901800D01*
X37771337Y-2109009D01*
X37768380Y-2320826D01*
X37387499Y-2320826D01*
X37390247Y-2124081D01*
X37349100Y-1916277D01*
X37268375Y-1720423D01*
X37151146Y-1543978D01*
X37001877Y-1393664D01*
X36826255Y-1275206D01*
X36630970Y-1193115D01*
X36423458Y-1150519D01*
X36211625Y-1149040D01*
X36003539Y-1188735D01*
X35807126Y-1268091D01*
X35629867Y-1384086D01*
X35478515Y-1532301D01*
X35358833Y-1707092D01*
X35275381Y-1901800D01*
X35231337Y-2109009D01*
X35228380Y-2320826D01*
X35266621Y-2529184D01*
X35344603Y-2726146D01*
X35459358Y-2904211D01*
X35606513Y-3056594D01*
X35780464Y-3177493D01*
X35974585Y-3262302D01*
X36181481Y-3307792D01*
X36393273Y-3312228D01*
X36601893Y-3275443D01*
X36678969Y-3245547D01*
X37042800Y-3609378D01*
X37042800Y-3974873D01*
X37001877Y-3933664D01*
X36826255Y-3815206D01*
X36630970Y-3733115D01*
X36423458Y-3690519D01*
X36211625Y-3689040D01*
X36003539Y-3728735D01*
X35807126Y-3808091D01*
X35629867Y-3924086D01*
X35478515Y-4072301D01*
X35439054Y-4129933D01*
X35436296Y-4120800D01*
X35424504Y-4080210D01*
X35423395Y-4078071D01*
X35422702Y-4075775D01*
X35402885Y-4038504D01*
X35383440Y-4000991D01*
X35381942Y-3999115D01*
X35380812Y-3996989D01*
X35354058Y-3964185D01*
X35327771Y-3931257D01*
X35324478Y-3927917D01*
X35324416Y-3927841D01*
X35324346Y-3927783D01*
X35323289Y-3926711D01*
X34573289Y-3176711D01*
X34540661Y-3149909D01*
X34508303Y-3122758D01*
X34506197Y-3121600D01*
X34504339Y-3120074D01*
X34467144Y-3100130D01*
X34438974Y-3084644D01*
X34591663Y-2939240D01*
X34713773Y-2766138D01*
X34799936Y-2572614D01*
X34846868Y-2366040D01*
X34850247Y-2124081D01*
X34809100Y-1916277D01*
X34728375Y-1720423D01*
X34611146Y-1543978D01*
X34461877Y-1393664D01*
X34286255Y-1275206D01*
X34090970Y-1193115D01*
X33883458Y-1150519D01*
X33671625Y-1149040D01*
X33463539Y-1188735D01*
X33267126Y-1268091D01*
X33089867Y-1384086D01*
X32938515Y-1532301D01*
X32818833Y-1707092D01*
X32735381Y-1901800D01*
X32691337Y-2109009D01*
X32688380Y-2320826D01*
X32726621Y-2529184D01*
X32804603Y-2726146D01*
X32919358Y-2904211D01*
X33053192Y-3042800D01*
X32500000Y-3042800D01*
X32457957Y-3046922D01*
X32415897Y-3050602D01*
X32413590Y-3051272D01*
X32411196Y-3051507D01*
X32370800Y-3063704D01*
X32330210Y-3075496D01*
X32328071Y-3076605D01*
X32325775Y-3077298D01*
X32288504Y-3097115D01*
X32250991Y-3116560D01*
X32249115Y-3118058D01*
X32246989Y-3119188D01*
X32214185Y-3145942D01*
X32181257Y-3172229D01*
X32177917Y-3175522D01*
X32177841Y-3175584D01*
X32177783Y-3175654D01*
X32176711Y-3176711D01*
X31599786Y-3753636D01*
X31550970Y-3733115D01*
X31343458Y-3690519D01*
X31131625Y-3689040D01*
X30923539Y-3728735D01*
X30727126Y-3808091D01*
X30549867Y-3924086D01*
X30398515Y-4072301D01*
X30278833Y-4247092D01*
X30195381Y-4441800D01*
X30151337Y-4649009D01*
X30148380Y-4860826D01*
X29767499Y-4860826D01*
X29770247Y-4664081D01*
X29729100Y-4456277D01*
X29648375Y-4260423D01*
X29531146Y-4083978D01*
X29381877Y-3933664D01*
X29206255Y-3815206D01*
X29010970Y-3733115D01*
X28803458Y-3690519D01*
X28591625Y-3689040D01*
X28383539Y-3728735D01*
X28187126Y-3808091D01*
X28009867Y-3924086D01*
X27858515Y-4072301D01*
X27738833Y-4247092D01*
X27655381Y-4441800D01*
X27611337Y-4649009D01*
X27608380Y-4860826D01*
X27227499Y-4860826D01*
X27230247Y-4664081D01*
X27189100Y-4456277D01*
X27108375Y-4260423D01*
X26991146Y-4083978D01*
X26841877Y-3933664D01*
X26666255Y-3815206D01*
X26470970Y-3733115D01*
X26263458Y-3690519D01*
X26051625Y-3689040D01*
X25843539Y-3728735D01*
X25647126Y-3808091D01*
X25469867Y-3924086D01*
X25318515Y-4072301D01*
X25198833Y-4247092D01*
X25115381Y-4441800D01*
X25071337Y-4649009D01*
X25068380Y-4860826D01*
X24687499Y-4860826D01*
X24690247Y-4664081D01*
X24649100Y-4456277D01*
X24568375Y-4260423D01*
X24451146Y-4083978D01*
X24301877Y-3933664D01*
X24126255Y-3815206D01*
X23930970Y-3733115D01*
X23723458Y-3690519D01*
X23511625Y-3689040D01*
X23303539Y-3728735D01*
X23107126Y-3808091D01*
X22929867Y-3924086D01*
X22778515Y-4072301D01*
X22658833Y-4247092D01*
X22575381Y-4441800D01*
X22531337Y-4649009D01*
X22528380Y-4860826D01*
X22147499Y-4860826D01*
X22150247Y-4664081D01*
X22109100Y-4456277D01*
X22028375Y-4260423D01*
X21911146Y-4083978D01*
X21761877Y-3933664D01*
X21586255Y-3815206D01*
X21390970Y-3733115D01*
X21183458Y-3690519D01*
X20971625Y-3689040D01*
X20763539Y-3728735D01*
X20567126Y-3808091D01*
X20389867Y-3924086D01*
X20238515Y-4072301D01*
X20118833Y-4247092D01*
X20035381Y-4441800D01*
X19991337Y-4649009D01*
X19988380Y-4860826D01*
X19607894Y-4860826D01*
X19614609Y-4812115D01*
X19601985Y-4599709D01*
X19548165Y-4393847D01*
X19455217Y-4202440D01*
X19408422Y-4132407D01*
X19239495Y-4061212D01*
X18530707Y-4770000D01*
X18529293Y-4770000D01*
X18515151Y-4755858D01*
X18515858Y-4755151D01*
X18530000Y-4769293D01*
X19238788Y-4060505D01*
X19167593Y-3891578D01*
X18983970Y-3784068D01*
X18782902Y-3714447D01*
X18572115Y-3685391D01*
X18359709Y-3698015D01*
X18153847Y-3751835D01*
X17962440Y-3844783D01*
X17892407Y-3891578D01*
X17824474Y-4052765D01*
X17816005Y-4023614D01*
X17814529Y-4020767D01*
X17813603Y-4017699D01*
X17787180Y-3968004D01*
X17761254Y-3917988D01*
X17759253Y-3915481D01*
X17757749Y-3912653D01*
X17722211Y-3869080D01*
X17687029Y-3825007D01*
X17682627Y-3820545D01*
X17682554Y-3820455D01*
X17682470Y-3820386D01*
X17681052Y-3818948D01*
X16931052Y-3068948D01*
X16887569Y-3033230D01*
X16844404Y-2997011D01*
X16841595Y-2995467D01*
X16839118Y-2993432D01*
X16789499Y-2966826D01*
X16785185Y-2964455D01*
X16811663Y-2939240D01*
X16933773Y-2766138D01*
X17019936Y-2572614D01*
X17066868Y-2366040D01*
X17067499Y-2320826D01*
X17448380Y-2320826D01*
X17486621Y-2529184D01*
X17564603Y-2726146D01*
X17679358Y-2904211D01*
X17826513Y-3056594D01*
X18000464Y-3177493D01*
X18194585Y-3262302D01*
X18401481Y-3307792D01*
X18613273Y-3312228D01*
X18821893Y-3275443D01*
X19019395Y-3198837D01*
X19198256Y-3085328D01*
X19351663Y-2939240D01*
X19473773Y-2766138D01*
X19559936Y-2572614D01*
X19606868Y-2366040D01*
X19607499Y-2320826D01*
X19988380Y-2320826D01*
X20026621Y-2529184D01*
X20104603Y-2726146D01*
X20219358Y-2904211D01*
X20366513Y-3056594D01*
X20540464Y-3177493D01*
X20734585Y-3262302D01*
X20941481Y-3307792D01*
X21153273Y-3312228D01*
X21361893Y-3275443D01*
X21559395Y-3198837D01*
X21738256Y-3085328D01*
X21891395Y-2939495D01*
X22901212Y-2939495D01*
X22972407Y-3108422D01*
X23156030Y-3215932D01*
X23357098Y-3285553D01*
X23567885Y-3314609D01*
X23780291Y-3301985D01*
X23986153Y-3248165D01*
X24177560Y-3155217D01*
X24247593Y-3108422D01*
X24318788Y-2939495D01*
X23610000Y-2230707D01*
X22901212Y-2939495D01*
X21891395Y-2939495D01*
X21891663Y-2939240D01*
X22013773Y-2766138D01*
X22099936Y-2572614D01*
X22146868Y-2366040D01*
X22149355Y-2187885D01*
X22525391Y-2187885D01*
X22538015Y-2400291D01*
X22591835Y-2606153D01*
X22684783Y-2797560D01*
X22731578Y-2867593D01*
X22900505Y-2938788D01*
X23609293Y-2230000D01*
X23610707Y-2230000D01*
X24319495Y-2938788D01*
X24488422Y-2867593D01*
X24595932Y-2683970D01*
X24665553Y-2482902D01*
X24687894Y-2320826D01*
X25068380Y-2320826D01*
X25106621Y-2529184D01*
X25184603Y-2726146D01*
X25299358Y-2904211D01*
X25446513Y-3056594D01*
X25620464Y-3177493D01*
X25814585Y-3262302D01*
X26021481Y-3307792D01*
X26233273Y-3312228D01*
X26441893Y-3275443D01*
X26639395Y-3198837D01*
X26818256Y-3085328D01*
X26971663Y-2939240D01*
X27093773Y-2766138D01*
X27179936Y-2572614D01*
X27226868Y-2366040D01*
X27227499Y-2320826D01*
X27608380Y-2320826D01*
X27646621Y-2529184D01*
X27724603Y-2726146D01*
X27839358Y-2904211D01*
X27986513Y-3056594D01*
X28160464Y-3177493D01*
X28354585Y-3262302D01*
X28561481Y-3307792D01*
X28773273Y-3312228D01*
X28981893Y-3275443D01*
X29179395Y-3198837D01*
X29358256Y-3085328D01*
X29511395Y-2939495D01*
X30521212Y-2939495D01*
X30592407Y-3108422D01*
X30776030Y-3215932D01*
X30977098Y-3285553D01*
X31187885Y-3314609D01*
X31400291Y-3301985D01*
X31606153Y-3248165D01*
X31797560Y-3155217D01*
X31867593Y-3108422D01*
X31938788Y-2939495D01*
X31230000Y-2230707D01*
X30521212Y-2939495D01*
X29511395Y-2939495D01*
X29511663Y-2939240D01*
X29633773Y-2766138D01*
X29719936Y-2572614D01*
X29766868Y-2366040D01*
X29769355Y-2187885D01*
X30145391Y-2187885D01*
X30158015Y-2400291D01*
X30211835Y-2606153D01*
X30304783Y-2797560D01*
X30351578Y-2867593D01*
X30520505Y-2938788D01*
X31229293Y-2230000D01*
X31230707Y-2230000D01*
X31939495Y-2938788D01*
X32108422Y-2867593D01*
X32215932Y-2683970D01*
X32285553Y-2482902D01*
X32314609Y-2272115D01*
X32301985Y-2059709D01*
X32248165Y-1853847D01*
X32155217Y-1662440D01*
X32108422Y-1592407D01*
X31939495Y-1521212D01*
X31230707Y-2230000D01*
X31229293Y-2230000D01*
X30520505Y-1521212D01*
X30351578Y-1592407D01*
X30244068Y-1776030D01*
X30174447Y-1977098D01*
X30145391Y-2187885D01*
X29769355Y-2187885D01*
X29770247Y-2124081D01*
X29729100Y-1916277D01*
X29648375Y-1720423D01*
X29531146Y-1543978D01*
X29507837Y-1520505D01*
X30521212Y-1520505D01*
X31230000Y-2229293D01*
X31938788Y-1520505D01*
X31867593Y-1351578D01*
X31683970Y-1244068D01*
X31482902Y-1174447D01*
X31272115Y-1145391D01*
X31059709Y-1158015D01*
X30853847Y-1211835D01*
X30662440Y-1304783D01*
X30592407Y-1351578D01*
X30521212Y-1520505D01*
X29507837Y-1520505D01*
X29381877Y-1393664D01*
X29206255Y-1275206D01*
X29010970Y-1193115D01*
X28803458Y-1150519D01*
X28591625Y-1149040D01*
X28383539Y-1188735D01*
X28187126Y-1268091D01*
X28009867Y-1384086D01*
X27858515Y-1532301D01*
X27738833Y-1707092D01*
X27655381Y-1901800D01*
X27611337Y-2109009D01*
X27608380Y-2320826D01*
X27227499Y-2320826D01*
X27230247Y-2124081D01*
X27189100Y-1916277D01*
X27108375Y-1720423D01*
X26991146Y-1543978D01*
X26841877Y-1393664D01*
X26666255Y-1275206D01*
X26470970Y-1193115D01*
X26263458Y-1150519D01*
X26051625Y-1149040D01*
X25843539Y-1188735D01*
X25647126Y-1268091D01*
X25469867Y-1384086D01*
X25318515Y-1532301D01*
X25198833Y-1707092D01*
X25115381Y-1901800D01*
X25071337Y-2109009D01*
X25068380Y-2320826D01*
X24687894Y-2320826D01*
X24694609Y-2272115D01*
X24681985Y-2059709D01*
X24628165Y-1853847D01*
X24535217Y-1662440D01*
X24488422Y-1592407D01*
X24319495Y-1521212D01*
X23610707Y-2230000D01*
X23609293Y-2230000D01*
X22900505Y-1521212D01*
X22731578Y-1592407D01*
X22624068Y-1776030D01*
X22554447Y-1977098D01*
X22525391Y-2187885D01*
X22149355Y-2187885D01*
X22150247Y-2124081D01*
X22109100Y-1916277D01*
X22028375Y-1720423D01*
X21911146Y-1543978D01*
X21887837Y-1520505D01*
X22901212Y-1520505D01*
X23610000Y-2229293D01*
X24318788Y-1520505D01*
X24247593Y-1351578D01*
X24063970Y-1244068D01*
X23862902Y-1174447D01*
X23652115Y-1145391D01*
X23439709Y-1158015D01*
X23233847Y-1211835D01*
X23042440Y-1304783D01*
X22972407Y-1351578D01*
X22901212Y-1520505D01*
X21887837Y-1520505D01*
X21761877Y-1393664D01*
X21586255Y-1275206D01*
X21390970Y-1193115D01*
X21183458Y-1150519D01*
X20971625Y-1149040D01*
X20763539Y-1188735D01*
X20567126Y-1268091D01*
X20389867Y-1384086D01*
X20238515Y-1532301D01*
X20118833Y-1707092D01*
X20035381Y-1901800D01*
X19991337Y-2109009D01*
X19988380Y-2320826D01*
X19607499Y-2320826D01*
X19610247Y-2124081D01*
X19569100Y-1916277D01*
X19488375Y-1720423D01*
X19371146Y-1543978D01*
X19221877Y-1393664D01*
X19046255Y-1275206D01*
X18850970Y-1193115D01*
X18643458Y-1150519D01*
X18431625Y-1149040D01*
X18223539Y-1188735D01*
X18027126Y-1268091D01*
X17849867Y-1384086D01*
X17698515Y-1532301D01*
X17578833Y-1707092D01*
X17495381Y-1901800D01*
X17451337Y-2109009D01*
X17448380Y-2320826D01*
X17067499Y-2320826D01*
X17070247Y-2124081D01*
X17029100Y-1916277D01*
X16948375Y-1720423D01*
X16831146Y-1543978D01*
X16681877Y-1393664D01*
X16506255Y-1275206D01*
X16310970Y-1193115D01*
X16103458Y-1150519D01*
X15891625Y-1149040D01*
X15683539Y-1188735D01*
X15487126Y-1268091D01*
X15309867Y-1384086D01*
X15158515Y-1532301D01*
X15038833Y-1707092D01*
X14955381Y-1901800D01*
X14911337Y-2109009D01*
X14908380Y-2320826D01*
X14946621Y-2529184D01*
X15024603Y-2726146D01*
X15130457Y-2890400D01*
X14274307Y-2890400D01*
X14328422Y-2867593D01*
X14435932Y-2683970D01*
X14505553Y-2482902D01*
X14534609Y-2272115D01*
X14521985Y-2059709D01*
X14468165Y-1853847D01*
X14375217Y-1662440D01*
X14328422Y-1592407D01*
X14159495Y-1521212D01*
X13450707Y-2230000D01*
X13464850Y-2244143D01*
X13464143Y-2244850D01*
X13450000Y-2230707D01*
X13435858Y-2244850D01*
X13435151Y-2244143D01*
X13449293Y-2230000D01*
X12740505Y-1521212D01*
X12571578Y-1592407D01*
X12464068Y-1776030D01*
X12394447Y-1977098D01*
X12365391Y-2187885D01*
X12378015Y-2400291D01*
X12431835Y-2606153D01*
X12524783Y-2797560D01*
X12571578Y-2867593D01*
X12625693Y-2890400D01*
X12432504Y-2890400D01*
X11972294Y-2430190D01*
X11986868Y-2366040D01*
X11990247Y-2124081D01*
X11949100Y-1916277D01*
X11868375Y-1720423D01*
X11751146Y-1543978D01*
X11727837Y-1520505D01*
X12741212Y-1520505D01*
X13450000Y-2229293D01*
X14158788Y-1520505D01*
X14087593Y-1351578D01*
X13903970Y-1244068D01*
X13702902Y-1174447D01*
X13492115Y-1145391D01*
X13279709Y-1158015D01*
X13073847Y-1211835D01*
X12882440Y-1304783D01*
X12812407Y-1351578D01*
X12741212Y-1520505D01*
X11727837Y-1520505D01*
X11601877Y-1393664D01*
X11426255Y-1275206D01*
X11230970Y-1193115D01*
X11023458Y-1150519D01*
X10811625Y-1149040D01*
X10603539Y-1188735D01*
X10407126Y-1268091D01*
X10229867Y-1384086D01*
X10078515Y-1532301D01*
X9958833Y-1707092D01*
X9875381Y-1901800D01*
X9831337Y-2109009D01*
X9828768Y-2293053D01*
X9768163Y-2280613D01*
X9528875Y-2278942D01*
X9447869Y-2294395D01*
X9450247Y-2124081D01*
X9409100Y-1916277D01*
X9328375Y-1720423D01*
X9211146Y-1543978D01*
X9061877Y-1393664D01*
X8886255Y-1275206D01*
X8690970Y-1193115D01*
X8483458Y-1150519D01*
X8271625Y-1149040D01*
X8063539Y-1188735D01*
X7867126Y-1268091D01*
X7689867Y-1384086D01*
X7538515Y-1532301D01*
X7418833Y-1707092D01*
X7335381Y-1901800D01*
X7291337Y-2109009D01*
X7288380Y-2320826D01*
X6616118Y-2320826D01*
X6454619Y-1929001D01*
X6093207Y-1385032D01*
X5633020Y-921622D01*
X5091587Y-556421D01*
X4672374Y-380200D01*
X58123000Y-380200D01*
X58123000Y-1480838D01*
M02*
