M48
;DRILL file {KiCad 4.0.2-stable} date Sunday, October 09, 2016 'PMt' 11:06:19 PM
;FORMAT={-:-/ absolute / metric / decimal}
FMAT,2
METRIC,TZ
T1C0.305
T2C0.800
T3C1.016
T4C1.501
T5C3.150
%
G90
G05
M71
T1
X3.25Y-15.75
X6.25Y-15.75
X6.75Y-18.5
X6.75Y-21.
X9.25Y-11.5
X9.5Y-15.
X10.Y-18.5
X10.Y-21.
X11.Y-15.
X13.Y-9.5
X14.Y-15.
X15.5Y-15.
X15.75Y-11.5
X16.75Y-8.25
X16.75Y-15.
X17.25Y-7.
X20.5Y-11.5
X22.Y-9.5
X22.75Y-7.5
X25.25Y-7.5
X25.75Y-10.75
X27.Y-16.75
X28.5Y-8.75
X28.5Y-14.25
X28.5Y-28.75
X29.25Y-22.25
X30.5Y-8.75
X30.5Y-10.615
X30.5Y-12.75
X30.75Y-18.75
X31.75Y-18.75
X32.25Y-22.25
X32.5Y-6.5
X32.5Y-17.5
X32.977Y-13.266
X33.Y-12.25
X33.Y-15.5
X33.25Y-27.75
X34.Y-17.5
X34.75Y-18.75
X35.Y-27.75
X35.115Y-13.151
X35.115Y-14.217
X35.115Y-15.28
X35.115Y-16.338
X35.25Y-22.25
X35.794Y-18.781
X36.75Y-18.75
X37.25Y-25.75
X37.75Y-18.75
X38.Y-7.25
X38.385Y-13.151
X38.385Y-14.217
X38.385Y-15.25
X38.385Y-16.338
X39.5Y-17.5
X40.Y-24.25
X40.Y-25.25
X40.Y-27.75
X40.Y-28.75
X40.75Y-14.75
X41.25Y-28.75
X42.25Y-9.25
X42.739Y-24.989
X42.75Y-28.75
X43.Y-14.
X44.Y-22.25
X44.296Y-8.872
X44.75Y-23.75
X45.Y-7.25
X45.5Y-6.25
X45.75Y-11.
X46.Y-14.
X46.5Y-16.5
X46.75Y-25.5
X47.5Y-22.25
X47.5Y-24.5
X49.Y-29.5
X51.75Y-29.5
X54.Y-28.5
X54.5Y-9.318
X54.5Y-10.182
X54.5Y-15.568
X54.5Y-16.432
X54.75Y-21.5
X57.Y-28.5
X58.Y-20.25
X59.Y-21.
X60.Y-20.25
X65.Y-8.5
X65.Y-10.
X66.Y-9.25
T2
X67.457Y-8.139
X67.457Y-10.431
X67.457Y-19.569
X67.457Y-21.861
X72.275Y-12.463
X72.275Y-14.492
X72.275Y-16.521
X72.275Y-18.551
X74.056Y-11.449
X74.056Y-13.479
X74.056Y-15.508
X74.056Y-17.537
T3
X8.37Y-2.23
X8.37Y-4.77
X10.91Y-2.23
X10.91Y-4.77
X13.45Y-2.23
X13.45Y-4.77
X15.99Y-2.23
X15.99Y-4.77
X18.53Y-2.23
X18.53Y-4.77
X21.07Y-2.23
X21.07Y-4.77
X23.61Y-2.23
X23.61Y-4.77
X26.15Y-2.23
X26.15Y-4.77
X28.69Y-2.23
X28.69Y-4.77
X31.23Y-2.23
X31.23Y-4.77
X33.77Y-2.23
X33.77Y-4.77
X36.31Y-2.23
X36.31Y-4.77
X38.85Y-2.23
X38.85Y-4.77
X41.39Y-2.23
X41.39Y-4.77
X43.93Y-2.23
X43.93Y-4.77
X46.47Y-2.23
X46.47Y-4.77
X49.01Y-2.23
X49.01Y-4.77
X51.55Y-2.23
X51.55Y-4.77
X54.09Y-2.23
X54.09Y-4.77
X56.63Y-2.23
X56.63Y-4.77
T4
X73.167Y-6.88
X73.167Y-23.12
T5
X3.5Y-3.5
X3.5Y-26.5
X61.5Y-3.5
X61.5Y-26.
T0
M30
