G04 #@! TF.FileFunction,Soldermask,Top*
%FSLAX46Y46*%
G04 Gerber Fmt 4.6, Leading zero omitted, Abs format (unit mm)*
G04 Created by KiCad (PCBNEW 4.0.2-stable) date Sunday, October 09, 2016 'PMt' 11:06:17 PM*
%MOMM*%
G01*
G04 APERTURE LIST*
%ADD10C,0.100000*%
G04 APERTURE END LIST*
D10*
G36*
X3820457Y-23451030D02*
X4406573Y-23571342D01*
X4958152Y-23803205D01*
X5454195Y-24137790D01*
X5875796Y-24562345D01*
X6206909Y-25060710D01*
X6434916Y-25613896D01*
X6551080Y-26200570D01*
X6551080Y-26200581D01*
X6551130Y-26200834D01*
X6541588Y-26884242D01*
X6541530Y-26884497D01*
X6541530Y-26884507D01*
X6409031Y-27467703D01*
X6165666Y-28014310D01*
X5820769Y-28503234D01*
X5387474Y-28915855D01*
X4882282Y-29236459D01*
X4324445Y-29452829D01*
X3735205Y-29556728D01*
X3136999Y-29544198D01*
X2552626Y-29415714D01*
X2004336Y-29176173D01*
X1513019Y-28834699D01*
X1097382Y-28404294D01*
X773257Y-27901352D01*
X552999Y-27345043D01*
X444988Y-26756533D01*
X453341Y-26158265D01*
X577742Y-25573005D01*
X813452Y-25023055D01*
X1151489Y-24529364D01*
X1578981Y-24110732D01*
X2079640Y-23783110D01*
X2634409Y-23558969D01*
X3222142Y-23446853D01*
X3820457Y-23451030D01*
X3820457Y-23451030D01*
G37*
G36*
X56801000Y-29501000D02*
X54199000Y-29501000D01*
X54199000Y-27399000D01*
X56801000Y-27399000D01*
X56801000Y-29501000D01*
X56801000Y-29501000D01*
G37*
G36*
X47451620Y-29201050D02*
X46750180Y-29201050D01*
X46750180Y-28298950D01*
X47451620Y-28298950D01*
X47451620Y-29201050D01*
X47451620Y-29201050D01*
G37*
G36*
X45749820Y-29201050D02*
X45048380Y-29201050D01*
X45048380Y-28298950D01*
X45749820Y-28298950D01*
X45749820Y-29201050D01*
X45749820Y-29201050D01*
G37*
G36*
X9621000Y-29161000D02*
X7119000Y-29161000D01*
X7119000Y-27839000D01*
X9621000Y-27839000D01*
X9621000Y-29161000D01*
X9621000Y-29161000D01*
G37*
G36*
X25381000Y-29161000D02*
X22879000Y-29161000D01*
X22879000Y-27839000D01*
X25381000Y-27839000D01*
X25381000Y-29161000D01*
X25381000Y-29161000D01*
G37*
G36*
X30181000Y-29076000D02*
X29019000Y-29076000D01*
X29019000Y-28324000D01*
X30181000Y-28324000D01*
X30181000Y-29076000D01*
X30181000Y-29076000D01*
G37*
G36*
X27981000Y-29076000D02*
X26819000Y-29076000D01*
X26819000Y-28324000D01*
X27981000Y-28324000D01*
X27981000Y-29076000D01*
X27981000Y-29076000D01*
G37*
G36*
X61820457Y-22951030D02*
X62406573Y-23071342D01*
X62958152Y-23303205D01*
X63454195Y-23637790D01*
X63875796Y-24062345D01*
X64206909Y-24560710D01*
X64434916Y-25113896D01*
X64551080Y-25700570D01*
X64551080Y-25700581D01*
X64551130Y-25700834D01*
X64541588Y-26384242D01*
X64541530Y-26384497D01*
X64541530Y-26384507D01*
X64409031Y-26967703D01*
X64165666Y-27514310D01*
X63820769Y-28003234D01*
X63387474Y-28415855D01*
X62882282Y-28736459D01*
X62324445Y-28952829D01*
X61735205Y-29056728D01*
X61136999Y-29044198D01*
X60552626Y-28915714D01*
X60004336Y-28676173D01*
X59513019Y-28334699D01*
X59097382Y-27904294D01*
X58773257Y-27401352D01*
X58552999Y-26845043D01*
X58444988Y-26256533D01*
X58453341Y-25658265D01*
X58577742Y-25073005D01*
X58813452Y-24523055D01*
X59151489Y-24029364D01*
X59578981Y-23610732D01*
X60079640Y-23283110D01*
X60634409Y-23058969D01*
X61222142Y-22946853D01*
X61820457Y-22951030D01*
X61820457Y-22951030D01*
G37*
G36*
X49851000Y-29051000D02*
X48149000Y-29051000D01*
X48149000Y-27949000D01*
X49851000Y-27949000D01*
X49851000Y-29051000D01*
X49851000Y-29051000D01*
G37*
G36*
X36751000Y-29051000D02*
X35749000Y-29051000D01*
X35749000Y-28449000D01*
X36751000Y-28449000D01*
X36751000Y-29051000D01*
X36751000Y-29051000D01*
G37*
G36*
X52601000Y-29051000D02*
X50899000Y-29051000D01*
X50899000Y-27949000D01*
X52601000Y-27949000D01*
X52601000Y-29051000D01*
X52601000Y-29051000D01*
G37*
G36*
X44755300Y-28978500D02*
X43053300Y-28978500D01*
X43053300Y-28466500D01*
X44755300Y-28466500D01*
X44755300Y-28978500D01*
X44755300Y-28978500D01*
G37*
G36*
X39446700Y-28978500D02*
X37744700Y-28978500D01*
X37744700Y-28466500D01*
X39446700Y-28466500D01*
X39446700Y-28978500D01*
X39446700Y-28978500D01*
G37*
G36*
X34701000Y-28651000D02*
X33699000Y-28651000D01*
X33699000Y-26849000D01*
X34701000Y-26849000D01*
X34701000Y-28651000D01*
X34701000Y-28651000D01*
G37*
G36*
X31801000Y-28651000D02*
X30799000Y-28651000D01*
X30799000Y-26849000D01*
X31801000Y-26849000D01*
X31801000Y-28651000D01*
X31801000Y-28651000D01*
G37*
G36*
X39446700Y-28343500D02*
X37744700Y-28343500D01*
X37744700Y-27831500D01*
X39446700Y-27831500D01*
X39446700Y-28343500D01*
X39446700Y-28343500D01*
G37*
G36*
X44755300Y-28343500D02*
X43053300Y-28343500D01*
X43053300Y-27831500D01*
X44755300Y-27831500D01*
X44755300Y-28343500D01*
X44755300Y-28343500D01*
G37*
G36*
X27981000Y-28126000D02*
X26819000Y-28126000D01*
X26819000Y-27374000D01*
X27981000Y-27374000D01*
X27981000Y-28126000D01*
X27981000Y-28126000D01*
G37*
G36*
X30181000Y-28126000D02*
X29019000Y-28126000D01*
X29019000Y-27374000D01*
X30181000Y-27374000D01*
X30181000Y-28126000D01*
X30181000Y-28126000D01*
G37*
G36*
X39446700Y-27708500D02*
X37744700Y-27708500D01*
X37744700Y-27196500D01*
X39446700Y-27196500D01*
X39446700Y-27708500D01*
X39446700Y-27708500D01*
G37*
G36*
X44755300Y-27708500D02*
X43053300Y-27708500D01*
X43053300Y-27196500D01*
X44755300Y-27196500D01*
X44755300Y-27708500D01*
X44755300Y-27708500D01*
G37*
G36*
X36751000Y-27551000D02*
X35749000Y-27551000D01*
X35749000Y-26949000D01*
X36751000Y-26949000D01*
X36751000Y-27551000D01*
X36751000Y-27551000D01*
G37*
G36*
X45801000Y-27251000D02*
X45199000Y-27251000D01*
X45199000Y-26249000D01*
X45801000Y-26249000D01*
X45801000Y-27251000D01*
X45801000Y-27251000D01*
G37*
G36*
X47301000Y-27251000D02*
X46699000Y-27251000D01*
X46699000Y-26249000D01*
X47301000Y-26249000D01*
X47301000Y-27251000D01*
X47301000Y-27251000D01*
G37*
G36*
X27981000Y-27176000D02*
X26819000Y-27176000D01*
X26819000Y-26424000D01*
X27981000Y-26424000D01*
X27981000Y-27176000D01*
X27981000Y-27176000D01*
G37*
G36*
X30181000Y-27176000D02*
X29019000Y-27176000D01*
X29019000Y-26424000D01*
X30181000Y-26424000D01*
X30181000Y-27176000D01*
X30181000Y-27176000D01*
G37*
G36*
X44755300Y-27073500D02*
X43053300Y-27073500D01*
X43053300Y-26561500D01*
X44755300Y-26561500D01*
X44755300Y-27073500D01*
X44755300Y-27073500D01*
G37*
G36*
X39446700Y-27073500D02*
X37744700Y-27073500D01*
X37744700Y-26561500D01*
X39446700Y-26561500D01*
X39446700Y-27073500D01*
X39446700Y-27073500D01*
G37*
G36*
X9621000Y-26661000D02*
X7119000Y-26661000D01*
X7119000Y-25339000D01*
X9621000Y-25339000D01*
X9621000Y-26661000D01*
X9621000Y-26661000D01*
G37*
G36*
X25381000Y-26661000D02*
X22879000Y-26661000D01*
X22879000Y-25339000D01*
X25381000Y-25339000D01*
X25381000Y-26661000D01*
X25381000Y-26661000D01*
G37*
G36*
X44755300Y-26438500D02*
X43053300Y-26438500D01*
X43053300Y-25926500D01*
X44755300Y-25926500D01*
X44755300Y-26438500D01*
X44755300Y-26438500D01*
G37*
G36*
X39446700Y-26438500D02*
X37744700Y-26438500D01*
X37744700Y-25926500D01*
X39446700Y-25926500D01*
X39446700Y-26438500D01*
X39446700Y-26438500D01*
G37*
G36*
X56801000Y-26101000D02*
X54199000Y-26101000D01*
X54199000Y-23999000D01*
X56801000Y-23999000D01*
X56801000Y-26101000D01*
X56801000Y-26101000D01*
G37*
G36*
X49851000Y-26051000D02*
X48149000Y-26051000D01*
X48149000Y-24949000D01*
X49851000Y-24949000D01*
X49851000Y-26051000D01*
X49851000Y-26051000D01*
G37*
G36*
X52601000Y-26051000D02*
X50899000Y-26051000D01*
X50899000Y-24949000D01*
X52601000Y-24949000D01*
X52601000Y-26051000D01*
X52601000Y-26051000D01*
G37*
G36*
X39446700Y-25803500D02*
X37744700Y-25803500D01*
X37744700Y-25291500D01*
X39446700Y-25291500D01*
X39446700Y-25803500D01*
X39446700Y-25803500D01*
G37*
G36*
X44755300Y-25803500D02*
X43053300Y-25803500D01*
X43053300Y-25291500D01*
X44755300Y-25291500D01*
X44755300Y-25803500D01*
X44755300Y-25803500D01*
G37*
G36*
X28601000Y-25801000D02*
X26899000Y-25801000D01*
X26899000Y-24699000D01*
X28601000Y-24699000D01*
X28601000Y-25801000D01*
X28601000Y-25801000D01*
G37*
G36*
X34601000Y-25801000D02*
X32899000Y-25801000D01*
X32899000Y-24699000D01*
X34601000Y-24699000D01*
X34601000Y-25801000D01*
X34601000Y-25801000D01*
G37*
G36*
X31601000Y-25801000D02*
X29899000Y-25801000D01*
X29899000Y-24699000D01*
X31601000Y-24699000D01*
X31601000Y-25801000D01*
X31601000Y-25801000D01*
G37*
G36*
X44755300Y-25168500D02*
X43053300Y-25168500D01*
X43053300Y-24656500D01*
X44755300Y-24656500D01*
X44755300Y-25168500D01*
X44755300Y-25168500D01*
G37*
G36*
X39446700Y-25168500D02*
X37744700Y-25168500D01*
X37744700Y-24656500D01*
X39446700Y-24656500D01*
X39446700Y-25168500D01*
X39446700Y-25168500D01*
G37*
G36*
X47301000Y-25001000D02*
X46699000Y-25001000D01*
X46699000Y-23999000D01*
X47301000Y-23999000D01*
X47301000Y-25001000D01*
X47301000Y-25001000D01*
G37*
G36*
X45801000Y-25001000D02*
X45199000Y-25001000D01*
X45199000Y-23999000D01*
X45801000Y-23999000D01*
X45801000Y-25001000D01*
X45801000Y-25001000D01*
G37*
G36*
X44755300Y-24533500D02*
X43053300Y-24533500D01*
X43053300Y-24021500D01*
X44755300Y-24021500D01*
X44755300Y-24533500D01*
X44755300Y-24533500D01*
G37*
G36*
X39446700Y-24533500D02*
X37744700Y-24533500D01*
X37744700Y-24021500D01*
X39446700Y-24021500D01*
X39446700Y-24533500D01*
X39446700Y-24533500D01*
G37*
G36*
X73303495Y-21820565D02*
X73553363Y-21871855D01*
X73788509Y-21970701D01*
X73999981Y-22113340D01*
X74179711Y-22294330D01*
X74320871Y-22506793D01*
X74418073Y-22742621D01*
X74467565Y-22992578D01*
X74467565Y-22992589D01*
X74467615Y-22992842D01*
X74463547Y-23284187D01*
X74463490Y-23284437D01*
X74463490Y-23284452D01*
X74407038Y-23532923D01*
X74303288Y-23765951D01*
X74156254Y-23974385D01*
X73971535Y-24150291D01*
X73756164Y-24286969D01*
X73518353Y-24379209D01*
X73267152Y-24423503D01*
X73012127Y-24418161D01*
X72763003Y-24363388D01*
X72529256Y-24261266D01*
X72319805Y-24115694D01*
X72142613Y-23932206D01*
X72004433Y-23717793D01*
X71910534Y-23480630D01*
X71864488Y-23229746D01*
X71868049Y-22974696D01*
X71921083Y-22725190D01*
X72021570Y-22490738D01*
X72165680Y-22280271D01*
X72347925Y-22101803D01*
X72561360Y-21962135D01*
X72797868Y-21866580D01*
X73048425Y-21818783D01*
X73303495Y-21820565D01*
X73303495Y-21820565D01*
G37*
G36*
X36676000Y-24201000D02*
X35824000Y-24201000D01*
X35824000Y-23299000D01*
X36676000Y-23299000D01*
X36676000Y-24201000D01*
X36676000Y-24201000D01*
G37*
G36*
X25381000Y-24161000D02*
X22879000Y-24161000D01*
X22879000Y-22839000D01*
X25381000Y-22839000D01*
X25381000Y-24161000D01*
X25381000Y-24161000D01*
G37*
G36*
X9621000Y-24161000D02*
X7119000Y-24161000D01*
X7119000Y-22839000D01*
X9621000Y-22839000D01*
X9621000Y-24161000D01*
X9621000Y-24161000D01*
G37*
G36*
X49551000Y-23651000D02*
X48549000Y-23651000D01*
X48549000Y-21849000D01*
X49551000Y-21849000D01*
X49551000Y-23651000D01*
X49551000Y-23651000D01*
G37*
G36*
X52451000Y-23651000D02*
X51449000Y-23651000D01*
X51449000Y-21849000D01*
X52451000Y-21849000D01*
X52451000Y-23651000D01*
X52451000Y-23651000D01*
G37*
G36*
X31601000Y-22801000D02*
X29899000Y-22801000D01*
X29899000Y-21699000D01*
X31601000Y-21699000D01*
X31601000Y-22801000D01*
X31601000Y-22801000D01*
G37*
G36*
X28601000Y-22801000D02*
X26899000Y-22801000D01*
X26899000Y-21699000D01*
X28601000Y-21699000D01*
X28601000Y-22801000D01*
X28601000Y-22801000D01*
G37*
G36*
X34601000Y-22801000D02*
X32899000Y-22801000D01*
X32899000Y-21699000D01*
X34601000Y-21699000D01*
X34601000Y-22801000D01*
X34601000Y-22801000D01*
G37*
G36*
X47301000Y-22751000D02*
X46699000Y-22751000D01*
X46699000Y-21749000D01*
X47301000Y-21749000D01*
X47301000Y-22751000D01*
X47301000Y-22751000D01*
G37*
G36*
X45801000Y-22751000D02*
X45199000Y-22751000D01*
X45199000Y-21749000D01*
X45801000Y-21749000D01*
X45801000Y-22751000D01*
X45801000Y-22751000D01*
G37*
G36*
X42301000Y-22751000D02*
X41699000Y-22751000D01*
X41699000Y-21749000D01*
X42301000Y-21749000D01*
X42301000Y-22751000D01*
X42301000Y-22751000D01*
G37*
G36*
X43801000Y-22751000D02*
X43199000Y-22751000D01*
X43199000Y-21749000D01*
X43801000Y-21749000D01*
X43801000Y-22751000D01*
X43801000Y-22751000D01*
G37*
G36*
X36676000Y-22701000D02*
X35824000Y-22701000D01*
X35824000Y-21799000D01*
X36676000Y-21799000D01*
X36676000Y-22701000D01*
X36676000Y-22701000D01*
G37*
G36*
X40449080Y-22699780D02*
X39549520Y-22699780D01*
X39549520Y-21800220D01*
X40449080Y-21800220D01*
X40449080Y-22699780D01*
X40449080Y-22699780D01*
G37*
G36*
X38950480Y-22699780D02*
X38050920Y-22699780D01*
X38050920Y-21800220D01*
X38950480Y-21800220D01*
X38950480Y-22699780D01*
X38950480Y-22699780D01*
G37*
G36*
X56701000Y-22676000D02*
X55799000Y-22676000D01*
X55799000Y-21824000D01*
X56701000Y-21824000D01*
X56701000Y-22676000D01*
X56701000Y-22676000D01*
G37*
G36*
X55201000Y-22676000D02*
X54299000Y-22676000D01*
X54299000Y-21824000D01*
X55201000Y-21824000D01*
X55201000Y-22676000D01*
X55201000Y-22676000D01*
G37*
G36*
X67525276Y-21210532D02*
X67650233Y-21236182D01*
X67767823Y-21285612D01*
X67873575Y-21356943D01*
X67963453Y-21447451D01*
X68034044Y-21553699D01*
X68082652Y-21671631D01*
X68107376Y-21796497D01*
X68107428Y-21796761D01*
X68105393Y-21942456D01*
X68105335Y-21942711D01*
X68105335Y-21942721D01*
X68077135Y-22066842D01*
X68025251Y-22183376D01*
X67951722Y-22287608D01*
X67859350Y-22375575D01*
X67751645Y-22443926D01*
X67632726Y-22490051D01*
X67507105Y-22512202D01*
X67379570Y-22509530D01*
X67254991Y-22482140D01*
X67138097Y-22431070D01*
X67033355Y-22358272D01*
X66944750Y-22266519D01*
X66875646Y-22159292D01*
X66828691Y-22040697D01*
X66805664Y-21915227D01*
X66807444Y-21787688D01*
X66833966Y-21662914D01*
X66884218Y-21545670D01*
X66956283Y-21440420D01*
X67047420Y-21351172D01*
X67154152Y-21281329D01*
X67272427Y-21233543D01*
X67397724Y-21209641D01*
X67525276Y-21210532D01*
X67525276Y-21210532D01*
G37*
G36*
X6001000Y-21801000D02*
X3899000Y-21801000D01*
X3899000Y-19199000D01*
X6001000Y-19199000D01*
X6001000Y-21801000D01*
X6001000Y-21801000D01*
G37*
G36*
X2601000Y-21801000D02*
X499000Y-21801000D01*
X499000Y-19199000D01*
X2601000Y-19199000D01*
X2601000Y-21801000D01*
X2601000Y-21801000D01*
G37*
G36*
X25381000Y-21661000D02*
X22879000Y-21661000D01*
X22879000Y-20339000D01*
X25381000Y-20339000D01*
X25381000Y-21661000D01*
X25381000Y-21661000D01*
G37*
G36*
X9621000Y-21661000D02*
X7119000Y-21661000D01*
X7119000Y-20339000D01*
X9621000Y-20339000D01*
X9621000Y-21661000D01*
X9621000Y-21661000D01*
G37*
G36*
X59704040Y-20721050D02*
X58403160Y-20721050D01*
X58403160Y-19818950D01*
X59704040Y-19818950D01*
X59704040Y-20721050D01*
X59704040Y-20721050D01*
G37*
G36*
X65599380Y-20721050D02*
X64298500Y-20721050D01*
X64298500Y-19818950D01*
X65599380Y-19818950D01*
X65599380Y-20721050D01*
X65599380Y-20721050D01*
G37*
G36*
X67525276Y-18919452D02*
X67650233Y-18945102D01*
X67767823Y-18994532D01*
X67873575Y-19065863D01*
X67963453Y-19156371D01*
X68034044Y-19262619D01*
X68082652Y-19380551D01*
X68107376Y-19505417D01*
X68107428Y-19505681D01*
X68105393Y-19651376D01*
X68105335Y-19651631D01*
X68105335Y-19651641D01*
X68077135Y-19775762D01*
X68025251Y-19892296D01*
X67951722Y-19996528D01*
X67859350Y-20084495D01*
X67751645Y-20152846D01*
X67632726Y-20198971D01*
X67507105Y-20221122D01*
X67379570Y-20218450D01*
X67254991Y-20191060D01*
X67138097Y-20139990D01*
X67033355Y-20067192D01*
X66944750Y-19975439D01*
X66875646Y-19868212D01*
X66828691Y-19749617D01*
X66805664Y-19624147D01*
X66807444Y-19496608D01*
X66833966Y-19371834D01*
X66884218Y-19254590D01*
X66956283Y-19149340D01*
X67047420Y-19060092D01*
X67154152Y-18990249D01*
X67272427Y-18942463D01*
X67397724Y-18918561D01*
X67525276Y-18919452D01*
X67525276Y-18919452D01*
G37*
G36*
X72343656Y-17900912D02*
X72468613Y-17926562D01*
X72586203Y-17975992D01*
X72691955Y-18047323D01*
X72781833Y-18137831D01*
X72852424Y-18244079D01*
X72901032Y-18362011D01*
X72925756Y-18486877D01*
X72925808Y-18487141D01*
X72923773Y-18632836D01*
X72923715Y-18633091D01*
X72923715Y-18633101D01*
X72895515Y-18757222D01*
X72843631Y-18873756D01*
X72770102Y-18977988D01*
X72677730Y-19065955D01*
X72570025Y-19134306D01*
X72451106Y-19180431D01*
X72325485Y-19202582D01*
X72197950Y-19199910D01*
X72073371Y-19172520D01*
X71956477Y-19121450D01*
X71851735Y-19048652D01*
X71763130Y-18956899D01*
X71694026Y-18849672D01*
X71647071Y-18731077D01*
X71624044Y-18605607D01*
X71625824Y-18478068D01*
X71652346Y-18353294D01*
X71702598Y-18236050D01*
X71774663Y-18130800D01*
X71865800Y-18041552D01*
X71972532Y-17971709D01*
X72090807Y-17923923D01*
X72216104Y-17900021D01*
X72343656Y-17900912D01*
X72343656Y-17900912D01*
G37*
G36*
X9621000Y-19161000D02*
X7119000Y-19161000D01*
X7119000Y-17839000D01*
X9621000Y-17839000D01*
X9621000Y-19161000D01*
X9621000Y-19161000D01*
G37*
G36*
X25381000Y-19161000D02*
X22879000Y-19161000D01*
X22879000Y-17839000D01*
X25381000Y-17839000D01*
X25381000Y-19161000D01*
X25381000Y-19161000D01*
G37*
G36*
X57891000Y-18626000D02*
X55879000Y-18626000D01*
X55879000Y-17764000D01*
X57891000Y-17764000D01*
X57891000Y-18626000D01*
X57891000Y-18626000D01*
G37*
G36*
X49121000Y-18626000D02*
X47109000Y-18626000D01*
X47109000Y-17764000D01*
X49121000Y-17764000D01*
X49121000Y-18626000D01*
X49121000Y-18626000D01*
G37*
G36*
X44251000Y-18301000D02*
X43249000Y-18301000D01*
X43249000Y-17699000D01*
X44251000Y-17699000D01*
X44251000Y-18301000D01*
X44251000Y-18301000D01*
G37*
G36*
X42251000Y-18301000D02*
X41249000Y-18301000D01*
X41249000Y-17699000D01*
X42251000Y-17699000D01*
X42251000Y-18301000D01*
X42251000Y-18301000D01*
G37*
G36*
X46251000Y-18301000D02*
X45249000Y-18301000D01*
X45249000Y-17699000D01*
X46251000Y-17699000D01*
X46251000Y-18301000D01*
X46251000Y-18301000D01*
G37*
G36*
X74124196Y-16887452D02*
X74249153Y-16913102D01*
X74366743Y-16962532D01*
X74472495Y-17033863D01*
X74562373Y-17124371D01*
X74632964Y-17230619D01*
X74681572Y-17348551D01*
X74706296Y-17473417D01*
X74706348Y-17473681D01*
X74704313Y-17619376D01*
X74704255Y-17619631D01*
X74704255Y-17619641D01*
X74676055Y-17743762D01*
X74624171Y-17860296D01*
X74550642Y-17964528D01*
X74458270Y-18052495D01*
X74350565Y-18120846D01*
X74231646Y-18166971D01*
X74106025Y-18189122D01*
X73978490Y-18186450D01*
X73853911Y-18159060D01*
X73737017Y-18107990D01*
X73632275Y-18035192D01*
X73543670Y-17943439D01*
X73474566Y-17836212D01*
X73427611Y-17717617D01*
X73404584Y-17592147D01*
X73406364Y-17464608D01*
X73432886Y-17339834D01*
X73483138Y-17222590D01*
X73555203Y-17117340D01*
X73646340Y-17028092D01*
X73753072Y-16958249D01*
X73871347Y-16910463D01*
X73996644Y-16886561D01*
X74124196Y-16887452D01*
X74124196Y-16887452D01*
G37*
G36*
X65596840Y-18181050D02*
X64295960Y-18181050D01*
X64295960Y-17278950D01*
X65596840Y-17278950D01*
X65596840Y-18181050D01*
X65596840Y-18181050D01*
G37*
G36*
X59701500Y-18181050D02*
X58400620Y-18181050D01*
X58400620Y-17278950D01*
X59701500Y-17278950D01*
X59701500Y-18181050D01*
X59701500Y-18181050D01*
G37*
G36*
X37636000Y-18151000D02*
X37164000Y-18151000D01*
X37164000Y-17049000D01*
X37636000Y-17049000D01*
X37636000Y-18151000D01*
X37636000Y-18151000D01*
G37*
G36*
X38286000Y-18151000D02*
X37814000Y-18151000D01*
X37814000Y-17049000D01*
X38286000Y-17049000D01*
X38286000Y-18151000D01*
X38286000Y-18151000D01*
G37*
G36*
X38936000Y-18151000D02*
X38464000Y-18151000D01*
X38464000Y-17049000D01*
X38936000Y-17049000D01*
X38936000Y-18151000D01*
X38936000Y-18151000D01*
G37*
G36*
X36986000Y-18151000D02*
X36514000Y-18151000D01*
X36514000Y-17049000D01*
X36986000Y-17049000D01*
X36986000Y-18151000D01*
X36986000Y-18151000D01*
G37*
G36*
X36336000Y-18151000D02*
X35864000Y-18151000D01*
X35864000Y-17049000D01*
X36336000Y-17049000D01*
X36336000Y-18151000D01*
X36336000Y-18151000D01*
G37*
G36*
X35036000Y-18151000D02*
X34564000Y-18151000D01*
X34564000Y-17049000D01*
X35036000Y-17049000D01*
X35036000Y-18151000D01*
X35036000Y-18151000D01*
G37*
G36*
X35686000Y-18151000D02*
X35214000Y-18151000D01*
X35214000Y-17049000D01*
X35686000Y-17049000D01*
X35686000Y-18151000D01*
X35686000Y-18151000D01*
G37*
G36*
X32101000Y-18051000D02*
X30399000Y-18051000D01*
X30399000Y-16949000D01*
X32101000Y-16949000D01*
X32101000Y-18051000D01*
X32101000Y-18051000D01*
G37*
G36*
X28801000Y-18001000D02*
X28199000Y-18001000D01*
X28199000Y-16999000D01*
X28801000Y-16999000D01*
X28801000Y-18001000D01*
X28801000Y-18001000D01*
G37*
G36*
X27301000Y-18001000D02*
X26699000Y-18001000D01*
X26699000Y-16999000D01*
X27301000Y-16999000D01*
X27301000Y-18001000D01*
X27301000Y-18001000D01*
G37*
G36*
X6001150Y-17552260D02*
X3498850Y-17552260D01*
X3498850Y-13950140D01*
X6001150Y-13950140D01*
X6001150Y-17552260D01*
X6001150Y-17552260D01*
G37*
G36*
X49121000Y-17356000D02*
X47109000Y-17356000D01*
X47109000Y-16494000D01*
X49121000Y-16494000D01*
X49121000Y-17356000D01*
X49121000Y-17356000D01*
G37*
G36*
X57891000Y-17356000D02*
X55879000Y-17356000D01*
X55879000Y-16494000D01*
X57891000Y-16494000D01*
X57891000Y-17356000D01*
X57891000Y-17356000D01*
G37*
G36*
X72343656Y-15871452D02*
X72468613Y-15897102D01*
X72586203Y-15946532D01*
X72691955Y-16017863D01*
X72781833Y-16108371D01*
X72852424Y-16214619D01*
X72901032Y-16332551D01*
X72925756Y-16457417D01*
X72925808Y-16457681D01*
X72923773Y-16603376D01*
X72923715Y-16603631D01*
X72923715Y-16603641D01*
X72895515Y-16727762D01*
X72843631Y-16844296D01*
X72770102Y-16948528D01*
X72677730Y-17036495D01*
X72570025Y-17104846D01*
X72451106Y-17150971D01*
X72325485Y-17173122D01*
X72197950Y-17170450D01*
X72073371Y-17143060D01*
X71956477Y-17091990D01*
X71851735Y-17019192D01*
X71763130Y-16927439D01*
X71694026Y-16820212D01*
X71647071Y-16701617D01*
X71624044Y-16576147D01*
X71625824Y-16448608D01*
X71652346Y-16323834D01*
X71702598Y-16206590D01*
X71774663Y-16101340D01*
X71865800Y-16012092D01*
X71972532Y-15942249D01*
X72090807Y-15894463D01*
X72216104Y-15870561D01*
X72343656Y-15871452D01*
X72343656Y-15871452D01*
G37*
G36*
X40151000Y-16936000D02*
X39049000Y-16936000D01*
X39049000Y-16464000D01*
X40151000Y-16464000D01*
X40151000Y-16936000D01*
X40151000Y-16936000D01*
G37*
G36*
X34451000Y-16936000D02*
X33349000Y-16936000D01*
X33349000Y-16464000D01*
X34451000Y-16464000D01*
X34451000Y-16936000D01*
X34451000Y-16936000D01*
G37*
G36*
X37863500Y-16926000D02*
X35636500Y-16926000D01*
X35636500Y-12574000D01*
X37863500Y-12574000D01*
X37863500Y-16926000D01*
X37863500Y-16926000D01*
G37*
G36*
X23151000Y-16836000D02*
X21549000Y-16836000D01*
X21549000Y-15934000D01*
X23151000Y-15934000D01*
X23151000Y-16836000D01*
X23151000Y-16836000D01*
G37*
G36*
X18451000Y-16836000D02*
X16849000Y-16836000D01*
X16849000Y-15934000D01*
X18451000Y-15934000D01*
X18451000Y-16836000D01*
X18451000Y-16836000D01*
G37*
G36*
X46251000Y-16801000D02*
X45249000Y-16801000D01*
X45249000Y-16199000D01*
X46251000Y-16199000D01*
X46251000Y-16801000D01*
X46251000Y-16801000D01*
G37*
G36*
X44251000Y-16801000D02*
X43249000Y-16801000D01*
X43249000Y-16199000D01*
X44251000Y-16199000D01*
X44251000Y-16801000D01*
X44251000Y-16801000D01*
G37*
G36*
X42251000Y-16801000D02*
X41249000Y-16801000D01*
X41249000Y-16199000D01*
X42251000Y-16199000D01*
X42251000Y-16801000D01*
X42251000Y-16801000D01*
G37*
G36*
X25426000Y-16701000D02*
X24574000Y-16701000D01*
X24574000Y-15799000D01*
X25426000Y-15799000D01*
X25426000Y-16701000D01*
X25426000Y-16701000D01*
G37*
G36*
X15351000Y-16551000D02*
X14249000Y-16551000D01*
X14249000Y-13449000D01*
X15351000Y-13449000D01*
X15351000Y-16551000D01*
X15351000Y-16551000D01*
G37*
G36*
X10751000Y-16551000D02*
X9649000Y-16551000D01*
X9649000Y-13449000D01*
X10751000Y-13449000D01*
X10751000Y-16551000D01*
X10751000Y-16551000D01*
G37*
G36*
X40151000Y-16286000D02*
X39049000Y-16286000D01*
X39049000Y-15814000D01*
X40151000Y-15814000D01*
X40151000Y-16286000D01*
X40151000Y-16286000D01*
G37*
G36*
X34451000Y-16286000D02*
X33349000Y-16286000D01*
X33349000Y-15814000D01*
X34451000Y-15814000D01*
X34451000Y-16286000D01*
X34451000Y-16286000D01*
G37*
G36*
X74124196Y-14857992D02*
X74249153Y-14883642D01*
X74366743Y-14933072D01*
X74472495Y-15004403D01*
X74562373Y-15094911D01*
X74632964Y-15201159D01*
X74681572Y-15319091D01*
X74706296Y-15443957D01*
X74706348Y-15444221D01*
X74704313Y-15589916D01*
X74704255Y-15590171D01*
X74704255Y-15590181D01*
X74676055Y-15714302D01*
X74624171Y-15830836D01*
X74550642Y-15935068D01*
X74458270Y-16023035D01*
X74350565Y-16091386D01*
X74231646Y-16137511D01*
X74106025Y-16159662D01*
X73978490Y-16156990D01*
X73853911Y-16129600D01*
X73737017Y-16078530D01*
X73632275Y-16005732D01*
X73543670Y-15913979D01*
X73474566Y-15806752D01*
X73427611Y-15688157D01*
X73404584Y-15562687D01*
X73406364Y-15435148D01*
X73432886Y-15310374D01*
X73483138Y-15193130D01*
X73555203Y-15087880D01*
X73646340Y-14998632D01*
X73753072Y-14928789D01*
X73871347Y-14881003D01*
X73996644Y-14857101D01*
X74124196Y-14857992D01*
X74124196Y-14857992D01*
G37*
G36*
X57891000Y-16086000D02*
X55879000Y-16086000D01*
X55879000Y-15224000D01*
X57891000Y-15224000D01*
X57891000Y-16086000D01*
X57891000Y-16086000D01*
G37*
G36*
X49121000Y-16086000D02*
X47109000Y-16086000D01*
X47109000Y-15224000D01*
X49121000Y-15224000D01*
X49121000Y-16086000D01*
X49121000Y-16086000D01*
G37*
G36*
X28949080Y-15949780D02*
X28049520Y-15949780D01*
X28049520Y-15050220D01*
X28949080Y-15050220D01*
X28949080Y-15949780D01*
X28949080Y-15949780D01*
G37*
G36*
X27450480Y-15949780D02*
X26550920Y-15949780D01*
X26550920Y-15050220D01*
X27450480Y-15050220D01*
X27450480Y-15949780D01*
X27450480Y-15949780D01*
G37*
G36*
X40151000Y-15636000D02*
X39049000Y-15636000D01*
X39049000Y-15164000D01*
X40151000Y-15164000D01*
X40151000Y-15636000D01*
X40151000Y-15636000D01*
G37*
G36*
X34451000Y-15636000D02*
X33349000Y-15636000D01*
X33349000Y-15164000D01*
X34451000Y-15164000D01*
X34451000Y-15636000D01*
X34451000Y-15636000D01*
G37*
G36*
X18451000Y-15566000D02*
X16849000Y-15566000D01*
X16849000Y-14664000D01*
X18451000Y-14664000D01*
X18451000Y-15566000D01*
X18451000Y-15566000D01*
G37*
G36*
X23151000Y-15566000D02*
X21549000Y-15566000D01*
X21549000Y-14664000D01*
X23151000Y-14664000D01*
X23151000Y-15566000D01*
X23151000Y-15566000D01*
G37*
G36*
X25426000Y-15201000D02*
X24574000Y-15201000D01*
X24574000Y-14299000D01*
X25426000Y-14299000D01*
X25426000Y-15201000D01*
X25426000Y-15201000D01*
G37*
G36*
X44951000Y-15176000D02*
X44049000Y-15176000D01*
X44049000Y-14324000D01*
X44951000Y-14324000D01*
X44951000Y-15176000D01*
X44951000Y-15176000D01*
G37*
G36*
X46451000Y-15176000D02*
X45549000Y-15176000D01*
X45549000Y-14324000D01*
X46451000Y-14324000D01*
X46451000Y-15176000D01*
X46451000Y-15176000D01*
G37*
G36*
X43451000Y-15176000D02*
X42549000Y-15176000D01*
X42549000Y-14324000D01*
X43451000Y-14324000D01*
X43451000Y-15176000D01*
X43451000Y-15176000D01*
G37*
G36*
X41951000Y-15176000D02*
X41049000Y-15176000D01*
X41049000Y-14324000D01*
X41951000Y-14324000D01*
X41951000Y-15176000D01*
X41951000Y-15176000D01*
G37*
G36*
X72343656Y-13841992D02*
X72468613Y-13867642D01*
X72586203Y-13917072D01*
X72691955Y-13988403D01*
X72781833Y-14078911D01*
X72852424Y-14185159D01*
X72901032Y-14303091D01*
X72925756Y-14427957D01*
X72925808Y-14428221D01*
X72923773Y-14573916D01*
X72923715Y-14574171D01*
X72923715Y-14574181D01*
X72895515Y-14698302D01*
X72843631Y-14814836D01*
X72770102Y-14919068D01*
X72677730Y-15007035D01*
X72570025Y-15075386D01*
X72451106Y-15121511D01*
X72325485Y-15143662D01*
X72197950Y-15140990D01*
X72073371Y-15113600D01*
X71956477Y-15062530D01*
X71851735Y-14989732D01*
X71763130Y-14897979D01*
X71694026Y-14790752D01*
X71647071Y-14672157D01*
X71624044Y-14546687D01*
X71625824Y-14419148D01*
X71652346Y-14294374D01*
X71702598Y-14177130D01*
X71774663Y-14071880D01*
X71865800Y-13982632D01*
X71972532Y-13912789D01*
X72090807Y-13865003D01*
X72216104Y-13841101D01*
X72343656Y-13841992D01*
X72343656Y-13841992D01*
G37*
G36*
X32101000Y-15051000D02*
X30399000Y-15051000D01*
X30399000Y-13949000D01*
X32101000Y-13949000D01*
X32101000Y-15051000D01*
X32101000Y-15051000D01*
G37*
G36*
X40151000Y-14986000D02*
X39049000Y-14986000D01*
X39049000Y-14514000D01*
X40151000Y-14514000D01*
X40151000Y-14986000D01*
X40151000Y-14986000D01*
G37*
G36*
X34451000Y-14986000D02*
X33349000Y-14986000D01*
X33349000Y-14514000D01*
X34451000Y-14514000D01*
X34451000Y-14986000D01*
X34451000Y-14986000D01*
G37*
G36*
X57891000Y-14816000D02*
X55879000Y-14816000D01*
X55879000Y-13954000D01*
X57891000Y-13954000D01*
X57891000Y-14816000D01*
X57891000Y-14816000D01*
G37*
G36*
X49121000Y-14816000D02*
X47109000Y-14816000D01*
X47109000Y-13954000D01*
X49121000Y-13954000D01*
X49121000Y-14816000D01*
X49121000Y-14816000D01*
G37*
G36*
X34451000Y-14336000D02*
X33349000Y-14336000D01*
X33349000Y-13864000D01*
X34451000Y-13864000D01*
X34451000Y-14336000D01*
X34451000Y-14336000D01*
G37*
G36*
X40151000Y-14336000D02*
X39049000Y-14336000D01*
X39049000Y-13864000D01*
X40151000Y-13864000D01*
X40151000Y-14336000D01*
X40151000Y-14336000D01*
G37*
G36*
X74124196Y-12828532D02*
X74249153Y-12854182D01*
X74366743Y-12903612D01*
X74472495Y-12974943D01*
X74562373Y-13065451D01*
X74632964Y-13171699D01*
X74681572Y-13289631D01*
X74706296Y-13414497D01*
X74706348Y-13414761D01*
X74704313Y-13560456D01*
X74704255Y-13560711D01*
X74704255Y-13560721D01*
X74676055Y-13684842D01*
X74624171Y-13801376D01*
X74550642Y-13905608D01*
X74458270Y-13993575D01*
X74350565Y-14061926D01*
X74231646Y-14108051D01*
X74106025Y-14130202D01*
X73978490Y-14127530D01*
X73853911Y-14100140D01*
X73737017Y-14049070D01*
X73632275Y-13976272D01*
X73543670Y-13884519D01*
X73474566Y-13777292D01*
X73427611Y-13658697D01*
X73404584Y-13533227D01*
X73406364Y-13405688D01*
X73432886Y-13280914D01*
X73483138Y-13163670D01*
X73555203Y-13058420D01*
X73646340Y-12969172D01*
X73753072Y-12899329D01*
X73871347Y-12851543D01*
X73996644Y-12827641D01*
X74124196Y-12828532D01*
X74124196Y-12828532D01*
G37*
G36*
X28951000Y-13926000D02*
X28049000Y-13926000D01*
X28049000Y-13074000D01*
X28951000Y-13074000D01*
X28951000Y-13926000D01*
X28951000Y-13926000D01*
G37*
G36*
X27451000Y-13926000D02*
X26549000Y-13926000D01*
X26549000Y-13074000D01*
X27451000Y-13074000D01*
X27451000Y-13926000D01*
X27451000Y-13926000D01*
G37*
G36*
X21701810Y-13901050D02*
X20799710Y-13901050D01*
X20799710Y-12998950D01*
X21701810Y-12998950D01*
X21701810Y-13901050D01*
X21701810Y-13901050D01*
G37*
G36*
X40151000Y-13686000D02*
X39049000Y-13686000D01*
X39049000Y-13214000D01*
X40151000Y-13214000D01*
X40151000Y-13686000D01*
X40151000Y-13686000D01*
G37*
G36*
X34451000Y-13686000D02*
X33349000Y-13686000D01*
X33349000Y-13214000D01*
X34451000Y-13214000D01*
X34451000Y-13686000D01*
X34451000Y-13686000D01*
G37*
G36*
X18001000Y-13551000D02*
X16999000Y-13551000D01*
X16999000Y-12949000D01*
X18001000Y-12949000D01*
X18001000Y-13551000D01*
X18001000Y-13551000D01*
G37*
G36*
X25501000Y-13551000D02*
X24499000Y-13551000D01*
X24499000Y-12949000D01*
X25501000Y-12949000D01*
X25501000Y-13551000D01*
X25501000Y-13551000D01*
G37*
G36*
X23501000Y-13551000D02*
X22499000Y-13551000D01*
X22499000Y-12949000D01*
X23501000Y-12949000D01*
X23501000Y-13551000D01*
X23501000Y-13551000D01*
G37*
G36*
X49121000Y-13546000D02*
X47109000Y-13546000D01*
X47109000Y-12684000D01*
X49121000Y-12684000D01*
X49121000Y-13546000D01*
X49121000Y-13546000D01*
G37*
G36*
X57891000Y-13546000D02*
X55879000Y-13546000D01*
X55879000Y-12684000D01*
X57891000Y-12684000D01*
X57891000Y-13546000D01*
X57891000Y-13546000D01*
G37*
G36*
X46251000Y-13301000D02*
X45249000Y-13301000D01*
X45249000Y-12699000D01*
X46251000Y-12699000D01*
X46251000Y-13301000D01*
X46251000Y-13301000D01*
G37*
G36*
X42251000Y-13301000D02*
X41249000Y-13301000D01*
X41249000Y-12699000D01*
X42251000Y-12699000D01*
X42251000Y-13301000D01*
X42251000Y-13301000D01*
G37*
G36*
X44251000Y-13301000D02*
X43249000Y-13301000D01*
X43249000Y-12699000D01*
X44251000Y-12699000D01*
X44251000Y-13301000D01*
X44251000Y-13301000D01*
G37*
G36*
X72343656Y-11812532D02*
X72468613Y-11838182D01*
X72586203Y-11887612D01*
X72691955Y-11958943D01*
X72781833Y-12049451D01*
X72852424Y-12155699D01*
X72901032Y-12273631D01*
X72925756Y-12398497D01*
X72925808Y-12398761D01*
X72923773Y-12544456D01*
X72923715Y-12544711D01*
X72923715Y-12544721D01*
X72895515Y-12668842D01*
X72843631Y-12785376D01*
X72770102Y-12889608D01*
X72677730Y-12977575D01*
X72570025Y-13045926D01*
X72451106Y-13092051D01*
X72325485Y-13114202D01*
X72197950Y-13111530D01*
X72073371Y-13084140D01*
X71956477Y-13033070D01*
X71851735Y-12960272D01*
X71763130Y-12868519D01*
X71694026Y-12761292D01*
X71647071Y-12642697D01*
X71624044Y-12517227D01*
X71625824Y-12389688D01*
X71652346Y-12264914D01*
X71702598Y-12147670D01*
X71774663Y-12042420D01*
X71865800Y-11953172D01*
X71972532Y-11883329D01*
X72090807Y-11835543D01*
X72216104Y-11811641D01*
X72343656Y-11812532D01*
X72343656Y-11812532D01*
G37*
G36*
X34451000Y-13036000D02*
X33349000Y-13036000D01*
X33349000Y-12564000D01*
X34451000Y-12564000D01*
X34451000Y-13036000D01*
X34451000Y-13036000D01*
G37*
G36*
X40151000Y-13036000D02*
X39049000Y-13036000D01*
X39049000Y-12564000D01*
X40151000Y-12564000D01*
X40151000Y-13036000D01*
X40151000Y-13036000D01*
G37*
G36*
X19702830Y-12951050D02*
X18800730Y-12951050D01*
X18800730Y-12048950D01*
X19702830Y-12048950D01*
X19702830Y-12951050D01*
X19702830Y-12951050D01*
G37*
G36*
X37636000Y-12451000D02*
X37164000Y-12451000D01*
X37164000Y-11349000D01*
X37636000Y-11349000D01*
X37636000Y-12451000D01*
X37636000Y-12451000D01*
G37*
G36*
X36986000Y-12451000D02*
X36514000Y-12451000D01*
X36514000Y-11349000D01*
X36986000Y-11349000D01*
X36986000Y-12451000D01*
X36986000Y-12451000D01*
G37*
G36*
X36336000Y-12451000D02*
X35864000Y-12451000D01*
X35864000Y-11349000D01*
X36336000Y-11349000D01*
X36336000Y-12451000D01*
X36336000Y-12451000D01*
G37*
G36*
X35686000Y-12451000D02*
X35214000Y-12451000D01*
X35214000Y-11349000D01*
X35686000Y-11349000D01*
X35686000Y-12451000D01*
X35686000Y-12451000D01*
G37*
G36*
X38286000Y-12451000D02*
X37814000Y-12451000D01*
X37814000Y-11349000D01*
X38286000Y-11349000D01*
X38286000Y-12451000D01*
X38286000Y-12451000D01*
G37*
G36*
X35036000Y-12451000D02*
X34564000Y-12451000D01*
X34564000Y-11349000D01*
X35036000Y-11349000D01*
X35036000Y-12451000D01*
X35036000Y-12451000D01*
G37*
G36*
X38936000Y-12451000D02*
X38464000Y-12451000D01*
X38464000Y-11349000D01*
X38936000Y-11349000D01*
X38936000Y-12451000D01*
X38936000Y-12451000D01*
G37*
G36*
X30951000Y-12426000D02*
X30049000Y-12426000D01*
X30049000Y-11574000D01*
X30951000Y-11574000D01*
X30951000Y-12426000D01*
X30951000Y-12426000D01*
G37*
G36*
X32451000Y-12426000D02*
X31549000Y-12426000D01*
X31549000Y-11574000D01*
X32451000Y-11574000D01*
X32451000Y-12426000D01*
X32451000Y-12426000D01*
G37*
G36*
X49121000Y-12276000D02*
X47109000Y-12276000D01*
X47109000Y-11414000D01*
X49121000Y-11414000D01*
X49121000Y-12276000D01*
X49121000Y-12276000D01*
G37*
G36*
X57891000Y-12276000D02*
X55879000Y-12276000D01*
X55879000Y-11414000D01*
X57891000Y-11414000D01*
X57891000Y-12276000D01*
X57891000Y-12276000D01*
G37*
G36*
X65599380Y-12221050D02*
X64298500Y-12221050D01*
X64298500Y-11318950D01*
X65599380Y-11318950D01*
X65599380Y-12221050D01*
X65599380Y-12221050D01*
G37*
G36*
X59704040Y-12221050D02*
X58403160Y-12221050D01*
X58403160Y-11318950D01*
X59704040Y-11318950D01*
X59704040Y-12221050D01*
X59704040Y-12221050D01*
G37*
G36*
X74124196Y-10799072D02*
X74249153Y-10824722D01*
X74366743Y-10874152D01*
X74472495Y-10945483D01*
X74562373Y-11035991D01*
X74632964Y-11142239D01*
X74681572Y-11260171D01*
X74706296Y-11385037D01*
X74706348Y-11385301D01*
X74704313Y-11530996D01*
X74704255Y-11531251D01*
X74704255Y-11531261D01*
X74676055Y-11655382D01*
X74624171Y-11771916D01*
X74550642Y-11876148D01*
X74458270Y-11964115D01*
X74350565Y-12032466D01*
X74231646Y-12078591D01*
X74106025Y-12100742D01*
X73978490Y-12098070D01*
X73853911Y-12070680D01*
X73737017Y-12019610D01*
X73632275Y-11946812D01*
X73543670Y-11855059D01*
X73474566Y-11747832D01*
X73427611Y-11629237D01*
X73404584Y-11503767D01*
X73406364Y-11376228D01*
X73432886Y-11251454D01*
X73483138Y-11134210D01*
X73555203Y-11028960D01*
X73646340Y-10939712D01*
X73753072Y-10869869D01*
X73871347Y-10822083D01*
X73996644Y-10798181D01*
X74124196Y-10799072D01*
X74124196Y-10799072D01*
G37*
G36*
X27231000Y-12076000D02*
X26069000Y-12076000D01*
X26069000Y-11324000D01*
X27231000Y-11324000D01*
X27231000Y-12076000D01*
X27231000Y-12076000D01*
G37*
G36*
X29431000Y-12076000D02*
X28269000Y-12076000D01*
X28269000Y-11324000D01*
X29431000Y-11324000D01*
X29431000Y-12076000D01*
X29431000Y-12076000D01*
G37*
G36*
X23501000Y-12051000D02*
X22499000Y-12051000D01*
X22499000Y-11449000D01*
X23501000Y-11449000D01*
X23501000Y-12051000D01*
X23501000Y-12051000D01*
G37*
G36*
X25501000Y-12051000D02*
X24499000Y-12051000D01*
X24499000Y-11449000D01*
X25501000Y-11449000D01*
X25501000Y-12051000D01*
X25501000Y-12051000D01*
G37*
G36*
X18001000Y-12051000D02*
X16999000Y-12051000D01*
X16999000Y-11449000D01*
X18001000Y-11449000D01*
X18001000Y-12051000D01*
X18001000Y-12051000D01*
G37*
G36*
X21701810Y-12001050D02*
X20799710Y-12001050D01*
X20799710Y-11098950D01*
X21701810Y-11098950D01*
X21701810Y-12001050D01*
X21701810Y-12001050D01*
G37*
G36*
X15451000Y-11926000D02*
X14549000Y-11926000D01*
X14549000Y-11074000D01*
X15451000Y-11074000D01*
X15451000Y-11926000D01*
X15451000Y-11926000D01*
G37*
G36*
X13951000Y-11926000D02*
X13049000Y-11926000D01*
X13049000Y-11074000D01*
X13951000Y-11074000D01*
X13951000Y-11926000D01*
X13951000Y-11926000D01*
G37*
G36*
X11951000Y-11926000D02*
X11049000Y-11926000D01*
X11049000Y-11074000D01*
X11951000Y-11074000D01*
X11951000Y-11926000D01*
X11951000Y-11926000D01*
G37*
G36*
X10451000Y-11926000D02*
X9549000Y-11926000D01*
X9549000Y-11074000D01*
X10451000Y-11074000D01*
X10451000Y-11926000D01*
X10451000Y-11926000D01*
G37*
G36*
X46251000Y-11801000D02*
X45249000Y-11801000D01*
X45249000Y-11199000D01*
X46251000Y-11199000D01*
X46251000Y-11801000D01*
X46251000Y-11801000D01*
G37*
G36*
X44251000Y-11801000D02*
X43249000Y-11801000D01*
X43249000Y-11199000D01*
X44251000Y-11199000D01*
X44251000Y-11801000D01*
X44251000Y-11801000D01*
G37*
G36*
X42251000Y-11801000D02*
X41249000Y-11801000D01*
X41249000Y-11199000D01*
X42251000Y-11199000D01*
X42251000Y-11801000D01*
X42251000Y-11801000D01*
G37*
G36*
X27231000Y-11126000D02*
X26069000Y-11126000D01*
X26069000Y-10374000D01*
X27231000Y-10374000D01*
X27231000Y-11126000D01*
X27231000Y-11126000D01*
G37*
G36*
X67525276Y-9780532D02*
X67650233Y-9806182D01*
X67767823Y-9855612D01*
X67873575Y-9926943D01*
X67963453Y-10017451D01*
X68034044Y-10123699D01*
X68082652Y-10241631D01*
X68107376Y-10366497D01*
X68107428Y-10366761D01*
X68105393Y-10512456D01*
X68105335Y-10512711D01*
X68105335Y-10512721D01*
X68077135Y-10636842D01*
X68025251Y-10753376D01*
X67951722Y-10857608D01*
X67859350Y-10945575D01*
X67751645Y-11013926D01*
X67632726Y-11060051D01*
X67507105Y-11082202D01*
X67379570Y-11079530D01*
X67254991Y-11052140D01*
X67138097Y-11001070D01*
X67033355Y-10928272D01*
X66944750Y-10836519D01*
X66875646Y-10729292D01*
X66828691Y-10610697D01*
X66805664Y-10485227D01*
X66807444Y-10357688D01*
X66833966Y-10232914D01*
X66884218Y-10115670D01*
X66956283Y-10010420D01*
X67047420Y-9921172D01*
X67154152Y-9851329D01*
X67272427Y-9803543D01*
X67397724Y-9779641D01*
X67525276Y-9780532D01*
X67525276Y-9780532D01*
G37*
G36*
X6001150Y-11049860D02*
X3498850Y-11049860D01*
X3498850Y-7447740D01*
X6001150Y-7447740D01*
X6001150Y-11049860D01*
X6001150Y-11049860D01*
G37*
G36*
X57891000Y-11006000D02*
X55879000Y-11006000D01*
X55879000Y-10144000D01*
X57891000Y-10144000D01*
X57891000Y-11006000D01*
X57891000Y-11006000D01*
G37*
G36*
X49121000Y-11006000D02*
X47109000Y-11006000D01*
X47109000Y-10144000D01*
X49121000Y-10144000D01*
X49121000Y-11006000D01*
X49121000Y-11006000D01*
G37*
G36*
X40451000Y-10426000D02*
X39549000Y-10426000D01*
X39549000Y-9574000D01*
X40451000Y-9574000D01*
X40451000Y-10426000D01*
X40451000Y-10426000D01*
G37*
G36*
X41951000Y-10426000D02*
X41049000Y-10426000D01*
X41049000Y-9574000D01*
X41951000Y-9574000D01*
X41951000Y-10426000D01*
X41951000Y-10426000D01*
G37*
G36*
X32451000Y-10426000D02*
X31549000Y-10426000D01*
X31549000Y-9574000D01*
X32451000Y-9574000D01*
X32451000Y-10426000D01*
X32451000Y-10426000D01*
G37*
G36*
X30951000Y-10426000D02*
X30049000Y-10426000D01*
X30049000Y-9574000D01*
X30951000Y-9574000D01*
X30951000Y-10426000D01*
X30951000Y-10426000D01*
G37*
G36*
X35068580Y-10268580D02*
X33231420Y-10268580D01*
X33231420Y-7731420D01*
X35068580Y-7731420D01*
X35068580Y-10268580D01*
X35068580Y-10268580D01*
G37*
G36*
X38768580Y-10268580D02*
X36931420Y-10268580D01*
X36931420Y-7731420D01*
X38768580Y-7731420D01*
X38768580Y-10268580D01*
X38768580Y-10268580D01*
G37*
G36*
X44176000Y-10201000D02*
X43324000Y-10201000D01*
X43324000Y-9299000D01*
X44176000Y-9299000D01*
X44176000Y-10201000D01*
X44176000Y-10201000D01*
G37*
G36*
X27231000Y-10176000D02*
X26069000Y-10176000D01*
X26069000Y-9424000D01*
X27231000Y-9424000D01*
X27231000Y-10176000D01*
X27231000Y-10176000D01*
G37*
G36*
X29431000Y-10176000D02*
X28269000Y-10176000D01*
X28269000Y-9424000D01*
X29431000Y-9424000D01*
X29431000Y-10176000D01*
X29431000Y-10176000D01*
G37*
G36*
X21701810Y-10151050D02*
X20799710Y-10151050D01*
X20799710Y-9248950D01*
X21701810Y-9248950D01*
X21701810Y-10151050D01*
X21701810Y-10151050D01*
G37*
G36*
X18431000Y-10076000D02*
X17269000Y-10076000D01*
X17269000Y-9324000D01*
X18431000Y-9324000D01*
X18431000Y-10076000D01*
X18431000Y-10076000D01*
G37*
G36*
X16231000Y-10076000D02*
X15069000Y-10076000D01*
X15069000Y-9324000D01*
X16231000Y-9324000D01*
X16231000Y-10076000D01*
X16231000Y-10076000D01*
G37*
G36*
X46251000Y-10051000D02*
X45249000Y-10051000D01*
X45249000Y-9449000D01*
X46251000Y-9449000D01*
X46251000Y-10051000D01*
X46251000Y-10051000D01*
G37*
G36*
X10449780Y-9949080D02*
X9550220Y-9949080D01*
X9550220Y-9049520D01*
X10449780Y-9049520D01*
X10449780Y-9949080D01*
X10449780Y-9949080D01*
G37*
G36*
X12501000Y-9801000D02*
X11499000Y-9801000D01*
X11499000Y-9199000D01*
X12501000Y-9199000D01*
X12501000Y-9801000D01*
X12501000Y-9801000D01*
G37*
G36*
X25501000Y-9801000D02*
X24499000Y-9801000D01*
X24499000Y-9199000D01*
X25501000Y-9199000D01*
X25501000Y-9801000D01*
X25501000Y-9801000D01*
G37*
G36*
X23501000Y-9801000D02*
X22499000Y-9801000D01*
X22499000Y-9199000D01*
X23501000Y-9199000D01*
X23501000Y-9801000D01*
X23501000Y-9801000D01*
G37*
G36*
X14501000Y-9801000D02*
X13499000Y-9801000D01*
X13499000Y-9199000D01*
X14501000Y-9199000D01*
X14501000Y-9801000D01*
X14501000Y-9801000D01*
G37*
G36*
X49121000Y-9736000D02*
X47109000Y-9736000D01*
X47109000Y-8874000D01*
X49121000Y-8874000D01*
X49121000Y-9736000D01*
X49121000Y-9736000D01*
G37*
G36*
X57891000Y-9736000D02*
X55879000Y-9736000D01*
X55879000Y-8874000D01*
X57891000Y-8874000D01*
X57891000Y-9736000D01*
X57891000Y-9736000D01*
G37*
G36*
X65596840Y-9681050D02*
X64295960Y-9681050D01*
X64295960Y-8778950D01*
X65596840Y-8778950D01*
X65596840Y-9681050D01*
X65596840Y-9681050D01*
G37*
G36*
X59701500Y-9681050D02*
X58400620Y-9681050D01*
X58400620Y-8778950D01*
X59701500Y-8778950D01*
X59701500Y-9681050D01*
X59701500Y-9681050D01*
G37*
G36*
X19702830Y-9201050D02*
X18800730Y-9201050D01*
X18800730Y-8298950D01*
X19702830Y-8298950D01*
X19702830Y-9201050D01*
X19702830Y-9201050D01*
G37*
G36*
X18431000Y-9126000D02*
X17269000Y-9126000D01*
X17269000Y-8374000D01*
X18431000Y-8374000D01*
X18431000Y-9126000D01*
X18431000Y-9126000D01*
G37*
G36*
X16231000Y-9126000D02*
X15069000Y-9126000D01*
X15069000Y-8374000D01*
X16231000Y-8374000D01*
X16231000Y-9126000D01*
X16231000Y-9126000D01*
G37*
G36*
X67525276Y-7489452D02*
X67650233Y-7515102D01*
X67767823Y-7564532D01*
X67873575Y-7635863D01*
X67963453Y-7726371D01*
X68034044Y-7832619D01*
X68082652Y-7950551D01*
X68107376Y-8075417D01*
X68107428Y-8075681D01*
X68105393Y-8221376D01*
X68105335Y-8221631D01*
X68105335Y-8221641D01*
X68077135Y-8345762D01*
X68025251Y-8462296D01*
X67951722Y-8566528D01*
X67859350Y-8654495D01*
X67751645Y-8722846D01*
X67632726Y-8768971D01*
X67507105Y-8791122D01*
X67379570Y-8788450D01*
X67254991Y-8761060D01*
X67138097Y-8709990D01*
X67033355Y-8637192D01*
X66944750Y-8545439D01*
X66875646Y-8438212D01*
X66828691Y-8319617D01*
X66805664Y-8194147D01*
X66807444Y-8066608D01*
X66833966Y-7941834D01*
X66884218Y-7824590D01*
X66956283Y-7719340D01*
X67047420Y-7630092D01*
X67154152Y-7560249D01*
X67272427Y-7512463D01*
X67397724Y-7488561D01*
X67525276Y-7489452D01*
X67525276Y-7489452D01*
G37*
G36*
X44176000Y-8701000D02*
X43324000Y-8701000D01*
X43324000Y-7799000D01*
X44176000Y-7799000D01*
X44176000Y-8701000D01*
X44176000Y-8701000D01*
G37*
G36*
X46251000Y-8551000D02*
X45249000Y-8551000D01*
X45249000Y-7949000D01*
X46251000Y-7949000D01*
X46251000Y-8551000D01*
X46251000Y-8551000D01*
G37*
G36*
X10449780Y-8450480D02*
X9550220Y-8450480D01*
X9550220Y-7550920D01*
X10449780Y-7550920D01*
X10449780Y-8450480D01*
X10449780Y-8450480D01*
G37*
G36*
X40451000Y-8426000D02*
X39549000Y-8426000D01*
X39549000Y-7574000D01*
X40451000Y-7574000D01*
X40451000Y-8426000D01*
X40451000Y-8426000D01*
G37*
G36*
X41951000Y-8426000D02*
X41049000Y-8426000D01*
X41049000Y-7574000D01*
X41951000Y-7574000D01*
X41951000Y-8426000D01*
X41951000Y-8426000D01*
G37*
G36*
X32451000Y-8426000D02*
X31549000Y-8426000D01*
X31549000Y-7574000D01*
X32451000Y-7574000D01*
X32451000Y-8426000D01*
X32451000Y-8426000D01*
G37*
G36*
X30951000Y-8426000D02*
X30049000Y-8426000D01*
X30049000Y-7574000D01*
X30951000Y-7574000D01*
X30951000Y-8426000D01*
X30951000Y-8426000D01*
G37*
G36*
X28951000Y-8426000D02*
X28049000Y-8426000D01*
X28049000Y-7574000D01*
X28951000Y-7574000D01*
X28951000Y-8426000D01*
X28951000Y-8426000D01*
G37*
G36*
X27451000Y-8426000D02*
X26549000Y-8426000D01*
X26549000Y-7574000D01*
X27451000Y-7574000D01*
X27451000Y-8426000D01*
X27451000Y-8426000D01*
G37*
G36*
X23501000Y-8301000D02*
X22499000Y-8301000D01*
X22499000Y-7699000D01*
X23501000Y-7699000D01*
X23501000Y-8301000D01*
X23501000Y-8301000D01*
G37*
G36*
X25501000Y-8301000D02*
X24499000Y-8301000D01*
X24499000Y-7699000D01*
X25501000Y-7699000D01*
X25501000Y-8301000D01*
X25501000Y-8301000D01*
G37*
G36*
X12501000Y-8301000D02*
X11499000Y-8301000D01*
X11499000Y-7699000D01*
X12501000Y-7699000D01*
X12501000Y-8301000D01*
X12501000Y-8301000D01*
G37*
G36*
X14501000Y-8301000D02*
X13499000Y-8301000D01*
X13499000Y-7699000D01*
X14501000Y-7699000D01*
X14501000Y-8301000D01*
X14501000Y-8301000D01*
G37*
G36*
X21701810Y-8251050D02*
X20799710Y-8251050D01*
X20799710Y-7348950D01*
X21701810Y-7348950D01*
X21701810Y-8251050D01*
X21701810Y-8251050D01*
G37*
G36*
X73303495Y-5579805D02*
X73553363Y-5631095D01*
X73788509Y-5729941D01*
X73999981Y-5872580D01*
X74179711Y-6053570D01*
X74320871Y-6266033D01*
X74418073Y-6501861D01*
X74467565Y-6751818D01*
X74467565Y-6751829D01*
X74467615Y-6752082D01*
X74463547Y-7043427D01*
X74463490Y-7043677D01*
X74463490Y-7043692D01*
X74407038Y-7292163D01*
X74303288Y-7525191D01*
X74156254Y-7733625D01*
X73971535Y-7909531D01*
X73756164Y-8046209D01*
X73518353Y-8138449D01*
X73267152Y-8182743D01*
X73012127Y-8177401D01*
X72763003Y-8122628D01*
X72529256Y-8020506D01*
X72319805Y-7874934D01*
X72142613Y-7691446D01*
X72004433Y-7477033D01*
X71910534Y-7239870D01*
X71864488Y-6988986D01*
X71868049Y-6733936D01*
X71921083Y-6484430D01*
X72021570Y-6249978D01*
X72165680Y-6039511D01*
X72347925Y-5861043D01*
X72561360Y-5721375D01*
X72797868Y-5625820D01*
X73048425Y-5578023D01*
X73303495Y-5579805D01*
X73303495Y-5579805D01*
G37*
G36*
X18431000Y-8176000D02*
X17269000Y-8176000D01*
X17269000Y-7424000D01*
X18431000Y-7424000D01*
X18431000Y-8176000D01*
X18431000Y-8176000D01*
G37*
G36*
X16231000Y-8176000D02*
X15069000Y-8176000D01*
X15069000Y-7424000D01*
X16231000Y-7424000D01*
X16231000Y-8176000D01*
X16231000Y-8176000D01*
G37*
G36*
X23694131Y-3969532D02*
X23848009Y-4001118D01*
X23992820Y-4061991D01*
X24123048Y-4149831D01*
X24233735Y-4261294D01*
X24320665Y-4392134D01*
X24380524Y-4537364D01*
X24410983Y-4691194D01*
X24411035Y-4691458D01*
X24408529Y-4870878D01*
X24408470Y-4871137D01*
X24408470Y-4871143D01*
X24373729Y-5024061D01*
X24309839Y-5167560D01*
X24219288Y-5295924D01*
X24117450Y-5392903D01*
X24110733Y-5401404D01*
X24106651Y-5411439D01*
X24105500Y-5420784D01*
X24105500Y-6971000D01*
X23114500Y-6971000D01*
X23114500Y-5421252D01*
X23112976Y-5410526D01*
X23108524Y-5400650D01*
X23097973Y-5389638D01*
X23088343Y-5382945D01*
X22979224Y-5269949D01*
X22894127Y-5137905D01*
X22836301Y-4991853D01*
X22807945Y-4837351D01*
X22810138Y-4680284D01*
X22842799Y-4526629D01*
X22904682Y-4382246D01*
X22993429Y-4252634D01*
X23105662Y-4142727D01*
X23237100Y-4056716D01*
X23382751Y-3997869D01*
X23537052Y-3968435D01*
X23694131Y-3969532D01*
X23694131Y-3969532D01*
G37*
G36*
X21154131Y-3969532D02*
X21308009Y-4001118D01*
X21452820Y-4061991D01*
X21583048Y-4149831D01*
X21693735Y-4261294D01*
X21780665Y-4392134D01*
X21840524Y-4537364D01*
X21870983Y-4691194D01*
X21871035Y-4691458D01*
X21868529Y-4870878D01*
X21868470Y-4871137D01*
X21868470Y-4871143D01*
X21833729Y-5024061D01*
X21769839Y-5167560D01*
X21679288Y-5295924D01*
X21577450Y-5392903D01*
X21570733Y-5401404D01*
X21566651Y-5411439D01*
X21565500Y-5420784D01*
X21565500Y-6971000D01*
X20574500Y-6971000D01*
X20574500Y-5421252D01*
X20572976Y-5410526D01*
X20568524Y-5400650D01*
X20557973Y-5389638D01*
X20548343Y-5382945D01*
X20439224Y-5269949D01*
X20354127Y-5137905D01*
X20296301Y-4991853D01*
X20267945Y-4837351D01*
X20270138Y-4680284D01*
X20302799Y-4526629D01*
X20364682Y-4382246D01*
X20453429Y-4252634D01*
X20565662Y-4142727D01*
X20697100Y-4056716D01*
X20842751Y-3997869D01*
X20997052Y-3968435D01*
X21154131Y-3969532D01*
X21154131Y-3969532D01*
G37*
G36*
X18614131Y-3969532D02*
X18768009Y-4001118D01*
X18912820Y-4061991D01*
X19043048Y-4149831D01*
X19153735Y-4261294D01*
X19240665Y-4392134D01*
X19300524Y-4537364D01*
X19330983Y-4691194D01*
X19331035Y-4691458D01*
X19328529Y-4870878D01*
X19328470Y-4871137D01*
X19328470Y-4871143D01*
X19293729Y-5024061D01*
X19229839Y-5167560D01*
X19139288Y-5295924D01*
X19037450Y-5392903D01*
X19030733Y-5401404D01*
X19026651Y-5411439D01*
X19025500Y-5420784D01*
X19025500Y-6971000D01*
X18034500Y-6971000D01*
X18034500Y-5421252D01*
X18032976Y-5410526D01*
X18028524Y-5400650D01*
X18017973Y-5389638D01*
X18008343Y-5382945D01*
X17899224Y-5269949D01*
X17814127Y-5137905D01*
X17756301Y-4991853D01*
X17727945Y-4837351D01*
X17730138Y-4680284D01*
X17762799Y-4526629D01*
X17824682Y-4382246D01*
X17913429Y-4252634D01*
X18025662Y-4142727D01*
X18157100Y-4056716D01*
X18302751Y-3997869D01*
X18457052Y-3968435D01*
X18614131Y-3969532D01*
X18614131Y-3969532D01*
G37*
G36*
X16074131Y-3969532D02*
X16228009Y-4001118D01*
X16372820Y-4061991D01*
X16503048Y-4149831D01*
X16613735Y-4261294D01*
X16700665Y-4392134D01*
X16760524Y-4537364D01*
X16790983Y-4691194D01*
X16791035Y-4691458D01*
X16788529Y-4870878D01*
X16788470Y-4871137D01*
X16788470Y-4871143D01*
X16753729Y-5024061D01*
X16689839Y-5167560D01*
X16599288Y-5295924D01*
X16497450Y-5392903D01*
X16490733Y-5401404D01*
X16486651Y-5411439D01*
X16485500Y-5420784D01*
X16485500Y-6971000D01*
X15494500Y-6971000D01*
X15494500Y-5421252D01*
X15492976Y-5410526D01*
X15488524Y-5400650D01*
X15477973Y-5389638D01*
X15468343Y-5382945D01*
X15359224Y-5269949D01*
X15274127Y-5137905D01*
X15216301Y-4991853D01*
X15187945Y-4837351D01*
X15190138Y-4680284D01*
X15222799Y-4526629D01*
X15284682Y-4382246D01*
X15373429Y-4252634D01*
X15485662Y-4142727D01*
X15617100Y-4056716D01*
X15762751Y-3997869D01*
X15917052Y-3968435D01*
X16074131Y-3969532D01*
X16074131Y-3969532D01*
G37*
G36*
X13534131Y-3969532D02*
X13688009Y-4001118D01*
X13832820Y-4061991D01*
X13963048Y-4149831D01*
X14073735Y-4261294D01*
X14160665Y-4392134D01*
X14220524Y-4537364D01*
X14250983Y-4691194D01*
X14251035Y-4691458D01*
X14248529Y-4870878D01*
X14248470Y-4871137D01*
X14248470Y-4871143D01*
X14213729Y-5024061D01*
X14149839Y-5167560D01*
X14059288Y-5295924D01*
X13957450Y-5392903D01*
X13950733Y-5401404D01*
X13946651Y-5411439D01*
X13945500Y-5420784D01*
X13945500Y-6971000D01*
X12954500Y-6971000D01*
X12954500Y-5421252D01*
X12952976Y-5410526D01*
X12948524Y-5400650D01*
X12937973Y-5389638D01*
X12928343Y-5382945D01*
X12819224Y-5269949D01*
X12734127Y-5137905D01*
X12676301Y-4991853D01*
X12647945Y-4837351D01*
X12650138Y-4680284D01*
X12682799Y-4526629D01*
X12744682Y-4382246D01*
X12833429Y-4252634D01*
X12945662Y-4142727D01*
X13077100Y-4056716D01*
X13222751Y-3997869D01*
X13377052Y-3968435D01*
X13534131Y-3969532D01*
X13534131Y-3969532D01*
G37*
G36*
X10994131Y-3969532D02*
X11148009Y-4001118D01*
X11292820Y-4061991D01*
X11423048Y-4149831D01*
X11533735Y-4261294D01*
X11620665Y-4392134D01*
X11680524Y-4537364D01*
X11710983Y-4691194D01*
X11711035Y-4691458D01*
X11708529Y-4870878D01*
X11708470Y-4871137D01*
X11708470Y-4871143D01*
X11673729Y-5024061D01*
X11609839Y-5167560D01*
X11519288Y-5295924D01*
X11417450Y-5392903D01*
X11410733Y-5401404D01*
X11406651Y-5411439D01*
X11405500Y-5420784D01*
X11405500Y-6971000D01*
X10414500Y-6971000D01*
X10414500Y-5421252D01*
X10412976Y-5410526D01*
X10408524Y-5400650D01*
X10397973Y-5389638D01*
X10388343Y-5382945D01*
X10279224Y-5269949D01*
X10194127Y-5137905D01*
X10136301Y-4991853D01*
X10107945Y-4837351D01*
X10110138Y-4680284D01*
X10142799Y-4526629D01*
X10204682Y-4382246D01*
X10293429Y-4252634D01*
X10405662Y-4142727D01*
X10537100Y-4056716D01*
X10682751Y-3997869D01*
X10837052Y-3968435D01*
X10994131Y-3969532D01*
X10994131Y-3969532D01*
G37*
G36*
X8454131Y-3969532D02*
X8608009Y-4001118D01*
X8752820Y-4061991D01*
X8883048Y-4149831D01*
X8993735Y-4261294D01*
X9080665Y-4392134D01*
X9140524Y-4537364D01*
X9170983Y-4691194D01*
X9171035Y-4691458D01*
X9168529Y-4870878D01*
X9168470Y-4871137D01*
X9168470Y-4871143D01*
X9133729Y-5024061D01*
X9069839Y-5167560D01*
X8979288Y-5295924D01*
X8877450Y-5392903D01*
X8870733Y-5401404D01*
X8866651Y-5411439D01*
X8865500Y-5420784D01*
X8865500Y-6971000D01*
X7874500Y-6971000D01*
X7874500Y-5421252D01*
X7872976Y-5410526D01*
X7868524Y-5400650D01*
X7857973Y-5389638D01*
X7848343Y-5382945D01*
X7739224Y-5269949D01*
X7654127Y-5137905D01*
X7596301Y-4991853D01*
X7567945Y-4837351D01*
X7570138Y-4680284D01*
X7602799Y-4526629D01*
X7664682Y-4382246D01*
X7753429Y-4252634D01*
X7865662Y-4142727D01*
X7997100Y-4056716D01*
X8142751Y-3997869D01*
X8297052Y-3968435D01*
X8454131Y-3969532D01*
X8454131Y-3969532D01*
G37*
G36*
X56714131Y-3969532D02*
X56868009Y-4001118D01*
X57012820Y-4061991D01*
X57143048Y-4149831D01*
X57253735Y-4261294D01*
X57340665Y-4392134D01*
X57400524Y-4537364D01*
X57430983Y-4691194D01*
X57431035Y-4691458D01*
X57428529Y-4870878D01*
X57428470Y-4871137D01*
X57428470Y-4871143D01*
X57393729Y-5024061D01*
X57329839Y-5167560D01*
X57239288Y-5295924D01*
X57137450Y-5392903D01*
X57130733Y-5401404D01*
X57126651Y-5411439D01*
X57125500Y-5420784D01*
X57125500Y-6971000D01*
X56134500Y-6971000D01*
X56134500Y-5421252D01*
X56132976Y-5410526D01*
X56128524Y-5400650D01*
X56117973Y-5389638D01*
X56108343Y-5382945D01*
X55999224Y-5269949D01*
X55914127Y-5137905D01*
X55856301Y-4991853D01*
X55827945Y-4837351D01*
X55830138Y-4680284D01*
X55862799Y-4526629D01*
X55924682Y-4382246D01*
X56013429Y-4252634D01*
X56125662Y-4142727D01*
X56257100Y-4056716D01*
X56402751Y-3997869D01*
X56557052Y-3968435D01*
X56714131Y-3969532D01*
X56714131Y-3969532D01*
G37*
G36*
X26234131Y-3969532D02*
X26388009Y-4001118D01*
X26532820Y-4061991D01*
X26663048Y-4149831D01*
X26773735Y-4261294D01*
X26860665Y-4392134D01*
X26920524Y-4537364D01*
X26950983Y-4691194D01*
X26951035Y-4691458D01*
X26948529Y-4870878D01*
X26948470Y-4871137D01*
X26948470Y-4871143D01*
X26913729Y-5024061D01*
X26849839Y-5167560D01*
X26759288Y-5295924D01*
X26657450Y-5392903D01*
X26650733Y-5401404D01*
X26646651Y-5411439D01*
X26645500Y-5420784D01*
X26645500Y-6971000D01*
X25654500Y-6971000D01*
X25654500Y-5421252D01*
X25652976Y-5410526D01*
X25648524Y-5400650D01*
X25637973Y-5389638D01*
X25628343Y-5382945D01*
X25519224Y-5269949D01*
X25434127Y-5137905D01*
X25376301Y-4991853D01*
X25347945Y-4837351D01*
X25350138Y-4680284D01*
X25382799Y-4526629D01*
X25444682Y-4382246D01*
X25533429Y-4252634D01*
X25645662Y-4142727D01*
X25777100Y-4056716D01*
X25922751Y-3997869D01*
X26077052Y-3968435D01*
X26234131Y-3969532D01*
X26234131Y-3969532D01*
G37*
G36*
X28774131Y-3969532D02*
X28928009Y-4001118D01*
X29072820Y-4061991D01*
X29203048Y-4149831D01*
X29313735Y-4261294D01*
X29400665Y-4392134D01*
X29460524Y-4537364D01*
X29490983Y-4691194D01*
X29491035Y-4691458D01*
X29488529Y-4870878D01*
X29488470Y-4871137D01*
X29488470Y-4871143D01*
X29453729Y-5024061D01*
X29389839Y-5167560D01*
X29299288Y-5295924D01*
X29197450Y-5392903D01*
X29190733Y-5401404D01*
X29186651Y-5411439D01*
X29185500Y-5420784D01*
X29185500Y-6971000D01*
X28194500Y-6971000D01*
X28194500Y-5421252D01*
X28192976Y-5410526D01*
X28188524Y-5400650D01*
X28177973Y-5389638D01*
X28168343Y-5382945D01*
X28059224Y-5269949D01*
X27974127Y-5137905D01*
X27916301Y-4991853D01*
X27887945Y-4837351D01*
X27890138Y-4680284D01*
X27922799Y-4526629D01*
X27984682Y-4382246D01*
X28073429Y-4252634D01*
X28185662Y-4142727D01*
X28317100Y-4056716D01*
X28462751Y-3997869D01*
X28617052Y-3968435D01*
X28774131Y-3969532D01*
X28774131Y-3969532D01*
G37*
G36*
X31314131Y-3969532D02*
X31468009Y-4001118D01*
X31612820Y-4061991D01*
X31743048Y-4149831D01*
X31853735Y-4261294D01*
X31940665Y-4392134D01*
X32000524Y-4537364D01*
X32030983Y-4691194D01*
X32031035Y-4691458D01*
X32028529Y-4870878D01*
X32028470Y-4871137D01*
X32028470Y-4871143D01*
X31993729Y-5024061D01*
X31929839Y-5167560D01*
X31839288Y-5295924D01*
X31737450Y-5392903D01*
X31730733Y-5401404D01*
X31726651Y-5411439D01*
X31725500Y-5420784D01*
X31725500Y-6971000D01*
X30734500Y-6971000D01*
X30734500Y-5421252D01*
X30732976Y-5410526D01*
X30728524Y-5400650D01*
X30717973Y-5389638D01*
X30708343Y-5382945D01*
X30599224Y-5269949D01*
X30514127Y-5137905D01*
X30456301Y-4991853D01*
X30427945Y-4837351D01*
X30430138Y-4680284D01*
X30462799Y-4526629D01*
X30524682Y-4382246D01*
X30613429Y-4252634D01*
X30725662Y-4142727D01*
X30857100Y-4056716D01*
X31002751Y-3997869D01*
X31157052Y-3968435D01*
X31314131Y-3969532D01*
X31314131Y-3969532D01*
G37*
G36*
X33854131Y-3969532D02*
X34008009Y-4001118D01*
X34152820Y-4061991D01*
X34283048Y-4149831D01*
X34393735Y-4261294D01*
X34480665Y-4392134D01*
X34540524Y-4537364D01*
X34570983Y-4691194D01*
X34571035Y-4691458D01*
X34568529Y-4870878D01*
X34568470Y-4871137D01*
X34568470Y-4871143D01*
X34533729Y-5024061D01*
X34469839Y-5167560D01*
X34379288Y-5295924D01*
X34277450Y-5392903D01*
X34270733Y-5401404D01*
X34266651Y-5411439D01*
X34265500Y-5420784D01*
X34265500Y-6971000D01*
X33274500Y-6971000D01*
X33274500Y-5421252D01*
X33272976Y-5410526D01*
X33268524Y-5400650D01*
X33257973Y-5389638D01*
X33248343Y-5382945D01*
X33139224Y-5269949D01*
X33054127Y-5137905D01*
X32996301Y-4991853D01*
X32967945Y-4837351D01*
X32970138Y-4680284D01*
X33002799Y-4526629D01*
X33064682Y-4382246D01*
X33153429Y-4252634D01*
X33265662Y-4142727D01*
X33397100Y-4056716D01*
X33542751Y-3997869D01*
X33697052Y-3968435D01*
X33854131Y-3969532D01*
X33854131Y-3969532D01*
G37*
G36*
X36394131Y-3969532D02*
X36548009Y-4001118D01*
X36692820Y-4061991D01*
X36823048Y-4149831D01*
X36933735Y-4261294D01*
X37020665Y-4392134D01*
X37080524Y-4537364D01*
X37110983Y-4691194D01*
X37111035Y-4691458D01*
X37108529Y-4870878D01*
X37108470Y-4871137D01*
X37108470Y-4871143D01*
X37073729Y-5024061D01*
X37009839Y-5167560D01*
X36919288Y-5295924D01*
X36817450Y-5392903D01*
X36810733Y-5401404D01*
X36806651Y-5411439D01*
X36805500Y-5420784D01*
X36805500Y-6971000D01*
X35814500Y-6971000D01*
X35814500Y-5421252D01*
X35812976Y-5410526D01*
X35808524Y-5400650D01*
X35797973Y-5389638D01*
X35788343Y-5382945D01*
X35679224Y-5269949D01*
X35594127Y-5137905D01*
X35536301Y-4991853D01*
X35507945Y-4837351D01*
X35510138Y-4680284D01*
X35542799Y-4526629D01*
X35604682Y-4382246D01*
X35693429Y-4252634D01*
X35805662Y-4142727D01*
X35937100Y-4056716D01*
X36082751Y-3997869D01*
X36237052Y-3968435D01*
X36394131Y-3969532D01*
X36394131Y-3969532D01*
G37*
G36*
X38934131Y-3969532D02*
X39088009Y-4001118D01*
X39232820Y-4061991D01*
X39363048Y-4149831D01*
X39473735Y-4261294D01*
X39560665Y-4392134D01*
X39620524Y-4537364D01*
X39650983Y-4691194D01*
X39651035Y-4691458D01*
X39648529Y-4870878D01*
X39648470Y-4871137D01*
X39648470Y-4871143D01*
X39613729Y-5024061D01*
X39549839Y-5167560D01*
X39459288Y-5295924D01*
X39357450Y-5392903D01*
X39350733Y-5401404D01*
X39346651Y-5411439D01*
X39345500Y-5420784D01*
X39345500Y-6971000D01*
X38354500Y-6971000D01*
X38354500Y-5421252D01*
X38352976Y-5410526D01*
X38348524Y-5400650D01*
X38337973Y-5389638D01*
X38328343Y-5382945D01*
X38219224Y-5269949D01*
X38134127Y-5137905D01*
X38076301Y-4991853D01*
X38047945Y-4837351D01*
X38050138Y-4680284D01*
X38082799Y-4526629D01*
X38144682Y-4382246D01*
X38233429Y-4252634D01*
X38345662Y-4142727D01*
X38477100Y-4056716D01*
X38622751Y-3997869D01*
X38777052Y-3968435D01*
X38934131Y-3969532D01*
X38934131Y-3969532D01*
G37*
G36*
X41474131Y-3969532D02*
X41628009Y-4001118D01*
X41772820Y-4061991D01*
X41903048Y-4149831D01*
X42013735Y-4261294D01*
X42100665Y-4392134D01*
X42160524Y-4537364D01*
X42190983Y-4691194D01*
X42191035Y-4691458D01*
X42188529Y-4870878D01*
X42188470Y-4871137D01*
X42188470Y-4871143D01*
X42153729Y-5024061D01*
X42089839Y-5167560D01*
X41999288Y-5295924D01*
X41897450Y-5392903D01*
X41890733Y-5401404D01*
X41886651Y-5411439D01*
X41885500Y-5420784D01*
X41885500Y-6971000D01*
X40894500Y-6971000D01*
X40894500Y-5421252D01*
X40892976Y-5410526D01*
X40888524Y-5400650D01*
X40877973Y-5389638D01*
X40868343Y-5382945D01*
X40759224Y-5269949D01*
X40674127Y-5137905D01*
X40616301Y-4991853D01*
X40587945Y-4837351D01*
X40590138Y-4680284D01*
X40622799Y-4526629D01*
X40684682Y-4382246D01*
X40773429Y-4252634D01*
X40885662Y-4142727D01*
X41017100Y-4056716D01*
X41162751Y-3997869D01*
X41317052Y-3968435D01*
X41474131Y-3969532D01*
X41474131Y-3969532D01*
G37*
G36*
X44014131Y-3969532D02*
X44168009Y-4001118D01*
X44312820Y-4061991D01*
X44443048Y-4149831D01*
X44553735Y-4261294D01*
X44640665Y-4392134D01*
X44700524Y-4537364D01*
X44730983Y-4691194D01*
X44731035Y-4691458D01*
X44728529Y-4870878D01*
X44728470Y-4871137D01*
X44728470Y-4871143D01*
X44693729Y-5024061D01*
X44629839Y-5167560D01*
X44539288Y-5295924D01*
X44437450Y-5392903D01*
X44430733Y-5401404D01*
X44426651Y-5411439D01*
X44425500Y-5420784D01*
X44425500Y-6971000D01*
X43434500Y-6971000D01*
X43434500Y-5421252D01*
X43432976Y-5410526D01*
X43428524Y-5400650D01*
X43417973Y-5389638D01*
X43408343Y-5382945D01*
X43299224Y-5269949D01*
X43214127Y-5137905D01*
X43156301Y-4991853D01*
X43127945Y-4837351D01*
X43130138Y-4680284D01*
X43162799Y-4526629D01*
X43224682Y-4382246D01*
X43313429Y-4252634D01*
X43425662Y-4142727D01*
X43557100Y-4056716D01*
X43702751Y-3997869D01*
X43857052Y-3968435D01*
X44014131Y-3969532D01*
X44014131Y-3969532D01*
G37*
G36*
X46554131Y-3969532D02*
X46708009Y-4001118D01*
X46852820Y-4061991D01*
X46983048Y-4149831D01*
X47093735Y-4261294D01*
X47180665Y-4392134D01*
X47240524Y-4537364D01*
X47270983Y-4691194D01*
X47271035Y-4691458D01*
X47268529Y-4870878D01*
X47268470Y-4871137D01*
X47268470Y-4871143D01*
X47233729Y-5024061D01*
X47169839Y-5167560D01*
X47079288Y-5295924D01*
X46977450Y-5392903D01*
X46970733Y-5401404D01*
X46966651Y-5411439D01*
X46965500Y-5420784D01*
X46965500Y-6971000D01*
X45974500Y-6971000D01*
X45974500Y-5421252D01*
X45972976Y-5410526D01*
X45968524Y-5400650D01*
X45957973Y-5389638D01*
X45948343Y-5382945D01*
X45839224Y-5269949D01*
X45754127Y-5137905D01*
X45696301Y-4991853D01*
X45667945Y-4837351D01*
X45670138Y-4680284D01*
X45702799Y-4526629D01*
X45764682Y-4382246D01*
X45853429Y-4252634D01*
X45965662Y-4142727D01*
X46097100Y-4056716D01*
X46242751Y-3997869D01*
X46397052Y-3968435D01*
X46554131Y-3969532D01*
X46554131Y-3969532D01*
G37*
G36*
X49094131Y-3969532D02*
X49248009Y-4001118D01*
X49392820Y-4061991D01*
X49523048Y-4149831D01*
X49633735Y-4261294D01*
X49720665Y-4392134D01*
X49780524Y-4537364D01*
X49810983Y-4691194D01*
X49811035Y-4691458D01*
X49808529Y-4870878D01*
X49808470Y-4871137D01*
X49808470Y-4871143D01*
X49773729Y-5024061D01*
X49709839Y-5167560D01*
X49619288Y-5295924D01*
X49517450Y-5392903D01*
X49510733Y-5401404D01*
X49506651Y-5411439D01*
X49505500Y-5420784D01*
X49505500Y-6971000D01*
X48514500Y-6971000D01*
X48514500Y-5421252D01*
X48512976Y-5410526D01*
X48508524Y-5400650D01*
X48497973Y-5389638D01*
X48488343Y-5382945D01*
X48379224Y-5269949D01*
X48294127Y-5137905D01*
X48236301Y-4991853D01*
X48207945Y-4837351D01*
X48210138Y-4680284D01*
X48242799Y-4526629D01*
X48304682Y-4382246D01*
X48393429Y-4252634D01*
X48505662Y-4142727D01*
X48637100Y-4056716D01*
X48782751Y-3997869D01*
X48937052Y-3968435D01*
X49094131Y-3969532D01*
X49094131Y-3969532D01*
G37*
G36*
X51634131Y-3969532D02*
X51788009Y-4001118D01*
X51932820Y-4061991D01*
X52063048Y-4149831D01*
X52173735Y-4261294D01*
X52260665Y-4392134D01*
X52320524Y-4537364D01*
X52350983Y-4691194D01*
X52351035Y-4691458D01*
X52348529Y-4870878D01*
X52348470Y-4871137D01*
X52348470Y-4871143D01*
X52313729Y-5024061D01*
X52249839Y-5167560D01*
X52159288Y-5295924D01*
X52057450Y-5392903D01*
X52050733Y-5401404D01*
X52046651Y-5411439D01*
X52045500Y-5420784D01*
X52045500Y-6971000D01*
X51054500Y-6971000D01*
X51054500Y-5421252D01*
X51052976Y-5410526D01*
X51048524Y-5400650D01*
X51037973Y-5389638D01*
X51028343Y-5382945D01*
X50919224Y-5269949D01*
X50834127Y-5137905D01*
X50776301Y-4991853D01*
X50747945Y-4837351D01*
X50750138Y-4680284D01*
X50782799Y-4526629D01*
X50844682Y-4382246D01*
X50933429Y-4252634D01*
X51045662Y-4142727D01*
X51177100Y-4056716D01*
X51322751Y-3997869D01*
X51477052Y-3968435D01*
X51634131Y-3969532D01*
X51634131Y-3969532D01*
G37*
G36*
X54174131Y-3969532D02*
X54328009Y-4001118D01*
X54472820Y-4061991D01*
X54603048Y-4149831D01*
X54713735Y-4261294D01*
X54800665Y-4392134D01*
X54860524Y-4537364D01*
X54890983Y-4691194D01*
X54891035Y-4691458D01*
X54888529Y-4870878D01*
X54888470Y-4871137D01*
X54888470Y-4871143D01*
X54853729Y-5024061D01*
X54789839Y-5167560D01*
X54699288Y-5295924D01*
X54597450Y-5392903D01*
X54590733Y-5401404D01*
X54586651Y-5411439D01*
X54585500Y-5420784D01*
X54585500Y-6971000D01*
X53594500Y-6971000D01*
X53594500Y-5421252D01*
X53592976Y-5410526D01*
X53588524Y-5400650D01*
X53577973Y-5389638D01*
X53568343Y-5382945D01*
X53459224Y-5269949D01*
X53374127Y-5137905D01*
X53316301Y-4991853D01*
X53287945Y-4837351D01*
X53290138Y-4680284D01*
X53322799Y-4526629D01*
X53384682Y-4382246D01*
X53473429Y-4252634D01*
X53585662Y-4142727D01*
X53717100Y-4056716D01*
X53862751Y-3997869D01*
X54017052Y-3968435D01*
X54174131Y-3969532D01*
X54174131Y-3969532D01*
G37*
G36*
X61820457Y-451030D02*
X62406573Y-571342D01*
X62958152Y-803205D01*
X63454195Y-1137790D01*
X63875796Y-1562345D01*
X64206909Y-2060710D01*
X64434916Y-2613896D01*
X64551080Y-3200570D01*
X64551080Y-3200581D01*
X64551130Y-3200834D01*
X64541588Y-3884242D01*
X64541530Y-3884497D01*
X64541530Y-3884507D01*
X64409031Y-4467703D01*
X64165666Y-5014310D01*
X63820769Y-5503234D01*
X63387474Y-5915855D01*
X62882282Y-6236459D01*
X62324445Y-6452829D01*
X61735205Y-6556728D01*
X61136999Y-6544198D01*
X60552626Y-6415714D01*
X60004336Y-6176173D01*
X59513019Y-5834699D01*
X59097382Y-5404294D01*
X58773257Y-4901352D01*
X58552999Y-4345043D01*
X58444988Y-3756533D01*
X58453341Y-3158265D01*
X58577742Y-2573005D01*
X58813452Y-2023055D01*
X59151489Y-1529364D01*
X59578981Y-1110732D01*
X60079640Y-783110D01*
X60634409Y-558969D01*
X61222142Y-446853D01*
X61820457Y-451030D01*
X61820457Y-451030D01*
G37*
G36*
X3820457Y-451030D02*
X4406573Y-571342D01*
X4958152Y-803205D01*
X5454195Y-1137790D01*
X5875796Y-1562345D01*
X6206909Y-2060710D01*
X6434916Y-2613896D01*
X6551080Y-3200570D01*
X6551080Y-3200581D01*
X6551130Y-3200834D01*
X6541588Y-3884242D01*
X6541530Y-3884497D01*
X6541530Y-3884507D01*
X6409031Y-4467703D01*
X6165666Y-5014310D01*
X5820769Y-5503234D01*
X5387474Y-5915855D01*
X4882282Y-6236459D01*
X4324445Y-6452829D01*
X3735205Y-6556728D01*
X3136999Y-6544198D01*
X2552626Y-6415714D01*
X2004336Y-6176173D01*
X1513019Y-5834699D01*
X1097382Y-5404294D01*
X773257Y-4901352D01*
X552999Y-4345043D01*
X444988Y-3756533D01*
X453341Y-3158265D01*
X577742Y-2573005D01*
X813452Y-2023055D01*
X1151489Y-1529364D01*
X1578981Y-1110732D01*
X2079640Y-783110D01*
X2634409Y-558969D01*
X3222142Y-446853D01*
X3820457Y-451030D01*
X3820457Y-451030D01*
G37*
G36*
X70501000Y-4551000D02*
X69499000Y-4551000D01*
X69499000Y-3949000D01*
X70501000Y-3949000D01*
X70501000Y-4551000D01*
X70501000Y-4551000D01*
G37*
G36*
X68001000Y-4551000D02*
X66999000Y-4551000D01*
X66999000Y-3949000D01*
X68001000Y-3949000D01*
X68001000Y-4551000D01*
X68001000Y-4551000D01*
G37*
G36*
X68001000Y-3051000D02*
X66999000Y-3051000D01*
X66999000Y-2449000D01*
X68001000Y-2449000D01*
X68001000Y-3051000D01*
X68001000Y-3051000D01*
G37*
G36*
X70501000Y-3051000D02*
X69499000Y-3051000D01*
X69499000Y-2449000D01*
X70501000Y-2449000D01*
X70501000Y-3051000D01*
X70501000Y-3051000D01*
G37*
G36*
X8865500Y-1577524D02*
X8867024Y-1588250D01*
X8871476Y-1598126D01*
X8882473Y-1609444D01*
X8883051Y-1609834D01*
X8993735Y-1721294D01*
X9080665Y-1852134D01*
X9140524Y-1997364D01*
X9170983Y-2151194D01*
X9171035Y-2151458D01*
X9168529Y-2330878D01*
X9168470Y-2331137D01*
X9168470Y-2331143D01*
X9133729Y-2484061D01*
X9069839Y-2627560D01*
X8979288Y-2755924D01*
X8865533Y-2864252D01*
X8732899Y-2948423D01*
X8586449Y-3005227D01*
X8431751Y-3032505D01*
X8274697Y-3029215D01*
X8121278Y-2995483D01*
X7977334Y-2932596D01*
X7848343Y-2842945D01*
X7739224Y-2729949D01*
X7654127Y-2597905D01*
X7596301Y-2451853D01*
X7567945Y-2297351D01*
X7570138Y-2140284D01*
X7602799Y-1986629D01*
X7664682Y-1842246D01*
X7753429Y-1712634D01*
X7862937Y-1605396D01*
X7869534Y-1596803D01*
X7873475Y-1586712D01*
X7874500Y-1577889D01*
X7874500Y-29000D01*
X8865500Y-29000D01*
X8865500Y-1577524D01*
X8865500Y-1577524D01*
G37*
G36*
X11405500Y-1577524D02*
X11407024Y-1588250D01*
X11411476Y-1598126D01*
X11422473Y-1609444D01*
X11423051Y-1609834D01*
X11533735Y-1721294D01*
X11620665Y-1852134D01*
X11680524Y-1997364D01*
X11710983Y-2151194D01*
X11711035Y-2151458D01*
X11708529Y-2330878D01*
X11708470Y-2331137D01*
X11708470Y-2331143D01*
X11673729Y-2484061D01*
X11609839Y-2627560D01*
X11519288Y-2755924D01*
X11405533Y-2864252D01*
X11272899Y-2948423D01*
X11126449Y-3005227D01*
X10971751Y-3032505D01*
X10814697Y-3029215D01*
X10661278Y-2995483D01*
X10517334Y-2932596D01*
X10388343Y-2842945D01*
X10279224Y-2729949D01*
X10194127Y-2597905D01*
X10136301Y-2451853D01*
X10107945Y-2297351D01*
X10110138Y-2140284D01*
X10142799Y-1986629D01*
X10204682Y-1842246D01*
X10293429Y-1712634D01*
X10402937Y-1605396D01*
X10409534Y-1596803D01*
X10413475Y-1586712D01*
X10414500Y-1577889D01*
X10414500Y-29000D01*
X11405500Y-29000D01*
X11405500Y-1577524D01*
X11405500Y-1577524D01*
G37*
G36*
X57125500Y-1577524D02*
X57127024Y-1588250D01*
X57131476Y-1598126D01*
X57142473Y-1609444D01*
X57143051Y-1609834D01*
X57253735Y-1721294D01*
X57340665Y-1852134D01*
X57400524Y-1997364D01*
X57430983Y-2151194D01*
X57431035Y-2151458D01*
X57428529Y-2330878D01*
X57428470Y-2331137D01*
X57428470Y-2331143D01*
X57393729Y-2484061D01*
X57329839Y-2627560D01*
X57239288Y-2755924D01*
X57125533Y-2864252D01*
X56992899Y-2948423D01*
X56846449Y-3005227D01*
X56691751Y-3032505D01*
X56534697Y-3029215D01*
X56381278Y-2995483D01*
X56237334Y-2932596D01*
X56108343Y-2842945D01*
X55999224Y-2729949D01*
X55914127Y-2597905D01*
X55856301Y-2451853D01*
X55827945Y-2297351D01*
X55830138Y-2140284D01*
X55862799Y-1986629D01*
X55924682Y-1842246D01*
X56013429Y-1712634D01*
X56122937Y-1605396D01*
X56129534Y-1596803D01*
X56133475Y-1586712D01*
X56134500Y-1577889D01*
X56134500Y-29000D01*
X57125500Y-29000D01*
X57125500Y-1577524D01*
X57125500Y-1577524D01*
G37*
G36*
X54585500Y-1577524D02*
X54587024Y-1588250D01*
X54591476Y-1598126D01*
X54602473Y-1609444D01*
X54603051Y-1609834D01*
X54713735Y-1721294D01*
X54800665Y-1852134D01*
X54860524Y-1997364D01*
X54890983Y-2151194D01*
X54891035Y-2151458D01*
X54888529Y-2330878D01*
X54888470Y-2331137D01*
X54888470Y-2331143D01*
X54853729Y-2484061D01*
X54789839Y-2627560D01*
X54699288Y-2755924D01*
X54585533Y-2864252D01*
X54452899Y-2948423D01*
X54306449Y-3005227D01*
X54151751Y-3032505D01*
X53994697Y-3029215D01*
X53841278Y-2995483D01*
X53697334Y-2932596D01*
X53568343Y-2842945D01*
X53459224Y-2729949D01*
X53374127Y-2597905D01*
X53316301Y-2451853D01*
X53287945Y-2297351D01*
X53290138Y-2140284D01*
X53322799Y-1986629D01*
X53384682Y-1842246D01*
X53473429Y-1712634D01*
X53582937Y-1605396D01*
X53589534Y-1596803D01*
X53593475Y-1586712D01*
X53594500Y-1577889D01*
X53594500Y-29000D01*
X54585500Y-29000D01*
X54585500Y-1577524D01*
X54585500Y-1577524D01*
G37*
G36*
X52045500Y-1577524D02*
X52047024Y-1588250D01*
X52051476Y-1598126D01*
X52062473Y-1609444D01*
X52063051Y-1609834D01*
X52173735Y-1721294D01*
X52260665Y-1852134D01*
X52320524Y-1997364D01*
X52350983Y-2151194D01*
X52351035Y-2151458D01*
X52348529Y-2330878D01*
X52348470Y-2331137D01*
X52348470Y-2331143D01*
X52313729Y-2484061D01*
X52249839Y-2627560D01*
X52159288Y-2755924D01*
X52045533Y-2864252D01*
X51912899Y-2948423D01*
X51766449Y-3005227D01*
X51611751Y-3032505D01*
X51454697Y-3029215D01*
X51301278Y-2995483D01*
X51157334Y-2932596D01*
X51028343Y-2842945D01*
X50919224Y-2729949D01*
X50834127Y-2597905D01*
X50776301Y-2451853D01*
X50747945Y-2297351D01*
X50750138Y-2140284D01*
X50782799Y-1986629D01*
X50844682Y-1842246D01*
X50933429Y-1712634D01*
X51042937Y-1605396D01*
X51049534Y-1596803D01*
X51053475Y-1586712D01*
X51054500Y-1577889D01*
X51054500Y-29000D01*
X52045500Y-29000D01*
X52045500Y-1577524D01*
X52045500Y-1577524D01*
G37*
G36*
X49505500Y-1577524D02*
X49507024Y-1588250D01*
X49511476Y-1598126D01*
X49522473Y-1609444D01*
X49523051Y-1609834D01*
X49633735Y-1721294D01*
X49720665Y-1852134D01*
X49780524Y-1997364D01*
X49810983Y-2151194D01*
X49811035Y-2151458D01*
X49808529Y-2330878D01*
X49808470Y-2331137D01*
X49808470Y-2331143D01*
X49773729Y-2484061D01*
X49709839Y-2627560D01*
X49619288Y-2755924D01*
X49505533Y-2864252D01*
X49372899Y-2948423D01*
X49226449Y-3005227D01*
X49071751Y-3032505D01*
X48914697Y-3029215D01*
X48761278Y-2995483D01*
X48617334Y-2932596D01*
X48488343Y-2842945D01*
X48379224Y-2729949D01*
X48294127Y-2597905D01*
X48236301Y-2451853D01*
X48207945Y-2297351D01*
X48210138Y-2140284D01*
X48242799Y-1986629D01*
X48304682Y-1842246D01*
X48393429Y-1712634D01*
X48502937Y-1605396D01*
X48509534Y-1596803D01*
X48513475Y-1586712D01*
X48514500Y-1577889D01*
X48514500Y-29000D01*
X49505500Y-29000D01*
X49505500Y-1577524D01*
X49505500Y-1577524D01*
G37*
G36*
X13945500Y-1577524D02*
X13947024Y-1588250D01*
X13951476Y-1598126D01*
X13962473Y-1609444D01*
X13963051Y-1609834D01*
X14073735Y-1721294D01*
X14160665Y-1852134D01*
X14220524Y-1997364D01*
X14250983Y-2151194D01*
X14251035Y-2151458D01*
X14248529Y-2330878D01*
X14248470Y-2331137D01*
X14248470Y-2331143D01*
X14213729Y-2484061D01*
X14149839Y-2627560D01*
X14059288Y-2755924D01*
X13945533Y-2864252D01*
X13812899Y-2948423D01*
X13666449Y-3005227D01*
X13511751Y-3032505D01*
X13354697Y-3029215D01*
X13201278Y-2995483D01*
X13057334Y-2932596D01*
X12928343Y-2842945D01*
X12819224Y-2729949D01*
X12734127Y-2597905D01*
X12676301Y-2451853D01*
X12647945Y-2297351D01*
X12650138Y-2140284D01*
X12682799Y-1986629D01*
X12744682Y-1842246D01*
X12833429Y-1712634D01*
X12942937Y-1605396D01*
X12949534Y-1596803D01*
X12953475Y-1586712D01*
X12954500Y-1577889D01*
X12954500Y-29000D01*
X13945500Y-29000D01*
X13945500Y-1577524D01*
X13945500Y-1577524D01*
G37*
G36*
X16485500Y-1577524D02*
X16487024Y-1588250D01*
X16491476Y-1598126D01*
X16502473Y-1609444D01*
X16503051Y-1609834D01*
X16613735Y-1721294D01*
X16700665Y-1852134D01*
X16760524Y-1997364D01*
X16790983Y-2151194D01*
X16791035Y-2151458D01*
X16788529Y-2330878D01*
X16788470Y-2331137D01*
X16788470Y-2331143D01*
X16753729Y-2484061D01*
X16689839Y-2627560D01*
X16599288Y-2755924D01*
X16485533Y-2864252D01*
X16352899Y-2948423D01*
X16206449Y-3005227D01*
X16051751Y-3032505D01*
X15894697Y-3029215D01*
X15741278Y-2995483D01*
X15597334Y-2932596D01*
X15468343Y-2842945D01*
X15359224Y-2729949D01*
X15274127Y-2597905D01*
X15216301Y-2451853D01*
X15187945Y-2297351D01*
X15190138Y-2140284D01*
X15222799Y-1986629D01*
X15284682Y-1842246D01*
X15373429Y-1712634D01*
X15482937Y-1605396D01*
X15489534Y-1596803D01*
X15493475Y-1586712D01*
X15494500Y-1577889D01*
X15494500Y-29000D01*
X16485500Y-29000D01*
X16485500Y-1577524D01*
X16485500Y-1577524D01*
G37*
G36*
X19025500Y-1577524D02*
X19027024Y-1588250D01*
X19031476Y-1598126D01*
X19042473Y-1609444D01*
X19043051Y-1609834D01*
X19153735Y-1721294D01*
X19240665Y-1852134D01*
X19300524Y-1997364D01*
X19330983Y-2151194D01*
X19331035Y-2151458D01*
X19328529Y-2330878D01*
X19328470Y-2331137D01*
X19328470Y-2331143D01*
X19293729Y-2484061D01*
X19229839Y-2627560D01*
X19139288Y-2755924D01*
X19025533Y-2864252D01*
X18892899Y-2948423D01*
X18746449Y-3005227D01*
X18591751Y-3032505D01*
X18434697Y-3029215D01*
X18281278Y-2995483D01*
X18137334Y-2932596D01*
X18008343Y-2842945D01*
X17899224Y-2729949D01*
X17814127Y-2597905D01*
X17756301Y-2451853D01*
X17727945Y-2297351D01*
X17730138Y-2140284D01*
X17762799Y-1986629D01*
X17824682Y-1842246D01*
X17913429Y-1712634D01*
X18022937Y-1605396D01*
X18029534Y-1596803D01*
X18033475Y-1586712D01*
X18034500Y-1577889D01*
X18034500Y-29000D01*
X19025500Y-29000D01*
X19025500Y-1577524D01*
X19025500Y-1577524D01*
G37*
G36*
X21565500Y-1577524D02*
X21567024Y-1588250D01*
X21571476Y-1598126D01*
X21582473Y-1609444D01*
X21583051Y-1609834D01*
X21693735Y-1721294D01*
X21780665Y-1852134D01*
X21840524Y-1997364D01*
X21870983Y-2151194D01*
X21871035Y-2151458D01*
X21868529Y-2330878D01*
X21868470Y-2331137D01*
X21868470Y-2331143D01*
X21833729Y-2484061D01*
X21769839Y-2627560D01*
X21679288Y-2755924D01*
X21565533Y-2864252D01*
X21432899Y-2948423D01*
X21286449Y-3005227D01*
X21131751Y-3032505D01*
X20974697Y-3029215D01*
X20821278Y-2995483D01*
X20677334Y-2932596D01*
X20548343Y-2842945D01*
X20439224Y-2729949D01*
X20354127Y-2597905D01*
X20296301Y-2451853D01*
X20267945Y-2297351D01*
X20270138Y-2140284D01*
X20302799Y-1986629D01*
X20364682Y-1842246D01*
X20453429Y-1712634D01*
X20562937Y-1605396D01*
X20569534Y-1596803D01*
X20573475Y-1586712D01*
X20574500Y-1577889D01*
X20574500Y-29000D01*
X21565500Y-29000D01*
X21565500Y-1577524D01*
X21565500Y-1577524D01*
G37*
G36*
X24105500Y-1577524D02*
X24107024Y-1588250D01*
X24111476Y-1598126D01*
X24122473Y-1609444D01*
X24123051Y-1609834D01*
X24233735Y-1721294D01*
X24320665Y-1852134D01*
X24380524Y-1997364D01*
X24410983Y-2151194D01*
X24411035Y-2151458D01*
X24408529Y-2330878D01*
X24408470Y-2331137D01*
X24408470Y-2331143D01*
X24373729Y-2484061D01*
X24309839Y-2627560D01*
X24219288Y-2755924D01*
X24105533Y-2864252D01*
X23972899Y-2948423D01*
X23826449Y-3005227D01*
X23671751Y-3032505D01*
X23514697Y-3029215D01*
X23361278Y-2995483D01*
X23217334Y-2932596D01*
X23088343Y-2842945D01*
X22979224Y-2729949D01*
X22894127Y-2597905D01*
X22836301Y-2451853D01*
X22807945Y-2297351D01*
X22810138Y-2140284D01*
X22842799Y-1986629D01*
X22904682Y-1842246D01*
X22993429Y-1712634D01*
X23102937Y-1605396D01*
X23109534Y-1596803D01*
X23113475Y-1586712D01*
X23114500Y-1577889D01*
X23114500Y-29000D01*
X24105500Y-29000D01*
X24105500Y-1577524D01*
X24105500Y-1577524D01*
G37*
G36*
X26645500Y-1577524D02*
X26647024Y-1588250D01*
X26651476Y-1598126D01*
X26662473Y-1609444D01*
X26663051Y-1609834D01*
X26773735Y-1721294D01*
X26860665Y-1852134D01*
X26920524Y-1997364D01*
X26950983Y-2151194D01*
X26951035Y-2151458D01*
X26948529Y-2330878D01*
X26948470Y-2331137D01*
X26948470Y-2331143D01*
X26913729Y-2484061D01*
X26849839Y-2627560D01*
X26759288Y-2755924D01*
X26645533Y-2864252D01*
X26512899Y-2948423D01*
X26366449Y-3005227D01*
X26211751Y-3032505D01*
X26054697Y-3029215D01*
X25901278Y-2995483D01*
X25757334Y-2932596D01*
X25628343Y-2842945D01*
X25519224Y-2729949D01*
X25434127Y-2597905D01*
X25376301Y-2451853D01*
X25347945Y-2297351D01*
X25350138Y-2140284D01*
X25382799Y-1986629D01*
X25444682Y-1842246D01*
X25533429Y-1712634D01*
X25642937Y-1605396D01*
X25649534Y-1596803D01*
X25653475Y-1586712D01*
X25654500Y-1577889D01*
X25654500Y-29000D01*
X26645500Y-29000D01*
X26645500Y-1577524D01*
X26645500Y-1577524D01*
G37*
G36*
X29185500Y-1577524D02*
X29187024Y-1588250D01*
X29191476Y-1598126D01*
X29202473Y-1609444D01*
X29203051Y-1609834D01*
X29313735Y-1721294D01*
X29400665Y-1852134D01*
X29460524Y-1997364D01*
X29490983Y-2151194D01*
X29491035Y-2151458D01*
X29488529Y-2330878D01*
X29488470Y-2331137D01*
X29488470Y-2331143D01*
X29453729Y-2484061D01*
X29389839Y-2627560D01*
X29299288Y-2755924D01*
X29185533Y-2864252D01*
X29052899Y-2948423D01*
X28906449Y-3005227D01*
X28751751Y-3032505D01*
X28594697Y-3029215D01*
X28441278Y-2995483D01*
X28297334Y-2932596D01*
X28168343Y-2842945D01*
X28059224Y-2729949D01*
X27974127Y-2597905D01*
X27916301Y-2451853D01*
X27887945Y-2297351D01*
X27890138Y-2140284D01*
X27922799Y-1986629D01*
X27984682Y-1842246D01*
X28073429Y-1712634D01*
X28182937Y-1605396D01*
X28189534Y-1596803D01*
X28193475Y-1586712D01*
X28194500Y-1577889D01*
X28194500Y-29000D01*
X29185500Y-29000D01*
X29185500Y-1577524D01*
X29185500Y-1577524D01*
G37*
G36*
X31725500Y-1577524D02*
X31727024Y-1588250D01*
X31731476Y-1598126D01*
X31742473Y-1609444D01*
X31743051Y-1609834D01*
X31853735Y-1721294D01*
X31940665Y-1852134D01*
X32000524Y-1997364D01*
X32030983Y-2151194D01*
X32031035Y-2151458D01*
X32028529Y-2330878D01*
X32028470Y-2331137D01*
X32028470Y-2331143D01*
X31993729Y-2484061D01*
X31929839Y-2627560D01*
X31839288Y-2755924D01*
X31725533Y-2864252D01*
X31592899Y-2948423D01*
X31446449Y-3005227D01*
X31291751Y-3032505D01*
X31134697Y-3029215D01*
X30981278Y-2995483D01*
X30837334Y-2932596D01*
X30708343Y-2842945D01*
X30599224Y-2729949D01*
X30514127Y-2597905D01*
X30456301Y-2451853D01*
X30427945Y-2297351D01*
X30430138Y-2140284D01*
X30462799Y-1986629D01*
X30524682Y-1842246D01*
X30613429Y-1712634D01*
X30722937Y-1605396D01*
X30729534Y-1596803D01*
X30733475Y-1586712D01*
X30734500Y-1577889D01*
X30734500Y-29000D01*
X31725500Y-29000D01*
X31725500Y-1577524D01*
X31725500Y-1577524D01*
G37*
G36*
X34265500Y-1577524D02*
X34267024Y-1588250D01*
X34271476Y-1598126D01*
X34282473Y-1609444D01*
X34283051Y-1609834D01*
X34393735Y-1721294D01*
X34480665Y-1852134D01*
X34540524Y-1997364D01*
X34570983Y-2151194D01*
X34571035Y-2151458D01*
X34568529Y-2330878D01*
X34568470Y-2331137D01*
X34568470Y-2331143D01*
X34533729Y-2484061D01*
X34469839Y-2627560D01*
X34379288Y-2755924D01*
X34265533Y-2864252D01*
X34132899Y-2948423D01*
X33986449Y-3005227D01*
X33831751Y-3032505D01*
X33674697Y-3029215D01*
X33521278Y-2995483D01*
X33377334Y-2932596D01*
X33248343Y-2842945D01*
X33139224Y-2729949D01*
X33054127Y-2597905D01*
X32996301Y-2451853D01*
X32967945Y-2297351D01*
X32970138Y-2140284D01*
X33002799Y-1986629D01*
X33064682Y-1842246D01*
X33153429Y-1712634D01*
X33262937Y-1605396D01*
X33269534Y-1596803D01*
X33273475Y-1586712D01*
X33274500Y-1577889D01*
X33274500Y-29000D01*
X34265500Y-29000D01*
X34265500Y-1577524D01*
X34265500Y-1577524D01*
G37*
G36*
X36805500Y-1577524D02*
X36807024Y-1588250D01*
X36811476Y-1598126D01*
X36822473Y-1609444D01*
X36823051Y-1609834D01*
X36933735Y-1721294D01*
X37020665Y-1852134D01*
X37080524Y-1997364D01*
X37110983Y-2151194D01*
X37111035Y-2151458D01*
X37108529Y-2330878D01*
X37108470Y-2331137D01*
X37108470Y-2331143D01*
X37073729Y-2484061D01*
X37009839Y-2627560D01*
X36919288Y-2755924D01*
X36805533Y-2864252D01*
X36672899Y-2948423D01*
X36526449Y-3005227D01*
X36371751Y-3032505D01*
X36214697Y-3029215D01*
X36061278Y-2995483D01*
X35917334Y-2932596D01*
X35788343Y-2842945D01*
X35679224Y-2729949D01*
X35594127Y-2597905D01*
X35536301Y-2451853D01*
X35507945Y-2297351D01*
X35510138Y-2140284D01*
X35542799Y-1986629D01*
X35604682Y-1842246D01*
X35693429Y-1712634D01*
X35802937Y-1605396D01*
X35809534Y-1596803D01*
X35813475Y-1586712D01*
X35814500Y-1577889D01*
X35814500Y-29000D01*
X36805500Y-29000D01*
X36805500Y-1577524D01*
X36805500Y-1577524D01*
G37*
G36*
X39345500Y-1577524D02*
X39347024Y-1588250D01*
X39351476Y-1598126D01*
X39362473Y-1609444D01*
X39363051Y-1609834D01*
X39473735Y-1721294D01*
X39560665Y-1852134D01*
X39620524Y-1997364D01*
X39650983Y-2151194D01*
X39651035Y-2151458D01*
X39648529Y-2330878D01*
X39648470Y-2331137D01*
X39648470Y-2331143D01*
X39613729Y-2484061D01*
X39549839Y-2627560D01*
X39459288Y-2755924D01*
X39345533Y-2864252D01*
X39212899Y-2948423D01*
X39066449Y-3005227D01*
X38911751Y-3032505D01*
X38754697Y-3029215D01*
X38601278Y-2995483D01*
X38457334Y-2932596D01*
X38328343Y-2842945D01*
X38219224Y-2729949D01*
X38134127Y-2597905D01*
X38076301Y-2451853D01*
X38047945Y-2297351D01*
X38050138Y-2140284D01*
X38082799Y-1986629D01*
X38144682Y-1842246D01*
X38233429Y-1712634D01*
X38342937Y-1605396D01*
X38349534Y-1596803D01*
X38353475Y-1586712D01*
X38354500Y-1577889D01*
X38354500Y-29000D01*
X39345500Y-29000D01*
X39345500Y-1577524D01*
X39345500Y-1577524D01*
G37*
G36*
X41885500Y-1577524D02*
X41887024Y-1588250D01*
X41891476Y-1598126D01*
X41902473Y-1609444D01*
X41903051Y-1609834D01*
X42013735Y-1721294D01*
X42100665Y-1852134D01*
X42160524Y-1997364D01*
X42190983Y-2151194D01*
X42191035Y-2151458D01*
X42188529Y-2330878D01*
X42188470Y-2331137D01*
X42188470Y-2331143D01*
X42153729Y-2484061D01*
X42089839Y-2627560D01*
X41999288Y-2755924D01*
X41885533Y-2864252D01*
X41752899Y-2948423D01*
X41606449Y-3005227D01*
X41451751Y-3032505D01*
X41294697Y-3029215D01*
X41141278Y-2995483D01*
X40997334Y-2932596D01*
X40868343Y-2842945D01*
X40759224Y-2729949D01*
X40674127Y-2597905D01*
X40616301Y-2451853D01*
X40587945Y-2297351D01*
X40590138Y-2140284D01*
X40622799Y-1986629D01*
X40684682Y-1842246D01*
X40773429Y-1712634D01*
X40882937Y-1605396D01*
X40889534Y-1596803D01*
X40893475Y-1586712D01*
X40894500Y-1577889D01*
X40894500Y-29000D01*
X41885500Y-29000D01*
X41885500Y-1577524D01*
X41885500Y-1577524D01*
G37*
G36*
X44425500Y-1577524D02*
X44427024Y-1588250D01*
X44431476Y-1598126D01*
X44442473Y-1609444D01*
X44443051Y-1609834D01*
X44553735Y-1721294D01*
X44640665Y-1852134D01*
X44700524Y-1997364D01*
X44730983Y-2151194D01*
X44731035Y-2151458D01*
X44728529Y-2330878D01*
X44728470Y-2331137D01*
X44728470Y-2331143D01*
X44693729Y-2484061D01*
X44629839Y-2627560D01*
X44539288Y-2755924D01*
X44425533Y-2864252D01*
X44292899Y-2948423D01*
X44146449Y-3005227D01*
X43991751Y-3032505D01*
X43834697Y-3029215D01*
X43681278Y-2995483D01*
X43537334Y-2932596D01*
X43408343Y-2842945D01*
X43299224Y-2729949D01*
X43214127Y-2597905D01*
X43156301Y-2451853D01*
X43127945Y-2297351D01*
X43130138Y-2140284D01*
X43162799Y-1986629D01*
X43224682Y-1842246D01*
X43313429Y-1712634D01*
X43422937Y-1605396D01*
X43429534Y-1596803D01*
X43433475Y-1586712D01*
X43434500Y-1577889D01*
X43434500Y-29000D01*
X44425500Y-29000D01*
X44425500Y-1577524D01*
X44425500Y-1577524D01*
G37*
G36*
X46965500Y-1577524D02*
X46967024Y-1588250D01*
X46971476Y-1598126D01*
X46982473Y-1609444D01*
X46983051Y-1609834D01*
X47093735Y-1721294D01*
X47180665Y-1852134D01*
X47240524Y-1997364D01*
X47270983Y-2151194D01*
X47271035Y-2151458D01*
X47268529Y-2330878D01*
X47268470Y-2331137D01*
X47268470Y-2331143D01*
X47233729Y-2484061D01*
X47169839Y-2627560D01*
X47079288Y-2755924D01*
X46965533Y-2864252D01*
X46832899Y-2948423D01*
X46686449Y-3005227D01*
X46531751Y-3032505D01*
X46374697Y-3029215D01*
X46221278Y-2995483D01*
X46077334Y-2932596D01*
X45948343Y-2842945D01*
X45839224Y-2729949D01*
X45754127Y-2597905D01*
X45696301Y-2451853D01*
X45667945Y-2297351D01*
X45670138Y-2140284D01*
X45702799Y-1986629D01*
X45764682Y-1842246D01*
X45853429Y-1712634D01*
X45962937Y-1605396D01*
X45969534Y-1596803D01*
X45973475Y-1586712D01*
X45974500Y-1577889D01*
X45974500Y-29000D01*
X46965500Y-29000D01*
X46965500Y-1577524D01*
X46965500Y-1577524D01*
G37*
M02*
