G04 #@! TF.FileFunction,Legend,Top*
%FSLAX46Y46*%
G04 Gerber Fmt 4.6, Leading zero omitted, Abs format (unit mm)*
G04 Created by KiCad (PCBNEW 4.0.2-stable) date Sunday, October 09, 2016 'PMt' 11:06:17 PM*
%MOMM*%
G01*
G04 APERTURE LIST*
%ADD10C,0.100000*%
%ADD11C,0.150000*%
%ADD12C,0.304800*%
%ADD13C,0.381000*%
%ADD14C,0.127000*%
G04 APERTURE END LIST*
D10*
D11*
X26883333Y-18616667D02*
X27316666Y-18616667D01*
X27083333Y-18883333D01*
X27183333Y-18883333D01*
X27250000Y-18916667D01*
X27283333Y-18950000D01*
X27316666Y-19016667D01*
X27316666Y-19183333D01*
X27283333Y-19250000D01*
X27250000Y-19283333D01*
X27183333Y-19316667D01*
X26983333Y-19316667D01*
X26916666Y-19283333D01*
X26883333Y-19250000D01*
X27516667Y-18616667D02*
X27750000Y-19316667D01*
X27983333Y-18616667D01*
X28150000Y-18616667D02*
X28583333Y-18616667D01*
X28350000Y-18883333D01*
X28450000Y-18883333D01*
X28516667Y-18916667D01*
X28550000Y-18950000D01*
X28583333Y-19016667D01*
X28583333Y-19183333D01*
X28550000Y-19250000D01*
X28516667Y-19283333D01*
X28450000Y-19316667D01*
X28250000Y-19316667D01*
X28183333Y-19283333D01*
X28150000Y-19250000D01*
X37466668Y-23816667D02*
X37466668Y-23116667D01*
X37733334Y-23116667D01*
X37800001Y-23150000D01*
X37833334Y-23183333D01*
X37866668Y-23250000D01*
X37866668Y-23350000D01*
X37833334Y-23416667D01*
X37800001Y-23450000D01*
X37733334Y-23483333D01*
X37466668Y-23483333D01*
X38266668Y-23816667D02*
X38200001Y-23783333D01*
X38166668Y-23750000D01*
X38133334Y-23683333D01*
X38133334Y-23483333D01*
X38166668Y-23416667D01*
X38200001Y-23383333D01*
X38266668Y-23350000D01*
X38366668Y-23350000D01*
X38433334Y-23383333D01*
X38466668Y-23416667D01*
X38500001Y-23483333D01*
X38500001Y-23683333D01*
X38466668Y-23750000D01*
X38433334Y-23783333D01*
X38366668Y-23816667D01*
X38266668Y-23816667D01*
X38800001Y-23450000D02*
X39033334Y-23450000D01*
X39133334Y-23816667D02*
X38800001Y-23816667D01*
X38800001Y-23116667D01*
X39133334Y-23116667D01*
X39966667Y-23816667D02*
X39966667Y-23116667D01*
X40233333Y-23116667D01*
X40300000Y-23150000D01*
X40333333Y-23183333D01*
X40366667Y-23250000D01*
X40366667Y-23350000D01*
X40333333Y-23416667D01*
X40300000Y-23450000D01*
X40233333Y-23483333D01*
X39966667Y-23483333D01*
X41033333Y-23150000D02*
X40966667Y-23116667D01*
X40866667Y-23116667D01*
X40766667Y-23150000D01*
X40700000Y-23216667D01*
X40666667Y-23283333D01*
X40633333Y-23416667D01*
X40633333Y-23516667D01*
X40666667Y-23650000D01*
X40700000Y-23716667D01*
X40766667Y-23783333D01*
X40866667Y-23816667D01*
X40933333Y-23816667D01*
X41033333Y-23783333D01*
X41066667Y-23750000D01*
X41066667Y-23516667D01*
X40933333Y-23516667D01*
X9616667Y-6633333D02*
X9616667Y-6966666D01*
X9950000Y-7000000D01*
X9916667Y-6966666D01*
X9883333Y-6900000D01*
X9883333Y-6733333D01*
X9916667Y-6666666D01*
X9950000Y-6633333D01*
X10016667Y-6600000D01*
X10183333Y-6600000D01*
X10250000Y-6633333D01*
X10283333Y-6666666D01*
X10316667Y-6733333D01*
X10316667Y-6900000D01*
X10283333Y-6966666D01*
X10250000Y-7000000D01*
X9616667Y-6399999D02*
X10316667Y-6166666D01*
X9616667Y-5933333D01*
X66566667Y-25186667D02*
X66333333Y-24853333D01*
X66166667Y-25186667D02*
X66166667Y-24486667D01*
X66433333Y-24486667D01*
X66500000Y-24520000D01*
X66533333Y-24553333D01*
X66566667Y-24620000D01*
X66566667Y-24720000D01*
X66533333Y-24786667D01*
X66500000Y-24820000D01*
X66433333Y-24853333D01*
X66166667Y-24853333D01*
X66866667Y-25186667D02*
X66866667Y-24486667D01*
X67133333Y-24486667D01*
X67200000Y-24520000D01*
X67233333Y-24553333D01*
X67266667Y-24620000D01*
X67266667Y-24720000D01*
X67233333Y-24786667D01*
X67200000Y-24820000D01*
X67133333Y-24853333D01*
X66866667Y-24853333D01*
X67566667Y-25186667D02*
X67566667Y-24720000D01*
X67566667Y-24486667D02*
X67533333Y-24520000D01*
X67566667Y-24553333D01*
X67600000Y-24520000D01*
X67566667Y-24486667D01*
X67566667Y-24553333D01*
X68566666Y-24486667D02*
X68633333Y-24486667D01*
X68699999Y-24520000D01*
X68733333Y-24553333D01*
X68766666Y-24620000D01*
X68799999Y-24753333D01*
X68799999Y-24920000D01*
X68766666Y-25053333D01*
X68733333Y-25120000D01*
X68699999Y-25153333D01*
X68633333Y-25186667D01*
X68566666Y-25186667D01*
X68499999Y-25153333D01*
X68466666Y-25120000D01*
X68433333Y-25053333D01*
X68399999Y-24920000D01*
X68399999Y-24753333D01*
X68433333Y-24620000D01*
X68466666Y-24553333D01*
X68499999Y-24520000D01*
X68566666Y-24486667D01*
X69633333Y-25186667D02*
X69633333Y-24486667D01*
X69899999Y-24486667D01*
X69966666Y-24520000D01*
X69999999Y-24553333D01*
X70033333Y-24620000D01*
X70033333Y-24720000D01*
X69999999Y-24786667D01*
X69966666Y-24820000D01*
X69899999Y-24853333D01*
X69633333Y-24853333D01*
X70433333Y-25186667D02*
X70366666Y-25153333D01*
X70333333Y-25120000D01*
X70299999Y-25053333D01*
X70299999Y-24853333D01*
X70333333Y-24786667D01*
X70366666Y-24753333D01*
X70433333Y-24720000D01*
X70533333Y-24720000D01*
X70599999Y-24753333D01*
X70633333Y-24786667D01*
X70666666Y-24853333D01*
X70666666Y-25053333D01*
X70633333Y-25120000D01*
X70599999Y-25153333D01*
X70533333Y-25186667D01*
X70433333Y-25186667D01*
X70966666Y-24820000D02*
X71199999Y-24820000D01*
X71299999Y-25186667D02*
X70966666Y-25186667D01*
X70966666Y-24486667D01*
X71299999Y-24486667D01*
X72533332Y-25186667D02*
X72299998Y-24853333D01*
X72133332Y-25186667D02*
X72133332Y-24486667D01*
X72399998Y-24486667D01*
X72466665Y-24520000D01*
X72499998Y-24553333D01*
X72533332Y-24620000D01*
X72533332Y-24720000D01*
X72499998Y-24786667D01*
X72466665Y-24820000D01*
X72399998Y-24853333D01*
X72133332Y-24853333D01*
X73099998Y-25153333D02*
X73033332Y-25186667D01*
X72899998Y-25186667D01*
X72833332Y-25153333D01*
X72799998Y-25086667D01*
X72799998Y-24820000D01*
X72833332Y-24753333D01*
X72899998Y-24720000D01*
X73033332Y-24720000D01*
X73099998Y-24753333D01*
X73133332Y-24820000D01*
X73133332Y-24886667D01*
X72799998Y-24953333D01*
X73366665Y-24720000D02*
X73533332Y-25186667D01*
X73699998Y-24720000D01*
X74866664Y-25186667D02*
X74466664Y-25186667D01*
X74666664Y-25186667D02*
X74666664Y-24486667D01*
X74599998Y-24586667D01*
X74533331Y-24653333D01*
X74466664Y-24686667D01*
X75166665Y-25120000D02*
X75199998Y-25153333D01*
X75166665Y-25186667D01*
X75133331Y-25153333D01*
X75166665Y-25120000D01*
X75166665Y-25186667D01*
X75633331Y-24486667D02*
X75699998Y-24486667D01*
X75766664Y-24520000D01*
X75799998Y-24553333D01*
X75833331Y-24620000D01*
X75866664Y-24753333D01*
X75866664Y-24920000D01*
X75833331Y-25053333D01*
X75799998Y-25120000D01*
X75766664Y-25153333D01*
X75699998Y-25186667D01*
X75633331Y-25186667D01*
X75566664Y-25153333D01*
X75533331Y-25120000D01*
X75499998Y-25053333D01*
X75466664Y-24920000D01*
X75466664Y-24753333D01*
X75499998Y-24620000D01*
X75533331Y-24553333D01*
X75566664Y-24520000D01*
X75633331Y-24486667D01*
X66566667Y-26250000D02*
X66533333Y-26283333D01*
X66433333Y-26316667D01*
X66366667Y-26316667D01*
X66266667Y-26283333D01*
X66200000Y-26216667D01*
X66166667Y-26150000D01*
X66133333Y-26016667D01*
X66133333Y-25916667D01*
X66166667Y-25783333D01*
X66200000Y-25716667D01*
X66266667Y-25650000D01*
X66366667Y-25616667D01*
X66433333Y-25616667D01*
X66533333Y-25650000D01*
X66566667Y-25683333D01*
X66866667Y-25950000D02*
X67100000Y-25950000D01*
X67200000Y-26316667D02*
X66866667Y-26316667D01*
X66866667Y-25616667D01*
X67200000Y-25616667D01*
X67900000Y-26316667D02*
X67666666Y-25983333D01*
X67500000Y-26316667D02*
X67500000Y-25616667D01*
X67766666Y-25616667D01*
X67833333Y-25650000D01*
X67866666Y-25683333D01*
X67900000Y-25750000D01*
X67900000Y-25850000D01*
X67866666Y-25916667D01*
X67833333Y-25950000D01*
X67766666Y-25983333D01*
X67500000Y-25983333D01*
X68200000Y-26316667D02*
X68200000Y-25616667D01*
X68600000Y-26316667D01*
X68600000Y-25616667D01*
X69599999Y-25616667D02*
X69733332Y-25616667D01*
X69799999Y-25650000D01*
X69866666Y-25716667D01*
X69899999Y-25850000D01*
X69899999Y-26083333D01*
X69866666Y-26216667D01*
X69799999Y-26283333D01*
X69733332Y-26316667D01*
X69599999Y-26316667D01*
X69533332Y-26283333D01*
X69466666Y-26216667D01*
X69433332Y-26083333D01*
X69433332Y-25850000D01*
X69466666Y-25716667D01*
X69533332Y-25650000D01*
X69599999Y-25616667D01*
X70199999Y-26316667D02*
X70199999Y-25616667D01*
X70199999Y-25950000D02*
X70599999Y-25950000D01*
X70599999Y-26316667D02*
X70599999Y-25616667D01*
X71266665Y-26316667D02*
X70933332Y-26316667D01*
X70933332Y-25616667D01*
X71933332Y-25616667D02*
X72166665Y-26316667D01*
X72399998Y-25616667D01*
X72999998Y-26316667D02*
X72599998Y-26316667D01*
X72799998Y-26316667D02*
X72799998Y-25616667D01*
X72733332Y-25716667D01*
X72666665Y-25783333D01*
X72599998Y-25816667D01*
X73299999Y-26250000D02*
X73333332Y-26283333D01*
X73299999Y-26316667D01*
X73266665Y-26283333D01*
X73299999Y-26250000D01*
X73299999Y-26316667D01*
X73599998Y-25683333D02*
X73633332Y-25650000D01*
X73699998Y-25616667D01*
X73866665Y-25616667D01*
X73933332Y-25650000D01*
X73966665Y-25683333D01*
X73999998Y-25750000D01*
X73999998Y-25816667D01*
X73966665Y-25916667D01*
X73566665Y-26316667D01*
X73999998Y-26316667D01*
X66166667Y-27446667D02*
X66166667Y-26980000D01*
X66166667Y-26746667D02*
X66133333Y-26780000D01*
X66166667Y-26813333D01*
X66200000Y-26780000D01*
X66166667Y-26746667D01*
X66166667Y-26813333D01*
X66500000Y-27446667D02*
X66500000Y-26746667D01*
X66800000Y-27446667D02*
X66800000Y-27080000D01*
X66766666Y-27013333D01*
X66700000Y-26980000D01*
X66600000Y-26980000D01*
X66533333Y-27013333D01*
X66500000Y-27046667D01*
X67433333Y-27446667D02*
X67433333Y-27080000D01*
X67399999Y-27013333D01*
X67333333Y-26980000D01*
X67199999Y-26980000D01*
X67133333Y-27013333D01*
X67433333Y-27413333D02*
X67366666Y-27446667D01*
X67199999Y-27446667D01*
X67133333Y-27413333D01*
X67099999Y-27346667D01*
X67099999Y-27280000D01*
X67133333Y-27213333D01*
X67199999Y-27180000D01*
X67366666Y-27180000D01*
X67433333Y-27146667D01*
X67766666Y-27446667D02*
X67766666Y-26980000D01*
X67766666Y-27113333D02*
X67799999Y-27046667D01*
X67833332Y-27013333D01*
X67899999Y-26980000D01*
X67966666Y-26980000D01*
X68099999Y-26980000D02*
X68366665Y-26980000D01*
X68199999Y-26746667D02*
X68199999Y-27346667D01*
X68233332Y-27413333D01*
X68299999Y-27446667D01*
X68366665Y-27446667D01*
X68533332Y-26980000D02*
X68666665Y-27446667D01*
X68799999Y-27113333D01*
X68933332Y-27446667D01*
X69066665Y-26980000D01*
X69333332Y-27446667D02*
X69333332Y-26980000D01*
X69333332Y-26746667D02*
X69299998Y-26780000D01*
X69333332Y-26813333D01*
X69366665Y-26780000D01*
X69333332Y-26746667D01*
X69333332Y-26813333D01*
X69966665Y-26980000D02*
X69966665Y-27546667D01*
X69933331Y-27613333D01*
X69899998Y-27646667D01*
X69833331Y-27680000D01*
X69733331Y-27680000D01*
X69666665Y-27646667D01*
X69966665Y-27413333D02*
X69899998Y-27446667D01*
X69766665Y-27446667D01*
X69699998Y-27413333D01*
X69666665Y-27380000D01*
X69633331Y-27313333D01*
X69633331Y-27113333D01*
X69666665Y-27046667D01*
X69699998Y-27013333D01*
X69766665Y-26980000D01*
X69899998Y-26980000D01*
X69966665Y-27013333D01*
X70866664Y-26746667D02*
X70799997Y-26880000D01*
X71533330Y-27446667D02*
X71133330Y-27446667D01*
X71333330Y-27446667D02*
X71333330Y-26746667D01*
X71266664Y-26846667D01*
X71199997Y-26913333D01*
X71133330Y-26946667D01*
X72133331Y-26746667D02*
X71999997Y-26746667D01*
X71933331Y-26780000D01*
X71899997Y-26813333D01*
X71833331Y-26913333D01*
X71799997Y-27046667D01*
X71799997Y-27313333D01*
X71833331Y-27380000D01*
X71866664Y-27413333D01*
X71933331Y-27446667D01*
X72066664Y-27446667D01*
X72133331Y-27413333D01*
X72166664Y-27380000D01*
X72199997Y-27313333D01*
X72199997Y-27146667D01*
X72166664Y-27080000D01*
X72133331Y-27046667D01*
X72066664Y-27013333D01*
X71933331Y-27013333D01*
X71866664Y-27046667D01*
X71833331Y-27080000D01*
X71799997Y-27146667D01*
D12*
X68300240Y-11700540D02*
X69100340Y-11200160D01*
X69100340Y-11200160D02*
X68300240Y-11200160D01*
X69100340Y-11700540D02*
X68300240Y-11700540D01*
X69798840Y-11400820D02*
X69798840Y-11598940D01*
X70200160Y-11400820D02*
G75*
G03X69999500Y-11200160I-200660J0D01*
G01*
X69999500Y-11200160D02*
G75*
G03X69798840Y-11400820I0J-200660D01*
G01*
X70598940Y-11200160D02*
X70200160Y-11598940D01*
X70598940Y-11598940D02*
X69798840Y-11598940D01*
X69100340Y-12399040D02*
X68800620Y-12399040D01*
X70200160Y-11997720D02*
G75*
G03X69798840Y-12399040I0J-401320D01*
G01*
X70598940Y-12399040D02*
G75*
G03X70200160Y-12000260I-398780J0D01*
G01*
X70200160Y-12797820D02*
G75*
G03X70598940Y-12399040I0J398780D01*
G01*
X69798840Y-12399040D02*
G75*
G03X70200160Y-12800360I401320J0D01*
G01*
X70200160Y-18098800D02*
G75*
G03X69798840Y-18500120I0J-401320D01*
G01*
X68699020Y-12800360D02*
G75*
G03X69100340Y-12399040I0J401320D01*
G01*
X68297700Y-12399040D02*
G75*
G03X68699020Y-12800360I401320J0D01*
G01*
X69699780Y-20300980D02*
X70200160Y-20798820D01*
X70200160Y-20798820D02*
X70700540Y-20300980D01*
X70700540Y-20300980D02*
X69699780Y-20300980D01*
X69699780Y-20999480D02*
X70700540Y-20999480D01*
X68201180Y-20199380D02*
X69199400Y-20199380D01*
X68201180Y-20900420D02*
X69199400Y-20900420D01*
X69199400Y-20900420D02*
X68699020Y-20400040D01*
X68699020Y-20400040D02*
X68201180Y-20900420D01*
X70200160Y-21901180D02*
X70200160Y-19500880D01*
X68699020Y-21901180D02*
X68699020Y-19500880D01*
X70200160Y-17700020D02*
X70598940Y-17298700D01*
X69798840Y-17499360D02*
X69798840Y-17700020D01*
X70200160Y-17499360D02*
G75*
G03X69999500Y-17298700I-200660J0D01*
G01*
X69999500Y-17298700D02*
G75*
G03X69798840Y-17499360I0J-200660D01*
G01*
X70598940Y-17700020D02*
X69798840Y-17700020D01*
X70598940Y-18497580D02*
G75*
G03X70200160Y-18098800I-398780J0D01*
G01*
X70200160Y-18896360D02*
G75*
G03X70598940Y-18497580I0J398780D01*
G01*
X69798840Y-18497580D02*
G75*
G03X70200160Y-18898900I401320J0D01*
G01*
X69100340Y-17697480D02*
X68300240Y-17697480D01*
X68300240Y-17697480D02*
X69100340Y-17197100D01*
X69100340Y-17197100D02*
X68300240Y-17197100D01*
X68800620Y-18398520D02*
X69100340Y-18398520D01*
X68696480Y-18893820D02*
G75*
G03X69097800Y-18492500I0J401320D01*
G01*
X68295160Y-18492500D02*
G75*
G03X68696480Y-18893820I401320J0D01*
G01*
X70200160Y-9396760D02*
X69699780Y-8896380D01*
X69699780Y-8896380D02*
X70700540Y-8896380D01*
X70700540Y-8896380D02*
X70200160Y-9396760D01*
X69699780Y-9597420D02*
X70700540Y-9597420D01*
X68701560Y-9094500D02*
X69201940Y-9594880D01*
X69201940Y-9594880D02*
X68201180Y-9594880D01*
X68201180Y-9594880D02*
X68701560Y-9094500D01*
X68201180Y-8893840D02*
X69201940Y-8893840D01*
X68701560Y-10595640D02*
X68701560Y-8096280D01*
X70200160Y-10598180D02*
X70200160Y-8197880D01*
D13*
X81874000Y-8650000D02*
X82128000Y-8650000D01*
X82128000Y-8650000D02*
X82128000Y-6618000D01*
X82128000Y-6618000D02*
X81874000Y-6618000D01*
X81874000Y-23382000D02*
X82128000Y-23382000D01*
X82128000Y-23382000D02*
X82128000Y-21350000D01*
X82128000Y-21350000D02*
X81874000Y-21350000D01*
X76286000Y-13476000D02*
X76286000Y-16524000D01*
X76286000Y-13984000D02*
X81874000Y-13984000D01*
X74508000Y-13476000D02*
X76286000Y-13476000D01*
X76286000Y-16524000D02*
X74508000Y-16524000D01*
X81874000Y-16016000D02*
X76286000Y-16016000D01*
X81874000Y-21096000D02*
X74508000Y-21096000D01*
X74508000Y-21096000D02*
X74508000Y-8904000D01*
X74508000Y-8904000D02*
X81874000Y-8904000D01*
X81874000Y-23636000D02*
X66126000Y-23636000D01*
X66126000Y-23636000D02*
X66126000Y-6364000D01*
X66126000Y-6364000D02*
X81874000Y-6364000D01*
X81874000Y-6364000D02*
X81874000Y-23636000D01*
D11*
X33800000Y-10600000D02*
G75*
G03X33500000Y-10300000I-300000J0D01*
G01*
X38500000Y-10300000D02*
G75*
G03X38200000Y-10600000I0J-300000D01*
G01*
X38200000Y-10600000D02*
X33800000Y-10600000D01*
X38500000Y-9500000D02*
X38500000Y-10300000D01*
X33500000Y-9500000D02*
X33500000Y-10300000D01*
X33700000Y-8600000D02*
X33700000Y-9400000D01*
X33700000Y-8600000D02*
X33500000Y-8500000D01*
X33700000Y-9400000D02*
X33500000Y-9500000D01*
X33500000Y-7700000D02*
X33500000Y-8500000D01*
X33500000Y-7700000D02*
G75*
G03X33800000Y-7400000I0J300000D01*
G01*
X38200000Y-7400000D02*
X33800000Y-7400000D01*
X38500000Y-7700000D02*
X38500000Y-8500000D01*
X38200000Y-7400000D02*
G75*
G03X38500000Y-7700000I300000J0D01*
G01*
X38500000Y-8500000D02*
X38300000Y-8600000D01*
X38500000Y-9500000D02*
X38300000Y-9400000D01*
X38300000Y-8600000D02*
X38300000Y-9400000D01*
X16400000Y-16285000D02*
X17400000Y-17285000D01*
X17400000Y-17285000D02*
X23600000Y-17285000D01*
X23600000Y-17285000D02*
X23600000Y-14215000D01*
X23600000Y-14215000D02*
X16400000Y-14215000D01*
X16400000Y-14215000D02*
X16400000Y-16285000D01*
X55850000Y-22850000D02*
X55150000Y-22850000D01*
X55150000Y-21650000D02*
X55850000Y-21650000D01*
X41100000Y-8600000D02*
X40400000Y-8600000D01*
X40400000Y-7400000D02*
X41100000Y-7400000D01*
X30900000Y-7400000D02*
X31600000Y-7400000D01*
X31600000Y-8600000D02*
X30900000Y-8600000D01*
X26725000Y-22750000D02*
X26725000Y-24750000D01*
X28775000Y-24750000D02*
X28775000Y-22750000D01*
X41900000Y-14150000D02*
X42600000Y-14150000D01*
X42600000Y-15350000D02*
X41900000Y-15350000D01*
X40400000Y-9400000D02*
X41100000Y-9400000D01*
X41100000Y-10600000D02*
X40400000Y-10600000D01*
X31600000Y-10600000D02*
X30900000Y-10600000D01*
X30900000Y-9400000D02*
X31600000Y-9400000D01*
X31600000Y-12600000D02*
X30900000Y-12600000D01*
X30900000Y-11400000D02*
X31600000Y-11400000D01*
X24400000Y-15850000D02*
X24400000Y-15150000D01*
X25600000Y-15150000D02*
X25600000Y-15850000D01*
X11100000Y-12100000D02*
X10400000Y-12100000D01*
X10400000Y-10900000D02*
X11100000Y-10900000D01*
X13900000Y-10900000D02*
X14600000Y-10900000D01*
X14600000Y-12100000D02*
X13900000Y-12100000D01*
X44350000Y-8650000D02*
X44350000Y-9350000D01*
X43150000Y-9350000D02*
X43150000Y-8650000D01*
X27400000Y-7400000D02*
X28100000Y-7400000D01*
X28100000Y-8600000D02*
X27400000Y-8600000D01*
X27400000Y-12900000D02*
X28100000Y-12900000D01*
X28100000Y-14100000D02*
X27400000Y-14100000D01*
X44900000Y-14150000D02*
X45600000Y-14150000D01*
X45600000Y-15350000D02*
X44900000Y-15350000D01*
D13*
X64100580Y-9199520D02*
X64999740Y-9199520D01*
X64100580Y-11800480D02*
X64999740Y-11800480D01*
X59899420Y-11800480D02*
X59000260Y-11800480D01*
X59899420Y-9199520D02*
X59000260Y-9199520D01*
D14*
X63600200Y-9199520D02*
X62800100Y-9199520D01*
X63600200Y-11797940D02*
X62800100Y-11797940D01*
X63198880Y-11399160D02*
X63198880Y-12199260D01*
X60600460Y-12199260D02*
G75*
G03X60999240Y-11800480I0J398780D01*
G01*
X60201680Y-11800480D02*
G75*
G03X60600460Y-12199260I398780J0D01*
G01*
X61400560Y-11399160D02*
G75*
G03X60999240Y-11800480I0J-401320D01*
G01*
X61801880Y-11800480D02*
G75*
G03X61400560Y-11399160I-401320J0D01*
G01*
X61801880Y-9199520D02*
G75*
G03X61400560Y-8798200I-401320J0D01*
G01*
X61400560Y-8798200D02*
G75*
G03X60999240Y-9199520I0J-401320D01*
G01*
X60201680Y-9199520D02*
G75*
G03X60600460Y-9598300I398780J0D01*
G01*
X60600460Y-9598300D02*
G75*
G03X60999240Y-9199520I0J398780D01*
G01*
D13*
X59899420Y-8048900D02*
X59899420Y-12951100D01*
X59899420Y-12951100D02*
X64100580Y-12951100D01*
X64100580Y-12951100D02*
X64100580Y-8048900D01*
X64100580Y-8048900D02*
X59899420Y-8048900D01*
X59899420Y-20300480D02*
X59000260Y-20300480D01*
X59899420Y-17699520D02*
X59000260Y-17699520D01*
X64100580Y-17699520D02*
X64999740Y-17699520D01*
X64100580Y-20300480D02*
X64999740Y-20300480D01*
D14*
X60399800Y-20300480D02*
X61199900Y-20300480D01*
X60399800Y-17702060D02*
X61199900Y-17702060D01*
X60801120Y-18100840D02*
X60801120Y-17300740D01*
X63399540Y-17300740D02*
G75*
G03X63000760Y-17699520I0J-398780D01*
G01*
X63798320Y-17699520D02*
G75*
G03X63399540Y-17300740I-398780J0D01*
G01*
X62599440Y-18100840D02*
G75*
G03X63000760Y-17699520I0J401320D01*
G01*
X62198120Y-17699520D02*
G75*
G03X62599440Y-18100840I401320J0D01*
G01*
X62198120Y-20300480D02*
G75*
G03X62599440Y-20701800I401320J0D01*
G01*
X62599440Y-20701800D02*
G75*
G03X63000760Y-20300480I0J401320D01*
G01*
X63798320Y-20300480D02*
G75*
G03X63399540Y-19901700I-398780J0D01*
G01*
X63399540Y-19901700D02*
G75*
G03X63000760Y-20300480I0J-398780D01*
G01*
D13*
X64100580Y-21451100D02*
X64100580Y-16548900D01*
X64100580Y-16548900D02*
X59899420Y-16548900D01*
X59899420Y-16548900D02*
X59899420Y-21451100D01*
X59899420Y-21451100D02*
X64100580Y-21451100D01*
D14*
X46750380Y-29148780D02*
X46750380Y-28351220D01*
X46648780Y-28351220D02*
X46648780Y-29148780D01*
X46549720Y-28351220D02*
X46549720Y-29148780D01*
X46849440Y-28351220D02*
X45650560Y-28351220D01*
X45650560Y-28351220D02*
X45650560Y-29148780D01*
X45650560Y-29148780D02*
X46849440Y-29148780D01*
X46849440Y-29148780D02*
X46849440Y-28351220D01*
D11*
X9450000Y-7650000D02*
X9450000Y-9550000D01*
X10550000Y-7650000D02*
X10550000Y-9550000D01*
X10000000Y-8550000D02*
X10000000Y-9000000D01*
X10250000Y-8500000D02*
X9750000Y-8500000D01*
X10000000Y-8500000D02*
X10250000Y-8750000D01*
X10250000Y-8750000D02*
X9750000Y-8750000D01*
X9750000Y-8750000D02*
X10000000Y-8500000D01*
X28850000Y-14950000D02*
X26950000Y-14950000D01*
X28850000Y-16050000D02*
X26950000Y-16050000D01*
X27950000Y-15500000D02*
X27500000Y-15500000D01*
X28000000Y-15750000D02*
X28000000Y-15250000D01*
X28000000Y-15500000D02*
X27750000Y-15750000D01*
X27750000Y-15750000D02*
X27750000Y-15250000D01*
X27750000Y-15250000D02*
X28000000Y-15500000D01*
X33600000Y-11600000D02*
X34390000Y-11600000D01*
X39900000Y-17900000D02*
X39110000Y-17900000D01*
X39900000Y-11600000D02*
X39110000Y-11600000D01*
X33600000Y-17900000D02*
X33600000Y-17110000D01*
X39900000Y-17900000D02*
X39900000Y-17110000D01*
X39900000Y-11600000D02*
X39900000Y-12390000D01*
X33600000Y-11600000D02*
X33600000Y-12390000D01*
X49500000Y-21675000D02*
X51500000Y-21675000D01*
X51500000Y-23825000D02*
X49500000Y-23825000D01*
X46425000Y-8500000D02*
X46425000Y-9500000D01*
X45075000Y-9500000D02*
X45075000Y-8500000D01*
X28200000Y-26050000D02*
G75*
G03X28200000Y-26050000I-100000J0D01*
G01*
X28750000Y-26300000D02*
X28250000Y-26300000D01*
X28750000Y-29200000D02*
X28750000Y-26300000D01*
X28250000Y-29200000D02*
X28750000Y-29200000D01*
X28250000Y-26300000D02*
X28250000Y-29200000D01*
X17250000Y-10450000D02*
G75*
G03X17250000Y-10450000I-100000J0D01*
G01*
X16500000Y-10200000D02*
X17000000Y-10200000D01*
X16500000Y-7300000D02*
X16500000Y-10200000D01*
X17000000Y-7300000D02*
X16500000Y-7300000D01*
X17000000Y-10200000D02*
X17000000Y-7300000D01*
X19599760Y-7450840D02*
X19599760Y-7499100D01*
X20300800Y-10249820D02*
X19599760Y-10249820D01*
X19599760Y-10249820D02*
X19599760Y-10000900D01*
X19599760Y-7450840D02*
X19599760Y-7250180D01*
X19599760Y-7250180D02*
X20300800Y-7250180D01*
X46750000Y-25175000D02*
X45750000Y-25175000D01*
X45750000Y-23825000D02*
X46750000Y-23825000D01*
X46750000Y-22925000D02*
X45750000Y-22925000D01*
X45750000Y-21575000D02*
X46750000Y-21575000D01*
X46425000Y-16750000D02*
X46425000Y-17750000D01*
X45075000Y-17750000D02*
X45075000Y-16750000D01*
X36925000Y-27500000D02*
X36925000Y-28500000D01*
X35575000Y-28500000D02*
X35575000Y-27500000D01*
X33750000Y-28825000D02*
X31750000Y-28825000D01*
X31750000Y-26675000D02*
X33750000Y-26675000D01*
X46750000Y-27425000D02*
X45750000Y-27425000D01*
X45750000Y-26075000D02*
X46750000Y-26075000D01*
X45075000Y-12750000D02*
X45075000Y-11750000D01*
X46425000Y-11750000D02*
X46425000Y-12750000D01*
X16825000Y-13000000D02*
X16825000Y-12000000D01*
X18175000Y-12000000D02*
X18175000Y-13000000D01*
X24325000Y-13000000D02*
X24325000Y-12000000D01*
X25675000Y-12000000D02*
X25675000Y-13000000D01*
X22325000Y-13000000D02*
X22325000Y-12000000D01*
X23675000Y-12000000D02*
X23675000Y-13000000D01*
X25675000Y-8250000D02*
X25675000Y-9250000D01*
X24325000Y-9250000D02*
X24325000Y-8250000D01*
X11325000Y-9250000D02*
X11325000Y-8250000D01*
X12675000Y-8250000D02*
X12675000Y-9250000D01*
X41075000Y-12750000D02*
X41075000Y-11750000D01*
X42425000Y-11750000D02*
X42425000Y-12750000D01*
X13325000Y-9250000D02*
X13325000Y-8250000D01*
X14675000Y-8250000D02*
X14675000Y-9250000D01*
X43075000Y-12750000D02*
X43075000Y-11750000D01*
X44425000Y-11750000D02*
X44425000Y-12750000D01*
X43075000Y-17750000D02*
X43075000Y-16750000D01*
X44425000Y-16750000D02*
X44425000Y-17750000D01*
X23675000Y-8250000D02*
X23675000Y-9250000D01*
X22325000Y-9250000D02*
X22325000Y-8250000D01*
X70675000Y-3000000D02*
X70675000Y-4000000D01*
X69325000Y-4000000D02*
X69325000Y-3000000D01*
X68175000Y-3000000D02*
X68175000Y-4000000D01*
X66825000Y-4000000D02*
X66825000Y-3000000D01*
X27250000Y-16825000D02*
X28250000Y-16825000D01*
X28250000Y-18175000D02*
X27250000Y-18175000D01*
X41075000Y-17750000D02*
X41075000Y-16750000D01*
X42425000Y-16750000D02*
X42425000Y-17750000D01*
X19599760Y-11200840D02*
X19599760Y-11249100D01*
X20300800Y-13999820D02*
X19599760Y-13999820D01*
X19599760Y-13999820D02*
X19599760Y-13750900D01*
X19599760Y-11200840D02*
X19599760Y-11000180D01*
X19599760Y-11000180D02*
X20300800Y-11000180D01*
X43104300Y-23847500D02*
X39395700Y-23847500D01*
X44779300Y-29152500D02*
X39395700Y-29152500D01*
X27550000Y-9050000D02*
G75*
G03X27550000Y-9050000I-100000J0D01*
G01*
X28000000Y-9300000D02*
X27500000Y-9300000D01*
X28000000Y-12200000D02*
X28000000Y-9300000D01*
X27500000Y-12200000D02*
X28000000Y-12200000D01*
X27500000Y-9300000D02*
X27500000Y-12200000D01*
X57450000Y-24500000D02*
X57050000Y-24500000D01*
X53550000Y-24500000D02*
X53950000Y-24500000D01*
X53550000Y-29000000D02*
X53950000Y-29000000D01*
X57450000Y-29000000D02*
X57050000Y-29000000D01*
X53550000Y-25400000D02*
X53950000Y-25400000D01*
X53950000Y-25400000D02*
X53950000Y-25550000D01*
X53950000Y-25550000D02*
X53550000Y-25550000D01*
X57450000Y-25400000D02*
X57050000Y-25400000D01*
X57050000Y-25400000D02*
X57050000Y-25550000D01*
X57050000Y-25550000D02*
X57450000Y-25550000D01*
X57450000Y-24500000D02*
X57450000Y-29000000D01*
X53550000Y-29000000D02*
X53550000Y-24500000D01*
X1000000Y-18550000D02*
X1000000Y-18950000D01*
X1000000Y-22450000D02*
X1000000Y-22050000D01*
X5500000Y-22450000D02*
X5500000Y-22050000D01*
X5500000Y-18550000D02*
X5500000Y-18950000D01*
X1900000Y-22450000D02*
X1900000Y-22050000D01*
X1900000Y-22050000D02*
X2050000Y-22050000D01*
X2050000Y-22050000D02*
X2050000Y-22450000D01*
X1900000Y-18550000D02*
X1900000Y-18950000D01*
X1900000Y-18950000D02*
X2050000Y-18950000D01*
X2050000Y-18950000D02*
X2050000Y-18550000D01*
X1000000Y-18550000D02*
X5500000Y-18550000D01*
X5500000Y-22450000D02*
X1000000Y-22450000D01*
X50025000Y-28000000D02*
X50025000Y-26000000D01*
X47975000Y-26000000D02*
X47975000Y-28000000D01*
X30225000Y-15000000D02*
X30225000Y-17000000D01*
X32275000Y-17000000D02*
X32275000Y-15000000D01*
X29725000Y-22750000D02*
X29725000Y-24750000D01*
X31775000Y-24750000D02*
X31775000Y-22750000D01*
X32725000Y-22750000D02*
X32725000Y-24750000D01*
X34775000Y-24750000D02*
X34775000Y-22750000D01*
X35650000Y-23350000D02*
X35650000Y-22650000D01*
X36850000Y-22650000D02*
X36850000Y-23350000D01*
X52775000Y-28000000D02*
X52775000Y-26000000D01*
X50725000Y-26000000D02*
X50725000Y-28000000D01*
X40350000Y-21700000D02*
X38450000Y-21700000D01*
X40350000Y-22800000D02*
X38450000Y-22800000D01*
X39450000Y-22250000D02*
X39000000Y-22250000D01*
X39500000Y-22500000D02*
X39500000Y-22000000D01*
X39500000Y-22250000D02*
X39250000Y-22500000D01*
X39250000Y-22500000D02*
X39250000Y-22000000D01*
X39250000Y-22000000D02*
X39500000Y-22250000D01*
X43250000Y-22925000D02*
X42250000Y-22925000D01*
X42250000Y-21575000D02*
X43250000Y-21575000D01*
X47000000Y-8250000D02*
X47750000Y-8250000D01*
X48000000Y-8500000D02*
X47000000Y-8500000D01*
X48000000Y-7250000D02*
X48000000Y-8500000D01*
X57000000Y-7250000D02*
X48000000Y-7250000D01*
X57000000Y-8500000D02*
X57000000Y-7250000D01*
X58000000Y-8500000D02*
X57000000Y-8500000D01*
X57000000Y-19000000D02*
X58000000Y-19000000D01*
X57000000Y-20250000D02*
X57000000Y-19000000D01*
X48000000Y-20250000D02*
X57000000Y-20250000D01*
X48000000Y-19000000D02*
X48000000Y-20250000D01*
X47000000Y-19000000D02*
X48000000Y-19000000D01*
X3734000Y-16310000D02*
X5766000Y-16310000D01*
X6147000Y-16183000D02*
X3353000Y-16183000D01*
X3099000Y-16056000D02*
X6401000Y-16056000D01*
X6655000Y-15929000D02*
X2845000Y-15929000D01*
X6782000Y-15802000D02*
X2718000Y-15802000D01*
X2464000Y-15675000D02*
X7036000Y-15675000D01*
X559000Y-16691000D02*
X8941000Y-16691000D01*
X8941000Y-16691000D02*
X8941000Y-9071000D01*
X8941000Y-9071000D02*
X8179000Y-8309000D01*
X8179000Y-8309000D02*
X1321000Y-8309000D01*
X1321000Y-8309000D02*
X559000Y-9071000D01*
X559000Y-9071000D02*
X559000Y-16691000D01*
X4750000Y-8817000D02*
X4750000Y-9579000D01*
X4369000Y-9198000D02*
X5131000Y-9198000D01*
X8687000Y-12500000D02*
G75*
G03X8687000Y-12500000I-3937000J0D01*
G01*
X14300000Y-13275000D02*
X10700000Y-13275000D01*
X10700000Y-16725000D02*
X14300000Y-16725000D01*
X21781248Y-18450000D02*
G75*
G03X21781248Y-18450000I-361248J0D01*
G01*
X8870000Y-29540000D02*
X23630000Y-29510000D01*
X23630000Y-29510000D02*
X23630000Y-17490000D01*
X23630000Y-17490000D02*
X8870000Y-17490000D01*
X8870000Y-17490000D02*
X8870000Y-29540000D01*
X57900000Y-960000D02*
X57900000Y-6040000D01*
X6820000Y-4770000D02*
X6820000Y-7310000D01*
X7100000Y-960000D02*
X7100000Y-7310000D01*
X80962547Y-5406507D02*
X80962547Y-5906507D01*
X80929213Y-6006507D01*
X80862547Y-6073173D01*
X80762547Y-6106507D01*
X80695880Y-6106507D01*
X81662546Y-6106507D02*
X81262546Y-6106507D01*
X81462546Y-6106507D02*
X81462546Y-5406507D01*
X81395880Y-5506507D01*
X81329213Y-5573173D01*
X81262546Y-5606507D01*
X34666667Y-6733333D02*
X34666667Y-7066667D01*
X34433334Y-6366667D02*
X34666667Y-6733333D01*
X34900000Y-6366667D01*
X35500000Y-7066667D02*
X35100000Y-7066667D01*
X35300000Y-7066667D02*
X35300000Y-6366667D01*
X35233334Y-6466667D01*
X35166667Y-6533333D01*
X35100000Y-6566667D01*
X15716667Y-16616667D02*
X15716667Y-17183333D01*
X15750000Y-17250000D01*
X15783333Y-17283333D01*
X15850000Y-17316667D01*
X15983333Y-17316667D01*
X16050000Y-17283333D01*
X16083333Y-17250000D01*
X16116667Y-17183333D01*
X16116667Y-16616667D01*
X16416666Y-16683333D02*
X16450000Y-16650000D01*
X16516666Y-16616667D01*
X16683333Y-16616667D01*
X16750000Y-16650000D01*
X16783333Y-16683333D01*
X16816666Y-16750000D01*
X16816666Y-16816667D01*
X16783333Y-16916667D01*
X16383333Y-17316667D01*
X16816666Y-17316667D01*
X55383334Y-21250000D02*
X55350000Y-21283333D01*
X55250000Y-21316667D01*
X55183334Y-21316667D01*
X55083334Y-21283333D01*
X55016667Y-21216667D01*
X54983334Y-21150000D01*
X54950000Y-21016667D01*
X54950000Y-20916667D01*
X54983334Y-20783333D01*
X55016667Y-20716667D01*
X55083334Y-20650000D01*
X55183334Y-20616667D01*
X55250000Y-20616667D01*
X55350000Y-20650000D01*
X55383334Y-20683333D01*
X56050000Y-21316667D02*
X55650000Y-21316667D01*
X55850000Y-21316667D02*
X55850000Y-20616667D01*
X55783334Y-20716667D01*
X55716667Y-20783333D01*
X55650000Y-20816667D01*
X42750000Y-8116666D02*
X42783333Y-8150000D01*
X42816667Y-8250000D01*
X42816667Y-8316666D01*
X42783333Y-8416666D01*
X42716667Y-8483333D01*
X42650000Y-8516666D01*
X42516667Y-8550000D01*
X42416667Y-8550000D01*
X42283333Y-8516666D01*
X42216667Y-8483333D01*
X42150000Y-8416666D01*
X42116667Y-8316666D01*
X42116667Y-8250000D01*
X42150000Y-8150000D01*
X42183333Y-8116666D01*
X42183333Y-7850000D02*
X42150000Y-7816666D01*
X42116667Y-7750000D01*
X42116667Y-7583333D01*
X42150000Y-7516666D01*
X42183333Y-7483333D01*
X42250000Y-7450000D01*
X42316667Y-7450000D01*
X42416667Y-7483333D01*
X42816667Y-7883333D01*
X42816667Y-7450000D01*
X33250000Y-8116666D02*
X33283333Y-8150000D01*
X33316667Y-8250000D01*
X33316667Y-8316666D01*
X33283333Y-8416666D01*
X33216667Y-8483333D01*
X33150000Y-8516666D01*
X33016667Y-8550000D01*
X32916667Y-8550000D01*
X32783333Y-8516666D01*
X32716667Y-8483333D01*
X32650000Y-8416666D01*
X32616667Y-8316666D01*
X32616667Y-8250000D01*
X32650000Y-8150000D01*
X32683333Y-8116666D01*
X32616667Y-7883333D02*
X32616667Y-7450000D01*
X32883333Y-7683333D01*
X32883333Y-7583333D01*
X32916667Y-7516666D01*
X32950000Y-7483333D01*
X33016667Y-7450000D01*
X33183333Y-7450000D01*
X33250000Y-7483333D01*
X33283333Y-7516666D01*
X33316667Y-7583333D01*
X33316667Y-7783333D01*
X33283333Y-7850000D01*
X33250000Y-7883333D01*
X27633334Y-21250000D02*
X27600000Y-21283333D01*
X27500000Y-21316667D01*
X27433334Y-21316667D01*
X27333334Y-21283333D01*
X27266667Y-21216667D01*
X27233334Y-21150000D01*
X27200000Y-21016667D01*
X27200000Y-20916667D01*
X27233334Y-20783333D01*
X27266667Y-20716667D01*
X27333334Y-20650000D01*
X27433334Y-20616667D01*
X27500000Y-20616667D01*
X27600000Y-20650000D01*
X27633334Y-20683333D01*
X28266667Y-20616667D02*
X27933334Y-20616667D01*
X27900000Y-20950000D01*
X27933334Y-20916667D01*
X28000000Y-20883333D01*
X28166667Y-20883333D01*
X28233334Y-20916667D01*
X28266667Y-20950000D01*
X28300000Y-21016667D01*
X28300000Y-21183333D01*
X28266667Y-21250000D01*
X28233334Y-21283333D01*
X28166667Y-21316667D01*
X28000000Y-21316667D01*
X27933334Y-21283333D01*
X27900000Y-21250000D01*
X42133334Y-16000000D02*
X42100000Y-16033333D01*
X42000000Y-16066667D01*
X41933334Y-16066667D01*
X41833334Y-16033333D01*
X41766667Y-15966667D01*
X41733334Y-15900000D01*
X41700000Y-15766667D01*
X41700000Y-15666667D01*
X41733334Y-15533333D01*
X41766667Y-15466667D01*
X41833334Y-15400000D01*
X41933334Y-15366667D01*
X42000000Y-15366667D01*
X42100000Y-15400000D01*
X42133334Y-15433333D01*
X42366667Y-15366667D02*
X42833334Y-15366667D01*
X42533334Y-16066667D01*
X42750000Y-10116666D02*
X42783333Y-10150000D01*
X42816667Y-10250000D01*
X42816667Y-10316666D01*
X42783333Y-10416666D01*
X42716667Y-10483333D01*
X42650000Y-10516666D01*
X42516667Y-10550000D01*
X42416667Y-10550000D01*
X42283333Y-10516666D01*
X42216667Y-10483333D01*
X42150000Y-10416666D01*
X42116667Y-10316666D01*
X42116667Y-10250000D01*
X42150000Y-10150000D01*
X42183333Y-10116666D01*
X42416667Y-9716666D02*
X42383333Y-9783333D01*
X42350000Y-9816666D01*
X42283333Y-9850000D01*
X42250000Y-9850000D01*
X42183333Y-9816666D01*
X42150000Y-9783333D01*
X42116667Y-9716666D01*
X42116667Y-9583333D01*
X42150000Y-9516666D01*
X42183333Y-9483333D01*
X42250000Y-9450000D01*
X42283333Y-9450000D01*
X42350000Y-9483333D01*
X42383333Y-9516666D01*
X42416667Y-9583333D01*
X42416667Y-9716666D01*
X42450000Y-9783333D01*
X42483333Y-9816666D01*
X42550000Y-9850000D01*
X42683333Y-9850000D01*
X42750000Y-9816666D01*
X42783333Y-9783333D01*
X42816667Y-9716666D01*
X42816667Y-9583333D01*
X42783333Y-9516666D01*
X42750000Y-9483333D01*
X42683333Y-9450000D01*
X42550000Y-9450000D01*
X42483333Y-9483333D01*
X42450000Y-9516666D01*
X42416667Y-9583333D01*
X33250000Y-10116666D02*
X33283333Y-10150000D01*
X33316667Y-10250000D01*
X33316667Y-10316666D01*
X33283333Y-10416666D01*
X33216667Y-10483333D01*
X33150000Y-10516666D01*
X33016667Y-10550000D01*
X32916667Y-10550000D01*
X32783333Y-10516666D01*
X32716667Y-10483333D01*
X32650000Y-10416666D01*
X32616667Y-10316666D01*
X32616667Y-10250000D01*
X32650000Y-10150000D01*
X32683333Y-10116666D01*
X33316667Y-9783333D02*
X33316667Y-9650000D01*
X33283333Y-9583333D01*
X33250000Y-9550000D01*
X33150000Y-9483333D01*
X33016667Y-9450000D01*
X32750000Y-9450000D01*
X32683333Y-9483333D01*
X32650000Y-9516666D01*
X32616667Y-9583333D01*
X32616667Y-9716666D01*
X32650000Y-9783333D01*
X32683333Y-9816666D01*
X32750000Y-9850000D01*
X32916667Y-9850000D01*
X32983333Y-9816666D01*
X33016667Y-9783333D01*
X33050000Y-9716666D01*
X33050000Y-9583333D01*
X33016667Y-9516666D01*
X32983333Y-9483333D01*
X32916667Y-9450000D01*
X30800000Y-13500000D02*
X30766666Y-13533333D01*
X30666666Y-13566667D01*
X30600000Y-13566667D01*
X30500000Y-13533333D01*
X30433333Y-13466667D01*
X30400000Y-13400000D01*
X30366666Y-13266667D01*
X30366666Y-13166667D01*
X30400000Y-13033333D01*
X30433333Y-12966667D01*
X30500000Y-12900000D01*
X30600000Y-12866667D01*
X30666666Y-12866667D01*
X30766666Y-12900000D01*
X30800000Y-12933333D01*
X31466666Y-13566667D02*
X31066666Y-13566667D01*
X31266666Y-13566667D02*
X31266666Y-12866667D01*
X31200000Y-12966667D01*
X31133333Y-13033333D01*
X31066666Y-13066667D01*
X31900000Y-12866667D02*
X31966667Y-12866667D01*
X32033333Y-12900000D01*
X32066667Y-12933333D01*
X32100000Y-13000000D01*
X32133333Y-13133333D01*
X32133333Y-13300000D01*
X32100000Y-13433333D01*
X32066667Y-13500000D01*
X32033333Y-13533333D01*
X31966667Y-13566667D01*
X31900000Y-13566667D01*
X31833333Y-13533333D01*
X31800000Y-13500000D01*
X31766667Y-13433333D01*
X31733333Y-13300000D01*
X31733333Y-13133333D01*
X31766667Y-13000000D01*
X31800000Y-12933333D01*
X31833333Y-12900000D01*
X31900000Y-12866667D01*
X24550000Y-17500000D02*
X24516666Y-17533333D01*
X24416666Y-17566667D01*
X24350000Y-17566667D01*
X24250000Y-17533333D01*
X24183333Y-17466667D01*
X24150000Y-17400000D01*
X24116666Y-17266667D01*
X24116666Y-17166667D01*
X24150000Y-17033333D01*
X24183333Y-16966667D01*
X24250000Y-16900000D01*
X24350000Y-16866667D01*
X24416666Y-16866667D01*
X24516666Y-16900000D01*
X24550000Y-16933333D01*
X25216666Y-17566667D02*
X24816666Y-17566667D01*
X25016666Y-17566667D02*
X25016666Y-16866667D01*
X24950000Y-16966667D01*
X24883333Y-17033333D01*
X24816666Y-17066667D01*
X25816667Y-17100000D02*
X25816667Y-17566667D01*
X25650000Y-16833333D02*
X25483333Y-17333333D01*
X25916667Y-17333333D01*
X9800000Y-13000000D02*
X9766666Y-13033333D01*
X9666666Y-13066667D01*
X9600000Y-13066667D01*
X9500000Y-13033333D01*
X9433333Y-12966667D01*
X9400000Y-12900000D01*
X9366666Y-12766667D01*
X9366666Y-12666667D01*
X9400000Y-12533333D01*
X9433333Y-12466667D01*
X9500000Y-12400000D01*
X9600000Y-12366667D01*
X9666666Y-12366667D01*
X9766666Y-12400000D01*
X9800000Y-12433333D01*
X10466666Y-13066667D02*
X10066666Y-13066667D01*
X10266666Y-13066667D02*
X10266666Y-12366667D01*
X10200000Y-12466667D01*
X10133333Y-12533333D01*
X10066666Y-12566667D01*
X11100000Y-12366667D02*
X10766667Y-12366667D01*
X10733333Y-12700000D01*
X10766667Y-12666667D01*
X10833333Y-12633333D01*
X11000000Y-12633333D01*
X11066667Y-12666667D01*
X11100000Y-12700000D01*
X11133333Y-12766667D01*
X11133333Y-12933333D01*
X11100000Y-13000000D01*
X11066667Y-13033333D01*
X11000000Y-13066667D01*
X10833333Y-13066667D01*
X10766667Y-13033333D01*
X10733333Y-13000000D01*
X14300000Y-13000000D02*
X14266666Y-13033333D01*
X14166666Y-13066667D01*
X14100000Y-13066667D01*
X14000000Y-13033333D01*
X13933333Y-12966667D01*
X13900000Y-12900000D01*
X13866666Y-12766667D01*
X13866666Y-12666667D01*
X13900000Y-12533333D01*
X13933333Y-12466667D01*
X14000000Y-12400000D01*
X14100000Y-12366667D01*
X14166666Y-12366667D01*
X14266666Y-12400000D01*
X14300000Y-12433333D01*
X14966666Y-13066667D02*
X14566666Y-13066667D01*
X14766666Y-13066667D02*
X14766666Y-12366667D01*
X14700000Y-12466667D01*
X14633333Y-12533333D01*
X14566666Y-12566667D01*
X15566667Y-12366667D02*
X15433333Y-12366667D01*
X15366667Y-12400000D01*
X15333333Y-12433333D01*
X15266667Y-12533333D01*
X15233333Y-12666667D01*
X15233333Y-12933333D01*
X15266667Y-13000000D01*
X15300000Y-13033333D01*
X15366667Y-13066667D01*
X15500000Y-13066667D01*
X15566667Y-13033333D01*
X15600000Y-13000000D01*
X15633333Y-12933333D01*
X15633333Y-12766667D01*
X15600000Y-12700000D01*
X15566667Y-12666667D01*
X15500000Y-12633333D01*
X15366667Y-12633333D01*
X15300000Y-12666667D01*
X15266667Y-12700000D01*
X15233333Y-12766667D01*
X43550000Y-11000000D02*
X43516666Y-11033333D01*
X43416666Y-11066667D01*
X43350000Y-11066667D01*
X43250000Y-11033333D01*
X43183333Y-10966667D01*
X43150000Y-10900000D01*
X43116666Y-10766667D01*
X43116666Y-10666667D01*
X43150000Y-10533333D01*
X43183333Y-10466667D01*
X43250000Y-10400000D01*
X43350000Y-10366667D01*
X43416666Y-10366667D01*
X43516666Y-10400000D01*
X43550000Y-10433333D01*
X44216666Y-11066667D02*
X43816666Y-11066667D01*
X44016666Y-11066667D02*
X44016666Y-10366667D01*
X43950000Y-10466667D01*
X43883333Y-10533333D01*
X43816666Y-10566667D01*
X44616667Y-10666667D02*
X44550000Y-10633333D01*
X44516667Y-10600000D01*
X44483333Y-10533333D01*
X44483333Y-10500000D01*
X44516667Y-10433333D01*
X44550000Y-10400000D01*
X44616667Y-10366667D01*
X44750000Y-10366667D01*
X44816667Y-10400000D01*
X44850000Y-10433333D01*
X44883333Y-10500000D01*
X44883333Y-10533333D01*
X44850000Y-10600000D01*
X44816667Y-10633333D01*
X44750000Y-10666667D01*
X44616667Y-10666667D01*
X44550000Y-10700000D01*
X44516667Y-10733333D01*
X44483333Y-10800000D01*
X44483333Y-10933333D01*
X44516667Y-11000000D01*
X44550000Y-11033333D01*
X44616667Y-11066667D01*
X44750000Y-11066667D01*
X44816667Y-11033333D01*
X44850000Y-11000000D01*
X44883333Y-10933333D01*
X44883333Y-10800000D01*
X44850000Y-10733333D01*
X44816667Y-10700000D01*
X44750000Y-10666667D01*
X29750000Y-8450000D02*
X29783333Y-8483334D01*
X29816667Y-8583334D01*
X29816667Y-8650000D01*
X29783333Y-8750000D01*
X29716667Y-8816667D01*
X29650000Y-8850000D01*
X29516667Y-8883334D01*
X29416667Y-8883334D01*
X29283333Y-8850000D01*
X29216667Y-8816667D01*
X29150000Y-8750000D01*
X29116667Y-8650000D01*
X29116667Y-8583334D01*
X29150000Y-8483334D01*
X29183333Y-8450000D01*
X29816667Y-7783334D02*
X29816667Y-8183334D01*
X29816667Y-7983334D02*
X29116667Y-7983334D01*
X29216667Y-8050000D01*
X29283333Y-8116667D01*
X29316667Y-8183334D01*
X29816667Y-7450000D02*
X29816667Y-7316667D01*
X29783333Y-7250000D01*
X29750000Y-7216667D01*
X29650000Y-7150000D01*
X29516667Y-7116667D01*
X29250000Y-7116667D01*
X29183333Y-7150000D01*
X29150000Y-7183333D01*
X29116667Y-7250000D01*
X29116667Y-7383333D01*
X29150000Y-7450000D01*
X29183333Y-7483333D01*
X29250000Y-7516667D01*
X29416667Y-7516667D01*
X29483333Y-7483333D01*
X29516667Y-7450000D01*
X29550000Y-7383333D01*
X29550000Y-7250000D01*
X29516667Y-7183333D01*
X29483333Y-7150000D01*
X29416667Y-7116667D01*
X29750000Y-13950000D02*
X29783333Y-13983334D01*
X29816667Y-14083334D01*
X29816667Y-14150000D01*
X29783333Y-14250000D01*
X29716667Y-14316667D01*
X29650000Y-14350000D01*
X29516667Y-14383334D01*
X29416667Y-14383334D01*
X29283333Y-14350000D01*
X29216667Y-14316667D01*
X29150000Y-14250000D01*
X29116667Y-14150000D01*
X29116667Y-14083334D01*
X29150000Y-13983334D01*
X29183333Y-13950000D01*
X29183333Y-13683334D02*
X29150000Y-13650000D01*
X29116667Y-13583334D01*
X29116667Y-13416667D01*
X29150000Y-13350000D01*
X29183333Y-13316667D01*
X29250000Y-13283334D01*
X29316667Y-13283334D01*
X29416667Y-13316667D01*
X29816667Y-13716667D01*
X29816667Y-13283334D01*
X29116667Y-12850000D02*
X29116667Y-12783333D01*
X29150000Y-12716667D01*
X29183333Y-12683333D01*
X29250000Y-12650000D01*
X29383333Y-12616667D01*
X29550000Y-12616667D01*
X29683333Y-12650000D01*
X29750000Y-12683333D01*
X29783333Y-12716667D01*
X29816667Y-12783333D01*
X29816667Y-12850000D01*
X29783333Y-12916667D01*
X29750000Y-12950000D01*
X29683333Y-12983333D01*
X29550000Y-13016667D01*
X29383333Y-13016667D01*
X29250000Y-12983333D01*
X29183333Y-12950000D01*
X29150000Y-12916667D01*
X29116667Y-12850000D01*
X44800000Y-16000000D02*
X44766666Y-16033333D01*
X44666666Y-16066667D01*
X44600000Y-16066667D01*
X44500000Y-16033333D01*
X44433333Y-15966667D01*
X44400000Y-15900000D01*
X44366666Y-15766667D01*
X44366666Y-15666667D01*
X44400000Y-15533333D01*
X44433333Y-15466667D01*
X44500000Y-15400000D01*
X44600000Y-15366667D01*
X44666666Y-15366667D01*
X44766666Y-15400000D01*
X44800000Y-15433333D01*
X45066666Y-15433333D02*
X45100000Y-15400000D01*
X45166666Y-15366667D01*
X45333333Y-15366667D01*
X45400000Y-15400000D01*
X45433333Y-15433333D01*
X45466666Y-15500000D01*
X45466666Y-15566667D01*
X45433333Y-15666667D01*
X45033333Y-16066667D01*
X45466666Y-16066667D01*
X46133333Y-16066667D02*
X45733333Y-16066667D01*
X45933333Y-16066667D02*
X45933333Y-15366667D01*
X45866667Y-15466667D01*
X45800000Y-15533333D01*
X45733333Y-15566667D01*
X61483334Y-7616267D02*
X61483334Y-6916267D01*
X61650000Y-6916267D01*
X61750000Y-6949600D01*
X61816667Y-7016267D01*
X61850000Y-7082933D01*
X61883334Y-7216267D01*
X61883334Y-7316267D01*
X61850000Y-7449600D01*
X61816667Y-7516267D01*
X61750000Y-7582933D01*
X61650000Y-7616267D01*
X61483334Y-7616267D01*
X62550000Y-7616267D02*
X62150000Y-7616267D01*
X62350000Y-7616267D02*
X62350000Y-6916267D01*
X62283334Y-7016267D01*
X62216667Y-7082933D01*
X62150000Y-7116267D01*
X60516667Y-13450000D02*
X60616667Y-13483333D01*
X60650000Y-13516667D01*
X60683334Y-13583333D01*
X60683334Y-13683333D01*
X60650000Y-13750000D01*
X60616667Y-13783333D01*
X60550000Y-13816667D01*
X60283334Y-13816667D01*
X60283334Y-13116667D01*
X60516667Y-13116667D01*
X60583334Y-13150000D01*
X60616667Y-13183333D01*
X60650000Y-13250000D01*
X60650000Y-13316667D01*
X60616667Y-13383333D01*
X60583334Y-13416667D01*
X60516667Y-13450000D01*
X60283334Y-13450000D01*
X61383334Y-13816667D02*
X61150000Y-13483333D01*
X60983334Y-13816667D02*
X60983334Y-13116667D01*
X61250000Y-13116667D01*
X61316667Y-13150000D01*
X61350000Y-13183333D01*
X61383334Y-13250000D01*
X61383334Y-13350000D01*
X61350000Y-13416667D01*
X61316667Y-13450000D01*
X61250000Y-13483333D01*
X60983334Y-13483333D01*
X61683334Y-13816667D02*
X61683334Y-13116667D01*
X62016667Y-13816667D02*
X62016667Y-13116667D01*
X62183333Y-13116667D01*
X62283333Y-13150000D01*
X62350000Y-13216667D01*
X62383333Y-13283333D01*
X62416667Y-13416667D01*
X62416667Y-13516667D01*
X62383333Y-13650000D01*
X62350000Y-13716667D01*
X62283333Y-13783333D01*
X62183333Y-13816667D01*
X62016667Y-13816667D01*
X63083333Y-13150000D02*
X63016667Y-13116667D01*
X62916667Y-13116667D01*
X62816667Y-13150000D01*
X62750000Y-13216667D01*
X62716667Y-13283333D01*
X62683333Y-13416667D01*
X62683333Y-13516667D01*
X62716667Y-13650000D01*
X62750000Y-13716667D01*
X62816667Y-13783333D01*
X62916667Y-13816667D01*
X62983333Y-13816667D01*
X63083333Y-13783333D01*
X63116667Y-13750000D01*
X63116667Y-13516667D01*
X62983333Y-13516667D01*
X63416667Y-13450000D02*
X63650000Y-13450000D01*
X63750000Y-13816667D02*
X63416667Y-13816667D01*
X63416667Y-13116667D01*
X63750000Y-13116667D01*
X61483334Y-22517067D02*
X61483334Y-21817067D01*
X61650000Y-21817067D01*
X61750000Y-21850400D01*
X61816667Y-21917067D01*
X61850000Y-21983733D01*
X61883334Y-22117067D01*
X61883334Y-22217067D01*
X61850000Y-22350400D01*
X61816667Y-22417067D01*
X61750000Y-22483733D01*
X61650000Y-22517067D01*
X61483334Y-22517067D01*
X62150000Y-21883733D02*
X62183334Y-21850400D01*
X62250000Y-21817067D01*
X62416667Y-21817067D01*
X62483334Y-21850400D01*
X62516667Y-21883733D01*
X62550000Y-21950400D01*
X62550000Y-22017067D01*
X62516667Y-22117067D01*
X62116667Y-22517067D01*
X62550000Y-22517067D01*
X60516667Y-15950000D02*
X60616667Y-15983333D01*
X60650000Y-16016667D01*
X60683334Y-16083333D01*
X60683334Y-16183333D01*
X60650000Y-16250000D01*
X60616667Y-16283333D01*
X60550000Y-16316667D01*
X60283334Y-16316667D01*
X60283334Y-15616667D01*
X60516667Y-15616667D01*
X60583334Y-15650000D01*
X60616667Y-15683333D01*
X60650000Y-15750000D01*
X60650000Y-15816667D01*
X60616667Y-15883333D01*
X60583334Y-15916667D01*
X60516667Y-15950000D01*
X60283334Y-15950000D01*
X61383334Y-16316667D02*
X61150000Y-15983333D01*
X60983334Y-16316667D02*
X60983334Y-15616667D01*
X61250000Y-15616667D01*
X61316667Y-15650000D01*
X61350000Y-15683333D01*
X61383334Y-15750000D01*
X61383334Y-15850000D01*
X61350000Y-15916667D01*
X61316667Y-15950000D01*
X61250000Y-15983333D01*
X60983334Y-15983333D01*
X61683334Y-16316667D02*
X61683334Y-15616667D01*
X62016667Y-16316667D02*
X62016667Y-15616667D01*
X62183333Y-15616667D01*
X62283333Y-15650000D01*
X62350000Y-15716667D01*
X62383333Y-15783333D01*
X62416667Y-15916667D01*
X62416667Y-16016667D01*
X62383333Y-16150000D01*
X62350000Y-16216667D01*
X62283333Y-16283333D01*
X62183333Y-16316667D01*
X62016667Y-16316667D01*
X63083333Y-15650000D02*
X63016667Y-15616667D01*
X62916667Y-15616667D01*
X62816667Y-15650000D01*
X62750000Y-15716667D01*
X62716667Y-15783333D01*
X62683333Y-15916667D01*
X62683333Y-16016667D01*
X62716667Y-16150000D01*
X62750000Y-16216667D01*
X62816667Y-16283333D01*
X62916667Y-16316667D01*
X62983333Y-16316667D01*
X63083333Y-16283333D01*
X63116667Y-16250000D01*
X63116667Y-16016667D01*
X62983333Y-16016667D01*
X63416667Y-15950000D02*
X63650000Y-15950000D01*
X63750000Y-16316667D02*
X63416667Y-16316667D01*
X63416667Y-15616667D01*
X63750000Y-15616667D01*
X45733334Y-28365627D02*
X45733334Y-27665627D01*
X45900000Y-27665627D01*
X46000000Y-27698960D01*
X46066667Y-27765627D01*
X46100000Y-27832293D01*
X46133334Y-27965627D01*
X46133334Y-28065627D01*
X46100000Y-28198960D01*
X46066667Y-28265627D01*
X46000000Y-28332293D01*
X45900000Y-28365627D01*
X45733334Y-28365627D01*
X46733334Y-27898960D02*
X46733334Y-28365627D01*
X46566667Y-27632293D02*
X46400000Y-28132293D01*
X46833334Y-28132293D01*
X9483334Y-10816667D02*
X9483334Y-10116667D01*
X9650000Y-10116667D01*
X9750000Y-10150000D01*
X9816667Y-10216667D01*
X9850000Y-10283333D01*
X9883334Y-10416667D01*
X9883334Y-10516667D01*
X9850000Y-10650000D01*
X9816667Y-10716667D01*
X9750000Y-10783333D01*
X9650000Y-10816667D01*
X9483334Y-10816667D01*
X10483334Y-10116667D02*
X10350000Y-10116667D01*
X10283334Y-10150000D01*
X10250000Y-10183333D01*
X10183334Y-10283333D01*
X10150000Y-10416667D01*
X10150000Y-10683333D01*
X10183334Y-10750000D01*
X10216667Y-10783333D01*
X10283334Y-10816667D01*
X10416667Y-10816667D01*
X10483334Y-10783333D01*
X10516667Y-10750000D01*
X10550000Y-10683333D01*
X10550000Y-10516667D01*
X10516667Y-10450000D01*
X10483334Y-10416667D01*
X10416667Y-10383333D01*
X10283334Y-10383333D01*
X10216667Y-10416667D01*
X10183334Y-10450000D01*
X10150000Y-10516667D01*
X29816667Y-16016666D02*
X29116667Y-16016666D01*
X29116667Y-15850000D01*
X29150000Y-15750000D01*
X29216667Y-15683333D01*
X29283333Y-15650000D01*
X29416667Y-15616666D01*
X29516667Y-15616666D01*
X29650000Y-15650000D01*
X29716667Y-15683333D01*
X29783333Y-15750000D01*
X29816667Y-15850000D01*
X29816667Y-16016666D01*
X29116667Y-15383333D02*
X29116667Y-14916666D01*
X29816667Y-15216666D01*
X33316667Y-19066667D02*
X33316667Y-18366667D01*
X34050000Y-19000000D02*
X34016666Y-19033333D01*
X33916666Y-19066667D01*
X33850000Y-19066667D01*
X33750000Y-19033333D01*
X33683333Y-18966667D01*
X33650000Y-18900000D01*
X33616666Y-18766667D01*
X33616666Y-18666667D01*
X33650000Y-18533333D01*
X33683333Y-18466667D01*
X33750000Y-18400000D01*
X33850000Y-18366667D01*
X33916666Y-18366667D01*
X34016666Y-18400000D01*
X34050000Y-18433333D01*
X34716666Y-19066667D02*
X34316666Y-19066667D01*
X34516666Y-19066667D02*
X34516666Y-18366667D01*
X34450000Y-18466667D01*
X34383333Y-18533333D01*
X34316666Y-18566667D01*
X50383333Y-21316667D02*
X50050000Y-21316667D01*
X50050000Y-20616667D01*
X50983333Y-21316667D02*
X50583333Y-21316667D01*
X50783333Y-21316667D02*
X50783333Y-20616667D01*
X50716667Y-20716667D01*
X50650000Y-20783333D01*
X50583333Y-20816667D01*
X45633333Y-11066667D02*
X45300000Y-11066667D01*
X45300000Y-10366667D01*
X45833333Y-10433333D02*
X45866667Y-10400000D01*
X45933333Y-10366667D01*
X46100000Y-10366667D01*
X46166667Y-10400000D01*
X46200000Y-10433333D01*
X46233333Y-10500000D01*
X46233333Y-10566667D01*
X46200000Y-10666667D01*
X45800000Y-11066667D01*
X46233333Y-11066667D01*
X27433333Y-29883333D02*
X27366667Y-29850000D01*
X27300000Y-29783333D01*
X27200000Y-29683333D01*
X27133333Y-29650000D01*
X27066667Y-29650000D01*
X27100000Y-29816667D02*
X27033333Y-29783333D01*
X26966667Y-29716667D01*
X26933333Y-29583333D01*
X26933333Y-29350000D01*
X26966667Y-29216667D01*
X27033333Y-29150000D01*
X27100000Y-29116667D01*
X27233333Y-29116667D01*
X27300000Y-29150000D01*
X27366667Y-29216667D01*
X27400000Y-29350000D01*
X27400000Y-29583333D01*
X27366667Y-29716667D01*
X27300000Y-29783333D01*
X27233333Y-29816667D01*
X27100000Y-29816667D01*
X28066666Y-29816667D02*
X27666666Y-29816667D01*
X27866666Y-29816667D02*
X27866666Y-29116667D01*
X27800000Y-29216667D01*
X27733333Y-29283333D01*
X27666666Y-29316667D01*
X15683333Y-10883333D02*
X15616667Y-10850000D01*
X15550000Y-10783333D01*
X15450000Y-10683333D01*
X15383333Y-10650000D01*
X15316667Y-10650000D01*
X15350000Y-10816667D02*
X15283333Y-10783333D01*
X15216667Y-10716667D01*
X15183333Y-10583333D01*
X15183333Y-10350000D01*
X15216667Y-10216667D01*
X15283333Y-10150000D01*
X15350000Y-10116667D01*
X15483333Y-10116667D01*
X15550000Y-10150000D01*
X15616667Y-10216667D01*
X15650000Y-10350000D01*
X15650000Y-10583333D01*
X15616667Y-10716667D01*
X15550000Y-10783333D01*
X15483333Y-10816667D01*
X15350000Y-10816667D01*
X15916666Y-10183333D02*
X15950000Y-10150000D01*
X16016666Y-10116667D01*
X16183333Y-10116667D01*
X16250000Y-10150000D01*
X16283333Y-10183333D01*
X16316666Y-10250000D01*
X16316666Y-10316667D01*
X16283333Y-10416667D01*
X15883333Y-10816667D01*
X16316666Y-10816667D01*
X18933333Y-10383333D02*
X18866667Y-10350000D01*
X18800000Y-10283333D01*
X18700000Y-10183333D01*
X18633333Y-10150000D01*
X18566667Y-10150000D01*
X18600000Y-10316667D02*
X18533333Y-10283333D01*
X18466667Y-10216667D01*
X18433333Y-10083333D01*
X18433333Y-9850000D01*
X18466667Y-9716667D01*
X18533333Y-9650000D01*
X18600000Y-9616667D01*
X18733333Y-9616667D01*
X18800000Y-9650000D01*
X18866667Y-9716667D01*
X18900000Y-9850000D01*
X18900000Y-10083333D01*
X18866667Y-10216667D01*
X18800000Y-10283333D01*
X18733333Y-10316667D01*
X18600000Y-10316667D01*
X19133333Y-9616667D02*
X19566666Y-9616667D01*
X19333333Y-9883333D01*
X19433333Y-9883333D01*
X19500000Y-9916667D01*
X19533333Y-9950000D01*
X19566666Y-10016667D01*
X19566666Y-10183333D01*
X19533333Y-10250000D01*
X19500000Y-10283333D01*
X19433333Y-10316667D01*
X19233333Y-10316667D01*
X19166666Y-10283333D01*
X19133333Y-10250000D01*
X46133334Y-23816667D02*
X45900000Y-23483333D01*
X45733334Y-23816667D02*
X45733334Y-23116667D01*
X46000000Y-23116667D01*
X46066667Y-23150000D01*
X46100000Y-23183333D01*
X46133334Y-23250000D01*
X46133334Y-23350000D01*
X46100000Y-23416667D01*
X46066667Y-23450000D01*
X46000000Y-23483333D01*
X45733334Y-23483333D01*
X46800000Y-23816667D02*
X46400000Y-23816667D01*
X46600000Y-23816667D02*
X46600000Y-23116667D01*
X46533334Y-23216667D01*
X46466667Y-23283333D01*
X46400000Y-23316667D01*
X46133334Y-21316667D02*
X45900000Y-20983333D01*
X45733334Y-21316667D02*
X45733334Y-20616667D01*
X46000000Y-20616667D01*
X46066667Y-20650000D01*
X46100000Y-20683333D01*
X46133334Y-20750000D01*
X46133334Y-20850000D01*
X46100000Y-20916667D01*
X46066667Y-20950000D01*
X46000000Y-20983333D01*
X45733334Y-20983333D01*
X46400000Y-20683333D02*
X46433334Y-20650000D01*
X46500000Y-20616667D01*
X46666667Y-20616667D01*
X46733334Y-20650000D01*
X46766667Y-20683333D01*
X46800000Y-20750000D01*
X46800000Y-20816667D01*
X46766667Y-20916667D01*
X46366667Y-21316667D01*
X46800000Y-21316667D01*
X45633334Y-19316667D02*
X45400000Y-18983333D01*
X45233334Y-19316667D02*
X45233334Y-18616667D01*
X45500000Y-18616667D01*
X45566667Y-18650000D01*
X45600000Y-18683333D01*
X45633334Y-18750000D01*
X45633334Y-18850000D01*
X45600000Y-18916667D01*
X45566667Y-18950000D01*
X45500000Y-18983333D01*
X45233334Y-18983333D01*
X45866667Y-18616667D02*
X46300000Y-18616667D01*
X46066667Y-18883333D01*
X46166667Y-18883333D01*
X46233334Y-18916667D01*
X46266667Y-18950000D01*
X46300000Y-19016667D01*
X46300000Y-19183333D01*
X46266667Y-19250000D01*
X46233334Y-19283333D01*
X46166667Y-19316667D01*
X45966667Y-19316667D01*
X45900000Y-19283333D01*
X45866667Y-19250000D01*
X36133334Y-29816667D02*
X35900000Y-29483333D01*
X35733334Y-29816667D02*
X35733334Y-29116667D01*
X36000000Y-29116667D01*
X36066667Y-29150000D01*
X36100000Y-29183333D01*
X36133334Y-29250000D01*
X36133334Y-29350000D01*
X36100000Y-29416667D01*
X36066667Y-29450000D01*
X36000000Y-29483333D01*
X35733334Y-29483333D01*
X36733334Y-29350000D02*
X36733334Y-29816667D01*
X36566667Y-29083333D02*
X36400000Y-29583333D01*
X36833334Y-29583333D01*
X32633334Y-29816667D02*
X32400000Y-29483333D01*
X32233334Y-29816667D02*
X32233334Y-29116667D01*
X32500000Y-29116667D01*
X32566667Y-29150000D01*
X32600000Y-29183333D01*
X32633334Y-29250000D01*
X32633334Y-29350000D01*
X32600000Y-29416667D01*
X32566667Y-29450000D01*
X32500000Y-29483333D01*
X32233334Y-29483333D01*
X33233334Y-29116667D02*
X33100000Y-29116667D01*
X33033334Y-29150000D01*
X33000000Y-29183333D01*
X32933334Y-29283333D01*
X32900000Y-29416667D01*
X32900000Y-29683333D01*
X32933334Y-29750000D01*
X32966667Y-29783333D01*
X33033334Y-29816667D01*
X33166667Y-29816667D01*
X33233334Y-29783333D01*
X33266667Y-29750000D01*
X33300000Y-29683333D01*
X33300000Y-29516667D01*
X33266667Y-29450000D01*
X33233334Y-29416667D01*
X33166667Y-29383333D01*
X33033334Y-29383333D01*
X32966667Y-29416667D01*
X32933334Y-29450000D01*
X32900000Y-29516667D01*
X46133334Y-26066667D02*
X45900000Y-25733333D01*
X45733334Y-26066667D02*
X45733334Y-25366667D01*
X46000000Y-25366667D01*
X46066667Y-25400000D01*
X46100000Y-25433333D01*
X46133334Y-25500000D01*
X46133334Y-25600000D01*
X46100000Y-25666667D01*
X46066667Y-25700000D01*
X46000000Y-25733333D01*
X45733334Y-25733333D01*
X46366667Y-25366667D02*
X46833334Y-25366667D01*
X46533334Y-26066667D01*
X45633334Y-14066667D02*
X45400000Y-13733333D01*
X45233334Y-14066667D02*
X45233334Y-13366667D01*
X45500000Y-13366667D01*
X45566667Y-13400000D01*
X45600000Y-13433333D01*
X45633334Y-13500000D01*
X45633334Y-13600000D01*
X45600000Y-13666667D01*
X45566667Y-13700000D01*
X45500000Y-13733333D01*
X45233334Y-13733333D01*
X46033334Y-13666667D02*
X45966667Y-13633333D01*
X45933334Y-13600000D01*
X45900000Y-13533333D01*
X45900000Y-13500000D01*
X45933334Y-13433333D01*
X45966667Y-13400000D01*
X46033334Y-13366667D01*
X46166667Y-13366667D01*
X46233334Y-13400000D01*
X46266667Y-13433333D01*
X46300000Y-13500000D01*
X46300000Y-13533333D01*
X46266667Y-13600000D01*
X46233334Y-13633333D01*
X46166667Y-13666667D01*
X46033334Y-13666667D01*
X45966667Y-13700000D01*
X45933334Y-13733333D01*
X45900000Y-13800000D01*
X45900000Y-13933333D01*
X45933334Y-14000000D01*
X45966667Y-14033333D01*
X46033334Y-14066667D01*
X46166667Y-14066667D01*
X46233334Y-14033333D01*
X46266667Y-14000000D01*
X46300000Y-13933333D01*
X46300000Y-13800000D01*
X46266667Y-13733333D01*
X46233334Y-13700000D01*
X46166667Y-13666667D01*
X17383334Y-11316667D02*
X17150000Y-10983333D01*
X16983334Y-11316667D02*
X16983334Y-10616667D01*
X17250000Y-10616667D01*
X17316667Y-10650000D01*
X17350000Y-10683333D01*
X17383334Y-10750000D01*
X17383334Y-10850000D01*
X17350000Y-10916667D01*
X17316667Y-10950000D01*
X17250000Y-10983333D01*
X16983334Y-10983333D01*
X17716667Y-11316667D02*
X17850000Y-11316667D01*
X17916667Y-11283333D01*
X17950000Y-11250000D01*
X18016667Y-11150000D01*
X18050000Y-11016667D01*
X18050000Y-10750000D01*
X18016667Y-10683333D01*
X17983334Y-10650000D01*
X17916667Y-10616667D01*
X17783334Y-10616667D01*
X17716667Y-10650000D01*
X17683334Y-10683333D01*
X17650000Y-10750000D01*
X17650000Y-10916667D01*
X17683334Y-10983333D01*
X17716667Y-11016667D01*
X17783334Y-11050000D01*
X17916667Y-11050000D01*
X17983334Y-11016667D01*
X18016667Y-10983333D01*
X18050000Y-10916667D01*
X24550000Y-11316667D02*
X24316666Y-10983333D01*
X24150000Y-11316667D02*
X24150000Y-10616667D01*
X24416666Y-10616667D01*
X24483333Y-10650000D01*
X24516666Y-10683333D01*
X24550000Y-10750000D01*
X24550000Y-10850000D01*
X24516666Y-10916667D01*
X24483333Y-10950000D01*
X24416666Y-10983333D01*
X24150000Y-10983333D01*
X25216666Y-11316667D02*
X24816666Y-11316667D01*
X25016666Y-11316667D02*
X25016666Y-10616667D01*
X24950000Y-10716667D01*
X24883333Y-10783333D01*
X24816666Y-10816667D01*
X25650000Y-10616667D02*
X25716667Y-10616667D01*
X25783333Y-10650000D01*
X25816667Y-10683333D01*
X25850000Y-10750000D01*
X25883333Y-10883333D01*
X25883333Y-11050000D01*
X25850000Y-11183333D01*
X25816667Y-11250000D01*
X25783333Y-11283333D01*
X25716667Y-11316667D01*
X25650000Y-11316667D01*
X25583333Y-11283333D01*
X25550000Y-11250000D01*
X25516667Y-11183333D01*
X25483333Y-11050000D01*
X25483333Y-10883333D01*
X25516667Y-10750000D01*
X25550000Y-10683333D01*
X25583333Y-10650000D01*
X25650000Y-10616667D01*
X22550000Y-11316667D02*
X22316666Y-10983333D01*
X22150000Y-11316667D02*
X22150000Y-10616667D01*
X22416666Y-10616667D01*
X22483333Y-10650000D01*
X22516666Y-10683333D01*
X22550000Y-10750000D01*
X22550000Y-10850000D01*
X22516666Y-10916667D01*
X22483333Y-10950000D01*
X22416666Y-10983333D01*
X22150000Y-10983333D01*
X23216666Y-11316667D02*
X22816666Y-11316667D01*
X23016666Y-11316667D02*
X23016666Y-10616667D01*
X22950000Y-10716667D01*
X22883333Y-10783333D01*
X22816666Y-10816667D01*
X23883333Y-11316667D02*
X23483333Y-11316667D01*
X23683333Y-11316667D02*
X23683333Y-10616667D01*
X23616667Y-10716667D01*
X23550000Y-10783333D01*
X23483333Y-10816667D01*
X24550000Y-10566667D02*
X24316666Y-10233333D01*
X24150000Y-10566667D02*
X24150000Y-9866667D01*
X24416666Y-9866667D01*
X24483333Y-9900000D01*
X24516666Y-9933333D01*
X24550000Y-10000000D01*
X24550000Y-10100000D01*
X24516666Y-10166667D01*
X24483333Y-10200000D01*
X24416666Y-10233333D01*
X24150000Y-10233333D01*
X25216666Y-10566667D02*
X24816666Y-10566667D01*
X25016666Y-10566667D02*
X25016666Y-9866667D01*
X24950000Y-9966667D01*
X24883333Y-10033333D01*
X24816666Y-10066667D01*
X25483333Y-9933333D02*
X25516667Y-9900000D01*
X25583333Y-9866667D01*
X25750000Y-9866667D01*
X25816667Y-9900000D01*
X25850000Y-9933333D01*
X25883333Y-10000000D01*
X25883333Y-10066667D01*
X25850000Y-10166667D01*
X25450000Y-10566667D01*
X25883333Y-10566667D01*
X11550000Y-10816667D02*
X11316666Y-10483333D01*
X11150000Y-10816667D02*
X11150000Y-10116667D01*
X11416666Y-10116667D01*
X11483333Y-10150000D01*
X11516666Y-10183333D01*
X11550000Y-10250000D01*
X11550000Y-10350000D01*
X11516666Y-10416667D01*
X11483333Y-10450000D01*
X11416666Y-10483333D01*
X11150000Y-10483333D01*
X12216666Y-10816667D02*
X11816666Y-10816667D01*
X12016666Y-10816667D02*
X12016666Y-10116667D01*
X11950000Y-10216667D01*
X11883333Y-10283333D01*
X11816666Y-10316667D01*
X12450000Y-10116667D02*
X12883333Y-10116667D01*
X12650000Y-10383333D01*
X12750000Y-10383333D01*
X12816667Y-10416667D01*
X12850000Y-10450000D01*
X12883333Y-10516667D01*
X12883333Y-10683333D01*
X12850000Y-10750000D01*
X12816667Y-10783333D01*
X12750000Y-10816667D01*
X12550000Y-10816667D01*
X12483333Y-10783333D01*
X12450000Y-10750000D01*
X41300000Y-14066667D02*
X41066666Y-13733333D01*
X40900000Y-14066667D02*
X40900000Y-13366667D01*
X41166666Y-13366667D01*
X41233333Y-13400000D01*
X41266666Y-13433333D01*
X41300000Y-13500000D01*
X41300000Y-13600000D01*
X41266666Y-13666667D01*
X41233333Y-13700000D01*
X41166666Y-13733333D01*
X40900000Y-13733333D01*
X41966666Y-14066667D02*
X41566666Y-14066667D01*
X41766666Y-14066667D02*
X41766666Y-13366667D01*
X41700000Y-13466667D01*
X41633333Y-13533333D01*
X41566666Y-13566667D01*
X42566667Y-13600000D02*
X42566667Y-14066667D01*
X42400000Y-13333333D02*
X42233333Y-13833333D01*
X42666667Y-13833333D01*
X13550000Y-10816667D02*
X13316666Y-10483333D01*
X13150000Y-10816667D02*
X13150000Y-10116667D01*
X13416666Y-10116667D01*
X13483333Y-10150000D01*
X13516666Y-10183333D01*
X13550000Y-10250000D01*
X13550000Y-10350000D01*
X13516666Y-10416667D01*
X13483333Y-10450000D01*
X13416666Y-10483333D01*
X13150000Y-10483333D01*
X14216666Y-10816667D02*
X13816666Y-10816667D01*
X14016666Y-10816667D02*
X14016666Y-10116667D01*
X13950000Y-10216667D01*
X13883333Y-10283333D01*
X13816666Y-10316667D01*
X14850000Y-10116667D02*
X14516667Y-10116667D01*
X14483333Y-10450000D01*
X14516667Y-10416667D01*
X14583333Y-10383333D01*
X14750000Y-10383333D01*
X14816667Y-10416667D01*
X14850000Y-10450000D01*
X14883333Y-10516667D01*
X14883333Y-10683333D01*
X14850000Y-10750000D01*
X14816667Y-10783333D01*
X14750000Y-10816667D01*
X14583333Y-10816667D01*
X14516667Y-10783333D01*
X14483333Y-10750000D01*
X43300000Y-14066667D02*
X43066666Y-13733333D01*
X42900000Y-14066667D02*
X42900000Y-13366667D01*
X43166666Y-13366667D01*
X43233333Y-13400000D01*
X43266666Y-13433333D01*
X43300000Y-13500000D01*
X43300000Y-13600000D01*
X43266666Y-13666667D01*
X43233333Y-13700000D01*
X43166666Y-13733333D01*
X42900000Y-13733333D01*
X43966666Y-14066667D02*
X43566666Y-14066667D01*
X43766666Y-14066667D02*
X43766666Y-13366667D01*
X43700000Y-13466667D01*
X43633333Y-13533333D01*
X43566666Y-13566667D01*
X44566667Y-13366667D02*
X44433333Y-13366667D01*
X44366667Y-13400000D01*
X44333333Y-13433333D01*
X44266667Y-13533333D01*
X44233333Y-13666667D01*
X44233333Y-13933333D01*
X44266667Y-14000000D01*
X44300000Y-14033333D01*
X44366667Y-14066667D01*
X44500000Y-14066667D01*
X44566667Y-14033333D01*
X44600000Y-14000000D01*
X44633333Y-13933333D01*
X44633333Y-13766667D01*
X44600000Y-13700000D01*
X44566667Y-13666667D01*
X44500000Y-13633333D01*
X44366667Y-13633333D01*
X44300000Y-13666667D01*
X44266667Y-13700000D01*
X44233333Y-13766667D01*
X43300000Y-19316667D02*
X43066666Y-18983333D01*
X42900000Y-19316667D02*
X42900000Y-18616667D01*
X43166666Y-18616667D01*
X43233333Y-18650000D01*
X43266666Y-18683333D01*
X43300000Y-18750000D01*
X43300000Y-18850000D01*
X43266666Y-18916667D01*
X43233333Y-18950000D01*
X43166666Y-18983333D01*
X42900000Y-18983333D01*
X43966666Y-19316667D02*
X43566666Y-19316667D01*
X43766666Y-19316667D02*
X43766666Y-18616667D01*
X43700000Y-18716667D01*
X43633333Y-18783333D01*
X43566666Y-18816667D01*
X44200000Y-18616667D02*
X44666667Y-18616667D01*
X44366667Y-19316667D01*
X22550000Y-10566667D02*
X22316666Y-10233333D01*
X22150000Y-10566667D02*
X22150000Y-9866667D01*
X22416666Y-9866667D01*
X22483333Y-9900000D01*
X22516666Y-9933333D01*
X22550000Y-10000000D01*
X22550000Y-10100000D01*
X22516666Y-10166667D01*
X22483333Y-10200000D01*
X22416666Y-10233333D01*
X22150000Y-10233333D01*
X23216666Y-10566667D02*
X22816666Y-10566667D01*
X23016666Y-10566667D02*
X23016666Y-9866667D01*
X22950000Y-9966667D01*
X22883333Y-10033333D01*
X22816666Y-10066667D01*
X23550000Y-10566667D02*
X23683333Y-10566667D01*
X23750000Y-10533333D01*
X23783333Y-10500000D01*
X23850000Y-10400000D01*
X23883333Y-10266667D01*
X23883333Y-10000000D01*
X23850000Y-9933333D01*
X23816667Y-9900000D01*
X23750000Y-9866667D01*
X23616667Y-9866667D01*
X23550000Y-9900000D01*
X23516667Y-9933333D01*
X23483333Y-10000000D01*
X23483333Y-10166667D01*
X23516667Y-10233333D01*
X23550000Y-10266667D01*
X23616667Y-10300000D01*
X23750000Y-10300000D01*
X23816667Y-10266667D01*
X23850000Y-10233333D01*
X23883333Y-10166667D01*
X69066667Y-3950000D02*
X68733333Y-4183334D01*
X69066667Y-4350000D02*
X68366667Y-4350000D01*
X68366667Y-4083334D01*
X68400000Y-4016667D01*
X68433333Y-3983334D01*
X68500000Y-3950000D01*
X68600000Y-3950000D01*
X68666667Y-3983334D01*
X68700000Y-4016667D01*
X68733333Y-4083334D01*
X68733333Y-4350000D01*
X68433333Y-3683334D02*
X68400000Y-3650000D01*
X68366667Y-3583334D01*
X68366667Y-3416667D01*
X68400000Y-3350000D01*
X68433333Y-3316667D01*
X68500000Y-3283334D01*
X68566667Y-3283334D01*
X68666667Y-3316667D01*
X69066667Y-3716667D01*
X69066667Y-3283334D01*
X69066667Y-2616667D02*
X69066667Y-3016667D01*
X69066667Y-2816667D02*
X68366667Y-2816667D01*
X68466667Y-2883333D01*
X68533333Y-2950000D01*
X68566667Y-3016667D01*
X66566667Y-3950000D02*
X66233333Y-4183334D01*
X66566667Y-4350000D02*
X65866667Y-4350000D01*
X65866667Y-4083334D01*
X65900000Y-4016667D01*
X65933333Y-3983334D01*
X66000000Y-3950000D01*
X66100000Y-3950000D01*
X66166667Y-3983334D01*
X66200000Y-4016667D01*
X66233333Y-4083334D01*
X66233333Y-4350000D01*
X65933333Y-3683334D02*
X65900000Y-3650000D01*
X65866667Y-3583334D01*
X65866667Y-3416667D01*
X65900000Y-3350000D01*
X65933333Y-3316667D01*
X66000000Y-3283334D01*
X66066667Y-3283334D01*
X66166667Y-3316667D01*
X66566667Y-3716667D01*
X66566667Y-3283334D01*
X65933333Y-3016667D02*
X65900000Y-2983333D01*
X65866667Y-2916667D01*
X65866667Y-2750000D01*
X65900000Y-2683333D01*
X65933333Y-2650000D01*
X66000000Y-2616667D01*
X66066667Y-2616667D01*
X66166667Y-2650000D01*
X66566667Y-3050000D01*
X66566667Y-2616667D01*
X29816667Y-17950000D02*
X29483333Y-18183334D01*
X29816667Y-18350000D02*
X29116667Y-18350000D01*
X29116667Y-18083334D01*
X29150000Y-18016667D01*
X29183333Y-17983334D01*
X29250000Y-17950000D01*
X29350000Y-17950000D01*
X29416667Y-17983334D01*
X29450000Y-18016667D01*
X29483333Y-18083334D01*
X29483333Y-18350000D01*
X29183333Y-17683334D02*
X29150000Y-17650000D01*
X29116667Y-17583334D01*
X29116667Y-17416667D01*
X29150000Y-17350000D01*
X29183333Y-17316667D01*
X29250000Y-17283334D01*
X29316667Y-17283334D01*
X29416667Y-17316667D01*
X29816667Y-17716667D01*
X29816667Y-17283334D01*
X29350000Y-16683333D02*
X29816667Y-16683333D01*
X29083333Y-16850000D02*
X29583333Y-17016667D01*
X29583333Y-16583333D01*
X41300000Y-19316667D02*
X41066666Y-18983333D01*
X40900000Y-19316667D02*
X40900000Y-18616667D01*
X41166666Y-18616667D01*
X41233333Y-18650000D01*
X41266666Y-18683333D01*
X41300000Y-18750000D01*
X41300000Y-18850000D01*
X41266666Y-18916667D01*
X41233333Y-18950000D01*
X41166666Y-18983333D01*
X40900000Y-18983333D01*
X41566666Y-18683333D02*
X41600000Y-18650000D01*
X41666666Y-18616667D01*
X41833333Y-18616667D01*
X41900000Y-18650000D01*
X41933333Y-18683333D01*
X41966666Y-18750000D01*
X41966666Y-18816667D01*
X41933333Y-18916667D01*
X41533333Y-19316667D01*
X41966666Y-19316667D01*
X42566667Y-18616667D02*
X42433333Y-18616667D01*
X42366667Y-18650000D01*
X42333333Y-18683333D01*
X42266667Y-18783333D01*
X42233333Y-18916667D01*
X42233333Y-19183333D01*
X42266667Y-19250000D01*
X42300000Y-19283333D01*
X42366667Y-19316667D01*
X42500000Y-19316667D01*
X42566667Y-19283333D01*
X42600000Y-19250000D01*
X42633333Y-19183333D01*
X42633333Y-19016667D01*
X42600000Y-18950000D01*
X42566667Y-18916667D01*
X42500000Y-18883333D01*
X42366667Y-18883333D01*
X42300000Y-18916667D01*
X42266667Y-18950000D01*
X42233333Y-19016667D01*
X18466667Y-11116667D02*
X18866667Y-11116667D01*
X18666667Y-11816667D02*
X18666667Y-11116667D01*
X19033333Y-11116667D02*
X19466666Y-11116667D01*
X19233333Y-11383333D01*
X19333333Y-11383333D01*
X19400000Y-11416667D01*
X19433333Y-11450000D01*
X19466666Y-11516667D01*
X19466666Y-11683333D01*
X19433333Y-11750000D01*
X19400000Y-11783333D01*
X19333333Y-11816667D01*
X19133333Y-11816667D01*
X19066666Y-11783333D01*
X19033333Y-11750000D01*
X37966667Y-29116667D02*
X37966667Y-29683333D01*
X38000000Y-29750000D01*
X38033333Y-29783333D01*
X38100000Y-29816667D01*
X38233333Y-29816667D01*
X38300000Y-29783333D01*
X38333333Y-29750000D01*
X38366667Y-29683333D01*
X38366667Y-29116667D01*
X39066666Y-29816667D02*
X38666666Y-29816667D01*
X38866666Y-29816667D02*
X38866666Y-29116667D01*
X38800000Y-29216667D01*
X38733333Y-29283333D01*
X38666666Y-29316667D01*
X28466667Y-10366667D02*
X28466667Y-10933333D01*
X28500000Y-11000000D01*
X28533333Y-11033333D01*
X28600000Y-11066667D01*
X28733333Y-11066667D01*
X28800000Y-11033333D01*
X28833333Y-11000000D01*
X28866667Y-10933333D01*
X28866667Y-10366667D01*
X29500000Y-10600000D02*
X29500000Y-11066667D01*
X29333333Y-10333333D02*
X29166666Y-10833333D01*
X29600000Y-10833333D01*
X54983334Y-23816667D02*
X54983334Y-23116667D01*
X55150000Y-23116667D01*
X55250000Y-23150000D01*
X55316667Y-23216667D01*
X55350000Y-23283333D01*
X55383334Y-23416667D01*
X55383334Y-23516667D01*
X55350000Y-23650000D01*
X55316667Y-23716667D01*
X55250000Y-23783333D01*
X55150000Y-23816667D01*
X54983334Y-23816667D01*
X55616667Y-23116667D02*
X56050000Y-23116667D01*
X55816667Y-23383333D01*
X55916667Y-23383333D01*
X55983334Y-23416667D01*
X56016667Y-23450000D01*
X56050000Y-23516667D01*
X56050000Y-23683333D01*
X56016667Y-23750000D01*
X55983334Y-23783333D01*
X55916667Y-23816667D01*
X55716667Y-23816667D01*
X55650000Y-23783333D01*
X55616667Y-23750000D01*
X983334Y-18316667D02*
X983334Y-17616667D01*
X1150000Y-17616667D01*
X1250000Y-17650000D01*
X1316667Y-17716667D01*
X1350000Y-17783333D01*
X1383334Y-17916667D01*
X1383334Y-18016667D01*
X1350000Y-18150000D01*
X1316667Y-18216667D01*
X1250000Y-18283333D01*
X1150000Y-18316667D01*
X983334Y-18316667D01*
X2016667Y-17616667D02*
X1683334Y-17616667D01*
X1650000Y-17950000D01*
X1683334Y-17916667D01*
X1750000Y-17883333D01*
X1916667Y-17883333D01*
X1983334Y-17916667D01*
X2016667Y-17950000D01*
X2050000Y-18016667D01*
X2050000Y-18183333D01*
X2016667Y-18250000D01*
X1983334Y-18283333D01*
X1916667Y-18316667D01*
X1750000Y-18316667D01*
X1683334Y-18283333D01*
X1650000Y-18250000D01*
X48883334Y-29750000D02*
X48850000Y-29783333D01*
X48750000Y-29816667D01*
X48683334Y-29816667D01*
X48583334Y-29783333D01*
X48516667Y-29716667D01*
X48483334Y-29650000D01*
X48450000Y-29516667D01*
X48450000Y-29416667D01*
X48483334Y-29283333D01*
X48516667Y-29216667D01*
X48583334Y-29150000D01*
X48683334Y-29116667D01*
X48750000Y-29116667D01*
X48850000Y-29150000D01*
X48883334Y-29183333D01*
X49483334Y-29350000D02*
X49483334Y-29816667D01*
X49316667Y-29083333D02*
X49150000Y-29583333D01*
X49583334Y-29583333D01*
X30800000Y-19000000D02*
X30766666Y-19033333D01*
X30666666Y-19066667D01*
X30600000Y-19066667D01*
X30500000Y-19033333D01*
X30433333Y-18966667D01*
X30400000Y-18900000D01*
X30366666Y-18766667D01*
X30366666Y-18666667D01*
X30400000Y-18533333D01*
X30433333Y-18466667D01*
X30500000Y-18400000D01*
X30600000Y-18366667D01*
X30666666Y-18366667D01*
X30766666Y-18400000D01*
X30800000Y-18433333D01*
X31466666Y-19066667D02*
X31066666Y-19066667D01*
X31266666Y-19066667D02*
X31266666Y-18366667D01*
X31200000Y-18466667D01*
X31133333Y-18533333D01*
X31066666Y-18566667D01*
X32133333Y-19066667D02*
X31733333Y-19066667D01*
X31933333Y-19066667D02*
X31933333Y-18366667D01*
X31866667Y-18466667D01*
X31800000Y-18533333D01*
X31733333Y-18566667D01*
X30300000Y-21250000D02*
X30266666Y-21283333D01*
X30166666Y-21316667D01*
X30100000Y-21316667D01*
X30000000Y-21283333D01*
X29933333Y-21216667D01*
X29900000Y-21150000D01*
X29866666Y-21016667D01*
X29866666Y-20916667D01*
X29900000Y-20783333D01*
X29933333Y-20716667D01*
X30000000Y-20650000D01*
X30100000Y-20616667D01*
X30166666Y-20616667D01*
X30266666Y-20650000D01*
X30300000Y-20683333D01*
X30566666Y-20683333D02*
X30600000Y-20650000D01*
X30666666Y-20616667D01*
X30833333Y-20616667D01*
X30900000Y-20650000D01*
X30933333Y-20683333D01*
X30966666Y-20750000D01*
X30966666Y-20816667D01*
X30933333Y-20916667D01*
X30533333Y-21316667D01*
X30966666Y-21316667D01*
X31200000Y-20616667D02*
X31633333Y-20616667D01*
X31400000Y-20883333D01*
X31500000Y-20883333D01*
X31566667Y-20916667D01*
X31600000Y-20950000D01*
X31633333Y-21016667D01*
X31633333Y-21183333D01*
X31600000Y-21250000D01*
X31566667Y-21283333D01*
X31500000Y-21316667D01*
X31300000Y-21316667D01*
X31233333Y-21283333D01*
X31200000Y-21250000D01*
X33300000Y-21250000D02*
X33266666Y-21283333D01*
X33166666Y-21316667D01*
X33100000Y-21316667D01*
X33000000Y-21283333D01*
X32933333Y-21216667D01*
X32900000Y-21150000D01*
X32866666Y-21016667D01*
X32866666Y-20916667D01*
X32900000Y-20783333D01*
X32933333Y-20716667D01*
X33000000Y-20650000D01*
X33100000Y-20616667D01*
X33166666Y-20616667D01*
X33266666Y-20650000D01*
X33300000Y-20683333D01*
X33566666Y-20683333D02*
X33600000Y-20650000D01*
X33666666Y-20616667D01*
X33833333Y-20616667D01*
X33900000Y-20650000D01*
X33933333Y-20683333D01*
X33966666Y-20750000D01*
X33966666Y-20816667D01*
X33933333Y-20916667D01*
X33533333Y-21316667D01*
X33966666Y-21316667D01*
X34233333Y-20683333D02*
X34266667Y-20650000D01*
X34333333Y-20616667D01*
X34500000Y-20616667D01*
X34566667Y-20650000D01*
X34600000Y-20683333D01*
X34633333Y-20750000D01*
X34633333Y-20816667D01*
X34600000Y-20916667D01*
X34200000Y-21316667D01*
X34633333Y-21316667D01*
X35800000Y-21250000D02*
X35766666Y-21283333D01*
X35666666Y-21316667D01*
X35600000Y-21316667D01*
X35500000Y-21283333D01*
X35433333Y-21216667D01*
X35400000Y-21150000D01*
X35366666Y-21016667D01*
X35366666Y-20916667D01*
X35400000Y-20783333D01*
X35433333Y-20716667D01*
X35500000Y-20650000D01*
X35600000Y-20616667D01*
X35666666Y-20616667D01*
X35766666Y-20650000D01*
X35800000Y-20683333D01*
X36066666Y-20683333D02*
X36100000Y-20650000D01*
X36166666Y-20616667D01*
X36333333Y-20616667D01*
X36400000Y-20650000D01*
X36433333Y-20683333D01*
X36466666Y-20750000D01*
X36466666Y-20816667D01*
X36433333Y-20916667D01*
X36033333Y-21316667D01*
X36466666Y-21316667D01*
X37066667Y-20850000D02*
X37066667Y-21316667D01*
X36900000Y-20583333D02*
X36733333Y-21083333D01*
X37166667Y-21083333D01*
X51300000Y-29750000D02*
X51266666Y-29783333D01*
X51166666Y-29816667D01*
X51100000Y-29816667D01*
X51000000Y-29783333D01*
X50933333Y-29716667D01*
X50900000Y-29650000D01*
X50866666Y-29516667D01*
X50866666Y-29416667D01*
X50900000Y-29283333D01*
X50933333Y-29216667D01*
X51000000Y-29150000D01*
X51100000Y-29116667D01*
X51166666Y-29116667D01*
X51266666Y-29150000D01*
X51300000Y-29183333D01*
X51566666Y-29183333D02*
X51600000Y-29150000D01*
X51666666Y-29116667D01*
X51833333Y-29116667D01*
X51900000Y-29150000D01*
X51933333Y-29183333D01*
X51966666Y-29250000D01*
X51966666Y-29316667D01*
X51933333Y-29416667D01*
X51533333Y-29816667D01*
X51966666Y-29816667D01*
X52600000Y-29116667D02*
X52266667Y-29116667D01*
X52233333Y-29450000D01*
X52266667Y-29416667D01*
X52333333Y-29383333D01*
X52500000Y-29383333D01*
X52566667Y-29416667D01*
X52600000Y-29450000D01*
X52633333Y-29516667D01*
X52633333Y-29683333D01*
X52600000Y-29750000D01*
X52566667Y-29783333D01*
X52500000Y-29816667D01*
X52333333Y-29816667D01*
X52266667Y-29783333D01*
X52233333Y-29750000D01*
X38733334Y-21316667D02*
X38733334Y-20616667D01*
X38900000Y-20616667D01*
X39000000Y-20650000D01*
X39066667Y-20716667D01*
X39100000Y-20783333D01*
X39133334Y-20916667D01*
X39133334Y-21016667D01*
X39100000Y-21150000D01*
X39066667Y-21216667D01*
X39000000Y-21283333D01*
X38900000Y-21316667D01*
X38733334Y-21316667D01*
X39533334Y-20916667D02*
X39466667Y-20883333D01*
X39433334Y-20850000D01*
X39400000Y-20783333D01*
X39400000Y-20750000D01*
X39433334Y-20683333D01*
X39466667Y-20650000D01*
X39533334Y-20616667D01*
X39666667Y-20616667D01*
X39733334Y-20650000D01*
X39766667Y-20683333D01*
X39800000Y-20750000D01*
X39800000Y-20783333D01*
X39766667Y-20850000D01*
X39733334Y-20883333D01*
X39666667Y-20916667D01*
X39533334Y-20916667D01*
X39466667Y-20950000D01*
X39433334Y-20983333D01*
X39400000Y-21050000D01*
X39400000Y-21183333D01*
X39433334Y-21250000D01*
X39466667Y-21283333D01*
X39533334Y-21316667D01*
X39666667Y-21316667D01*
X39733334Y-21283333D01*
X39766667Y-21250000D01*
X39800000Y-21183333D01*
X39800000Y-21050000D01*
X39766667Y-20983333D01*
X39733334Y-20950000D01*
X39666667Y-20916667D01*
X42633334Y-21316667D02*
X42400000Y-20983333D01*
X42233334Y-21316667D02*
X42233334Y-20616667D01*
X42500000Y-20616667D01*
X42566667Y-20650000D01*
X42600000Y-20683333D01*
X42633334Y-20750000D01*
X42633334Y-20850000D01*
X42600000Y-20916667D01*
X42566667Y-20950000D01*
X42500000Y-20983333D01*
X42233334Y-20983333D01*
X43266667Y-20616667D02*
X42933334Y-20616667D01*
X42900000Y-20950000D01*
X42933334Y-20916667D01*
X43000000Y-20883333D01*
X43166667Y-20883333D01*
X43233334Y-20916667D01*
X43266667Y-20950000D01*
X43300000Y-21016667D01*
X43300000Y-21183333D01*
X43266667Y-21250000D01*
X43233334Y-21283333D01*
X43166667Y-21316667D01*
X43000000Y-21316667D01*
X42933334Y-21283333D01*
X42900000Y-21250000D01*
X57216667Y-7366667D02*
X57616667Y-7366667D01*
X57416667Y-8066667D02*
X57416667Y-7366667D01*
X58216666Y-8066667D02*
X57816666Y-8066667D01*
X58016666Y-8066667D02*
X58016666Y-7366667D01*
X57950000Y-7466667D01*
X57883333Y-7533333D01*
X57816666Y-7566667D01*
X1800000Y-8000000D02*
X1766666Y-8033333D01*
X1666666Y-8066667D01*
X1600000Y-8066667D01*
X1500000Y-8033333D01*
X1433333Y-7966667D01*
X1400000Y-7900000D01*
X1366666Y-7766667D01*
X1366666Y-7666667D01*
X1400000Y-7533333D01*
X1433333Y-7466667D01*
X1500000Y-7400000D01*
X1600000Y-7366667D01*
X1666666Y-7366667D01*
X1766666Y-7400000D01*
X1800000Y-7433333D01*
X2466666Y-8066667D02*
X2066666Y-8066667D01*
X2266666Y-8066667D02*
X2266666Y-7366667D01*
X2200000Y-7466667D01*
X2133333Y-7533333D01*
X2066666Y-7566667D01*
X2733333Y-7433333D02*
X2766667Y-7400000D01*
X2833333Y-7366667D01*
X3000000Y-7366667D01*
X3066667Y-7400000D01*
X3100000Y-7433333D01*
X3133333Y-7500000D01*
X3133333Y-7566667D01*
X3100000Y-7666667D01*
X2700000Y-8066667D01*
X3133333Y-8066667D01*
X12050000Y-13000000D02*
X12016666Y-13033333D01*
X11916666Y-13066667D01*
X11850000Y-13066667D01*
X11750000Y-13033333D01*
X11683333Y-12966667D01*
X11650000Y-12900000D01*
X11616666Y-12766667D01*
X11616666Y-12666667D01*
X11650000Y-12533333D01*
X11683333Y-12466667D01*
X11750000Y-12400000D01*
X11850000Y-12366667D01*
X11916666Y-12366667D01*
X12016666Y-12400000D01*
X12050000Y-12433333D01*
X12716666Y-13066667D02*
X12316666Y-13066667D01*
X12516666Y-13066667D02*
X12516666Y-12366667D01*
X12450000Y-12466667D01*
X12383333Y-12533333D01*
X12316666Y-12566667D01*
X12950000Y-12366667D02*
X13383333Y-12366667D01*
X13150000Y-12633333D01*
X13250000Y-12633333D01*
X13316667Y-12666667D01*
X13350000Y-12700000D01*
X13383333Y-12766667D01*
X13383333Y-12933333D01*
X13350000Y-13000000D01*
X13316667Y-13033333D01*
X13250000Y-13066667D01*
X13050000Y-13066667D01*
X12983333Y-13033333D01*
X12950000Y-13000000D01*
X9466667Y-16616667D02*
X9866667Y-16616667D01*
X9666667Y-17316667D02*
X9666667Y-16616667D01*
X10066666Y-16683333D02*
X10100000Y-16650000D01*
X10166666Y-16616667D01*
X10333333Y-16616667D01*
X10400000Y-16650000D01*
X10433333Y-16683333D01*
X10466666Y-16750000D01*
X10466666Y-16816667D01*
X10433333Y-16916667D01*
X10033333Y-17316667D01*
X10466666Y-17316667D01*
X6566667Y-7016666D02*
X5866667Y-7016666D01*
X5866667Y-6750000D01*
X5900000Y-6683333D01*
X5933333Y-6650000D01*
X6000000Y-6616666D01*
X6100000Y-6616666D01*
X6166667Y-6650000D01*
X6200000Y-6683333D01*
X6233333Y-6750000D01*
X6233333Y-7016666D01*
X5933333Y-6350000D02*
X5900000Y-6316666D01*
X5866667Y-6250000D01*
X5866667Y-6083333D01*
X5900000Y-6016666D01*
X5933333Y-5983333D01*
X6000000Y-5950000D01*
X6066667Y-5950000D01*
X6166667Y-5983333D01*
X6566667Y-6383333D01*
X6566667Y-5950000D01*
M02*
